M48
; DRILL file {KiCad 7.0.6-0} date 2023 August 27, Sunday 17:26:50
; FORMAT={-:-/ absolute / metric / decimal}
; #@! TF.CreationDate,2023-08-27T17:26:50+10:00
; #@! TF.GenerationSoftware,Kicad,Pcbnew,7.0.6-0
; #@! TF.FileFunction,Plated,1,2,PTH
FMAT,2
METRIC
; #@! TA.AperFunction,Plated,PTH,ViaDrill
T1C0.330
; #@! TA.AperFunction,Plated,PTH,ComponentDrill
T2C0.800
; #@! TA.AperFunction,Plated,PTH,ComponentDrill
T3C1.000
%
G90
G05
T1
X94.36Y-89.528
X94.711Y-85.538
X95.716Y-85.328
T2
X77.554Y-86.768
X77.554Y-89.308
X77.554Y-91.848
X77.554Y-94.388
X77.554Y-96.928
X77.554Y-99.468
X77.554Y-102.008
X77.554Y-104.548
X77.554Y-107.088
X77.572Y-57.146
X77.572Y-59.686
X77.572Y-62.226
X77.572Y-64.766
X77.572Y-67.306
X77.572Y-69.846
X77.572Y-72.386
X77.572Y-74.926
X77.572Y-77.466
X85.174Y-86.768
X85.174Y-89.308
X85.174Y-91.848
X85.174Y-94.388
X85.174Y-96.928
X85.174Y-99.468
X85.174Y-102.008
X85.174Y-104.548
X85.174Y-107.088
X85.192Y-57.146
X85.192Y-59.686
X85.192Y-62.226
X85.192Y-64.766
X85.192Y-67.306
X85.192Y-69.846
X85.192Y-72.386
X85.192Y-74.926
X85.192Y-77.466
X90.06Y-57.146
X90.06Y-59.686
X90.06Y-62.226
X90.06Y-64.766
X90.06Y-67.306
X90.06Y-69.846
X90.06Y-72.386
X90.06Y-74.926
X90.06Y-77.466
X90.423Y-88.47
X90.423Y-93.37
X97.68Y-57.146
X97.68Y-59.686
X97.68Y-62.226
X97.68Y-64.766
X97.68Y-67.306
X97.68Y-69.846
X97.68Y-72.386
X97.68Y-74.926
X97.68Y-77.466
T3
X90.423Y-100.778
X90.423Y-103.318
X90.423Y-105.858
X90.423Y-108.398
T0
M30
