%TF.GenerationSoftware,KiCad,Pcbnew,7.0.6-0*%
%TF.CreationDate,2023-08-27T17:26:49+10:00*%
%TF.ProjectId,PC-SPRINT_SMD,50432d53-5052-4494-9e54-5f534d442e6b,rev?*%
%TF.SameCoordinates,Original*%
%TF.FileFunction,Drillmap*%
%TF.FilePolarity,Positive*%
%FSLAX45Y45*%
G04 Gerber Fmt 4.5, Leading zero omitted, Abs format (unit mm)*
G04 Created by KiCad (PCBNEW 7.0.6-0) date 2023-08-27 17:26:49*
%MOMM*%
%LPD*%
G01*
G04 APERTURE LIST*
%ADD10C,0.150000*%
%ADD11C,0.200000*%
%ADD12C,0.033020*%
%ADD13C,0.080000*%
%ADD14C,0.100000*%
G04 APERTURE END LIST*
D10*
X10000000Y-11700000D02*
X7500000Y-11700000D01*
X7500000Y-5000000D02*
X10000000Y-5000000D01*
X7500000Y-11700000D02*
X7500000Y-5000000D01*
X10000000Y-5000000D02*
X10000000Y-11700000D01*
D11*
D12*
X9419520Y-8936270D02*
X9452540Y-8969290D01*
X9452540Y-8936270D02*
X9419520Y-8969290D01*
X9454620Y-8537250D02*
X9487640Y-8570270D01*
X9487640Y-8537250D02*
X9454620Y-8570270D01*
X9555050Y-8516250D02*
X9588070Y-8549270D01*
X9588070Y-8516250D02*
X9555050Y-8549270D01*
D13*
X7795430Y-8676790D02*
G75*
G03*
X7795430Y-8676790I-40000J0D01*
G01*
X7795430Y-8930790D02*
G75*
G03*
X7795430Y-8930790I-40000J0D01*
G01*
X7795430Y-9184790D02*
G75*
G03*
X7795430Y-9184790I-40000J0D01*
G01*
X7795430Y-9438790D02*
G75*
G03*
X7795430Y-9438790I-40000J0D01*
G01*
X7795430Y-9692790D02*
G75*
G03*
X7795430Y-9692790I-40000J0D01*
G01*
X7795430Y-9946790D02*
G75*
G03*
X7795430Y-9946790I-40000J0D01*
G01*
X7795430Y-10200790D02*
G75*
G03*
X7795430Y-10200790I-40000J0D01*
G01*
X7795430Y-10454790D02*
G75*
G03*
X7795430Y-10454790I-40000J0D01*
G01*
X7795430Y-10708790D02*
G75*
G03*
X7795430Y-10708790I-40000J0D01*
G01*
X7797190Y-5714560D02*
G75*
G03*
X7797190Y-5714560I-40000J0D01*
G01*
X7797190Y-5968560D02*
G75*
G03*
X7797190Y-5968560I-40000J0D01*
G01*
X7797190Y-6222560D02*
G75*
G03*
X7797190Y-6222560I-40000J0D01*
G01*
X7797190Y-6476560D02*
G75*
G03*
X7797190Y-6476560I-40000J0D01*
G01*
X7797190Y-6730560D02*
G75*
G03*
X7797190Y-6730560I-40000J0D01*
G01*
X7797190Y-6984560D02*
G75*
G03*
X7797190Y-6984560I-40000J0D01*
G01*
X7797190Y-7238560D02*
G75*
G03*
X7797190Y-7238560I-40000J0D01*
G01*
X7797190Y-7492560D02*
G75*
G03*
X7797190Y-7492560I-40000J0D01*
G01*
X7797190Y-7746560D02*
G75*
G03*
X7797190Y-7746560I-40000J0D01*
G01*
X8557430Y-8676790D02*
G75*
G03*
X8557430Y-8676790I-40000J0D01*
G01*
X8557430Y-8930790D02*
G75*
G03*
X8557430Y-8930790I-40000J0D01*
G01*
X8557430Y-9184790D02*
G75*
G03*
X8557430Y-9184790I-40000J0D01*
G01*
X8557430Y-9438790D02*
G75*
G03*
X8557430Y-9438790I-40000J0D01*
G01*
X8557430Y-9692790D02*
G75*
G03*
X8557430Y-9692790I-40000J0D01*
G01*
X8557430Y-9946790D02*
G75*
G03*
X8557430Y-9946790I-40000J0D01*
G01*
X8557430Y-10200790D02*
G75*
G03*
X8557430Y-10200790I-40000J0D01*
G01*
X8557430Y-10454790D02*
G75*
G03*
X8557430Y-10454790I-40000J0D01*
G01*
X8557430Y-10708790D02*
G75*
G03*
X8557430Y-10708790I-40000J0D01*
G01*
X8559190Y-5714560D02*
G75*
G03*
X8559190Y-5714560I-40000J0D01*
G01*
X8559190Y-5968560D02*
G75*
G03*
X8559190Y-5968560I-40000J0D01*
G01*
X8559190Y-6222560D02*
G75*
G03*
X8559190Y-6222560I-40000J0D01*
G01*
X8559190Y-6476560D02*
G75*
G03*
X8559190Y-6476560I-40000J0D01*
G01*
X8559190Y-6730560D02*
G75*
G03*
X8559190Y-6730560I-40000J0D01*
G01*
X8559190Y-6984560D02*
G75*
G03*
X8559190Y-6984560I-40000J0D01*
G01*
X8559190Y-7238560D02*
G75*
G03*
X8559190Y-7238560I-40000J0D01*
G01*
X8559190Y-7492560D02*
G75*
G03*
X8559190Y-7492560I-40000J0D01*
G01*
X8559190Y-7746560D02*
G75*
G03*
X8559190Y-7746560I-40000J0D01*
G01*
X9046040Y-5714560D02*
G75*
G03*
X9046040Y-5714560I-40000J0D01*
G01*
X9046040Y-5968560D02*
G75*
G03*
X9046040Y-5968560I-40000J0D01*
G01*
X9046040Y-6222560D02*
G75*
G03*
X9046040Y-6222560I-40000J0D01*
G01*
X9046040Y-6476560D02*
G75*
G03*
X9046040Y-6476560I-40000J0D01*
G01*
X9046040Y-6730560D02*
G75*
G03*
X9046040Y-6730560I-40000J0D01*
G01*
X9046040Y-6984560D02*
G75*
G03*
X9046040Y-6984560I-40000J0D01*
G01*
X9046040Y-7238560D02*
G75*
G03*
X9046040Y-7238560I-40000J0D01*
G01*
X9046040Y-7492560D02*
G75*
G03*
X9046040Y-7492560I-40000J0D01*
G01*
X9046040Y-7746560D02*
G75*
G03*
X9046040Y-7746560I-40000J0D01*
G01*
X9082290Y-8847030D02*
G75*
G03*
X9082290Y-8847030I-40000J0D01*
G01*
X9082290Y-9337030D02*
G75*
G03*
X9082290Y-9337030I-40000J0D01*
G01*
X9808040Y-5714560D02*
G75*
G03*
X9808040Y-5714560I-40000J0D01*
G01*
X9808040Y-5968560D02*
G75*
G03*
X9808040Y-5968560I-40000J0D01*
G01*
X9808040Y-6222560D02*
G75*
G03*
X9808040Y-6222560I-40000J0D01*
G01*
X9808040Y-6476560D02*
G75*
G03*
X9808040Y-6476560I-40000J0D01*
G01*
X9808040Y-6730560D02*
G75*
G03*
X9808040Y-6730560I-40000J0D01*
G01*
X9808040Y-6984560D02*
G75*
G03*
X9808040Y-6984560I-40000J0D01*
G01*
X9808040Y-7238560D02*
G75*
G03*
X9808040Y-7238560I-40000J0D01*
G01*
X9808040Y-7492560D02*
G75*
G03*
X9808040Y-7492560I-40000J0D01*
G01*
X9808040Y-7746560D02*
G75*
G03*
X9808040Y-7746560I-40000J0D01*
G01*
D14*
X9042290Y-10027810D02*
X9042290Y-10127810D01*
X8992290Y-10077810D02*
X9092290Y-10077810D01*
X9042290Y-10281810D02*
X9042290Y-10381810D01*
X8992290Y-10331810D02*
X9092290Y-10331810D01*
X9042290Y-10535810D02*
X9042290Y-10635810D01*
X8992290Y-10585810D02*
X9092290Y-10585810D01*
X9042290Y-10789810D02*
X9042290Y-10889810D01*
X8992290Y-10839810D02*
X9092290Y-10839810D01*
D11*
X7753277Y-12018984D02*
X7753277Y-11818984D01*
X7753277Y-11818984D02*
X7800896Y-11818984D01*
X7800896Y-11818984D02*
X7829467Y-11828508D01*
X7829467Y-11828508D02*
X7848515Y-11847555D01*
X7848515Y-11847555D02*
X7858039Y-11866603D01*
X7858039Y-11866603D02*
X7867562Y-11904698D01*
X7867562Y-11904698D02*
X7867562Y-11933269D01*
X7867562Y-11933269D02*
X7858039Y-11971365D01*
X7858039Y-11971365D02*
X7848515Y-11990412D01*
X7848515Y-11990412D02*
X7829467Y-12009460D01*
X7829467Y-12009460D02*
X7800896Y-12018984D01*
X7800896Y-12018984D02*
X7753277Y-12018984D01*
X7953277Y-12018984D02*
X7953277Y-11885650D01*
X7953277Y-11923746D02*
X7962801Y-11904698D01*
X7962801Y-11904698D02*
X7972324Y-11895174D01*
X7972324Y-11895174D02*
X7991372Y-11885650D01*
X7991372Y-11885650D02*
X8010420Y-11885650D01*
X8077086Y-12018984D02*
X8077086Y-11885650D01*
X8077086Y-11818984D02*
X8067562Y-11828508D01*
X8067562Y-11828508D02*
X8077086Y-11838031D01*
X8077086Y-11838031D02*
X8086610Y-11828508D01*
X8086610Y-11828508D02*
X8077086Y-11818984D01*
X8077086Y-11818984D02*
X8077086Y-11838031D01*
X8200896Y-12018984D02*
X8181848Y-12009460D01*
X8181848Y-12009460D02*
X8172324Y-11990412D01*
X8172324Y-11990412D02*
X8172324Y-11818984D01*
X8305658Y-12018984D02*
X8286610Y-12009460D01*
X8286610Y-12009460D02*
X8277086Y-11990412D01*
X8277086Y-11990412D02*
X8277086Y-11818984D01*
X8534229Y-12018984D02*
X8534229Y-11818984D01*
X8534229Y-11818984D02*
X8600896Y-11961841D01*
X8600896Y-11961841D02*
X8667563Y-11818984D01*
X8667563Y-11818984D02*
X8667563Y-12018984D01*
X8848515Y-12018984D02*
X8848515Y-11914222D01*
X8848515Y-11914222D02*
X8838991Y-11895174D01*
X8838991Y-11895174D02*
X8819944Y-11885650D01*
X8819944Y-11885650D02*
X8781848Y-11885650D01*
X8781848Y-11885650D02*
X8762801Y-11895174D01*
X8848515Y-12009460D02*
X8829467Y-12018984D01*
X8829467Y-12018984D02*
X8781848Y-12018984D01*
X8781848Y-12018984D02*
X8762801Y-12009460D01*
X8762801Y-12009460D02*
X8753277Y-11990412D01*
X8753277Y-11990412D02*
X8753277Y-11971365D01*
X8753277Y-11971365D02*
X8762801Y-11952317D01*
X8762801Y-11952317D02*
X8781848Y-11942793D01*
X8781848Y-11942793D02*
X8829467Y-11942793D01*
X8829467Y-11942793D02*
X8848515Y-11933269D01*
X8943753Y-11885650D02*
X8943753Y-12085650D01*
X8943753Y-11895174D02*
X8962801Y-11885650D01*
X8962801Y-11885650D02*
X9000896Y-11885650D01*
X9000896Y-11885650D02*
X9019944Y-11895174D01*
X9019944Y-11895174D02*
X9029467Y-11904698D01*
X9029467Y-11904698D02*
X9038991Y-11923746D01*
X9038991Y-11923746D02*
X9038991Y-11980888D01*
X9038991Y-11980888D02*
X9029467Y-11999936D01*
X9029467Y-11999936D02*
X9019944Y-12009460D01*
X9019944Y-12009460D02*
X9000896Y-12018984D01*
X9000896Y-12018984D02*
X8962801Y-12018984D01*
X8962801Y-12018984D02*
X8943753Y-12009460D01*
X9124705Y-11999936D02*
X9134229Y-12009460D01*
X9134229Y-12009460D02*
X9124705Y-12018984D01*
X9124705Y-12018984D02*
X9115182Y-12009460D01*
X9115182Y-12009460D02*
X9124705Y-11999936D01*
X9124705Y-11999936D02*
X9124705Y-12018984D01*
X9124705Y-11895174D02*
X9134229Y-11904698D01*
X9134229Y-11904698D02*
X9124705Y-11914222D01*
X9124705Y-11914222D02*
X9115182Y-11904698D01*
X9115182Y-11904698D02*
X9124705Y-11895174D01*
X9124705Y-11895174D02*
X9124705Y-11914222D01*
D12*
X7459480Y-12330990D02*
X7492500Y-12364010D01*
X7492500Y-12330990D02*
X7459480Y-12364010D01*
D11*
X7791372Y-12238984D02*
X7810420Y-12238984D01*
X7810420Y-12238984D02*
X7829467Y-12248508D01*
X7829467Y-12248508D02*
X7838991Y-12258031D01*
X7838991Y-12258031D02*
X7848515Y-12277079D01*
X7848515Y-12277079D02*
X7858039Y-12315174D01*
X7858039Y-12315174D02*
X7858039Y-12362793D01*
X7858039Y-12362793D02*
X7848515Y-12400888D01*
X7848515Y-12400888D02*
X7838991Y-12419936D01*
X7838991Y-12419936D02*
X7829467Y-12429460D01*
X7829467Y-12429460D02*
X7810420Y-12438984D01*
X7810420Y-12438984D02*
X7791372Y-12438984D01*
X7791372Y-12438984D02*
X7772324Y-12429460D01*
X7772324Y-12429460D02*
X7762801Y-12419936D01*
X7762801Y-12419936D02*
X7753277Y-12400888D01*
X7753277Y-12400888D02*
X7743753Y-12362793D01*
X7743753Y-12362793D02*
X7743753Y-12315174D01*
X7743753Y-12315174D02*
X7753277Y-12277079D01*
X7753277Y-12277079D02*
X7762801Y-12258031D01*
X7762801Y-12258031D02*
X7772324Y-12248508D01*
X7772324Y-12248508D02*
X7791372Y-12238984D01*
X7943753Y-12419936D02*
X7953277Y-12429460D01*
X7953277Y-12429460D02*
X7943753Y-12438984D01*
X7943753Y-12438984D02*
X7934229Y-12429460D01*
X7934229Y-12429460D02*
X7943753Y-12419936D01*
X7943753Y-12419936D02*
X7943753Y-12438984D01*
X8019943Y-12238984D02*
X8143753Y-12238984D01*
X8143753Y-12238984D02*
X8077086Y-12315174D01*
X8077086Y-12315174D02*
X8105658Y-12315174D01*
X8105658Y-12315174D02*
X8124705Y-12324698D01*
X8124705Y-12324698D02*
X8134229Y-12334222D01*
X8134229Y-12334222D02*
X8143753Y-12353269D01*
X8143753Y-12353269D02*
X8143753Y-12400888D01*
X8143753Y-12400888D02*
X8134229Y-12419936D01*
X8134229Y-12419936D02*
X8124705Y-12429460D01*
X8124705Y-12429460D02*
X8105658Y-12438984D01*
X8105658Y-12438984D02*
X8048515Y-12438984D01*
X8048515Y-12438984D02*
X8029467Y-12429460D01*
X8029467Y-12429460D02*
X8019943Y-12419936D01*
X8210420Y-12238984D02*
X8334229Y-12238984D01*
X8334229Y-12238984D02*
X8267562Y-12315174D01*
X8267562Y-12315174D02*
X8296134Y-12315174D01*
X8296134Y-12315174D02*
X8315182Y-12324698D01*
X8315182Y-12324698D02*
X8324705Y-12334222D01*
X8324705Y-12334222D02*
X8334229Y-12353269D01*
X8334229Y-12353269D02*
X8334229Y-12400888D01*
X8334229Y-12400888D02*
X8324705Y-12419936D01*
X8324705Y-12419936D02*
X8315182Y-12429460D01*
X8315182Y-12429460D02*
X8296134Y-12438984D01*
X8296134Y-12438984D02*
X8238991Y-12438984D01*
X8238991Y-12438984D02*
X8219943Y-12429460D01*
X8219943Y-12429460D02*
X8210420Y-12419936D01*
X8458039Y-12238984D02*
X8477086Y-12238984D01*
X8477086Y-12238984D02*
X8496134Y-12248508D01*
X8496134Y-12248508D02*
X8505658Y-12258031D01*
X8505658Y-12258031D02*
X8515182Y-12277079D01*
X8515182Y-12277079D02*
X8524705Y-12315174D01*
X8524705Y-12315174D02*
X8524705Y-12362793D01*
X8524705Y-12362793D02*
X8515182Y-12400888D01*
X8515182Y-12400888D02*
X8505658Y-12419936D01*
X8505658Y-12419936D02*
X8496134Y-12429460D01*
X8496134Y-12429460D02*
X8477086Y-12438984D01*
X8477086Y-12438984D02*
X8458039Y-12438984D01*
X8458039Y-12438984D02*
X8438991Y-12429460D01*
X8438991Y-12429460D02*
X8429467Y-12419936D01*
X8429467Y-12419936D02*
X8419944Y-12400888D01*
X8419944Y-12400888D02*
X8410420Y-12362793D01*
X8410420Y-12362793D02*
X8410420Y-12315174D01*
X8410420Y-12315174D02*
X8419944Y-12277079D01*
X8419944Y-12277079D02*
X8429467Y-12258031D01*
X8429467Y-12258031D02*
X8438991Y-12248508D01*
X8438991Y-12248508D02*
X8458039Y-12238984D01*
X8610420Y-12438984D02*
X8610420Y-12305650D01*
X8610420Y-12324698D02*
X8619944Y-12315174D01*
X8619944Y-12315174D02*
X8638991Y-12305650D01*
X8638991Y-12305650D02*
X8667563Y-12305650D01*
X8667563Y-12305650D02*
X8686610Y-12315174D01*
X8686610Y-12315174D02*
X8696134Y-12334222D01*
X8696134Y-12334222D02*
X8696134Y-12438984D01*
X8696134Y-12334222D02*
X8705658Y-12315174D01*
X8705658Y-12315174D02*
X8724705Y-12305650D01*
X8724705Y-12305650D02*
X8753277Y-12305650D01*
X8753277Y-12305650D02*
X8772325Y-12315174D01*
X8772325Y-12315174D02*
X8781848Y-12334222D01*
X8781848Y-12334222D02*
X8781848Y-12438984D01*
X8877086Y-12438984D02*
X8877086Y-12305650D01*
X8877086Y-12324698D02*
X8886610Y-12315174D01*
X8886610Y-12315174D02*
X8905658Y-12305650D01*
X8905658Y-12305650D02*
X8934229Y-12305650D01*
X8934229Y-12305650D02*
X8953277Y-12315174D01*
X8953277Y-12315174D02*
X8962801Y-12334222D01*
X8962801Y-12334222D02*
X8962801Y-12438984D01*
X8962801Y-12334222D02*
X8972325Y-12315174D01*
X8972325Y-12315174D02*
X8991372Y-12305650D01*
X8991372Y-12305650D02*
X9019944Y-12305650D01*
X9019944Y-12305650D02*
X9038991Y-12315174D01*
X9038991Y-12315174D02*
X9048515Y-12334222D01*
X9048515Y-12334222D02*
X9048515Y-12438984D01*
X9438991Y-12229460D02*
X9267563Y-12486603D01*
X9696134Y-12238984D02*
X9715182Y-12238984D01*
X9715182Y-12238984D02*
X9734229Y-12248508D01*
X9734229Y-12248508D02*
X9743753Y-12258031D01*
X9743753Y-12258031D02*
X9753277Y-12277079D01*
X9753277Y-12277079D02*
X9762801Y-12315174D01*
X9762801Y-12315174D02*
X9762801Y-12362793D01*
X9762801Y-12362793D02*
X9753277Y-12400888D01*
X9753277Y-12400888D02*
X9743753Y-12419936D01*
X9743753Y-12419936D02*
X9734229Y-12429460D01*
X9734229Y-12429460D02*
X9715182Y-12438984D01*
X9715182Y-12438984D02*
X9696134Y-12438984D01*
X9696134Y-12438984D02*
X9677087Y-12429460D01*
X9677087Y-12429460D02*
X9667563Y-12419936D01*
X9667563Y-12419936D02*
X9658039Y-12400888D01*
X9658039Y-12400888D02*
X9648515Y-12362793D01*
X9648515Y-12362793D02*
X9648515Y-12315174D01*
X9648515Y-12315174D02*
X9658039Y-12277079D01*
X9658039Y-12277079D02*
X9667563Y-12258031D01*
X9667563Y-12258031D02*
X9677087Y-12248508D01*
X9677087Y-12248508D02*
X9696134Y-12238984D01*
X9848515Y-12419936D02*
X9858039Y-12429460D01*
X9858039Y-12429460D02*
X9848515Y-12438984D01*
X9848515Y-12438984D02*
X9838991Y-12429460D01*
X9838991Y-12429460D02*
X9848515Y-12419936D01*
X9848515Y-12419936D02*
X9848515Y-12438984D01*
X9981848Y-12238984D02*
X10000896Y-12238984D01*
X10000896Y-12238984D02*
X10019944Y-12248508D01*
X10019944Y-12248508D02*
X10029468Y-12258031D01*
X10029468Y-12258031D02*
X10038991Y-12277079D01*
X10038991Y-12277079D02*
X10048515Y-12315174D01*
X10048515Y-12315174D02*
X10048515Y-12362793D01*
X10048515Y-12362793D02*
X10038991Y-12400888D01*
X10038991Y-12400888D02*
X10029468Y-12419936D01*
X10029468Y-12419936D02*
X10019944Y-12429460D01*
X10019944Y-12429460D02*
X10000896Y-12438984D01*
X10000896Y-12438984D02*
X9981848Y-12438984D01*
X9981848Y-12438984D02*
X9962801Y-12429460D01*
X9962801Y-12429460D02*
X9953277Y-12419936D01*
X9953277Y-12419936D02*
X9943753Y-12400888D01*
X9943753Y-12400888D02*
X9934229Y-12362793D01*
X9934229Y-12362793D02*
X9934229Y-12315174D01*
X9934229Y-12315174D02*
X9943753Y-12277079D01*
X9943753Y-12277079D02*
X9953277Y-12258031D01*
X9953277Y-12258031D02*
X9962801Y-12248508D01*
X9962801Y-12248508D02*
X9981848Y-12238984D01*
X10238991Y-12438984D02*
X10124706Y-12438984D01*
X10181848Y-12438984D02*
X10181848Y-12238984D01*
X10181848Y-12238984D02*
X10162801Y-12267555D01*
X10162801Y-12267555D02*
X10143753Y-12286603D01*
X10143753Y-12286603D02*
X10124706Y-12296127D01*
X10305658Y-12238984D02*
X10429468Y-12238984D01*
X10429468Y-12238984D02*
X10362801Y-12315174D01*
X10362801Y-12315174D02*
X10391372Y-12315174D01*
X10391372Y-12315174D02*
X10410420Y-12324698D01*
X10410420Y-12324698D02*
X10419944Y-12334222D01*
X10419944Y-12334222D02*
X10429468Y-12353269D01*
X10429468Y-12353269D02*
X10429468Y-12400888D01*
X10429468Y-12400888D02*
X10419944Y-12419936D01*
X10419944Y-12419936D02*
X10410420Y-12429460D01*
X10410420Y-12429460D02*
X10391372Y-12438984D01*
X10391372Y-12438984D02*
X10334229Y-12438984D01*
X10334229Y-12438984D02*
X10315182Y-12429460D01*
X10315182Y-12429460D02*
X10305658Y-12419936D01*
X10553277Y-12238984D02*
X10572325Y-12238984D01*
X10572325Y-12238984D02*
X10591372Y-12248508D01*
X10591372Y-12248508D02*
X10600896Y-12258031D01*
X10600896Y-12258031D02*
X10610420Y-12277079D01*
X10610420Y-12277079D02*
X10619944Y-12315174D01*
X10619944Y-12315174D02*
X10619944Y-12362793D01*
X10619944Y-12362793D02*
X10610420Y-12400888D01*
X10610420Y-12400888D02*
X10600896Y-12419936D01*
X10600896Y-12419936D02*
X10591372Y-12429460D01*
X10591372Y-12429460D02*
X10572325Y-12438984D01*
X10572325Y-12438984D02*
X10553277Y-12438984D01*
X10553277Y-12438984D02*
X10534229Y-12429460D01*
X10534229Y-12429460D02*
X10524706Y-12419936D01*
X10524706Y-12419936D02*
X10515182Y-12400888D01*
X10515182Y-12400888D02*
X10505658Y-12362793D01*
X10505658Y-12362793D02*
X10505658Y-12315174D01*
X10505658Y-12315174D02*
X10515182Y-12277079D01*
X10515182Y-12277079D02*
X10524706Y-12258031D01*
X10524706Y-12258031D02*
X10534229Y-12248508D01*
X10534229Y-12248508D02*
X10553277Y-12238984D01*
X10696134Y-12238984D02*
X10696134Y-12277079D01*
X10772325Y-12238984D02*
X10772325Y-12277079D01*
X11067563Y-12515174D02*
X11058039Y-12505650D01*
X11058039Y-12505650D02*
X11038991Y-12477079D01*
X11038991Y-12477079D02*
X11029468Y-12458031D01*
X11029468Y-12458031D02*
X11019944Y-12429460D01*
X11019944Y-12429460D02*
X11010420Y-12381841D01*
X11010420Y-12381841D02*
X11010420Y-12343746D01*
X11010420Y-12343746D02*
X11019944Y-12296127D01*
X11019944Y-12296127D02*
X11029468Y-12267555D01*
X11029468Y-12267555D02*
X11038991Y-12248508D01*
X11038991Y-12248508D02*
X11058039Y-12219936D01*
X11058039Y-12219936D02*
X11067563Y-12210412D01*
X11124706Y-12238984D02*
X11248515Y-12238984D01*
X11248515Y-12238984D02*
X11181849Y-12315174D01*
X11181849Y-12315174D02*
X11210420Y-12315174D01*
X11210420Y-12315174D02*
X11229468Y-12324698D01*
X11229468Y-12324698D02*
X11238991Y-12334222D01*
X11238991Y-12334222D02*
X11248515Y-12353269D01*
X11248515Y-12353269D02*
X11248515Y-12400888D01*
X11248515Y-12400888D02*
X11238991Y-12419936D01*
X11238991Y-12419936D02*
X11229468Y-12429460D01*
X11229468Y-12429460D02*
X11210420Y-12438984D01*
X11210420Y-12438984D02*
X11153277Y-12438984D01*
X11153277Y-12438984D02*
X11134230Y-12429460D01*
X11134230Y-12429460D02*
X11124706Y-12419936D01*
X11486610Y-12438984D02*
X11486610Y-12238984D01*
X11572325Y-12438984D02*
X11572325Y-12334222D01*
X11572325Y-12334222D02*
X11562801Y-12315174D01*
X11562801Y-12315174D02*
X11543753Y-12305650D01*
X11543753Y-12305650D02*
X11515182Y-12305650D01*
X11515182Y-12305650D02*
X11496134Y-12315174D01*
X11496134Y-12315174D02*
X11486610Y-12324698D01*
X11696134Y-12438984D02*
X11677087Y-12429460D01*
X11677087Y-12429460D02*
X11667563Y-12419936D01*
X11667563Y-12419936D02*
X11658039Y-12400888D01*
X11658039Y-12400888D02*
X11658039Y-12343746D01*
X11658039Y-12343746D02*
X11667563Y-12324698D01*
X11667563Y-12324698D02*
X11677087Y-12315174D01*
X11677087Y-12315174D02*
X11696134Y-12305650D01*
X11696134Y-12305650D02*
X11724706Y-12305650D01*
X11724706Y-12305650D02*
X11743753Y-12315174D01*
X11743753Y-12315174D02*
X11753277Y-12324698D01*
X11753277Y-12324698D02*
X11762801Y-12343746D01*
X11762801Y-12343746D02*
X11762801Y-12400888D01*
X11762801Y-12400888D02*
X11753277Y-12419936D01*
X11753277Y-12419936D02*
X11743753Y-12429460D01*
X11743753Y-12429460D02*
X11724706Y-12438984D01*
X11724706Y-12438984D02*
X11696134Y-12438984D01*
X11877087Y-12438984D02*
X11858039Y-12429460D01*
X11858039Y-12429460D02*
X11848515Y-12410412D01*
X11848515Y-12410412D02*
X11848515Y-12238984D01*
X12029468Y-12429460D02*
X12010420Y-12438984D01*
X12010420Y-12438984D02*
X11972325Y-12438984D01*
X11972325Y-12438984D02*
X11953277Y-12429460D01*
X11953277Y-12429460D02*
X11943753Y-12410412D01*
X11943753Y-12410412D02*
X11943753Y-12334222D01*
X11943753Y-12334222D02*
X11953277Y-12315174D01*
X11953277Y-12315174D02*
X11972325Y-12305650D01*
X11972325Y-12305650D02*
X12010420Y-12305650D01*
X12010420Y-12305650D02*
X12029468Y-12315174D01*
X12029468Y-12315174D02*
X12038991Y-12334222D01*
X12038991Y-12334222D02*
X12038991Y-12353269D01*
X12038991Y-12353269D02*
X11943753Y-12372317D01*
X12115182Y-12429460D02*
X12134230Y-12438984D01*
X12134230Y-12438984D02*
X12172325Y-12438984D01*
X12172325Y-12438984D02*
X12191372Y-12429460D01*
X12191372Y-12429460D02*
X12200896Y-12410412D01*
X12200896Y-12410412D02*
X12200896Y-12400888D01*
X12200896Y-12400888D02*
X12191372Y-12381841D01*
X12191372Y-12381841D02*
X12172325Y-12372317D01*
X12172325Y-12372317D02*
X12143753Y-12372317D01*
X12143753Y-12372317D02*
X12124706Y-12362793D01*
X12124706Y-12362793D02*
X12115182Y-12343746D01*
X12115182Y-12343746D02*
X12115182Y-12334222D01*
X12115182Y-12334222D02*
X12124706Y-12315174D01*
X12124706Y-12315174D02*
X12143753Y-12305650D01*
X12143753Y-12305650D02*
X12172325Y-12305650D01*
X12172325Y-12305650D02*
X12191372Y-12315174D01*
X12267563Y-12515174D02*
X12277087Y-12505650D01*
X12277087Y-12505650D02*
X12296134Y-12477079D01*
X12296134Y-12477079D02*
X12305658Y-12458031D01*
X12305658Y-12458031D02*
X12315182Y-12429460D01*
X12315182Y-12429460D02*
X12324706Y-12381841D01*
X12324706Y-12381841D02*
X12324706Y-12343746D01*
X12324706Y-12343746D02*
X12315182Y-12296127D01*
X12315182Y-12296127D02*
X12305658Y-12267555D01*
X12305658Y-12267555D02*
X12296134Y-12248508D01*
X12296134Y-12248508D02*
X12277087Y-12219936D01*
X12277087Y-12219936D02*
X12267563Y-12210412D01*
D13*
X7492500Y-12611500D02*
G75*
G03*
X7492500Y-12611500I-40000J0D01*
G01*
D11*
X7791372Y-12502984D02*
X7810420Y-12502984D01*
X7810420Y-12502984D02*
X7829467Y-12512508D01*
X7829467Y-12512508D02*
X7838991Y-12522031D01*
X7838991Y-12522031D02*
X7848515Y-12541079D01*
X7848515Y-12541079D02*
X7858039Y-12579174D01*
X7858039Y-12579174D02*
X7858039Y-12626793D01*
X7858039Y-12626793D02*
X7848515Y-12664888D01*
X7848515Y-12664888D02*
X7838991Y-12683936D01*
X7838991Y-12683936D02*
X7829467Y-12693460D01*
X7829467Y-12693460D02*
X7810420Y-12702984D01*
X7810420Y-12702984D02*
X7791372Y-12702984D01*
X7791372Y-12702984D02*
X7772324Y-12693460D01*
X7772324Y-12693460D02*
X7762801Y-12683936D01*
X7762801Y-12683936D02*
X7753277Y-12664888D01*
X7753277Y-12664888D02*
X7743753Y-12626793D01*
X7743753Y-12626793D02*
X7743753Y-12579174D01*
X7743753Y-12579174D02*
X7753277Y-12541079D01*
X7753277Y-12541079D02*
X7762801Y-12522031D01*
X7762801Y-12522031D02*
X7772324Y-12512508D01*
X7772324Y-12512508D02*
X7791372Y-12502984D01*
X7943753Y-12683936D02*
X7953277Y-12693460D01*
X7953277Y-12693460D02*
X7943753Y-12702984D01*
X7943753Y-12702984D02*
X7934229Y-12693460D01*
X7934229Y-12693460D02*
X7943753Y-12683936D01*
X7943753Y-12683936D02*
X7943753Y-12702984D01*
X8067562Y-12588698D02*
X8048515Y-12579174D01*
X8048515Y-12579174D02*
X8038991Y-12569650D01*
X8038991Y-12569650D02*
X8029467Y-12550603D01*
X8029467Y-12550603D02*
X8029467Y-12541079D01*
X8029467Y-12541079D02*
X8038991Y-12522031D01*
X8038991Y-12522031D02*
X8048515Y-12512508D01*
X8048515Y-12512508D02*
X8067562Y-12502984D01*
X8067562Y-12502984D02*
X8105658Y-12502984D01*
X8105658Y-12502984D02*
X8124705Y-12512508D01*
X8124705Y-12512508D02*
X8134229Y-12522031D01*
X8134229Y-12522031D02*
X8143753Y-12541079D01*
X8143753Y-12541079D02*
X8143753Y-12550603D01*
X8143753Y-12550603D02*
X8134229Y-12569650D01*
X8134229Y-12569650D02*
X8124705Y-12579174D01*
X8124705Y-12579174D02*
X8105658Y-12588698D01*
X8105658Y-12588698D02*
X8067562Y-12588698D01*
X8067562Y-12588698D02*
X8048515Y-12598222D01*
X8048515Y-12598222D02*
X8038991Y-12607746D01*
X8038991Y-12607746D02*
X8029467Y-12626793D01*
X8029467Y-12626793D02*
X8029467Y-12664888D01*
X8029467Y-12664888D02*
X8038991Y-12683936D01*
X8038991Y-12683936D02*
X8048515Y-12693460D01*
X8048515Y-12693460D02*
X8067562Y-12702984D01*
X8067562Y-12702984D02*
X8105658Y-12702984D01*
X8105658Y-12702984D02*
X8124705Y-12693460D01*
X8124705Y-12693460D02*
X8134229Y-12683936D01*
X8134229Y-12683936D02*
X8143753Y-12664888D01*
X8143753Y-12664888D02*
X8143753Y-12626793D01*
X8143753Y-12626793D02*
X8134229Y-12607746D01*
X8134229Y-12607746D02*
X8124705Y-12598222D01*
X8124705Y-12598222D02*
X8105658Y-12588698D01*
X8267562Y-12502984D02*
X8286610Y-12502984D01*
X8286610Y-12502984D02*
X8305658Y-12512508D01*
X8305658Y-12512508D02*
X8315182Y-12522031D01*
X8315182Y-12522031D02*
X8324705Y-12541079D01*
X8324705Y-12541079D02*
X8334229Y-12579174D01*
X8334229Y-12579174D02*
X8334229Y-12626793D01*
X8334229Y-12626793D02*
X8324705Y-12664888D01*
X8324705Y-12664888D02*
X8315182Y-12683936D01*
X8315182Y-12683936D02*
X8305658Y-12693460D01*
X8305658Y-12693460D02*
X8286610Y-12702984D01*
X8286610Y-12702984D02*
X8267562Y-12702984D01*
X8267562Y-12702984D02*
X8248515Y-12693460D01*
X8248515Y-12693460D02*
X8238991Y-12683936D01*
X8238991Y-12683936D02*
X8229467Y-12664888D01*
X8229467Y-12664888D02*
X8219943Y-12626793D01*
X8219943Y-12626793D02*
X8219943Y-12579174D01*
X8219943Y-12579174D02*
X8229467Y-12541079D01*
X8229467Y-12541079D02*
X8238991Y-12522031D01*
X8238991Y-12522031D02*
X8248515Y-12512508D01*
X8248515Y-12512508D02*
X8267562Y-12502984D01*
X8458039Y-12502984D02*
X8477086Y-12502984D01*
X8477086Y-12502984D02*
X8496134Y-12512508D01*
X8496134Y-12512508D02*
X8505658Y-12522031D01*
X8505658Y-12522031D02*
X8515182Y-12541079D01*
X8515182Y-12541079D02*
X8524705Y-12579174D01*
X8524705Y-12579174D02*
X8524705Y-12626793D01*
X8524705Y-12626793D02*
X8515182Y-12664888D01*
X8515182Y-12664888D02*
X8505658Y-12683936D01*
X8505658Y-12683936D02*
X8496134Y-12693460D01*
X8496134Y-12693460D02*
X8477086Y-12702984D01*
X8477086Y-12702984D02*
X8458039Y-12702984D01*
X8458039Y-12702984D02*
X8438991Y-12693460D01*
X8438991Y-12693460D02*
X8429467Y-12683936D01*
X8429467Y-12683936D02*
X8419944Y-12664888D01*
X8419944Y-12664888D02*
X8410420Y-12626793D01*
X8410420Y-12626793D02*
X8410420Y-12579174D01*
X8410420Y-12579174D02*
X8419944Y-12541079D01*
X8419944Y-12541079D02*
X8429467Y-12522031D01*
X8429467Y-12522031D02*
X8438991Y-12512508D01*
X8438991Y-12512508D02*
X8458039Y-12502984D01*
X8610420Y-12702984D02*
X8610420Y-12569650D01*
X8610420Y-12588698D02*
X8619944Y-12579174D01*
X8619944Y-12579174D02*
X8638991Y-12569650D01*
X8638991Y-12569650D02*
X8667563Y-12569650D01*
X8667563Y-12569650D02*
X8686610Y-12579174D01*
X8686610Y-12579174D02*
X8696134Y-12598222D01*
X8696134Y-12598222D02*
X8696134Y-12702984D01*
X8696134Y-12598222D02*
X8705658Y-12579174D01*
X8705658Y-12579174D02*
X8724705Y-12569650D01*
X8724705Y-12569650D02*
X8753277Y-12569650D01*
X8753277Y-12569650D02*
X8772325Y-12579174D01*
X8772325Y-12579174D02*
X8781848Y-12598222D01*
X8781848Y-12598222D02*
X8781848Y-12702984D01*
X8877086Y-12702984D02*
X8877086Y-12569650D01*
X8877086Y-12588698D02*
X8886610Y-12579174D01*
X8886610Y-12579174D02*
X8905658Y-12569650D01*
X8905658Y-12569650D02*
X8934229Y-12569650D01*
X8934229Y-12569650D02*
X8953277Y-12579174D01*
X8953277Y-12579174D02*
X8962801Y-12598222D01*
X8962801Y-12598222D02*
X8962801Y-12702984D01*
X8962801Y-12598222D02*
X8972325Y-12579174D01*
X8972325Y-12579174D02*
X8991372Y-12569650D01*
X8991372Y-12569650D02*
X9019944Y-12569650D01*
X9019944Y-12569650D02*
X9038991Y-12579174D01*
X9038991Y-12579174D02*
X9048515Y-12598222D01*
X9048515Y-12598222D02*
X9048515Y-12702984D01*
X9438991Y-12493460D02*
X9267563Y-12750603D01*
X9696134Y-12502984D02*
X9715182Y-12502984D01*
X9715182Y-12502984D02*
X9734229Y-12512508D01*
X9734229Y-12512508D02*
X9743753Y-12522031D01*
X9743753Y-12522031D02*
X9753277Y-12541079D01*
X9753277Y-12541079D02*
X9762801Y-12579174D01*
X9762801Y-12579174D02*
X9762801Y-12626793D01*
X9762801Y-12626793D02*
X9753277Y-12664888D01*
X9753277Y-12664888D02*
X9743753Y-12683936D01*
X9743753Y-12683936D02*
X9734229Y-12693460D01*
X9734229Y-12693460D02*
X9715182Y-12702984D01*
X9715182Y-12702984D02*
X9696134Y-12702984D01*
X9696134Y-12702984D02*
X9677087Y-12693460D01*
X9677087Y-12693460D02*
X9667563Y-12683936D01*
X9667563Y-12683936D02*
X9658039Y-12664888D01*
X9658039Y-12664888D02*
X9648515Y-12626793D01*
X9648515Y-12626793D02*
X9648515Y-12579174D01*
X9648515Y-12579174D02*
X9658039Y-12541079D01*
X9658039Y-12541079D02*
X9667563Y-12522031D01*
X9667563Y-12522031D02*
X9677087Y-12512508D01*
X9677087Y-12512508D02*
X9696134Y-12502984D01*
X9848515Y-12683936D02*
X9858039Y-12693460D01*
X9858039Y-12693460D02*
X9848515Y-12702984D01*
X9848515Y-12702984D02*
X9838991Y-12693460D01*
X9838991Y-12693460D02*
X9848515Y-12683936D01*
X9848515Y-12683936D02*
X9848515Y-12702984D01*
X9981848Y-12502984D02*
X10000896Y-12502984D01*
X10000896Y-12502984D02*
X10019944Y-12512508D01*
X10019944Y-12512508D02*
X10029468Y-12522031D01*
X10029468Y-12522031D02*
X10038991Y-12541079D01*
X10038991Y-12541079D02*
X10048515Y-12579174D01*
X10048515Y-12579174D02*
X10048515Y-12626793D01*
X10048515Y-12626793D02*
X10038991Y-12664888D01*
X10038991Y-12664888D02*
X10029468Y-12683936D01*
X10029468Y-12683936D02*
X10019944Y-12693460D01*
X10019944Y-12693460D02*
X10000896Y-12702984D01*
X10000896Y-12702984D02*
X9981848Y-12702984D01*
X9981848Y-12702984D02*
X9962801Y-12693460D01*
X9962801Y-12693460D02*
X9953277Y-12683936D01*
X9953277Y-12683936D02*
X9943753Y-12664888D01*
X9943753Y-12664888D02*
X9934229Y-12626793D01*
X9934229Y-12626793D02*
X9934229Y-12579174D01*
X9934229Y-12579174D02*
X9943753Y-12541079D01*
X9943753Y-12541079D02*
X9953277Y-12522031D01*
X9953277Y-12522031D02*
X9962801Y-12512508D01*
X9962801Y-12512508D02*
X9981848Y-12502984D01*
X10115182Y-12502984D02*
X10238991Y-12502984D01*
X10238991Y-12502984D02*
X10172325Y-12579174D01*
X10172325Y-12579174D02*
X10200896Y-12579174D01*
X10200896Y-12579174D02*
X10219944Y-12588698D01*
X10219944Y-12588698D02*
X10229468Y-12598222D01*
X10229468Y-12598222D02*
X10238991Y-12617269D01*
X10238991Y-12617269D02*
X10238991Y-12664888D01*
X10238991Y-12664888D02*
X10229468Y-12683936D01*
X10229468Y-12683936D02*
X10219944Y-12693460D01*
X10219944Y-12693460D02*
X10200896Y-12702984D01*
X10200896Y-12702984D02*
X10143753Y-12702984D01*
X10143753Y-12702984D02*
X10124706Y-12693460D01*
X10124706Y-12693460D02*
X10115182Y-12683936D01*
X10429468Y-12702984D02*
X10315182Y-12702984D01*
X10372325Y-12702984D02*
X10372325Y-12502984D01*
X10372325Y-12502984D02*
X10353277Y-12531555D01*
X10353277Y-12531555D02*
X10334229Y-12550603D01*
X10334229Y-12550603D02*
X10315182Y-12560127D01*
X10610420Y-12502984D02*
X10515182Y-12502984D01*
X10515182Y-12502984D02*
X10505658Y-12598222D01*
X10505658Y-12598222D02*
X10515182Y-12588698D01*
X10515182Y-12588698D02*
X10534229Y-12579174D01*
X10534229Y-12579174D02*
X10581849Y-12579174D01*
X10581849Y-12579174D02*
X10600896Y-12588698D01*
X10600896Y-12588698D02*
X10610420Y-12598222D01*
X10610420Y-12598222D02*
X10619944Y-12617269D01*
X10619944Y-12617269D02*
X10619944Y-12664888D01*
X10619944Y-12664888D02*
X10610420Y-12683936D01*
X10610420Y-12683936D02*
X10600896Y-12693460D01*
X10600896Y-12693460D02*
X10581849Y-12702984D01*
X10581849Y-12702984D02*
X10534229Y-12702984D01*
X10534229Y-12702984D02*
X10515182Y-12693460D01*
X10515182Y-12693460D02*
X10505658Y-12683936D01*
X10696134Y-12502984D02*
X10696134Y-12541079D01*
X10772325Y-12502984D02*
X10772325Y-12541079D01*
X11067563Y-12779174D02*
X11058039Y-12769650D01*
X11058039Y-12769650D02*
X11038991Y-12741079D01*
X11038991Y-12741079D02*
X11029468Y-12722031D01*
X11029468Y-12722031D02*
X11019944Y-12693460D01*
X11019944Y-12693460D02*
X11010420Y-12645841D01*
X11010420Y-12645841D02*
X11010420Y-12607746D01*
X11010420Y-12607746D02*
X11019944Y-12560127D01*
X11019944Y-12560127D02*
X11029468Y-12531555D01*
X11029468Y-12531555D02*
X11038991Y-12512508D01*
X11038991Y-12512508D02*
X11058039Y-12483936D01*
X11058039Y-12483936D02*
X11067563Y-12474412D01*
X11238991Y-12502984D02*
X11143753Y-12502984D01*
X11143753Y-12502984D02*
X11134230Y-12598222D01*
X11134230Y-12598222D02*
X11143753Y-12588698D01*
X11143753Y-12588698D02*
X11162801Y-12579174D01*
X11162801Y-12579174D02*
X11210420Y-12579174D01*
X11210420Y-12579174D02*
X11229468Y-12588698D01*
X11229468Y-12588698D02*
X11238991Y-12598222D01*
X11238991Y-12598222D02*
X11248515Y-12617269D01*
X11248515Y-12617269D02*
X11248515Y-12664888D01*
X11248515Y-12664888D02*
X11238991Y-12683936D01*
X11238991Y-12683936D02*
X11229468Y-12693460D01*
X11229468Y-12693460D02*
X11210420Y-12702984D01*
X11210420Y-12702984D02*
X11162801Y-12702984D01*
X11162801Y-12702984D02*
X11143753Y-12693460D01*
X11143753Y-12693460D02*
X11134230Y-12683936D01*
X11419944Y-12502984D02*
X11381848Y-12502984D01*
X11381848Y-12502984D02*
X11362801Y-12512508D01*
X11362801Y-12512508D02*
X11353277Y-12522031D01*
X11353277Y-12522031D02*
X11334229Y-12550603D01*
X11334229Y-12550603D02*
X11324706Y-12588698D01*
X11324706Y-12588698D02*
X11324706Y-12664888D01*
X11324706Y-12664888D02*
X11334229Y-12683936D01*
X11334229Y-12683936D02*
X11343753Y-12693460D01*
X11343753Y-12693460D02*
X11362801Y-12702984D01*
X11362801Y-12702984D02*
X11400896Y-12702984D01*
X11400896Y-12702984D02*
X11419944Y-12693460D01*
X11419944Y-12693460D02*
X11429468Y-12683936D01*
X11429468Y-12683936D02*
X11438991Y-12664888D01*
X11438991Y-12664888D02*
X11438991Y-12617269D01*
X11438991Y-12617269D02*
X11429468Y-12598222D01*
X11429468Y-12598222D02*
X11419944Y-12588698D01*
X11419944Y-12588698D02*
X11400896Y-12579174D01*
X11400896Y-12579174D02*
X11362801Y-12579174D01*
X11362801Y-12579174D02*
X11343753Y-12588698D01*
X11343753Y-12588698D02*
X11334229Y-12598222D01*
X11334229Y-12598222D02*
X11324706Y-12617269D01*
X11677087Y-12702984D02*
X11677087Y-12502984D01*
X11762801Y-12702984D02*
X11762801Y-12598222D01*
X11762801Y-12598222D02*
X11753277Y-12579174D01*
X11753277Y-12579174D02*
X11734230Y-12569650D01*
X11734230Y-12569650D02*
X11705658Y-12569650D01*
X11705658Y-12569650D02*
X11686610Y-12579174D01*
X11686610Y-12579174D02*
X11677087Y-12588698D01*
X11886610Y-12702984D02*
X11867563Y-12693460D01*
X11867563Y-12693460D02*
X11858039Y-12683936D01*
X11858039Y-12683936D02*
X11848515Y-12664888D01*
X11848515Y-12664888D02*
X11848515Y-12607746D01*
X11848515Y-12607746D02*
X11858039Y-12588698D01*
X11858039Y-12588698D02*
X11867563Y-12579174D01*
X11867563Y-12579174D02*
X11886610Y-12569650D01*
X11886610Y-12569650D02*
X11915182Y-12569650D01*
X11915182Y-12569650D02*
X11934230Y-12579174D01*
X11934230Y-12579174D02*
X11943753Y-12588698D01*
X11943753Y-12588698D02*
X11953277Y-12607746D01*
X11953277Y-12607746D02*
X11953277Y-12664888D01*
X11953277Y-12664888D02*
X11943753Y-12683936D01*
X11943753Y-12683936D02*
X11934230Y-12693460D01*
X11934230Y-12693460D02*
X11915182Y-12702984D01*
X11915182Y-12702984D02*
X11886610Y-12702984D01*
X12067563Y-12702984D02*
X12048515Y-12693460D01*
X12048515Y-12693460D02*
X12038991Y-12674412D01*
X12038991Y-12674412D02*
X12038991Y-12502984D01*
X12219944Y-12693460D02*
X12200896Y-12702984D01*
X12200896Y-12702984D02*
X12162801Y-12702984D01*
X12162801Y-12702984D02*
X12143753Y-12693460D01*
X12143753Y-12693460D02*
X12134230Y-12674412D01*
X12134230Y-12674412D02*
X12134230Y-12598222D01*
X12134230Y-12598222D02*
X12143753Y-12579174D01*
X12143753Y-12579174D02*
X12162801Y-12569650D01*
X12162801Y-12569650D02*
X12200896Y-12569650D01*
X12200896Y-12569650D02*
X12219944Y-12579174D01*
X12219944Y-12579174D02*
X12229468Y-12598222D01*
X12229468Y-12598222D02*
X12229468Y-12617269D01*
X12229468Y-12617269D02*
X12134230Y-12636317D01*
X12305658Y-12693460D02*
X12324706Y-12702984D01*
X12324706Y-12702984D02*
X12362801Y-12702984D01*
X12362801Y-12702984D02*
X12381849Y-12693460D01*
X12381849Y-12693460D02*
X12391372Y-12674412D01*
X12391372Y-12674412D02*
X12391372Y-12664888D01*
X12391372Y-12664888D02*
X12381849Y-12645841D01*
X12381849Y-12645841D02*
X12362801Y-12636317D01*
X12362801Y-12636317D02*
X12334230Y-12636317D01*
X12334230Y-12636317D02*
X12315182Y-12626793D01*
X12315182Y-12626793D02*
X12305658Y-12607746D01*
X12305658Y-12607746D02*
X12305658Y-12598222D01*
X12305658Y-12598222D02*
X12315182Y-12579174D01*
X12315182Y-12579174D02*
X12334230Y-12569650D01*
X12334230Y-12569650D02*
X12362801Y-12569650D01*
X12362801Y-12569650D02*
X12381849Y-12579174D01*
X12458039Y-12779174D02*
X12467563Y-12769650D01*
X12467563Y-12769650D02*
X12486611Y-12741079D01*
X12486611Y-12741079D02*
X12496134Y-12722031D01*
X12496134Y-12722031D02*
X12505658Y-12693460D01*
X12505658Y-12693460D02*
X12515182Y-12645841D01*
X12515182Y-12645841D02*
X12515182Y-12607746D01*
X12515182Y-12607746D02*
X12505658Y-12560127D01*
X12505658Y-12560127D02*
X12496134Y-12531555D01*
X12496134Y-12531555D02*
X12486611Y-12512508D01*
X12486611Y-12512508D02*
X12467563Y-12483936D01*
X12467563Y-12483936D02*
X12458039Y-12474412D01*
D14*
X7442500Y-12825500D02*
X7442500Y-12925500D01*
X7392500Y-12875500D02*
X7492500Y-12875500D01*
D11*
X7858039Y-12966984D02*
X7743753Y-12966984D01*
X7800896Y-12966984D02*
X7800896Y-12766984D01*
X7800896Y-12766984D02*
X7781848Y-12795555D01*
X7781848Y-12795555D02*
X7762801Y-12814603D01*
X7762801Y-12814603D02*
X7743753Y-12824127D01*
X7943753Y-12947936D02*
X7953277Y-12957460D01*
X7953277Y-12957460D02*
X7943753Y-12966984D01*
X7943753Y-12966984D02*
X7934229Y-12957460D01*
X7934229Y-12957460D02*
X7943753Y-12947936D01*
X7943753Y-12947936D02*
X7943753Y-12966984D01*
X8077086Y-12766984D02*
X8096134Y-12766984D01*
X8096134Y-12766984D02*
X8115182Y-12776508D01*
X8115182Y-12776508D02*
X8124705Y-12786031D01*
X8124705Y-12786031D02*
X8134229Y-12805079D01*
X8134229Y-12805079D02*
X8143753Y-12843174D01*
X8143753Y-12843174D02*
X8143753Y-12890793D01*
X8143753Y-12890793D02*
X8134229Y-12928888D01*
X8134229Y-12928888D02*
X8124705Y-12947936D01*
X8124705Y-12947936D02*
X8115182Y-12957460D01*
X8115182Y-12957460D02*
X8096134Y-12966984D01*
X8096134Y-12966984D02*
X8077086Y-12966984D01*
X8077086Y-12966984D02*
X8058039Y-12957460D01*
X8058039Y-12957460D02*
X8048515Y-12947936D01*
X8048515Y-12947936D02*
X8038991Y-12928888D01*
X8038991Y-12928888D02*
X8029467Y-12890793D01*
X8029467Y-12890793D02*
X8029467Y-12843174D01*
X8029467Y-12843174D02*
X8038991Y-12805079D01*
X8038991Y-12805079D02*
X8048515Y-12786031D01*
X8048515Y-12786031D02*
X8058039Y-12776508D01*
X8058039Y-12776508D02*
X8077086Y-12766984D01*
X8267562Y-12766984D02*
X8286610Y-12766984D01*
X8286610Y-12766984D02*
X8305658Y-12776508D01*
X8305658Y-12776508D02*
X8315182Y-12786031D01*
X8315182Y-12786031D02*
X8324705Y-12805079D01*
X8324705Y-12805079D02*
X8334229Y-12843174D01*
X8334229Y-12843174D02*
X8334229Y-12890793D01*
X8334229Y-12890793D02*
X8324705Y-12928888D01*
X8324705Y-12928888D02*
X8315182Y-12947936D01*
X8315182Y-12947936D02*
X8305658Y-12957460D01*
X8305658Y-12957460D02*
X8286610Y-12966984D01*
X8286610Y-12966984D02*
X8267562Y-12966984D01*
X8267562Y-12966984D02*
X8248515Y-12957460D01*
X8248515Y-12957460D02*
X8238991Y-12947936D01*
X8238991Y-12947936D02*
X8229467Y-12928888D01*
X8229467Y-12928888D02*
X8219943Y-12890793D01*
X8219943Y-12890793D02*
X8219943Y-12843174D01*
X8219943Y-12843174D02*
X8229467Y-12805079D01*
X8229467Y-12805079D02*
X8238991Y-12786031D01*
X8238991Y-12786031D02*
X8248515Y-12776508D01*
X8248515Y-12776508D02*
X8267562Y-12766984D01*
X8458039Y-12766984D02*
X8477086Y-12766984D01*
X8477086Y-12766984D02*
X8496134Y-12776508D01*
X8496134Y-12776508D02*
X8505658Y-12786031D01*
X8505658Y-12786031D02*
X8515182Y-12805079D01*
X8515182Y-12805079D02*
X8524705Y-12843174D01*
X8524705Y-12843174D02*
X8524705Y-12890793D01*
X8524705Y-12890793D02*
X8515182Y-12928888D01*
X8515182Y-12928888D02*
X8505658Y-12947936D01*
X8505658Y-12947936D02*
X8496134Y-12957460D01*
X8496134Y-12957460D02*
X8477086Y-12966984D01*
X8477086Y-12966984D02*
X8458039Y-12966984D01*
X8458039Y-12966984D02*
X8438991Y-12957460D01*
X8438991Y-12957460D02*
X8429467Y-12947936D01*
X8429467Y-12947936D02*
X8419944Y-12928888D01*
X8419944Y-12928888D02*
X8410420Y-12890793D01*
X8410420Y-12890793D02*
X8410420Y-12843174D01*
X8410420Y-12843174D02*
X8419944Y-12805079D01*
X8419944Y-12805079D02*
X8429467Y-12786031D01*
X8429467Y-12786031D02*
X8438991Y-12776508D01*
X8438991Y-12776508D02*
X8458039Y-12766984D01*
X8610420Y-12966984D02*
X8610420Y-12833650D01*
X8610420Y-12852698D02*
X8619944Y-12843174D01*
X8619944Y-12843174D02*
X8638991Y-12833650D01*
X8638991Y-12833650D02*
X8667563Y-12833650D01*
X8667563Y-12833650D02*
X8686610Y-12843174D01*
X8686610Y-12843174D02*
X8696134Y-12862222D01*
X8696134Y-12862222D02*
X8696134Y-12966984D01*
X8696134Y-12862222D02*
X8705658Y-12843174D01*
X8705658Y-12843174D02*
X8724705Y-12833650D01*
X8724705Y-12833650D02*
X8753277Y-12833650D01*
X8753277Y-12833650D02*
X8772325Y-12843174D01*
X8772325Y-12843174D02*
X8781848Y-12862222D01*
X8781848Y-12862222D02*
X8781848Y-12966984D01*
X8877086Y-12966984D02*
X8877086Y-12833650D01*
X8877086Y-12852698D02*
X8886610Y-12843174D01*
X8886610Y-12843174D02*
X8905658Y-12833650D01*
X8905658Y-12833650D02*
X8934229Y-12833650D01*
X8934229Y-12833650D02*
X8953277Y-12843174D01*
X8953277Y-12843174D02*
X8962801Y-12862222D01*
X8962801Y-12862222D02*
X8962801Y-12966984D01*
X8962801Y-12862222D02*
X8972325Y-12843174D01*
X8972325Y-12843174D02*
X8991372Y-12833650D01*
X8991372Y-12833650D02*
X9019944Y-12833650D01*
X9019944Y-12833650D02*
X9038991Y-12843174D01*
X9038991Y-12843174D02*
X9048515Y-12862222D01*
X9048515Y-12862222D02*
X9048515Y-12966984D01*
X9438991Y-12757460D02*
X9267563Y-13014603D01*
X9696134Y-12766984D02*
X9715182Y-12766984D01*
X9715182Y-12766984D02*
X9734229Y-12776508D01*
X9734229Y-12776508D02*
X9743753Y-12786031D01*
X9743753Y-12786031D02*
X9753277Y-12805079D01*
X9753277Y-12805079D02*
X9762801Y-12843174D01*
X9762801Y-12843174D02*
X9762801Y-12890793D01*
X9762801Y-12890793D02*
X9753277Y-12928888D01*
X9753277Y-12928888D02*
X9743753Y-12947936D01*
X9743753Y-12947936D02*
X9734229Y-12957460D01*
X9734229Y-12957460D02*
X9715182Y-12966984D01*
X9715182Y-12966984D02*
X9696134Y-12966984D01*
X9696134Y-12966984D02*
X9677087Y-12957460D01*
X9677087Y-12957460D02*
X9667563Y-12947936D01*
X9667563Y-12947936D02*
X9658039Y-12928888D01*
X9658039Y-12928888D02*
X9648515Y-12890793D01*
X9648515Y-12890793D02*
X9648515Y-12843174D01*
X9648515Y-12843174D02*
X9658039Y-12805079D01*
X9658039Y-12805079D02*
X9667563Y-12786031D01*
X9667563Y-12786031D02*
X9677087Y-12776508D01*
X9677087Y-12776508D02*
X9696134Y-12766984D01*
X9848515Y-12947936D02*
X9858039Y-12957460D01*
X9858039Y-12957460D02*
X9848515Y-12966984D01*
X9848515Y-12966984D02*
X9838991Y-12957460D01*
X9838991Y-12957460D02*
X9848515Y-12947936D01*
X9848515Y-12947936D02*
X9848515Y-12966984D01*
X9981848Y-12766984D02*
X10000896Y-12766984D01*
X10000896Y-12766984D02*
X10019944Y-12776508D01*
X10019944Y-12776508D02*
X10029468Y-12786031D01*
X10029468Y-12786031D02*
X10038991Y-12805079D01*
X10038991Y-12805079D02*
X10048515Y-12843174D01*
X10048515Y-12843174D02*
X10048515Y-12890793D01*
X10048515Y-12890793D02*
X10038991Y-12928888D01*
X10038991Y-12928888D02*
X10029468Y-12947936D01*
X10029468Y-12947936D02*
X10019944Y-12957460D01*
X10019944Y-12957460D02*
X10000896Y-12966984D01*
X10000896Y-12966984D02*
X9981848Y-12966984D01*
X9981848Y-12966984D02*
X9962801Y-12957460D01*
X9962801Y-12957460D02*
X9953277Y-12947936D01*
X9953277Y-12947936D02*
X9943753Y-12928888D01*
X9943753Y-12928888D02*
X9934229Y-12890793D01*
X9934229Y-12890793D02*
X9934229Y-12843174D01*
X9934229Y-12843174D02*
X9943753Y-12805079D01*
X9943753Y-12805079D02*
X9953277Y-12786031D01*
X9953277Y-12786031D02*
X9962801Y-12776508D01*
X9962801Y-12776508D02*
X9981848Y-12766984D01*
X10115182Y-12766984D02*
X10238991Y-12766984D01*
X10238991Y-12766984D02*
X10172325Y-12843174D01*
X10172325Y-12843174D02*
X10200896Y-12843174D01*
X10200896Y-12843174D02*
X10219944Y-12852698D01*
X10219944Y-12852698D02*
X10229468Y-12862222D01*
X10229468Y-12862222D02*
X10238991Y-12881269D01*
X10238991Y-12881269D02*
X10238991Y-12928888D01*
X10238991Y-12928888D02*
X10229468Y-12947936D01*
X10229468Y-12947936D02*
X10219944Y-12957460D01*
X10219944Y-12957460D02*
X10200896Y-12966984D01*
X10200896Y-12966984D02*
X10143753Y-12966984D01*
X10143753Y-12966984D02*
X10124706Y-12957460D01*
X10124706Y-12957460D02*
X10115182Y-12947936D01*
X10334229Y-12966984D02*
X10372325Y-12966984D01*
X10372325Y-12966984D02*
X10391372Y-12957460D01*
X10391372Y-12957460D02*
X10400896Y-12947936D01*
X10400896Y-12947936D02*
X10419944Y-12919365D01*
X10419944Y-12919365D02*
X10429468Y-12881269D01*
X10429468Y-12881269D02*
X10429468Y-12805079D01*
X10429468Y-12805079D02*
X10419944Y-12786031D01*
X10419944Y-12786031D02*
X10410420Y-12776508D01*
X10410420Y-12776508D02*
X10391372Y-12766984D01*
X10391372Y-12766984D02*
X10353277Y-12766984D01*
X10353277Y-12766984D02*
X10334229Y-12776508D01*
X10334229Y-12776508D02*
X10324706Y-12786031D01*
X10324706Y-12786031D02*
X10315182Y-12805079D01*
X10315182Y-12805079D02*
X10315182Y-12852698D01*
X10315182Y-12852698D02*
X10324706Y-12871746D01*
X10324706Y-12871746D02*
X10334229Y-12881269D01*
X10334229Y-12881269D02*
X10353277Y-12890793D01*
X10353277Y-12890793D02*
X10391372Y-12890793D01*
X10391372Y-12890793D02*
X10410420Y-12881269D01*
X10410420Y-12881269D02*
X10419944Y-12871746D01*
X10419944Y-12871746D02*
X10429468Y-12852698D01*
X10600896Y-12833650D02*
X10600896Y-12966984D01*
X10553277Y-12757460D02*
X10505658Y-12900317D01*
X10505658Y-12900317D02*
X10629468Y-12900317D01*
X10696134Y-12766984D02*
X10696134Y-12805079D01*
X10772325Y-12766984D02*
X10772325Y-12805079D01*
X11067563Y-13043174D02*
X11058039Y-13033650D01*
X11058039Y-13033650D02*
X11038991Y-13005079D01*
X11038991Y-13005079D02*
X11029468Y-12986031D01*
X11029468Y-12986031D02*
X11019944Y-12957460D01*
X11019944Y-12957460D02*
X11010420Y-12909841D01*
X11010420Y-12909841D02*
X11010420Y-12871746D01*
X11010420Y-12871746D02*
X11019944Y-12824127D01*
X11019944Y-12824127D02*
X11029468Y-12795555D01*
X11029468Y-12795555D02*
X11038991Y-12776508D01*
X11038991Y-12776508D02*
X11058039Y-12747936D01*
X11058039Y-12747936D02*
X11067563Y-12738412D01*
X11229468Y-12833650D02*
X11229468Y-12966984D01*
X11181849Y-12757460D02*
X11134230Y-12900317D01*
X11134230Y-12900317D02*
X11258039Y-12900317D01*
X11486610Y-12966984D02*
X11486610Y-12766984D01*
X11572325Y-12966984D02*
X11572325Y-12862222D01*
X11572325Y-12862222D02*
X11562801Y-12843174D01*
X11562801Y-12843174D02*
X11543753Y-12833650D01*
X11543753Y-12833650D02*
X11515182Y-12833650D01*
X11515182Y-12833650D02*
X11496134Y-12843174D01*
X11496134Y-12843174D02*
X11486610Y-12852698D01*
X11696134Y-12966984D02*
X11677087Y-12957460D01*
X11677087Y-12957460D02*
X11667563Y-12947936D01*
X11667563Y-12947936D02*
X11658039Y-12928888D01*
X11658039Y-12928888D02*
X11658039Y-12871746D01*
X11658039Y-12871746D02*
X11667563Y-12852698D01*
X11667563Y-12852698D02*
X11677087Y-12843174D01*
X11677087Y-12843174D02*
X11696134Y-12833650D01*
X11696134Y-12833650D02*
X11724706Y-12833650D01*
X11724706Y-12833650D02*
X11743753Y-12843174D01*
X11743753Y-12843174D02*
X11753277Y-12852698D01*
X11753277Y-12852698D02*
X11762801Y-12871746D01*
X11762801Y-12871746D02*
X11762801Y-12928888D01*
X11762801Y-12928888D02*
X11753277Y-12947936D01*
X11753277Y-12947936D02*
X11743753Y-12957460D01*
X11743753Y-12957460D02*
X11724706Y-12966984D01*
X11724706Y-12966984D02*
X11696134Y-12966984D01*
X11877087Y-12966984D02*
X11858039Y-12957460D01*
X11858039Y-12957460D02*
X11848515Y-12938412D01*
X11848515Y-12938412D02*
X11848515Y-12766984D01*
X12029468Y-12957460D02*
X12010420Y-12966984D01*
X12010420Y-12966984D02*
X11972325Y-12966984D01*
X11972325Y-12966984D02*
X11953277Y-12957460D01*
X11953277Y-12957460D02*
X11943753Y-12938412D01*
X11943753Y-12938412D02*
X11943753Y-12862222D01*
X11943753Y-12862222D02*
X11953277Y-12843174D01*
X11953277Y-12843174D02*
X11972325Y-12833650D01*
X11972325Y-12833650D02*
X12010420Y-12833650D01*
X12010420Y-12833650D02*
X12029468Y-12843174D01*
X12029468Y-12843174D02*
X12038991Y-12862222D01*
X12038991Y-12862222D02*
X12038991Y-12881269D01*
X12038991Y-12881269D02*
X11943753Y-12900317D01*
X12115182Y-12957460D02*
X12134230Y-12966984D01*
X12134230Y-12966984D02*
X12172325Y-12966984D01*
X12172325Y-12966984D02*
X12191372Y-12957460D01*
X12191372Y-12957460D02*
X12200896Y-12938412D01*
X12200896Y-12938412D02*
X12200896Y-12928888D01*
X12200896Y-12928888D02*
X12191372Y-12909841D01*
X12191372Y-12909841D02*
X12172325Y-12900317D01*
X12172325Y-12900317D02*
X12143753Y-12900317D01*
X12143753Y-12900317D02*
X12124706Y-12890793D01*
X12124706Y-12890793D02*
X12115182Y-12871746D01*
X12115182Y-12871746D02*
X12115182Y-12862222D01*
X12115182Y-12862222D02*
X12124706Y-12843174D01*
X12124706Y-12843174D02*
X12143753Y-12833650D01*
X12143753Y-12833650D02*
X12172325Y-12833650D01*
X12172325Y-12833650D02*
X12191372Y-12843174D01*
X12267563Y-13043174D02*
X12277087Y-13033650D01*
X12277087Y-13033650D02*
X12296134Y-13005079D01*
X12296134Y-13005079D02*
X12305658Y-12986031D01*
X12305658Y-12986031D02*
X12315182Y-12957460D01*
X12315182Y-12957460D02*
X12324706Y-12909841D01*
X12324706Y-12909841D02*
X12324706Y-12871746D01*
X12324706Y-12871746D02*
X12315182Y-12824127D01*
X12315182Y-12824127D02*
X12305658Y-12795555D01*
X12305658Y-12795555D02*
X12296134Y-12776508D01*
X12296134Y-12776508D02*
X12277087Y-12747936D01*
X12277087Y-12747936D02*
X12267563Y-12738412D01*
M02*
