%TF.GenerationSoftware,KiCad,Pcbnew,7.0.6-0*%
%TF.CreationDate,2023-08-27T17:26:56+10:00*%
%TF.ProjectId,PC-SPRINT_SMD,50432d53-5052-4494-9e54-5f534d442e6b,rev?*%
%TF.SameCoordinates,Original*%
%TF.FileFunction,Copper,L2,Bot*%
%TF.FilePolarity,Positive*%
%FSLAX46Y46*%
G04 Gerber Fmt 4.6, Leading zero omitted, Abs format (unit mm)*
G04 Created by KiCad (PCBNEW 7.0.6-0) date 2023-08-27 17:26:56*
%MOMM*%
%LPD*%
G01*
G04 APERTURE LIST*
%TA.AperFunction,ComponentPad*%
%ADD10R,2.400000X1.600000*%
%TD*%
%TA.AperFunction,ComponentPad*%
%ADD11O,2.400000X1.600000*%
%TD*%
%TA.AperFunction,ComponentPad*%
%ADD12C,1.500000*%
%TD*%
%TA.AperFunction,ComponentPad*%
%ADD13R,1.700000X1.700000*%
%TD*%
%TA.AperFunction,ComponentPad*%
%ADD14O,1.700000X1.700000*%
%TD*%
%TA.AperFunction,ViaPad*%
%ADD15C,0.685800*%
%TD*%
%TA.AperFunction,Conductor*%
%ADD16C,0.304800*%
%TD*%
G04 APERTURE END LIST*
D10*
%TO.P,U3,1,CSYNC*%
%TO.N,/GND*%
X77554300Y-86767900D03*
D11*
%TO.P,U3,2,PCLCK*%
%TO.N,Net-(U3-PCLCK)*%
X77554300Y-89307900D03*
%TO.P,U3,3,~{AEN1}*%
X77554300Y-91847900D03*
%TO.P,U3,4,RDY1*%
%TO.N,Net-(U2-F{slash}C)*%
X77554300Y-94387900D03*
%TO.P,U3,5,READY*%
%TO.N,Net-(U1-PCLCK)*%
X77554300Y-96927900D03*
%TO.P,U3,6,RDY2*%
%TO.N,Net-(U2-PCLCK)*%
X77554300Y-99467900D03*
%TO.P,U3,7,~{AEN2}*%
%TO.N,Net-(U2-F{slash}C)*%
X77554300Y-102007900D03*
%TO.P,U3,8,CLK*%
%TO.N,unconnected-(U3-CLK-Pad8)*%
X77554300Y-104547900D03*
%TO.P,U3,9,GND*%
%TO.N,/GND*%
X77554300Y-107087900D03*
%TO.P,U3,10,RESET*%
%TO.N,Net-(U2-F{slash}C)*%
X85174300Y-107087900D03*
%TO.P,U3,11,~{RES}*%
%TO.N,Net-(J1-Pin_1)*%
X85174300Y-104547900D03*
%TO.P,U3,12,OSC*%
%TO.N,Net-(U2-EFI)*%
X85174300Y-102007900D03*
%TO.P,U3,13,F/C*%
%TO.N,Net-(U2-F{slash}C)*%
X85174300Y-99467900D03*
%TO.P,U3,14,EFI*%
%TO.N,Net-(U1-OSC)*%
X85174300Y-96927900D03*
%TO.P,U3,15,~{ASYNC}*%
%TO.N,/GND*%
X85174300Y-94387900D03*
%TO.P,U3,16,X2*%
%TO.N,Net-(U3-X2)*%
X85174300Y-91847900D03*
%TO.P,U3,17,X1*%
%TO.N,Net-(U3-X1)*%
X85174300Y-89307900D03*
%TO.P,U3,18,VCC*%
%TO.N,Net-(U1-VCC)*%
X85174300Y-86767900D03*
%TD*%
D10*
%TO.P,U1,1,CSYNC*%
%TO.N,Net-(U1-CSYNC)*%
X77571900Y-57145600D03*
D11*
%TO.P,U1,2,PCLCK*%
%TO.N,Net-(U1-PCLCK)*%
X77571900Y-59685600D03*
%TO.P,U1,3,~{AEN1}*%
%TO.N,Net-(U1-~{AEN1})*%
X77571900Y-62225600D03*
%TO.P,U1,4,RDY1*%
%TO.N,Net-(U1-RDY1)*%
X77571900Y-64765600D03*
%TO.P,U1,5,READY*%
%TO.N,Net-(U1-READY)*%
X77571900Y-67305600D03*
%TO.P,U1,6,RDY2*%
%TO.N,Net-(U1-RDY2)*%
X77571900Y-69845600D03*
%TO.P,U1,7,~{AEN2}*%
%TO.N,Net-(U1-~{AEN2})*%
X77571900Y-72385600D03*
%TO.P,U1,8,CLK*%
%TO.N,Net-(U1-CLK)*%
X77571900Y-74925600D03*
%TO.P,U1,9,GND*%
%TO.N,/GND*%
X77571900Y-77465600D03*
%TO.P,U1,10,RESET*%
%TO.N,Net-(U1-RESET)*%
X85191900Y-77465600D03*
%TO.P,U1,11,~{RES}*%
%TO.N,Net-(D1-K)*%
X85191900Y-74925600D03*
%TO.P,U1,12,OSC*%
%TO.N,Net-(U1-OSC)*%
X85191900Y-72385600D03*
%TO.P,U1,13,F/C*%
%TO.N,unconnected-(U1-F{slash}C-Pad13)*%
X85191900Y-69845600D03*
%TO.P,U1,14,EFI*%
%TO.N,unconnected-(U1-EFI-Pad14)*%
X85191900Y-67305600D03*
%TO.P,U1,15,~{ASYNC}*%
%TO.N,Net-(U1-~{ASYNC})*%
X85191900Y-64765600D03*
%TO.P,U1,16,X2*%
%TO.N,Net-(U1-X2)*%
X85191900Y-62225600D03*
%TO.P,U1,17,X1*%
%TO.N,Net-(U1-X1)*%
X85191900Y-59685600D03*
%TO.P,U1,18,VCC*%
%TO.N,Net-(U1-VCC)*%
X85191900Y-57145600D03*
%TD*%
D12*
%TO.P,X1,1,1*%
%TO.N,Net-(U3-X2)*%
X90422900Y-93370300D03*
%TO.P,X1,2,2*%
%TO.N,Net-(U3-X1)*%
X90422900Y-88470300D03*
%TD*%
D10*
%TO.P,U2,1,CSYNC*%
%TO.N,Net-(U1-CSYNC)*%
X90060400Y-57145600D03*
D11*
%TO.P,U2,2,PCLCK*%
%TO.N,Net-(U2-PCLCK)*%
X90060400Y-59685600D03*
%TO.P,U2,3,~{AEN1}*%
%TO.N,Net-(U1-~{AEN1})*%
X90060400Y-62225600D03*
%TO.P,U2,4,RDY1*%
%TO.N,Net-(U1-RDY1)*%
X90060400Y-64765600D03*
%TO.P,U2,5,READY*%
%TO.N,Net-(U1-READY)*%
X90060400Y-67305600D03*
%TO.P,U2,6,RDY2*%
%TO.N,Net-(U1-RDY2)*%
X90060400Y-69845600D03*
%TO.P,U2,7,~{AEN2}*%
%TO.N,Net-(U1-~{AEN2})*%
X90060400Y-72385600D03*
%TO.P,U2,8,CLK*%
%TO.N,Net-(U1-CLK)*%
X90060400Y-74925600D03*
%TO.P,U2,9,GND*%
%TO.N,/GND*%
X90060400Y-77465600D03*
%TO.P,U2,10,RESET*%
%TO.N,Net-(U1-RESET)*%
X97680400Y-77465600D03*
%TO.P,U2,11,~{RES}*%
%TO.N,Net-(D1-A)*%
X97680400Y-74925600D03*
%TO.P,U2,12,OSC*%
%TO.N,Net-(U1-OSC)*%
X97680400Y-72385600D03*
%TO.P,U2,13,F/C*%
%TO.N,Net-(U2-F{slash}C)*%
X97680400Y-69845600D03*
%TO.P,U2,14,EFI*%
%TO.N,Net-(U2-EFI)*%
X97680400Y-67305600D03*
%TO.P,U2,15,~{ASYNC}*%
%TO.N,Net-(U1-~{ASYNC})*%
X97680400Y-64765600D03*
%TO.P,U2,16,X2*%
%TO.N,Net-(U1-X2)*%
X97680400Y-62225600D03*
%TO.P,U2,17,X1*%
%TO.N,Net-(U1-X1)*%
X97680400Y-59685600D03*
%TO.P,U2,18,VCC*%
%TO.N,Net-(U1-VCC)*%
X97680400Y-57145600D03*
%TD*%
D13*
%TO.P,J1,1,Pin_1*%
%TO.N,Net-(J1-Pin_1)*%
X90422900Y-100778100D03*
D14*
%TO.P,J1,2,Pin_2*%
%TO.N,/GND*%
X90422900Y-103318100D03*
%TO.P,J1,3,Pin_3*%
X90422900Y-105858100D03*
%TO.P,J1,4,Pin_4*%
%TO.N,Net-(D2-K)*%
X90422900Y-108398100D03*
%TD*%
D15*
%TO.N,Net-(U1-VCC)*%
X95715600Y-85327600D03*
%TO.N,Net-(U3-X1)*%
X94711300Y-85537600D03*
%TO.N,Net-(U2-EFI)*%
X94360300Y-89527800D03*
%TD*%
D16*
%TO.N,Net-(U1-VCC)*%
X86833400Y-86767900D02*
X88869300Y-84732000D01*
X85174300Y-86767900D02*
X86833400Y-86767900D01*
X88869300Y-84732000D02*
X95120000Y-84732000D01*
X95120000Y-84732000D02*
X95715600Y-85327600D01*
%TO.N,Net-(U3-X2)*%
X88900500Y-91847900D02*
X85174300Y-91847900D01*
X90422900Y-93370300D02*
X88900500Y-91847900D01*
%TO.N,Net-(U3-X1)*%
X85174300Y-89307900D02*
X86833400Y-89307900D01*
X86833400Y-89307900D02*
X87671000Y-88470300D01*
X87671000Y-88470300D02*
X90422900Y-88470300D01*
X91778600Y-88470300D02*
X94711300Y-85537600D01*
X90422900Y-88470300D02*
X91778600Y-88470300D01*
%TO.N,Net-(U1-CSYNC)*%
X88401300Y-57145600D02*
X87142200Y-55886500D01*
X90060400Y-57145600D02*
X88401300Y-57145600D01*
X80490100Y-55886500D02*
X79231000Y-57145600D01*
X77571900Y-57145600D02*
X79231000Y-57145600D01*
X87142200Y-55886500D02*
X80490100Y-55886500D01*
%TO.N,Net-(U1-~{AEN1})*%
X80500900Y-63495500D02*
X79231000Y-62225600D01*
X77571900Y-62225600D02*
X79231000Y-62225600D01*
X86984600Y-63495500D02*
X80500900Y-63495500D01*
X90060400Y-62225600D02*
X88254500Y-62225600D01*
X88254500Y-62225600D02*
X86984600Y-63495500D01*
%TO.N,Net-(U1-RDY1)*%
X88401300Y-64765600D02*
X87131400Y-66035500D01*
X90060400Y-64765600D02*
X88401300Y-64765600D01*
X80500900Y-66035500D02*
X79231000Y-64765600D01*
X77571900Y-64765600D02*
X79231000Y-64765600D01*
X87131400Y-66035500D02*
X80500900Y-66035500D01*
%TO.N,Net-(U1-READY)*%
X90060400Y-67305600D02*
X88401300Y-67305600D01*
X80500900Y-68575500D02*
X79231000Y-67305600D01*
X87131400Y-68575500D02*
X80500900Y-68575500D01*
X88401300Y-67305600D02*
X87131400Y-68575500D01*
X77571900Y-67305600D02*
X79231000Y-67305600D01*
%TO.N,Net-(U1-RDY2)*%
X88401300Y-69845600D02*
X87131400Y-71115500D01*
X90060400Y-69845600D02*
X88401300Y-69845600D01*
X77571900Y-69845600D02*
X79231000Y-69845600D01*
X80500900Y-71115500D02*
X79231000Y-69845600D01*
X87131400Y-71115500D02*
X80500900Y-71115500D01*
%TO.N,Net-(U1-~{AEN2})*%
X77571900Y-72385600D02*
X79231000Y-72385600D01*
X88401300Y-72385600D02*
X87131400Y-73655500D01*
X90060400Y-72385600D02*
X88401300Y-72385600D01*
X80500900Y-73655500D02*
X79231000Y-72385600D01*
X87131400Y-73655500D02*
X80500900Y-73655500D01*
%TO.N,Net-(U1-CLK)*%
X90060400Y-74925600D02*
X88254500Y-74925600D01*
X80500900Y-76195500D02*
X79231000Y-74925600D01*
X86984600Y-76195500D02*
X80500900Y-76195500D01*
X77571900Y-74925600D02*
X79231000Y-74925600D01*
X88254500Y-74925600D02*
X86984600Y-76195500D01*
%TO.N,Net-(U1-RESET)*%
X94751400Y-76195700D02*
X88120900Y-76195700D01*
X88120900Y-76195700D02*
X86851000Y-77465600D01*
X97680400Y-77465600D02*
X96021300Y-77465600D01*
X96021300Y-77465600D02*
X94751400Y-76195700D01*
X85191900Y-77465600D02*
X86851000Y-77465600D01*
%TO.N,Net-(U1-OSC)*%
X85191900Y-72385600D02*
X86851000Y-72385600D01*
X97284000Y-72385600D02*
X97680400Y-72385600D01*
X94751400Y-71115700D02*
X96021300Y-72385600D01*
X88120900Y-71115700D02*
X94751400Y-71115700D01*
X97284000Y-72385600D02*
X96021300Y-72385600D01*
X86851000Y-72385600D02*
X88120900Y-71115700D01*
%TO.N,Net-(U1-~{ASYNC})*%
X85191900Y-64765600D02*
X86851000Y-64765600D01*
X94751300Y-63495600D02*
X96021300Y-64765600D01*
X88121000Y-63495600D02*
X94751300Y-63495600D01*
X86851000Y-64765600D02*
X88121000Y-63495600D01*
X97680400Y-64765600D02*
X96021300Y-64765600D01*
%TO.N,Net-(U1-X2)*%
X97680400Y-62225600D02*
X96021300Y-62225600D01*
X86851000Y-62225600D02*
X88116500Y-60960100D01*
X85191900Y-62225600D02*
X86851000Y-62225600D01*
X94755800Y-60960100D02*
X96021300Y-62225600D01*
X88116500Y-60960100D02*
X94755800Y-60960100D01*
%TO.N,Net-(U1-X1)*%
X94751300Y-58415600D02*
X88121000Y-58415600D01*
X97680400Y-59685600D02*
X96021300Y-59685600D01*
X96021300Y-59685600D02*
X94751300Y-58415600D01*
X85191900Y-59685600D02*
X86851000Y-59685600D01*
X88121000Y-58415600D02*
X86851000Y-59685600D01*
%TO.N,Net-(U2-PCLCK)*%
X90060400Y-59685600D02*
X88401300Y-59685600D01*
X75895200Y-61661700D02*
X76601300Y-60955600D01*
X76601300Y-60955600D02*
X87131300Y-60955600D01*
X87131300Y-60955600D02*
X88401300Y-59685600D01*
X75895200Y-99467900D02*
X75895200Y-61661700D01*
X77554300Y-99467900D02*
X75895200Y-99467900D01*
%TO.N,Net-(U2-F{slash}C)*%
X84777900Y-99467900D02*
X85174300Y-99467900D01*
X79239100Y-102033600D02*
X81804800Y-99467900D01*
X84344800Y-99467900D02*
X81804800Y-99467900D01*
X84777900Y-99467900D02*
X84344800Y-99467900D01*
X81804800Y-96979300D02*
X79213400Y-94387900D01*
X83515200Y-107087900D02*
X83515200Y-106309700D01*
X77554300Y-102007900D02*
X79213400Y-102007900D01*
X77554300Y-94387900D02*
X79213400Y-94387900D01*
X85174300Y-107087900D02*
X83515200Y-107087900D01*
X81804800Y-99467900D02*
X81804800Y-96979300D01*
X79239100Y-102033600D02*
X79213400Y-102007900D01*
X83515200Y-106309700D02*
X79239100Y-102033600D01*
%TO.N,Net-(U2-EFI)*%
X86833400Y-102007900D02*
X94360300Y-94481000D01*
X85174300Y-102007900D02*
X86833400Y-102007900D01*
X94360300Y-94481000D02*
X94360300Y-89527800D01*
%TD*%
%TA.AperFunction,Conductor*%
%TO.N,/GND*%
G36*
X77605780Y-50132992D02*
G01*
X99693290Y-50142280D01*
X99760319Y-50161993D01*
X99806052Y-50214816D01*
X99817236Y-50266356D01*
X99776784Y-116624932D01*
X99757059Y-116691959D01*
X99704227Y-116737682D01*
X99652885Y-116748856D01*
X75353411Y-116768564D01*
X75286355Y-116748934D01*
X75240557Y-116696167D01*
X75229310Y-116644671D01*
X75223383Y-109756600D01*
X75215009Y-100023880D01*
X75234636Y-99956824D01*
X75287401Y-99911024D01*
X75356550Y-99901021D01*
X75420131Y-99929991D01*
X75421390Y-99931095D01*
X75424323Y-99933702D01*
X75429542Y-99938930D01*
X75453723Y-99966224D01*
X75483781Y-99986972D01*
X75489673Y-99991588D01*
X75517007Y-100015804D01*
X75549343Y-100032775D01*
X75555757Y-100036652D01*
X75585809Y-100057396D01*
X75585813Y-100057397D01*
X75585814Y-100057398D01*
X75619947Y-100070342D01*
X75626784Y-100073419D01*
X75659120Y-100090391D01*
X75694576Y-100099130D01*
X75701731Y-100101359D01*
X75735874Y-100114308D01*
X75738797Y-100114662D01*
X75772141Y-100118711D01*
X75779476Y-100120055D01*
X75804603Y-100126249D01*
X75814950Y-100128800D01*
X75814952Y-100128800D01*
X75855225Y-100128800D01*
X75955134Y-100128800D01*
X76022173Y-100148485D01*
X76056708Y-100181676D01*
X76148102Y-100312200D01*
X76310000Y-100474098D01*
X76497550Y-100605422D01*
X76497551Y-100605423D01*
X76540645Y-100625518D01*
X76593084Y-100671691D01*
X76612236Y-100738884D01*
X76592020Y-100805765D01*
X76540645Y-100850282D01*
X76497551Y-100870376D01*
X76402969Y-100936604D01*
X76310000Y-101001702D01*
X76309998Y-101001703D01*
X76309995Y-101001706D01*
X76148106Y-101163595D01*
X76148103Y-101163598D01*
X76148102Y-101163600D01*
X76066067Y-101280756D01*
X76016776Y-101351152D01*
X76016775Y-101351154D01*
X75920018Y-101558650D01*
X75920014Y-101558661D01*
X75860757Y-101779810D01*
X75860756Y-101779818D01*
X75840802Y-102007898D01*
X75840802Y-102007901D01*
X75860756Y-102235981D01*
X75860757Y-102235989D01*
X75920014Y-102457138D01*
X75920018Y-102457149D01*
X76005526Y-102640522D01*
X76016777Y-102664649D01*
X76148102Y-102852200D01*
X76310000Y-103014098D01*
X76497551Y-103145422D01*
X76497551Y-103145423D01*
X76540645Y-103165518D01*
X76593084Y-103211691D01*
X76612236Y-103278884D01*
X76592020Y-103345765D01*
X76540645Y-103390282D01*
X76497551Y-103410376D01*
X76372426Y-103497990D01*
X76310000Y-103541702D01*
X76309998Y-103541703D01*
X76309995Y-103541706D01*
X76148106Y-103703595D01*
X76148103Y-103703598D01*
X76148102Y-103703600D01*
X76093491Y-103781592D01*
X76016776Y-103891152D01*
X76016775Y-103891154D01*
X75920018Y-104098650D01*
X75920014Y-104098661D01*
X75860757Y-104319810D01*
X75860756Y-104319818D01*
X75840802Y-104547898D01*
X75840802Y-104547901D01*
X75860756Y-104775981D01*
X75860757Y-104775989D01*
X75920014Y-104997138D01*
X75920018Y-104997149D01*
X76005526Y-105180522D01*
X76016777Y-105204649D01*
X76148102Y-105392200D01*
X76310000Y-105554098D01*
X76497550Y-105685423D01*
X76497551Y-105685423D01*
X76550701Y-105710207D01*
X76603140Y-105756379D01*
X76622292Y-105823573D01*
X76602076Y-105890454D01*
X76550701Y-105934971D01*
X76501817Y-105957765D01*
X76315479Y-106088242D01*
X76154642Y-106249079D01*
X76024165Y-106435417D01*
X75928034Y-106641573D01*
X75928030Y-106641582D01*
X75875427Y-106837899D01*
X75875428Y-106837900D01*
X77238614Y-106837900D01*
X77226659Y-106849855D01*
X77169135Y-106962752D01*
X77149314Y-107087900D01*
X77169135Y-107213048D01*
X77226659Y-107325945D01*
X77238614Y-107337900D01*
X75875428Y-107337900D01*
X75928030Y-107534217D01*
X75928034Y-107534226D01*
X76024165Y-107740382D01*
X76154642Y-107926720D01*
X76315479Y-108087557D01*
X76501817Y-108218034D01*
X76707973Y-108314165D01*
X76707982Y-108314169D01*
X76927689Y-108373039D01*
X76927700Y-108373041D01*
X77097537Y-108387900D01*
X77304300Y-108387900D01*
X77304300Y-107403585D01*
X77316255Y-107415541D01*
X77429152Y-107473065D01*
X77522819Y-107487900D01*
X77585781Y-107487900D01*
X77679448Y-107473065D01*
X77792345Y-107415541D01*
X77804300Y-107403585D01*
X77804300Y-108387900D01*
X78011063Y-108387900D01*
X78180899Y-108373041D01*
X78180910Y-108373039D01*
X78400617Y-108314169D01*
X78400626Y-108314165D01*
X78606782Y-108218034D01*
X78793120Y-108087557D01*
X78953957Y-107926720D01*
X79084434Y-107740382D01*
X79180565Y-107534226D01*
X79180569Y-107534217D01*
X79233172Y-107337900D01*
X77869986Y-107337900D01*
X77881941Y-107325945D01*
X77939465Y-107213048D01*
X77959286Y-107087900D01*
X77939465Y-106962752D01*
X77881941Y-106849855D01*
X77869986Y-106837900D01*
X79233172Y-106837900D01*
X79233172Y-106837899D01*
X79180569Y-106641582D01*
X79180565Y-106641573D01*
X79084434Y-106435417D01*
X78953957Y-106249079D01*
X78793120Y-106088242D01*
X78606781Y-105957765D01*
X78606779Y-105957764D01*
X78557899Y-105934971D01*
X78505459Y-105888799D01*
X78486307Y-105821606D01*
X78506523Y-105754724D01*
X78557899Y-105710207D01*
X78611049Y-105685423D01*
X78798600Y-105554098D01*
X78960498Y-105392200D01*
X79091823Y-105204649D01*
X79188584Y-104997143D01*
X79247843Y-104775987D01*
X79267798Y-104547900D01*
X79247843Y-104319813D01*
X79188584Y-104098657D01*
X79091823Y-103891151D01*
X78960498Y-103703600D01*
X78798600Y-103541702D01*
X78611049Y-103410377D01*
X78567955Y-103390282D01*
X78515515Y-103344110D01*
X78496363Y-103276917D01*
X78516578Y-103210036D01*
X78567955Y-103165518D01*
X78571182Y-103164012D01*
X78611049Y-103145423D01*
X78798600Y-103014098D01*
X78954094Y-102858603D01*
X79015414Y-102825121D01*
X79085105Y-102830105D01*
X79129453Y-102858606D01*
X82817981Y-106547134D01*
X82851466Y-106608457D01*
X82854300Y-106634815D01*
X82854300Y-107168150D01*
X82863039Y-107203606D01*
X82864389Y-107210974D01*
X82868791Y-107247224D01*
X82874501Y-107262281D01*
X82881740Y-107281368D01*
X82883966Y-107288511D01*
X82892707Y-107323976D01*
X82909679Y-107356313D01*
X82912755Y-107363147D01*
X82925704Y-107397291D01*
X82946446Y-107427340D01*
X82950323Y-107433753D01*
X82967296Y-107466092D01*
X82991508Y-107493423D01*
X82996129Y-107499321D01*
X83016872Y-107529372D01*
X83016877Y-107529378D01*
X83044213Y-107553596D01*
X83049503Y-107558886D01*
X83073723Y-107586224D01*
X83103781Y-107606972D01*
X83109673Y-107611588D01*
X83137007Y-107635804D01*
X83169343Y-107652775D01*
X83175757Y-107656652D01*
X83205809Y-107677396D01*
X83205813Y-107677397D01*
X83205814Y-107677398D01*
X83239947Y-107690342D01*
X83246784Y-107693419D01*
X83279120Y-107710391D01*
X83314576Y-107719130D01*
X83321731Y-107721359D01*
X83355874Y-107734308D01*
X83358797Y-107734662D01*
X83392141Y-107738711D01*
X83399476Y-107740055D01*
X83424603Y-107746249D01*
X83434950Y-107748800D01*
X83434952Y-107748800D01*
X83475225Y-107748800D01*
X83575134Y-107748800D01*
X83642173Y-107768485D01*
X83676709Y-107801677D01*
X83764264Y-107926720D01*
X83768102Y-107932200D01*
X83930000Y-108094098D01*
X84117551Y-108225423D01*
X84242391Y-108283636D01*
X84325050Y-108322181D01*
X84325052Y-108322181D01*
X84325057Y-108322184D01*
X84546213Y-108381443D01*
X84717173Y-108396400D01*
X85631427Y-108396400D01*
X85802387Y-108381443D01*
X86023543Y-108322184D01*
X86231049Y-108225423D01*
X86418600Y-108094098D01*
X86580498Y-107932200D01*
X86711823Y-107744649D01*
X86808584Y-107537143D01*
X86867843Y-107315987D01*
X86887798Y-107087900D01*
X86867843Y-106859813D01*
X86808584Y-106638657D01*
X86806792Y-106634815D01*
X86711824Y-106431154D01*
X86711823Y-106431152D01*
X86711823Y-106431151D01*
X86580498Y-106243600D01*
X86418600Y-106081702D01*
X86231049Y-105950377D01*
X86187955Y-105930282D01*
X86135515Y-105884110D01*
X86116363Y-105816917D01*
X86136578Y-105750036D01*
X86187955Y-105705518D01*
X86191182Y-105704012D01*
X86231049Y-105685423D01*
X86418600Y-105554098D01*
X86580498Y-105392200D01*
X86711823Y-105204649D01*
X86808584Y-104997143D01*
X86867843Y-104775987D01*
X86887798Y-104547900D01*
X86867843Y-104319813D01*
X86808584Y-104098657D01*
X86711823Y-103891151D01*
X86580498Y-103703600D01*
X86418600Y-103541702D01*
X86231049Y-103410377D01*
X86187955Y-103390282D01*
X86135515Y-103344110D01*
X86116363Y-103276917D01*
X86136578Y-103210036D01*
X86187955Y-103165518D01*
X86191182Y-103164012D01*
X86231049Y-103145423D01*
X86418600Y-103014098D01*
X86580498Y-102852200D01*
X86671891Y-102721676D01*
X86726468Y-102678052D01*
X86773466Y-102668800D01*
X86811546Y-102668800D01*
X86815291Y-102668913D01*
X86873596Y-102672440D01*
X86873596Y-102672439D01*
X86873597Y-102672440D01*
X86931084Y-102661903D01*
X86934730Y-102661349D01*
X86992725Y-102654308D01*
X87001060Y-102651146D01*
X87022685Y-102645117D01*
X87031464Y-102643509D01*
X87084767Y-102619518D01*
X87088153Y-102618116D01*
X87142791Y-102597396D01*
X87150134Y-102592326D01*
X87169685Y-102581299D01*
X87177820Y-102577639D01*
X87223805Y-102541610D01*
X87226781Y-102539420D01*
X87274877Y-102506224D01*
X87313620Y-102462490D01*
X87316170Y-102459781D01*
X88852720Y-100923231D01*
X88914042Y-100889748D01*
X88983734Y-100894732D01*
X89039667Y-100936604D01*
X89064084Y-101002068D01*
X89064400Y-101010914D01*
X89064400Y-101676754D01*
X89070911Y-101737302D01*
X89070911Y-101737304D01*
X89122011Y-101874304D01*
X89209639Y-101991361D01*
X89326696Y-102078989D01*
X89456282Y-102127322D01*
X89512213Y-102169193D01*
X89536630Y-102234657D01*
X89521778Y-102302930D01*
X89500628Y-102331184D01*
X89384786Y-102447026D01*
X89249300Y-102640520D01*
X89249299Y-102640522D01*
X89149470Y-102854607D01*
X89149467Y-102854613D01*
X89092264Y-103068099D01*
X89092264Y-103068100D01*
X89989214Y-103068100D01*
X89963407Y-103108256D01*
X89922900Y-103246211D01*
X89922900Y-103389989D01*
X89963407Y-103527944D01*
X89989214Y-103568100D01*
X89092264Y-103568100D01*
X89149467Y-103781586D01*
X89149470Y-103781592D01*
X89249299Y-103995678D01*
X89384794Y-104189182D01*
X89551817Y-104356205D01*
X89737931Y-104486525D01*
X89781556Y-104541103D01*
X89788748Y-104610601D01*
X89757226Y-104672956D01*
X89737931Y-104689675D01*
X89551822Y-104819990D01*
X89551820Y-104819991D01*
X89384791Y-104987020D01*
X89384786Y-104987026D01*
X89249300Y-105180520D01*
X89249299Y-105180522D01*
X89149470Y-105394607D01*
X89149467Y-105394613D01*
X89092264Y-105608099D01*
X89092264Y-105608100D01*
X89989214Y-105608100D01*
X89963407Y-105648256D01*
X89922900Y-105786211D01*
X89922900Y-105929989D01*
X89963407Y-106067944D01*
X89989214Y-106108100D01*
X89092264Y-106108100D01*
X89149467Y-106321586D01*
X89149470Y-106321592D01*
X89249299Y-106535678D01*
X89384794Y-106729182D01*
X89551817Y-106896205D01*
X89732702Y-107022863D01*
X89776327Y-107077440D01*
X89783519Y-107146939D01*
X89751997Y-107209293D01*
X89720597Y-107233492D01*
X89677327Y-107256909D01*
X89677322Y-107256912D01*
X89499661Y-107395192D01*
X89499656Y-107395197D01*
X89347184Y-107560823D01*
X89347176Y-107560834D01*
X89224040Y-107749307D01*
X89133603Y-107955485D01*
X89078336Y-108173728D01*
X89078334Y-108173740D01*
X89059744Y-108398094D01*
X89059744Y-108398105D01*
X89078334Y-108622459D01*
X89078336Y-108622471D01*
X89133603Y-108840714D01*
X89224040Y-109046892D01*
X89347176Y-109235365D01*
X89347184Y-109235376D01*
X89499656Y-109401002D01*
X89499660Y-109401006D01*
X89677324Y-109539289D01*
X89677325Y-109539289D01*
X89677327Y-109539291D01*
X89804035Y-109607861D01*
X89875326Y-109646442D01*
X90088265Y-109719544D01*
X90310331Y-109756600D01*
X90535469Y-109756600D01*
X90757535Y-109719544D01*
X90970474Y-109646442D01*
X91168476Y-109539289D01*
X91346140Y-109401006D01*
X91498622Y-109235368D01*
X91621760Y-109046891D01*
X91712196Y-108840716D01*
X91767464Y-108622468D01*
X91786056Y-108398100D01*
X91785915Y-108396400D01*
X91767465Y-108173740D01*
X91767463Y-108173728D01*
X91712196Y-107955485D01*
X91701984Y-107932204D01*
X91621760Y-107749309D01*
X91621427Y-107748800D01*
X91547604Y-107635804D01*
X91498622Y-107560832D01*
X91498619Y-107560829D01*
X91498615Y-107560823D01*
X91346143Y-107395197D01*
X91346138Y-107395192D01*
X91168477Y-107256912D01*
X91168477Y-107256911D01*
X91125203Y-107233493D01*
X91075613Y-107184273D01*
X91060505Y-107116057D01*
X91084675Y-107050501D01*
X91113098Y-107022863D01*
X91293979Y-106896208D01*
X91461005Y-106729182D01*
X91596500Y-106535678D01*
X91696329Y-106321592D01*
X91696332Y-106321586D01*
X91753536Y-106108100D01*
X90856586Y-106108100D01*
X90882393Y-106067944D01*
X90922900Y-105929989D01*
X90922900Y-105786211D01*
X90882393Y-105648256D01*
X90856586Y-105608100D01*
X91753536Y-105608100D01*
X91753535Y-105608099D01*
X91696332Y-105394613D01*
X91696329Y-105394607D01*
X91596500Y-105180522D01*
X91596499Y-105180520D01*
X91461013Y-104987026D01*
X91461008Y-104987020D01*
X91293978Y-104819990D01*
X91107868Y-104689673D01*
X91064243Y-104635096D01*
X91057051Y-104565598D01*
X91088573Y-104503243D01*
X91107869Y-104486524D01*
X91293979Y-104356208D01*
X91461005Y-104189182D01*
X91596500Y-103995678D01*
X91696329Y-103781592D01*
X91696332Y-103781586D01*
X91753536Y-103568100D01*
X90856586Y-103568100D01*
X90882393Y-103527944D01*
X90922900Y-103389989D01*
X90922900Y-103246211D01*
X90882393Y-103108256D01*
X90856586Y-103068100D01*
X91753536Y-103068100D01*
X91753535Y-103068099D01*
X91696332Y-102854613D01*
X91696329Y-102854607D01*
X91596500Y-102640522D01*
X91596499Y-102640520D01*
X91461013Y-102447026D01*
X91461008Y-102447020D01*
X91345172Y-102331184D01*
X91311687Y-102269861D01*
X91316671Y-102200169D01*
X91358543Y-102144236D01*
X91389512Y-102127324D01*
X91519104Y-102078989D01*
X91636161Y-101991361D01*
X91723789Y-101874304D01*
X91774889Y-101737301D01*
X91778491Y-101703792D01*
X91781399Y-101676754D01*
X91781400Y-101676737D01*
X91781400Y-99879462D01*
X91781399Y-99879445D01*
X91777812Y-99846091D01*
X91774889Y-99818899D01*
X91723789Y-99681896D01*
X91636161Y-99564839D01*
X91519104Y-99477211D01*
X91382103Y-99426111D01*
X91321554Y-99419600D01*
X91321538Y-99419600D01*
X90655715Y-99419600D01*
X90588676Y-99399915D01*
X90542921Y-99347111D01*
X90532977Y-99277953D01*
X90562002Y-99214397D01*
X90568034Y-99207919D01*
X91613769Y-98162184D01*
X94812181Y-94963770D01*
X94814892Y-94961219D01*
X94858624Y-94922477D01*
X94891820Y-94874381D01*
X94894010Y-94871405D01*
X94930039Y-94825420D01*
X94933699Y-94817285D01*
X94944726Y-94797734D01*
X94949796Y-94790391D01*
X94970516Y-94735753D01*
X94971918Y-94732367D01*
X94995909Y-94679064D01*
X94997517Y-94670285D01*
X95003546Y-94648660D01*
X95006708Y-94640325D01*
X95013749Y-94582330D01*
X95014303Y-94578684D01*
X95024840Y-94521197D01*
X95021312Y-94462888D01*
X95021199Y-94459143D01*
X95021199Y-92276242D01*
X95021199Y-90113788D01*
X95040884Y-90046753D01*
X95052416Y-90031650D01*
X95052887Y-90031001D01*
X95052891Y-90030997D01*
X95142377Y-89876003D01*
X95197682Y-89705791D01*
X95216390Y-89527800D01*
X95197682Y-89349809D01*
X95170029Y-89264703D01*
X95142379Y-89179602D01*
X95142376Y-89179596D01*
X95052891Y-89024603D01*
X94933136Y-88891601D01*
X94884872Y-88856535D01*
X94788343Y-88786402D01*
X94624844Y-88713609D01*
X94497038Y-88686443D01*
X94449786Y-88676400D01*
X94270814Y-88676400D01*
X94233604Y-88684308D01*
X94095755Y-88713609D01*
X94095754Y-88713609D01*
X93932256Y-88786402D01*
X93787462Y-88891602D01*
X93667708Y-89024604D01*
X93578223Y-89179596D01*
X93578220Y-89179602D01*
X93522919Y-89349804D01*
X93522918Y-89349806D01*
X93504210Y-89527799D01*
X93522918Y-89705793D01*
X93522919Y-89705795D01*
X93578220Y-89875997D01*
X93578223Y-89876003D01*
X93667708Y-90030996D01*
X93671527Y-90036252D01*
X93670510Y-90036990D01*
X93697779Y-90093807D01*
X93699400Y-90113792D01*
X93699400Y-94155883D01*
X93679715Y-94222922D01*
X93663081Y-94243564D01*
X86749453Y-101157192D01*
X86688130Y-101190677D01*
X86618438Y-101185693D01*
X86574091Y-101157193D01*
X86574090Y-101157192D01*
X86418600Y-101001702D01*
X86231049Y-100870377D01*
X86187955Y-100850282D01*
X86135515Y-100804110D01*
X86116363Y-100736917D01*
X86136578Y-100670036D01*
X86187955Y-100625518D01*
X86191182Y-100624012D01*
X86231049Y-100605423D01*
X86418600Y-100474098D01*
X86580498Y-100312200D01*
X86711823Y-100124649D01*
X86808584Y-99917143D01*
X86867843Y-99695987D01*
X86887798Y-99467900D01*
X86867843Y-99239813D01*
X86808584Y-99018657D01*
X86711823Y-98811151D01*
X86580498Y-98623600D01*
X86418600Y-98461702D01*
X86231049Y-98330377D01*
X86187955Y-98310282D01*
X86135515Y-98264110D01*
X86116363Y-98196917D01*
X86136578Y-98130036D01*
X86187955Y-98085518D01*
X86191182Y-98084012D01*
X86231049Y-98065423D01*
X86418600Y-97934098D01*
X86580498Y-97772200D01*
X86711823Y-97584649D01*
X86808584Y-97377143D01*
X86867843Y-97155987D01*
X86887798Y-96927900D01*
X86867843Y-96699813D01*
X86808584Y-96478657D01*
X86711823Y-96271151D01*
X86580498Y-96083600D01*
X86418600Y-95921702D01*
X86231049Y-95790377D01*
X86177896Y-95765591D01*
X86125458Y-95719419D01*
X86106307Y-95652225D01*
X86126523Y-95585344D01*
X86177900Y-95540827D01*
X86226783Y-95518033D01*
X86413120Y-95387557D01*
X86573957Y-95226720D01*
X86704434Y-95040382D01*
X86800565Y-94834226D01*
X86800569Y-94834217D01*
X86853172Y-94637900D01*
X85489986Y-94637900D01*
X85501941Y-94625945D01*
X85559465Y-94513048D01*
X85579286Y-94387900D01*
X85559465Y-94262752D01*
X85501941Y-94149855D01*
X85489986Y-94137900D01*
X86853172Y-94137900D01*
X86853172Y-94137899D01*
X86800569Y-93941582D01*
X86800565Y-93941573D01*
X86704434Y-93735417D01*
X86573957Y-93549079D01*
X86413120Y-93388242D01*
X86226781Y-93257765D01*
X86226779Y-93257764D01*
X86177899Y-93234971D01*
X86125459Y-93188799D01*
X86106307Y-93121606D01*
X86126523Y-93054724D01*
X86177899Y-93010207D01*
X86231049Y-92985423D01*
X86418600Y-92854098D01*
X86580498Y-92692200D01*
X86671891Y-92561676D01*
X86726468Y-92518052D01*
X86773466Y-92508800D01*
X88575385Y-92508800D01*
X88642424Y-92528485D01*
X88663066Y-92545119D01*
X89147200Y-93029254D01*
X89180685Y-93090577D01*
X89179378Y-93145531D01*
X89179726Y-93145593D01*
X89179323Y-93147878D01*
X89179296Y-93149021D01*
X89178786Y-93150924D01*
X89178785Y-93150930D01*
X89159593Y-93370297D01*
X89159593Y-93370302D01*
X89175233Y-93549079D01*
X89178785Y-93589671D01*
X89235780Y-93802376D01*
X89235781Y-93802379D01*
X89235782Y-93802381D01*
X89328842Y-94001950D01*
X89328844Y-94001954D01*
X89455151Y-94182338D01*
X89610862Y-94338049D01*
X89791246Y-94464356D01*
X89990824Y-94557420D01*
X90203529Y-94614415D01*
X90360222Y-94628123D01*
X90422898Y-94633607D01*
X90422900Y-94633607D01*
X90422902Y-94633607D01*
X90477742Y-94628809D01*
X90642271Y-94614415D01*
X90854976Y-94557420D01*
X91054554Y-94464356D01*
X91234938Y-94338049D01*
X91390649Y-94182338D01*
X91516956Y-94001954D01*
X91610020Y-93802376D01*
X91667015Y-93589671D01*
X91685209Y-93381706D01*
X91686207Y-93370302D01*
X91686207Y-93370297D01*
X91675715Y-93250375D01*
X91667015Y-93150929D01*
X91610020Y-92938224D01*
X91516956Y-92738647D01*
X91516954Y-92738644D01*
X91516953Y-92738642D01*
X91393040Y-92561677D01*
X91390649Y-92558262D01*
X91234938Y-92402551D01*
X91054554Y-92276244D01*
X91054550Y-92276242D01*
X90854981Y-92183182D01*
X90854979Y-92183181D01*
X90854976Y-92183180D01*
X90703677Y-92142639D01*
X90642272Y-92126185D01*
X90642265Y-92126184D01*
X90422902Y-92106993D01*
X90422898Y-92106993D01*
X90276652Y-92119787D01*
X90203529Y-92126185D01*
X90203527Y-92126185D01*
X90203524Y-92126186D01*
X90201621Y-92126696D01*
X90200750Y-92126675D01*
X90198193Y-92127126D01*
X90198102Y-92126612D01*
X90131771Y-92125029D01*
X90081854Y-92094600D01*
X90037785Y-92050532D01*
X89383270Y-91396017D01*
X89380719Y-91393306D01*
X89341977Y-91349576D01*
X89341978Y-91349576D01*
X89293902Y-91316392D01*
X89290886Y-91314172D01*
X89261755Y-91291350D01*
X89244920Y-91278161D01*
X89244918Y-91278160D01*
X89244913Y-91278157D01*
X89236781Y-91274497D01*
X89217239Y-91263476D01*
X89209891Y-91258404D01*
X89209889Y-91258403D01*
X89155279Y-91237691D01*
X89151819Y-91236259D01*
X89098564Y-91212291D01*
X89098562Y-91212290D01*
X89098561Y-91212290D01*
X89089778Y-91210680D01*
X89068164Y-91204654D01*
X89059825Y-91201492D01*
X89059823Y-91201491D01*
X89001856Y-91194452D01*
X88998154Y-91193889D01*
X88940700Y-91183360D01*
X88940695Y-91183360D01*
X88882391Y-91186887D01*
X88878646Y-91187000D01*
X86773466Y-91187000D01*
X86706427Y-91167315D01*
X86671891Y-91134123D01*
X86580501Y-91003604D01*
X86580496Y-91003598D01*
X86418604Y-90841706D01*
X86418600Y-90841702D01*
X86231049Y-90710377D01*
X86187955Y-90690282D01*
X86135515Y-90644110D01*
X86116363Y-90576917D01*
X86136578Y-90510036D01*
X86187955Y-90465518D01*
X86191182Y-90464012D01*
X86231049Y-90445423D01*
X86418600Y-90314098D01*
X86580498Y-90152200D01*
X86671891Y-90021676D01*
X86726468Y-89978052D01*
X86773466Y-89968800D01*
X86811546Y-89968800D01*
X86815291Y-89968913D01*
X86873596Y-89972440D01*
X86873596Y-89972439D01*
X86873597Y-89972440D01*
X86931084Y-89961903D01*
X86934730Y-89961349D01*
X86992725Y-89954308D01*
X87001060Y-89951146D01*
X87022685Y-89945117D01*
X87031464Y-89943509D01*
X87084767Y-89919518D01*
X87088153Y-89918116D01*
X87142791Y-89897396D01*
X87150134Y-89892326D01*
X87169685Y-89881299D01*
X87177820Y-89877639D01*
X87223805Y-89841610D01*
X87226781Y-89839420D01*
X87274877Y-89806224D01*
X87313620Y-89762490D01*
X87316155Y-89759796D01*
X87908433Y-89167519D01*
X87969757Y-89134034D01*
X87996115Y-89131200D01*
X89284772Y-89131200D01*
X89351811Y-89150885D01*
X89386346Y-89184076D01*
X89455145Y-89282331D01*
X89455149Y-89282336D01*
X89455151Y-89282338D01*
X89610862Y-89438049D01*
X89791246Y-89564356D01*
X89990824Y-89657420D01*
X90203529Y-89714415D01*
X90360222Y-89728123D01*
X90422898Y-89733607D01*
X90422900Y-89733607D01*
X90422902Y-89733607D01*
X90477742Y-89728809D01*
X90642271Y-89714415D01*
X90854976Y-89657420D01*
X91054554Y-89564356D01*
X91234938Y-89438049D01*
X91390649Y-89282338D01*
X91390654Y-89282331D01*
X91459454Y-89184076D01*
X91514031Y-89140451D01*
X91561028Y-89131200D01*
X91756746Y-89131200D01*
X91760491Y-89131313D01*
X91818796Y-89134840D01*
X91818796Y-89134839D01*
X91818797Y-89134840D01*
X91876284Y-89124303D01*
X91879930Y-89123749D01*
X91937925Y-89116708D01*
X91946260Y-89113546D01*
X91967885Y-89107517D01*
X91976664Y-89105909D01*
X92029967Y-89081918D01*
X92033353Y-89080516D01*
X92087991Y-89059796D01*
X92095334Y-89054726D01*
X92114885Y-89043699D01*
X92123020Y-89040039D01*
X92169005Y-89004010D01*
X92171981Y-89001820D01*
X92220077Y-88968624D01*
X92258820Y-88924890D01*
X92261370Y-88922181D01*
X94766900Y-86416652D01*
X94828221Y-86383169D01*
X94828456Y-86383118D01*
X94975846Y-86351790D01*
X95139345Y-86278996D01*
X95284136Y-86173799D01*
X95292191Y-86164852D01*
X95351675Y-86128203D01*
X95421532Y-86129531D01*
X95434776Y-86134543D01*
X95445288Y-86139223D01*
X95451054Y-86141790D01*
X95626114Y-86179000D01*
X95626115Y-86179000D01*
X95805084Y-86179000D01*
X95805086Y-86179000D01*
X95980146Y-86141790D01*
X96143645Y-86068996D01*
X96288436Y-85963799D01*
X96408191Y-85830797D01*
X96497677Y-85675803D01*
X96552982Y-85505591D01*
X96571690Y-85327600D01*
X96552982Y-85149609D01*
X96497677Y-84979397D01*
X96408191Y-84824403D01*
X96288436Y-84691401D01*
X96240172Y-84656335D01*
X96143643Y-84586202D01*
X95980144Y-84513409D01*
X95833098Y-84482154D01*
X95771616Y-84448962D01*
X95771198Y-84448545D01*
X95771197Y-84448544D01*
X95602769Y-84280116D01*
X95600218Y-84277405D01*
X95561477Y-84233676D01*
X95561478Y-84233676D01*
X95513402Y-84200492D01*
X95510386Y-84198272D01*
X95464421Y-84162262D01*
X95464420Y-84162261D01*
X95464418Y-84162260D01*
X95464413Y-84162257D01*
X95456281Y-84158597D01*
X95436739Y-84147576D01*
X95429391Y-84142504D01*
X95429389Y-84142503D01*
X95374779Y-84121791D01*
X95371319Y-84120359D01*
X95371315Y-84120357D01*
X95318064Y-84096391D01*
X95318062Y-84096390D01*
X95318061Y-84096390D01*
X95309278Y-84094780D01*
X95287664Y-84088754D01*
X95279325Y-84085592D01*
X95279323Y-84085591D01*
X95221356Y-84078552D01*
X95217654Y-84077989D01*
X95160200Y-84067460D01*
X95160195Y-84067460D01*
X95101891Y-84070987D01*
X95098146Y-84071100D01*
X88891138Y-84071100D01*
X88887393Y-84070987D01*
X88829105Y-84067461D01*
X88829100Y-84067461D01*
X88780468Y-84076373D01*
X88771654Y-84077988D01*
X88767956Y-84078551D01*
X88709977Y-84085591D01*
X88707292Y-84086609D01*
X88701627Y-84088757D01*
X88680020Y-84094780D01*
X88671244Y-84096388D01*
X88671232Y-84096392D01*
X88635304Y-84112561D01*
X88617980Y-84120359D01*
X88614526Y-84121789D01*
X88559907Y-84142504D01*
X88552550Y-84147582D01*
X88533026Y-84158593D01*
X88524886Y-84162257D01*
X88524877Y-84162262D01*
X88478906Y-84198276D01*
X88475892Y-84200494D01*
X88427821Y-84233676D01*
X88427820Y-84233677D01*
X88389087Y-84277398D01*
X88386520Y-84280124D01*
X86749453Y-85917192D01*
X86688130Y-85950677D01*
X86618438Y-85945693D01*
X86574091Y-85917193D01*
X86517418Y-85860520D01*
X86418600Y-85761702D01*
X86231049Y-85630377D01*
X86231045Y-85630375D01*
X86023549Y-85533618D01*
X86023538Y-85533614D01*
X85802389Y-85474357D01*
X85802381Y-85474356D01*
X85631427Y-85459400D01*
X84717173Y-85459400D01*
X84546218Y-85474356D01*
X84546210Y-85474357D01*
X84325061Y-85533614D01*
X84325050Y-85533618D01*
X84117554Y-85630375D01*
X84117552Y-85630376D01*
X84117549Y-85630377D01*
X84117551Y-85630377D01*
X83930000Y-85761702D01*
X83929998Y-85761703D01*
X83929995Y-85761706D01*
X83768106Y-85923595D01*
X83768103Y-85923598D01*
X83768102Y-85923600D01*
X83686067Y-86040756D01*
X83636776Y-86111152D01*
X83636775Y-86111154D01*
X83540018Y-86318650D01*
X83540014Y-86318661D01*
X83480757Y-86539810D01*
X83480756Y-86539818D01*
X83460802Y-86767898D01*
X83460802Y-86767901D01*
X83480756Y-86995981D01*
X83480757Y-86995989D01*
X83540014Y-87217138D01*
X83540018Y-87217149D01*
X83626919Y-87403508D01*
X83636777Y-87424649D01*
X83768102Y-87612200D01*
X83930000Y-87774098D01*
X84051864Y-87859428D01*
X84117551Y-87905423D01*
X84160645Y-87925518D01*
X84213084Y-87971691D01*
X84232236Y-88038884D01*
X84212020Y-88105765D01*
X84160645Y-88150282D01*
X84117551Y-88170376D01*
X84026245Y-88234310D01*
X83930000Y-88301702D01*
X83929998Y-88301703D01*
X83929995Y-88301706D01*
X83768106Y-88463595D01*
X83768103Y-88463598D01*
X83768102Y-88463600D01*
X83686067Y-88580756D01*
X83636776Y-88651152D01*
X83636775Y-88651154D01*
X83540018Y-88858650D01*
X83540014Y-88858661D01*
X83480757Y-89079810D01*
X83480756Y-89079818D01*
X83460802Y-89307898D01*
X83460802Y-89307901D01*
X83480756Y-89535981D01*
X83480757Y-89535989D01*
X83540014Y-89757138D01*
X83540018Y-89757149D01*
X83626919Y-89943508D01*
X83636777Y-89964649D01*
X83768102Y-90152200D01*
X83930000Y-90314098D01*
X84117550Y-90445422D01*
X84117551Y-90445423D01*
X84160645Y-90465518D01*
X84213084Y-90511691D01*
X84232236Y-90578884D01*
X84212020Y-90645765D01*
X84160645Y-90690282D01*
X84117551Y-90710376D01*
X83992426Y-90797990D01*
X83930000Y-90841702D01*
X83929998Y-90841703D01*
X83929995Y-90841706D01*
X83768106Y-91003595D01*
X83768103Y-91003598D01*
X83768102Y-91003600D01*
X83686067Y-91120756D01*
X83636776Y-91191152D01*
X83636775Y-91191154D01*
X83540018Y-91398650D01*
X83540014Y-91398661D01*
X83480757Y-91619810D01*
X83480756Y-91619818D01*
X83460802Y-91847898D01*
X83460802Y-91847901D01*
X83480756Y-92075981D01*
X83480757Y-92075989D01*
X83540014Y-92297138D01*
X83540018Y-92297149D01*
X83589168Y-92402551D01*
X83636777Y-92504649D01*
X83768102Y-92692200D01*
X83930000Y-92854098D01*
X84117550Y-92985422D01*
X84117551Y-92985423D01*
X84170701Y-93010207D01*
X84223140Y-93056379D01*
X84242292Y-93123573D01*
X84222076Y-93190454D01*
X84170701Y-93234971D01*
X84121817Y-93257765D01*
X83935479Y-93388242D01*
X83774642Y-93549079D01*
X83644165Y-93735417D01*
X83548034Y-93941573D01*
X83548030Y-93941582D01*
X83495427Y-94137899D01*
X83495428Y-94137900D01*
X84858614Y-94137900D01*
X84846659Y-94149855D01*
X84789135Y-94262752D01*
X84769314Y-94387900D01*
X84789135Y-94513048D01*
X84846659Y-94625945D01*
X84858614Y-94637900D01*
X83495428Y-94637900D01*
X83548030Y-94834217D01*
X83548034Y-94834226D01*
X83644165Y-95040382D01*
X83774642Y-95226720D01*
X83935479Y-95387557D01*
X84121817Y-95518033D01*
X84170699Y-95540827D01*
X84223139Y-95586999D01*
X84242292Y-95654192D01*
X84222077Y-95721074D01*
X84170702Y-95765591D01*
X84117556Y-95790374D01*
X84117552Y-95790376D01*
X84047156Y-95839667D01*
X83930000Y-95921702D01*
X83929998Y-95921703D01*
X83929995Y-95921706D01*
X83768106Y-96083595D01*
X83636776Y-96271152D01*
X83636775Y-96271154D01*
X83540018Y-96478650D01*
X83540014Y-96478661D01*
X83480757Y-96699810D01*
X83480756Y-96699818D01*
X83460802Y-96927898D01*
X83460802Y-96927901D01*
X83480756Y-97155981D01*
X83480757Y-97155989D01*
X83540014Y-97377138D01*
X83540018Y-97377149D01*
X83636775Y-97584645D01*
X83636777Y-97584649D01*
X83768102Y-97772200D01*
X83930000Y-97934098D01*
X84117550Y-98065422D01*
X84117551Y-98065423D01*
X84160645Y-98085518D01*
X84213084Y-98131691D01*
X84232236Y-98198884D01*
X84212020Y-98265765D01*
X84160645Y-98310282D01*
X84117551Y-98330376D01*
X83992426Y-98417990D01*
X83930000Y-98461702D01*
X83929998Y-98461703D01*
X83929995Y-98461706D01*
X83768103Y-98623598D01*
X83768098Y-98623604D01*
X83676709Y-98754123D01*
X83622132Y-98797748D01*
X83575134Y-98807000D01*
X82589700Y-98807000D01*
X82522661Y-98787315D01*
X82476906Y-98734511D01*
X82465700Y-98683000D01*
X82465700Y-97001154D01*
X82465813Y-96997409D01*
X82469340Y-96939103D01*
X82469339Y-96939098D01*
X82458809Y-96881642D01*
X82458245Y-96877936D01*
X82451208Y-96819978D01*
X82451208Y-96819976D01*
X82448045Y-96811636D01*
X82442017Y-96790012D01*
X82440409Y-96781237D01*
X82440409Y-96781236D01*
X82416423Y-96727942D01*
X82415016Y-96724545D01*
X82394296Y-96669909D01*
X82389223Y-96662560D01*
X82378198Y-96643011D01*
X82374539Y-96634880D01*
X82338525Y-96588912D01*
X82336306Y-96585896D01*
X82303124Y-96537823D01*
X82259383Y-96499072D01*
X82256689Y-96496536D01*
X79696170Y-93936017D01*
X79693619Y-93933306D01*
X79654877Y-93889576D01*
X79654878Y-93889576D01*
X79606802Y-93856392D01*
X79603786Y-93854172D01*
X79574655Y-93831350D01*
X79557820Y-93818161D01*
X79557818Y-93818160D01*
X79557813Y-93818157D01*
X79549681Y-93814497D01*
X79530139Y-93803476D01*
X79528553Y-93802381D01*
X79522791Y-93798404D01*
X79522789Y-93798403D01*
X79468179Y-93777691D01*
X79464719Y-93776259D01*
X79411464Y-93752291D01*
X79411462Y-93752290D01*
X79411461Y-93752290D01*
X79402678Y-93750680D01*
X79381064Y-93744654D01*
X79372725Y-93741492D01*
X79372723Y-93741491D01*
X79314756Y-93734452D01*
X79311054Y-93733889D01*
X79253600Y-93723360D01*
X79253595Y-93723360D01*
X79195291Y-93726887D01*
X79191546Y-93727000D01*
X79153466Y-93727000D01*
X79086427Y-93707315D01*
X79051891Y-93674123D01*
X78960501Y-93543604D01*
X78960496Y-93543598D01*
X78798604Y-93381706D01*
X78798600Y-93381702D01*
X78611049Y-93250377D01*
X78567955Y-93230282D01*
X78515515Y-93184110D01*
X78496363Y-93116917D01*
X78516578Y-93050036D01*
X78567955Y-93005518D01*
X78571182Y-93004012D01*
X78611049Y-92985423D01*
X78798600Y-92854098D01*
X78960498Y-92692200D01*
X79091823Y-92504649D01*
X79188584Y-92297143D01*
X79247843Y-92075987D01*
X79267798Y-91847900D01*
X79247843Y-91619813D01*
X79188584Y-91398657D01*
X79186739Y-91394701D01*
X79132394Y-91278157D01*
X79091823Y-91191151D01*
X78960498Y-91003600D01*
X78798600Y-90841702D01*
X78611049Y-90710377D01*
X78567955Y-90690282D01*
X78515515Y-90644110D01*
X78496363Y-90576917D01*
X78516578Y-90510036D01*
X78567955Y-90465518D01*
X78571182Y-90464012D01*
X78611049Y-90445423D01*
X78798600Y-90314098D01*
X78960498Y-90152200D01*
X79091823Y-89964649D01*
X79188584Y-89757143D01*
X79247843Y-89535987D01*
X79267798Y-89307900D01*
X79247843Y-89079813D01*
X79188584Y-88858657D01*
X79091823Y-88651151D01*
X78960498Y-88463600D01*
X78798600Y-88301702D01*
X78780298Y-88288886D01*
X78736675Y-88234310D01*
X78729483Y-88164812D01*
X78761006Y-88102458D01*
X78821237Y-88067045D01*
X78838171Y-88064024D01*
X78861679Y-88061496D01*
X78996386Y-88011254D01*
X78996393Y-88011250D01*
X79111487Y-87925090D01*
X79111490Y-87925087D01*
X79197650Y-87809993D01*
X79197654Y-87809986D01*
X79247896Y-87675279D01*
X79247898Y-87675272D01*
X79254299Y-87615744D01*
X79254300Y-87615727D01*
X79254300Y-87017900D01*
X77869986Y-87017900D01*
X77881941Y-87005945D01*
X77939465Y-86893048D01*
X77959286Y-86767900D01*
X77939465Y-86642752D01*
X77881941Y-86529855D01*
X77869986Y-86517900D01*
X79254300Y-86517900D01*
X79254300Y-85920072D01*
X79254299Y-85920055D01*
X79247898Y-85860527D01*
X79247896Y-85860520D01*
X79197654Y-85725813D01*
X79197650Y-85725806D01*
X79111490Y-85610712D01*
X79111487Y-85610709D01*
X78996393Y-85524549D01*
X78996386Y-85524545D01*
X78861679Y-85474303D01*
X78861672Y-85474301D01*
X78802144Y-85467900D01*
X77804300Y-85467900D01*
X77804300Y-86452214D01*
X77792345Y-86440259D01*
X77679448Y-86382735D01*
X77585781Y-86367900D01*
X77522819Y-86367900D01*
X77429152Y-86382735D01*
X77316255Y-86440259D01*
X77304300Y-86452213D01*
X77304300Y-85467900D01*
X76680100Y-85467900D01*
X76613061Y-85448215D01*
X76567306Y-85395411D01*
X76556100Y-85343900D01*
X76556100Y-78807273D01*
X76575785Y-78740234D01*
X76628589Y-78694479D01*
X76697747Y-78684535D01*
X76722522Y-78690755D01*
X76725583Y-78691869D01*
X76945289Y-78750739D01*
X76945300Y-78750741D01*
X77115137Y-78765600D01*
X77321900Y-78765600D01*
X77321900Y-77781286D01*
X77333855Y-77793241D01*
X77446752Y-77850765D01*
X77540419Y-77865600D01*
X77603381Y-77865600D01*
X77697048Y-77850765D01*
X77809945Y-77793241D01*
X77821900Y-77781286D01*
X77821900Y-78765600D01*
X78028663Y-78765600D01*
X78198499Y-78750741D01*
X78198510Y-78750739D01*
X78418217Y-78691869D01*
X78418226Y-78691865D01*
X78624382Y-78595734D01*
X78810720Y-78465257D01*
X78971557Y-78304420D01*
X79102034Y-78118082D01*
X79198165Y-77911926D01*
X79198169Y-77911917D01*
X79250772Y-77715600D01*
X77887586Y-77715600D01*
X77899541Y-77703645D01*
X77957065Y-77590748D01*
X77976886Y-77465600D01*
X77957065Y-77340452D01*
X77899541Y-77227555D01*
X77887586Y-77215600D01*
X79250772Y-77215600D01*
X79250772Y-77215599D01*
X79198169Y-77019282D01*
X79198165Y-77019273D01*
X79102034Y-76813117D01*
X78971557Y-76626779D01*
X78810720Y-76465942D01*
X78624381Y-76335465D01*
X78624379Y-76335464D01*
X78575499Y-76312671D01*
X78523059Y-76266499D01*
X78503907Y-76199306D01*
X78524123Y-76132424D01*
X78575499Y-76087907D01*
X78628649Y-76063123D01*
X78816200Y-75931798D01*
X78971691Y-75776306D01*
X79033014Y-75742822D01*
X79102706Y-75747806D01*
X79147053Y-75776307D01*
X79558826Y-76188079D01*
X80018135Y-76647389D01*
X80020687Y-76650101D01*
X80059423Y-76693824D01*
X80107498Y-76727008D01*
X80110493Y-76729211D01*
X80156480Y-76765239D01*
X80164614Y-76768899D01*
X80184160Y-76779923D01*
X80191509Y-76784996D01*
X80246145Y-76805716D01*
X80249542Y-76807123D01*
X80302836Y-76831109D01*
X80310327Y-76832481D01*
X80311612Y-76832717D01*
X80333233Y-76838744D01*
X80341575Y-76841908D01*
X80399546Y-76848946D01*
X80403240Y-76849508D01*
X80460703Y-76860040D01*
X80519009Y-76856513D01*
X80522754Y-76856400D01*
X83438876Y-76856400D01*
X83505915Y-76876085D01*
X83551670Y-76928889D01*
X83561614Y-76998047D01*
X83558651Y-77012494D01*
X83498357Y-77237510D01*
X83498356Y-77237518D01*
X83478402Y-77465598D01*
X83478402Y-77465601D01*
X83498356Y-77693681D01*
X83498357Y-77693689D01*
X83557614Y-77914838D01*
X83557618Y-77914849D01*
X83644519Y-78101208D01*
X83654377Y-78122349D01*
X83785702Y-78309900D01*
X83947600Y-78471798D01*
X84135151Y-78603123D01*
X84259991Y-78661336D01*
X84342650Y-78699881D01*
X84342652Y-78699881D01*
X84342657Y-78699884D01*
X84563813Y-78759143D01*
X84734773Y-78774100D01*
X85649027Y-78774100D01*
X85819987Y-78759143D01*
X86041143Y-78699884D01*
X86248649Y-78603123D01*
X86436200Y-78471798D01*
X86598098Y-78309900D01*
X86689491Y-78179376D01*
X86744068Y-78135752D01*
X86791066Y-78126500D01*
X86829146Y-78126500D01*
X86832891Y-78126613D01*
X86891196Y-78130140D01*
X86891196Y-78130139D01*
X86891197Y-78130140D01*
X86948684Y-78119603D01*
X86952330Y-78119049D01*
X87010325Y-78112008D01*
X87018660Y-78108846D01*
X87040285Y-78102817D01*
X87049064Y-78101209D01*
X87102367Y-78077218D01*
X87105753Y-78075816D01*
X87160391Y-78055096D01*
X87167739Y-78050024D01*
X87187289Y-78038998D01*
X87195420Y-78035339D01*
X87241405Y-77999310D01*
X87244381Y-77997120D01*
X87292477Y-77963924D01*
X87331220Y-77920190D01*
X87333779Y-77917473D01*
X88180898Y-77070355D01*
X88242218Y-77036872D01*
X88311910Y-77041856D01*
X88367843Y-77083728D01*
X88392260Y-77149192D01*
X88388351Y-77190130D01*
X88381527Y-77215598D01*
X88381528Y-77215600D01*
X89744714Y-77215600D01*
X89732759Y-77227555D01*
X89675235Y-77340452D01*
X89655414Y-77465600D01*
X89675235Y-77590748D01*
X89732759Y-77703645D01*
X89744714Y-77715600D01*
X88381528Y-77715600D01*
X88434130Y-77911917D01*
X88434134Y-77911926D01*
X88530265Y-78118082D01*
X88660742Y-78304420D01*
X88821579Y-78465257D01*
X89007917Y-78595734D01*
X89214073Y-78691865D01*
X89214082Y-78691869D01*
X89433789Y-78750739D01*
X89433800Y-78750741D01*
X89603637Y-78765600D01*
X89810400Y-78765600D01*
X89810400Y-77781286D01*
X89822355Y-77793241D01*
X89935252Y-77850765D01*
X90028919Y-77865600D01*
X90091881Y-77865600D01*
X90185548Y-77850765D01*
X90298445Y-77793241D01*
X90310400Y-77781286D01*
X90310400Y-78765600D01*
X90517163Y-78765600D01*
X90686999Y-78750741D01*
X90687010Y-78750739D01*
X90906717Y-78691869D01*
X90906726Y-78691865D01*
X91112882Y-78595734D01*
X91299220Y-78465257D01*
X91460057Y-78304420D01*
X91590534Y-78118082D01*
X91686665Y-77911926D01*
X91686669Y-77911917D01*
X91739272Y-77715600D01*
X90376086Y-77715600D01*
X90388041Y-77703645D01*
X90445565Y-77590748D01*
X90465386Y-77465600D01*
X90445565Y-77340452D01*
X90388041Y-77227555D01*
X90376086Y-77215600D01*
X91739272Y-77215600D01*
X91739272Y-77215599D01*
X91685266Y-77014045D01*
X91687419Y-77013467D01*
X91683597Y-76953275D01*
X91717571Y-76892221D01*
X91779160Y-76859227D01*
X91804549Y-76856600D01*
X94426285Y-76856600D01*
X94493324Y-76876285D01*
X94513965Y-76892918D01*
X95538535Y-77917489D01*
X95541087Y-77920201D01*
X95579823Y-77963924D01*
X95627898Y-77997108D01*
X95630893Y-77999311D01*
X95676880Y-78035339D01*
X95685014Y-78038999D01*
X95704560Y-78050023D01*
X95711909Y-78055096D01*
X95766545Y-78075816D01*
X95769942Y-78077223D01*
X95823236Y-78101209D01*
X95830727Y-78102581D01*
X95832012Y-78102817D01*
X95853633Y-78108844D01*
X95861975Y-78112008D01*
X95919946Y-78119046D01*
X95923640Y-78119608D01*
X95981103Y-78130140D01*
X96039409Y-78126613D01*
X96043154Y-78126500D01*
X96081234Y-78126500D01*
X96148273Y-78146185D01*
X96182809Y-78179377D01*
X96270364Y-78304420D01*
X96274202Y-78309900D01*
X96436100Y-78471798D01*
X96623651Y-78603123D01*
X96748491Y-78661336D01*
X96831150Y-78699881D01*
X96831152Y-78699881D01*
X96831157Y-78699884D01*
X97052313Y-78759143D01*
X97223273Y-78774100D01*
X98137527Y-78774100D01*
X98308487Y-78759143D01*
X98529643Y-78699884D01*
X98737149Y-78603123D01*
X98924700Y-78471798D01*
X99086598Y-78309900D01*
X99217923Y-78122349D01*
X99314684Y-77914843D01*
X99373943Y-77693687D01*
X99393898Y-77465600D01*
X99373943Y-77237513D01*
X99314684Y-77016357D01*
X99313336Y-77013467D01*
X99249368Y-76876285D01*
X99217923Y-76808851D01*
X99086598Y-76621300D01*
X98924700Y-76459402D01*
X98737149Y-76328077D01*
X98694055Y-76307982D01*
X98641615Y-76261810D01*
X98622463Y-76194617D01*
X98642678Y-76127736D01*
X98694055Y-76083218D01*
X98697282Y-76081712D01*
X98737149Y-76063123D01*
X98924700Y-75931798D01*
X99086598Y-75769900D01*
X99217923Y-75582349D01*
X99314684Y-75374843D01*
X99373943Y-75153687D01*
X99393898Y-74925600D01*
X99373943Y-74697513D01*
X99314684Y-74476357D01*
X99312839Y-74472401D01*
X99258494Y-74355857D01*
X99217923Y-74268851D01*
X99086598Y-74081300D01*
X98924700Y-73919402D01*
X98737149Y-73788077D01*
X98696199Y-73768982D01*
X98694055Y-73767982D01*
X98641615Y-73721810D01*
X98622463Y-73654617D01*
X98642678Y-73587736D01*
X98694055Y-73543218D01*
X98697282Y-73541712D01*
X98737149Y-73523123D01*
X98924700Y-73391798D01*
X99086598Y-73229900D01*
X99217923Y-73042349D01*
X99314684Y-72834843D01*
X99373943Y-72613687D01*
X99393898Y-72385600D01*
X99373943Y-72157513D01*
X99314684Y-71936357D01*
X99312975Y-71932693D01*
X99257124Y-71812919D01*
X99217923Y-71728851D01*
X99086598Y-71541300D01*
X98924700Y-71379402D01*
X98737149Y-71248077D01*
X98696199Y-71228982D01*
X98694055Y-71227982D01*
X98641615Y-71181810D01*
X98622463Y-71114617D01*
X98642678Y-71047736D01*
X98694055Y-71003218D01*
X98697282Y-71001712D01*
X98737149Y-70983123D01*
X98924700Y-70851798D01*
X99086598Y-70689900D01*
X99217923Y-70502349D01*
X99314684Y-70294843D01*
X99373943Y-70073687D01*
X99393898Y-69845600D01*
X99373943Y-69617513D01*
X99314684Y-69396357D01*
X99312839Y-69392401D01*
X99258494Y-69275857D01*
X99217923Y-69188851D01*
X99086598Y-69001300D01*
X98924700Y-68839402D01*
X98737149Y-68708077D01*
X98696199Y-68688982D01*
X98694055Y-68687982D01*
X98641615Y-68641810D01*
X98622463Y-68574617D01*
X98642678Y-68507736D01*
X98694055Y-68463218D01*
X98697282Y-68461712D01*
X98737149Y-68443123D01*
X98924700Y-68311798D01*
X99086598Y-68149900D01*
X99217923Y-67962349D01*
X99314684Y-67754843D01*
X99373943Y-67533687D01*
X99393898Y-67305600D01*
X99373943Y-67077513D01*
X99314684Y-66856357D01*
X99312839Y-66852401D01*
X99258494Y-66735857D01*
X99217923Y-66648851D01*
X99086598Y-66461300D01*
X98924700Y-66299402D01*
X98737149Y-66168077D01*
X98737143Y-66168074D01*
X98694053Y-66147980D01*
X98641614Y-66101807D01*
X98622463Y-66034614D01*
X98642680Y-65967733D01*
X98694054Y-65923218D01*
X98737149Y-65903123D01*
X98924700Y-65771798D01*
X99086598Y-65609900D01*
X99217923Y-65422349D01*
X99314684Y-65214843D01*
X99373943Y-64993687D01*
X99393898Y-64765600D01*
X99373943Y-64537513D01*
X99314684Y-64316357D01*
X99312839Y-64312401D01*
X99257078Y-64192819D01*
X99217923Y-64108851D01*
X99086598Y-63921300D01*
X98924700Y-63759402D01*
X98737149Y-63628077D01*
X98696199Y-63608982D01*
X98694055Y-63607982D01*
X98641615Y-63561810D01*
X98622463Y-63494617D01*
X98642678Y-63427736D01*
X98694055Y-63383218D01*
X98697282Y-63381712D01*
X98737149Y-63363123D01*
X98924700Y-63231798D01*
X99086598Y-63069900D01*
X99217923Y-62882349D01*
X99314684Y-62674843D01*
X99373943Y-62453687D01*
X99393898Y-62225600D01*
X99373943Y-61997513D01*
X99314684Y-61776357D01*
X99312839Y-61772401D01*
X99258496Y-61655861D01*
X99217923Y-61568851D01*
X99086598Y-61381300D01*
X98924700Y-61219402D01*
X98737149Y-61088077D01*
X98694055Y-61067982D01*
X98641615Y-61021810D01*
X98622463Y-60954617D01*
X98642678Y-60887736D01*
X98694055Y-60843218D01*
X98697282Y-60841712D01*
X98737149Y-60823123D01*
X98924700Y-60691798D01*
X99086598Y-60529900D01*
X99217923Y-60342349D01*
X99314684Y-60134843D01*
X99373943Y-59913687D01*
X99393898Y-59685600D01*
X99373943Y-59457513D01*
X99314684Y-59236357D01*
X99217923Y-59028851D01*
X99086598Y-58841300D01*
X98924700Y-58679402D01*
X98737149Y-58548077D01*
X98694055Y-58527982D01*
X98641615Y-58481810D01*
X98622463Y-58414617D01*
X98642678Y-58347736D01*
X98694055Y-58303218D01*
X98697282Y-58301712D01*
X98737149Y-58283123D01*
X98924700Y-58151798D01*
X99086598Y-57989900D01*
X99217923Y-57802349D01*
X99314684Y-57594843D01*
X99373943Y-57373687D01*
X99393898Y-57145600D01*
X99373943Y-56917513D01*
X99314684Y-56696357D01*
X99311275Y-56689047D01*
X99246546Y-56550234D01*
X99217923Y-56488851D01*
X99086598Y-56301300D01*
X98924700Y-56139402D01*
X98737149Y-56008077D01*
X98737145Y-56008075D01*
X98529649Y-55911318D01*
X98529638Y-55911314D01*
X98308489Y-55852057D01*
X98308481Y-55852056D01*
X98137527Y-55837100D01*
X97223273Y-55837100D01*
X97052318Y-55852056D01*
X97052310Y-55852057D01*
X96831161Y-55911314D01*
X96831150Y-55911318D01*
X96623654Y-56008075D01*
X96623652Y-56008076D01*
X96623649Y-56008077D01*
X96623651Y-56008077D01*
X96436100Y-56139402D01*
X96436098Y-56139403D01*
X96436095Y-56139406D01*
X96274206Y-56301295D01*
X96142876Y-56488852D01*
X96142875Y-56488854D01*
X96046118Y-56696350D01*
X96046114Y-56696361D01*
X95986857Y-56917510D01*
X95986856Y-56917518D01*
X95966902Y-57145598D01*
X95966902Y-57145601D01*
X95986856Y-57373681D01*
X95986857Y-57373689D01*
X96046114Y-57594838D01*
X96046118Y-57594849D01*
X96128890Y-57772354D01*
X96142877Y-57802349D01*
X96274202Y-57989900D01*
X96436100Y-58151798D01*
X96623651Y-58283123D01*
X96666745Y-58303218D01*
X96719184Y-58349391D01*
X96738336Y-58416584D01*
X96718120Y-58483465D01*
X96666745Y-58527982D01*
X96623651Y-58548076D01*
X96479356Y-58649113D01*
X96443774Y-58674029D01*
X96436099Y-58679403D01*
X96280608Y-58834894D01*
X96219285Y-58868378D01*
X96149593Y-58863394D01*
X96105246Y-58834893D01*
X95684970Y-58414617D01*
X95234070Y-57963717D01*
X95231519Y-57961006D01*
X95192777Y-57917276D01*
X95192778Y-57917276D01*
X95144702Y-57884092D01*
X95141686Y-57881872D01*
X95098667Y-57848170D01*
X95095720Y-57845861D01*
X95095716Y-57845859D01*
X95095713Y-57845857D01*
X95087581Y-57842197D01*
X95068039Y-57831176D01*
X95060691Y-57826104D01*
X95060689Y-57826103D01*
X95006079Y-57805391D01*
X95002619Y-57803959D01*
X95002610Y-57803955D01*
X94949364Y-57779991D01*
X94949362Y-57779990D01*
X94949361Y-57779990D01*
X94940578Y-57778380D01*
X94918964Y-57772354D01*
X94910625Y-57769192D01*
X94910623Y-57769191D01*
X94852656Y-57762152D01*
X94848954Y-57761589D01*
X94791500Y-57751060D01*
X94791495Y-57751060D01*
X94733191Y-57754587D01*
X94729446Y-57754700D01*
X91892900Y-57754700D01*
X91825861Y-57735015D01*
X91780106Y-57682211D01*
X91768900Y-57630700D01*
X91768900Y-57145598D01*
X91768900Y-56296962D01*
X91768899Y-56296952D01*
X91768899Y-56296945D01*
X91765557Y-56265870D01*
X91762389Y-56236399D01*
X91711289Y-56099396D01*
X91623661Y-55982339D01*
X91506604Y-55894711D01*
X91506604Y-55894710D01*
X91369603Y-55843611D01*
X91309054Y-55837100D01*
X91309038Y-55837100D01*
X88811762Y-55837100D01*
X88811745Y-55837100D01*
X88751197Y-55843611D01*
X88751195Y-55843611D01*
X88614195Y-55894711D01*
X88497138Y-55982339D01*
X88497139Y-55982339D01*
X88477873Y-56008076D01*
X88443998Y-56053327D01*
X88388064Y-56095198D01*
X88318372Y-56100182D01*
X88257050Y-56066697D01*
X88027453Y-55837100D01*
X87624970Y-55434617D01*
X87622419Y-55431906D01*
X87583677Y-55388176D01*
X87583678Y-55388176D01*
X87535602Y-55354992D01*
X87532586Y-55352772D01*
X87503455Y-55329950D01*
X87486620Y-55316761D01*
X87486616Y-55316759D01*
X87486613Y-55316757D01*
X87478481Y-55313097D01*
X87458939Y-55302076D01*
X87451591Y-55297004D01*
X87451589Y-55297003D01*
X87396979Y-55276291D01*
X87393519Y-55274859D01*
X87393515Y-55274857D01*
X87340264Y-55250891D01*
X87340262Y-55250890D01*
X87340261Y-55250890D01*
X87331478Y-55249280D01*
X87309864Y-55243254D01*
X87301525Y-55240092D01*
X87301523Y-55240091D01*
X87243556Y-55233052D01*
X87239854Y-55232489D01*
X87182400Y-55221960D01*
X87182395Y-55221960D01*
X87124091Y-55225487D01*
X87120346Y-55225600D01*
X80511944Y-55225600D01*
X80508200Y-55225487D01*
X80449905Y-55221960D01*
X80449899Y-55221961D01*
X80392457Y-55232488D01*
X80388755Y-55233051D01*
X80330777Y-55240091D01*
X80328092Y-55241109D01*
X80322427Y-55243257D01*
X80300820Y-55249280D01*
X80292044Y-55250888D01*
X80292032Y-55250892D01*
X80256104Y-55267061D01*
X80238780Y-55274859D01*
X80235326Y-55276289D01*
X80180708Y-55297004D01*
X80173354Y-55302080D01*
X80153821Y-55313096D01*
X80145681Y-55316759D01*
X80145680Y-55316760D01*
X80099706Y-55352777D01*
X80096691Y-55354996D01*
X80048625Y-55388173D01*
X80048620Y-55388177D01*
X80009879Y-55431907D01*
X80007312Y-55434633D01*
X79375249Y-56066696D01*
X79313926Y-56100181D01*
X79244234Y-56095197D01*
X79188301Y-56053326D01*
X79154428Y-56008077D01*
X79135161Y-55982339D01*
X79018104Y-55894711D01*
X79018104Y-55894710D01*
X78881103Y-55843611D01*
X78820554Y-55837100D01*
X78820538Y-55837100D01*
X76323262Y-55837100D01*
X76323245Y-55837100D01*
X76262697Y-55843611D01*
X76262695Y-55843611D01*
X76125695Y-55894711D01*
X76008639Y-55982339D01*
X75921011Y-56099395D01*
X75869911Y-56236395D01*
X75869911Y-56236397D01*
X75863400Y-56296945D01*
X75863400Y-57994254D01*
X75869911Y-58054802D01*
X75869911Y-58054804D01*
X75906089Y-58151798D01*
X75921011Y-58191804D01*
X76008639Y-58308861D01*
X76125696Y-58396489D01*
X76225010Y-58433531D01*
X76262693Y-58447587D01*
X76262699Y-58447589D01*
X76277399Y-58449169D01*
X76341948Y-58475905D01*
X76381797Y-58533296D01*
X76384293Y-58603121D01*
X76348642Y-58663211D01*
X76335277Y-58674025D01*
X76335271Y-58674031D01*
X76327596Y-58679405D01*
X76165706Y-58841295D01*
X76165703Y-58841298D01*
X76165702Y-58841300D01*
X76083667Y-58958456D01*
X76034376Y-59028852D01*
X76034375Y-59028854D01*
X75937618Y-59236350D01*
X75937614Y-59236361D01*
X75878357Y-59457510D01*
X75878356Y-59457518D01*
X75858402Y-59685598D01*
X75858402Y-59685601D01*
X75878356Y-59913681D01*
X75878357Y-59913689D01*
X75937614Y-60134838D01*
X75937618Y-60134849D01*
X76026049Y-60324490D01*
X76034377Y-60342349D01*
X76034380Y-60342353D01*
X76075811Y-60401524D01*
X76098138Y-60467730D01*
X76081128Y-60535498D01*
X76061917Y-60560328D01*
X75443333Y-61178912D01*
X75440607Y-61181479D01*
X75391263Y-61225195D01*
X75390014Y-61223785D01*
X75339146Y-61255677D01*
X75269280Y-61254893D01*
X75210930Y-61216461D01*
X75182620Y-61152584D01*
X75181548Y-61136431D01*
X75172186Y-50256125D01*
X75191813Y-50189071D01*
X75244578Y-50143271D01*
X75296238Y-50132021D01*
X77605780Y-50132992D01*
G37*
%TD.AperFunction*%
%TA.AperFunction,Conductor*%
G36*
X90672900Y-105422598D02*
G01*
X90565215Y-105373420D01*
X90458663Y-105358100D01*
X90387137Y-105358100D01*
X90280585Y-105373420D01*
X90172900Y-105422598D01*
X90172900Y-103753601D01*
X90280585Y-103802780D01*
X90387137Y-103818100D01*
X90458663Y-103818100D01*
X90565215Y-103802780D01*
X90672900Y-103753601D01*
X90672900Y-105422598D01*
G37*
%TD.AperFunction*%
%TD*%
M02*
