%TF.GenerationSoftware,KiCad,Pcbnew,7.0.6-0*%
%TF.CreationDate,2023-08-27T17:26:56+10:00*%
%TF.ProjectId,PC-SPRINT_SMD,50432d53-5052-4494-9e54-5f534d442e6b,rev?*%
%TF.SameCoordinates,Original*%
%TF.FileFunction,Copper,L1,Top*%
%TF.FilePolarity,Positive*%
%FSLAX46Y46*%
G04 Gerber Fmt 4.6, Leading zero omitted, Abs format (unit mm)*
G04 Created by KiCad (PCBNEW 7.0.6-0) date 2023-08-27 17:26:56*
%MOMM*%
%LPD*%
G01*
G04 APERTURE LIST*
G04 Aperture macros list*
%AMRoundRect*
0 Rectangle with rounded corners*
0 $1 Rounding radius*
0 $2 $3 $4 $5 $6 $7 $8 $9 X,Y pos of 4 corners*
0 Add a 4 corners polygon primitive as box body*
4,1,4,$2,$3,$4,$5,$6,$7,$8,$9,$2,$3,0*
0 Add four circle primitives for the rounded corners*
1,1,$1+$1,$2,$3*
1,1,$1+$1,$4,$5*
1,1,$1+$1,$6,$7*
1,1,$1+$1,$8,$9*
0 Add four rect primitives between the rounded corners*
20,1,$1+$1,$2,$3,$4,$5,0*
20,1,$1+$1,$4,$5,$6,$7,0*
20,1,$1+$1,$6,$7,$8,$9,0*
20,1,$1+$1,$8,$9,$2,$3,0*%
G04 Aperture macros list end*
%TA.AperFunction,SMDPad,CuDef*%
%ADD10RoundRect,0.250000X0.450000X-0.350000X0.450000X0.350000X-0.450000X0.350000X-0.450000X-0.350000X0*%
%TD*%
%TA.AperFunction,ComponentPad*%
%ADD11R,2.400000X1.600000*%
%TD*%
%TA.AperFunction,ComponentPad*%
%ADD12O,2.400000X1.600000*%
%TD*%
%TA.AperFunction,SMDPad,CuDef*%
%ADD13RoundRect,0.250000X0.412500X0.650000X-0.412500X0.650000X-0.412500X-0.650000X0.412500X-0.650000X0*%
%TD*%
%TA.AperFunction,SMDPad,CuDef*%
%ADD14RoundRect,0.250000X-0.350000X-0.450000X0.350000X-0.450000X0.350000X0.450000X-0.350000X0.450000X0*%
%TD*%
%TA.AperFunction,SMDPad,CuDef*%
%ADD15RoundRect,0.225000X-0.225000X-0.375000X0.225000X-0.375000X0.225000X0.375000X-0.225000X0.375000X0*%
%TD*%
%TA.AperFunction,ComponentPad*%
%ADD16C,1.500000*%
%TD*%
%TA.AperFunction,SMDPad,CuDef*%
%ADD17RoundRect,0.250000X0.650000X-0.412500X0.650000X0.412500X-0.650000X0.412500X-0.650000X-0.412500X0*%
%TD*%
%TA.AperFunction,ComponentPad*%
%ADD18R,1.700000X1.700000*%
%TD*%
%TA.AperFunction,ComponentPad*%
%ADD19O,1.700000X1.700000*%
%TD*%
%TA.AperFunction,SMDPad,CuDef*%
%ADD20RoundRect,0.250000X-0.412500X-0.650000X0.412500X-0.650000X0.412500X0.650000X-0.412500X0.650000X0*%
%TD*%
%TA.AperFunction,SMDPad,CuDef*%
%ADD21RoundRect,0.250000X-0.337500X-0.475000X0.337500X-0.475000X0.337500X0.475000X-0.337500X0.475000X0*%
%TD*%
%TA.AperFunction,ViaPad*%
%ADD22C,0.685800*%
%TD*%
%TA.AperFunction,Conductor*%
%ADD23C,0.304800*%
%TD*%
G04 APERTURE END LIST*
D10*
%TO.P,R4,1*%
%TO.N,Net-(U1-VCC)*%
X94837300Y-103282500D03*
%TO.P,R4,2*%
%TO.N,Net-(D2-K)*%
X94837300Y-101282500D03*
%TD*%
D11*
%TO.P,U3,1,CSYNC*%
%TO.N,/GND*%
X77554300Y-86767900D03*
D12*
%TO.P,U3,2,PCLCK*%
%TO.N,Net-(U3-PCLCK)*%
X77554300Y-89307900D03*
%TO.P,U3,3,~{AEN1}*%
X77554300Y-91847900D03*
%TO.P,U3,4,RDY1*%
%TO.N,Net-(U2-F{slash}C)*%
X77554300Y-94387900D03*
%TO.P,U3,5,READY*%
%TO.N,Net-(U1-PCLCK)*%
X77554300Y-96927900D03*
%TO.P,U3,6,RDY2*%
%TO.N,Net-(U2-PCLCK)*%
X77554300Y-99467900D03*
%TO.P,U3,7,~{AEN2}*%
%TO.N,Net-(U2-F{slash}C)*%
X77554300Y-102007900D03*
%TO.P,U3,8,CLK*%
%TO.N,unconnected-(U3-CLK-Pad8)*%
X77554300Y-104547900D03*
%TO.P,U3,9,GND*%
%TO.N,/GND*%
X77554300Y-107087900D03*
%TO.P,U3,10,RESET*%
%TO.N,Net-(U2-F{slash}C)*%
X85174300Y-107087900D03*
%TO.P,U3,11,~{RES}*%
%TO.N,Net-(J1-Pin_1)*%
X85174300Y-104547900D03*
%TO.P,U3,12,OSC*%
%TO.N,Net-(U2-EFI)*%
X85174300Y-102007900D03*
%TO.P,U3,13,F/C*%
%TO.N,Net-(U2-F{slash}C)*%
X85174300Y-99467900D03*
%TO.P,U3,14,EFI*%
%TO.N,Net-(U1-OSC)*%
X85174300Y-96927900D03*
%TO.P,U3,15,~{ASYNC}*%
%TO.N,/GND*%
X85174300Y-94387900D03*
%TO.P,U3,16,X2*%
%TO.N,Net-(U3-X2)*%
X85174300Y-91847900D03*
%TO.P,U3,17,X1*%
%TO.N,Net-(U3-X1)*%
X85174300Y-89307900D03*
%TO.P,U3,18,VCC*%
%TO.N,Net-(U1-VCC)*%
X85174300Y-86767900D03*
%TD*%
D13*
%TO.P,C3,1*%
%TO.N,Net-(J1-Pin_1)*%
X82941800Y-112760800D03*
%TO.P,C3,2*%
%TO.N,/GND*%
X79816800Y-112760800D03*
%TD*%
D14*
%TO.P,R1,1*%
%TO.N,Net-(U3-X2)*%
X89422900Y-82263800D03*
%TO.P,R1,2*%
%TO.N,/GND*%
X91422900Y-82263800D03*
%TD*%
%TO.P,R2,1*%
%TO.N,Net-(U3-X1)*%
X95520000Y-82263800D03*
%TO.P,R2,2*%
%TO.N,/GND*%
X97520000Y-82263800D03*
%TD*%
D15*
%TO.P,D2,1,K*%
%TO.N,Net-(D2-K)*%
X94892500Y-96152100D03*
%TO.P,D2,2,A*%
%TO.N,Net-(D1-A)*%
X98192500Y-96152100D03*
%TD*%
%TO.P,D1,1,K*%
%TO.N,Net-(D1-K)*%
X94892500Y-91583100D03*
%TO.P,D1,2,A*%
%TO.N,Net-(D1-A)*%
X98192500Y-91583100D03*
%TD*%
D11*
%TO.P,U1,1,CSYNC*%
%TO.N,Net-(U1-CSYNC)*%
X77571900Y-57145600D03*
D12*
%TO.P,U1,2,PCLCK*%
%TO.N,Net-(U1-PCLCK)*%
X77571900Y-59685600D03*
%TO.P,U1,3,~{AEN1}*%
%TO.N,Net-(U1-~{AEN1})*%
X77571900Y-62225600D03*
%TO.P,U1,4,RDY1*%
%TO.N,Net-(U1-RDY1)*%
X77571900Y-64765600D03*
%TO.P,U1,5,READY*%
%TO.N,Net-(U1-READY)*%
X77571900Y-67305600D03*
%TO.P,U1,6,RDY2*%
%TO.N,Net-(U1-RDY2)*%
X77571900Y-69845600D03*
%TO.P,U1,7,~{AEN2}*%
%TO.N,Net-(U1-~{AEN2})*%
X77571900Y-72385600D03*
%TO.P,U1,8,CLK*%
%TO.N,Net-(U1-CLK)*%
X77571900Y-74925600D03*
%TO.P,U1,9,GND*%
%TO.N,/GND*%
X77571900Y-77465600D03*
%TO.P,U1,10,RESET*%
%TO.N,Net-(U1-RESET)*%
X85191900Y-77465600D03*
%TO.P,U1,11,~{RES}*%
%TO.N,Net-(D1-K)*%
X85191900Y-74925600D03*
%TO.P,U1,12,OSC*%
%TO.N,Net-(U1-OSC)*%
X85191900Y-72385600D03*
%TO.P,U1,13,F/C*%
%TO.N,unconnected-(U1-F{slash}C-Pad13)*%
X85191900Y-69845600D03*
%TO.P,U1,14,EFI*%
%TO.N,unconnected-(U1-EFI-Pad14)*%
X85191900Y-67305600D03*
%TO.P,U1,15,~{ASYNC}*%
%TO.N,Net-(U1-~{ASYNC})*%
X85191900Y-64765600D03*
%TO.P,U1,16,X2*%
%TO.N,Net-(U1-X2)*%
X85191900Y-62225600D03*
%TO.P,U1,17,X1*%
%TO.N,Net-(U1-X1)*%
X85191900Y-59685600D03*
%TO.P,U1,18,VCC*%
%TO.N,Net-(U1-VCC)*%
X85191900Y-57145600D03*
%TD*%
D16*
%TO.P,X1,1,1*%
%TO.N,Net-(U3-X2)*%
X90422900Y-93370300D03*
%TO.P,X1,2,2*%
%TO.N,Net-(U3-X1)*%
X90422900Y-88470300D03*
%TD*%
D11*
%TO.P,U2,1,CSYNC*%
%TO.N,Net-(U1-CSYNC)*%
X90060400Y-57145600D03*
D12*
%TO.P,U2,2,PCLCK*%
%TO.N,Net-(U2-PCLCK)*%
X90060400Y-59685600D03*
%TO.P,U2,3,~{AEN1}*%
%TO.N,Net-(U1-~{AEN1})*%
X90060400Y-62225600D03*
%TO.P,U2,4,RDY1*%
%TO.N,Net-(U1-RDY1)*%
X90060400Y-64765600D03*
%TO.P,U2,5,READY*%
%TO.N,Net-(U1-READY)*%
X90060400Y-67305600D03*
%TO.P,U2,6,RDY2*%
%TO.N,Net-(U1-RDY2)*%
X90060400Y-69845600D03*
%TO.P,U2,7,~{AEN2}*%
%TO.N,Net-(U1-~{AEN2})*%
X90060400Y-72385600D03*
%TO.P,U2,8,CLK*%
%TO.N,Net-(U1-CLK)*%
X90060400Y-74925600D03*
%TO.P,U2,9,GND*%
%TO.N,/GND*%
X90060400Y-77465600D03*
%TO.P,U2,10,RESET*%
%TO.N,Net-(U1-RESET)*%
X97680400Y-77465600D03*
%TO.P,U2,11,~{RES}*%
%TO.N,Net-(D1-A)*%
X97680400Y-74925600D03*
%TO.P,U2,12,OSC*%
%TO.N,Net-(U1-OSC)*%
X97680400Y-72385600D03*
%TO.P,U2,13,F/C*%
%TO.N,Net-(U2-F{slash}C)*%
X97680400Y-69845600D03*
%TO.P,U2,14,EFI*%
%TO.N,Net-(U2-EFI)*%
X97680400Y-67305600D03*
%TO.P,U2,15,~{ASYNC}*%
%TO.N,Net-(U1-~{ASYNC})*%
X97680400Y-64765600D03*
%TO.P,U2,16,X2*%
%TO.N,Net-(U1-X2)*%
X97680400Y-62225600D03*
%TO.P,U2,17,X1*%
%TO.N,Net-(U1-X1)*%
X97680400Y-59685600D03*
%TO.P,U2,18,VCC*%
%TO.N,Net-(U1-VCC)*%
X97680400Y-57145600D03*
%TD*%
D10*
%TO.P,R5,1*%
%TO.N,Net-(U1-VCC)*%
X97821800Y-103282500D03*
%TO.P,R5,2*%
%TO.N,Net-(J1-Pin_1)*%
X97821800Y-101282500D03*
%TD*%
D17*
%TO.P,C4,1*%
%TO.N,Net-(D2-K)*%
X96075500Y-109823200D03*
%TO.P,C4,2*%
%TO.N,/GND*%
X96075500Y-106698200D03*
%TD*%
D18*
%TO.P,J1,1,Pin_1*%
%TO.N,Net-(J1-Pin_1)*%
X90422900Y-100778100D03*
D19*
%TO.P,J1,2,Pin_2*%
%TO.N,/GND*%
X90422900Y-103318100D03*
%TO.P,J1,3,Pin_3*%
X90422900Y-105858100D03*
%TO.P,J1,4,Pin_4*%
%TO.N,Net-(D2-K)*%
X90422900Y-108398100D03*
%TD*%
D14*
%TO.P,R3,1*%
%TO.N,Net-(U1-VCC)*%
X95520000Y-86876700D03*
%TO.P,R3,2*%
%TO.N,Net-(D1-A)*%
X97520000Y-86876700D03*
%TD*%
D20*
%TO.P,C1,1*%
%TO.N,Net-(U1-VCC)*%
X89149600Y-52160800D03*
%TO.P,C1,2*%
%TO.N,/GND*%
X92274600Y-52160800D03*
%TD*%
D21*
%TO.P,C2,1*%
%TO.N,Net-(U1-VCC)*%
X80341800Y-82293800D03*
%TO.P,C2,2*%
%TO.N,/GND*%
X82416800Y-82293800D03*
%TD*%
D22*
%TO.N,Net-(U1-VCC)*%
X95715600Y-85327600D03*
%TO.N,Net-(U3-X1)*%
X94711300Y-85537600D03*
%TO.N,Net-(U2-EFI)*%
X94360300Y-89527800D03*
%TD*%
D23*
%TO.N,Net-(U1-VCC)*%
X80472100Y-82293800D02*
X80341800Y-82293800D01*
X89149600Y-53836800D02*
X92712500Y-53836800D01*
X85191900Y-57145600D02*
X83532800Y-57145600D01*
X97821800Y-103282500D02*
X97270900Y-103282500D01*
X80472100Y-82293800D02*
X80472100Y-60206300D01*
X83515200Y-86767900D02*
X83515200Y-85336900D01*
X83515200Y-85336900D02*
X80472100Y-82293800D01*
X95520000Y-86876700D02*
X95715600Y-86681100D01*
X97680400Y-57145600D02*
X96021300Y-57145600D01*
X86851000Y-57145600D02*
X86851000Y-56135400D01*
X85174300Y-86767900D02*
X83515200Y-86767900D01*
X96054100Y-102065700D02*
X94837300Y-103282500D01*
X92712500Y-53836800D02*
X96021300Y-57145600D01*
X89149600Y-52160800D02*
X89149600Y-53836800D01*
X86851000Y-56135400D02*
X89149600Y-53836800D01*
X95715600Y-86681100D02*
X95715600Y-85327600D01*
X80472100Y-60206300D02*
X83532800Y-57145600D01*
X85191900Y-57145600D02*
X86851000Y-57145600D01*
X96054100Y-87410800D02*
X96054100Y-102065700D01*
X95520000Y-86876700D02*
X96054100Y-87410800D01*
X97270900Y-103282500D02*
X96054100Y-102065700D01*
%TO.N,Net-(J1-Pin_1)*%
X85715700Y-110997100D02*
X97050400Y-110997100D01*
X82941800Y-112760800D02*
X85210600Y-110492000D01*
X86833400Y-104367600D02*
X86833400Y-104547900D01*
X90422900Y-100778100D02*
X86833400Y-104367600D01*
X85210600Y-110492000D02*
X85715700Y-110997100D01*
X99041900Y-109005600D02*
X99041900Y-102502600D01*
X99041900Y-102502600D02*
X97821800Y-101282500D01*
X86833400Y-108869200D02*
X86833400Y-104547900D01*
X85210600Y-110492000D02*
X86833400Y-108869200D01*
X85174300Y-104547900D02*
X86833400Y-104547900D01*
X97050400Y-110997100D02*
X99041900Y-109005600D01*
%TO.N,Net-(D2-K)*%
X94208400Y-107956100D02*
X96075500Y-109823200D01*
X94837300Y-96207300D02*
X94892500Y-96152100D01*
X92174000Y-107956100D02*
X93618700Y-107956100D01*
X93618700Y-107956100D02*
X93618700Y-102501100D01*
X94837300Y-101282500D02*
X94837300Y-96207300D01*
X90422900Y-108398100D02*
X91732000Y-108398100D01*
X93618700Y-107956100D02*
X94208400Y-107956100D01*
X91732000Y-108398100D02*
X92174000Y-107956100D01*
X93618700Y-102501100D02*
X94837300Y-101282500D01*
%TO.N,Net-(D1-K)*%
X86851000Y-76497300D02*
X86851000Y-74925600D01*
X89922800Y-78957600D02*
X89311300Y-78957600D01*
X93182900Y-89873500D02*
X93182900Y-82217700D01*
X85191900Y-74925600D02*
X86851000Y-74925600D01*
X89311300Y-78957600D02*
X86851000Y-76497300D01*
X93182900Y-82217700D02*
X89922800Y-78957600D01*
X94892500Y-91583100D02*
X93182900Y-89873500D01*
%TO.N,Net-(D1-A)*%
X97520000Y-90910600D02*
X98192500Y-91583100D01*
X98192500Y-91583100D02*
X98192500Y-96152100D01*
X97520000Y-86876700D02*
X97520000Y-90910600D01*
%TO.N,Net-(U3-X2)*%
X89201300Y-82485400D02*
X89422900Y-82263800D01*
X89201300Y-92148700D02*
X89201300Y-82485400D01*
X90422900Y-93370300D02*
X89201300Y-92148700D01*
%TO.N,Net-(U3-X1)*%
X94711300Y-83072500D02*
X95520000Y-82263800D01*
X94711300Y-85537600D02*
X94711300Y-83072500D01*
%TO.N,Net-(U1-PCLCK)*%
X77554300Y-96927900D02*
X75895200Y-96927900D01*
X75895200Y-61362300D02*
X77571900Y-59685600D01*
X75895200Y-96927900D02*
X75895200Y-61362300D01*
%TO.N,Net-(U1-OSC)*%
X83516900Y-74060600D02*
X83516900Y-82929800D01*
X86868300Y-95233900D02*
X85174300Y-96927900D01*
X85191900Y-72385600D02*
X83516900Y-74060600D01*
X83516900Y-82929800D02*
X86868300Y-86281200D01*
X86868300Y-86281200D02*
X86868300Y-95233900D01*
%TO.N,Net-(U2-EFI)*%
X96021300Y-67305600D02*
X93909300Y-69417600D01*
X93909300Y-89076800D02*
X94360300Y-89527800D01*
X97680400Y-67305600D02*
X96021300Y-67305600D01*
X93909300Y-69417600D02*
X93909300Y-89076800D01*
%TO.N,Net-(U3-PCLCK)*%
X79213400Y-91847900D02*
X79213400Y-90967000D01*
X79213400Y-90967000D02*
X77554300Y-89307900D01*
X77554300Y-91847900D02*
X79213400Y-91847900D01*
%TD*%
%TA.AperFunction,Conductor*%
%TO.N,/GND*%
G36*
X77605780Y-50132992D02*
G01*
X99693290Y-50142280D01*
X99760319Y-50161993D01*
X99806052Y-50214816D01*
X99817236Y-50266356D01*
X99785688Y-102018885D01*
X99765963Y-102085912D01*
X99713131Y-102131635D01*
X99643966Y-102141536D01*
X99580428Y-102112472D01*
X99559638Y-102089249D01*
X99552556Y-102078989D01*
X99540224Y-102061123D01*
X99496483Y-102022372D01*
X99493789Y-102019836D01*
X99066617Y-101592664D01*
X99033133Y-101531342D01*
X99030299Y-101504984D01*
X99030299Y-100881962D01*
X99030298Y-100881946D01*
X99027063Y-100850282D01*
X99019687Y-100778074D01*
X98963915Y-100609762D01*
X98870830Y-100458848D01*
X98745452Y-100333470D01*
X98594538Y-100240385D01*
X98567697Y-100231491D01*
X98426227Y-100184613D01*
X98322346Y-100174000D01*
X97321262Y-100174000D01*
X97321246Y-100174001D01*
X97217372Y-100184613D01*
X97049064Y-100240384D01*
X97049059Y-100240386D01*
X96995087Y-100273677D01*
X96904095Y-100329801D01*
X96836705Y-100348241D01*
X96770041Y-100327319D01*
X96725271Y-100273677D01*
X96715000Y-100224262D01*
X96715000Y-91309943D01*
X96734685Y-91242904D01*
X96787489Y-91197149D01*
X96856647Y-91187205D01*
X96920203Y-91216230D01*
X96944939Y-91249466D01*
X96946378Y-91248597D01*
X96950260Y-91255018D01*
X96950261Y-91255020D01*
X96963450Y-91271855D01*
X96986272Y-91300986D01*
X96988492Y-91304002D01*
X97021673Y-91352073D01*
X97021680Y-91352081D01*
X97065396Y-91390810D01*
X97068123Y-91393377D01*
X97197681Y-91522934D01*
X97231166Y-91584257D01*
X97234000Y-91610616D01*
X97234000Y-92006979D01*
X97244264Y-92107436D01*
X97298197Y-92270198D01*
X97298202Y-92270209D01*
X97388211Y-92416135D01*
X97388213Y-92416137D01*
X97388215Y-92416140D01*
X97495283Y-92523208D01*
X97528766Y-92584527D01*
X97531600Y-92610886D01*
X97531600Y-95124313D01*
X97511915Y-95191352D01*
X97495281Y-95211994D01*
X97388215Y-95319059D01*
X97388212Y-95319063D01*
X97298202Y-95464990D01*
X97298197Y-95465001D01*
X97244264Y-95627763D01*
X97234000Y-95728220D01*
X97234000Y-96575979D01*
X97244264Y-96676436D01*
X97298197Y-96839198D01*
X97298202Y-96839209D01*
X97388212Y-96985136D01*
X97388215Y-96985140D01*
X97509459Y-97106384D01*
X97509463Y-97106387D01*
X97655390Y-97196397D01*
X97655393Y-97196398D01*
X97655399Y-97196402D01*
X97818164Y-97250336D01*
X97918628Y-97260600D01*
X97918633Y-97260600D01*
X98466367Y-97260600D01*
X98466372Y-97260600D01*
X98566836Y-97250336D01*
X98729601Y-97196402D01*
X98875540Y-97106385D01*
X98996785Y-96985140D01*
X99086802Y-96839201D01*
X99140736Y-96676436D01*
X99151000Y-96575972D01*
X99151000Y-95728228D01*
X99140736Y-95627764D01*
X99086802Y-95464999D01*
X99086798Y-95464993D01*
X99086797Y-95464990D01*
X98996787Y-95319063D01*
X98996784Y-95319059D01*
X98889719Y-95211994D01*
X98856234Y-95150671D01*
X98853400Y-95124313D01*
X98853400Y-92610886D01*
X98873085Y-92543847D01*
X98889710Y-92523214D01*
X98996785Y-92416140D01*
X99086802Y-92270201D01*
X99140736Y-92107436D01*
X99151000Y-92006972D01*
X99151000Y-91159228D01*
X99140736Y-91058764D01*
X99086802Y-90895999D01*
X99086798Y-90895993D01*
X99086797Y-90895990D01*
X98996787Y-90750063D01*
X98996784Y-90750059D01*
X98875540Y-90628815D01*
X98875536Y-90628812D01*
X98729609Y-90538802D01*
X98729603Y-90538799D01*
X98729601Y-90538798D01*
X98566836Y-90484864D01*
X98560533Y-90484220D01*
X98466379Y-90474600D01*
X98466372Y-90474600D01*
X98304900Y-90474600D01*
X98237861Y-90454915D01*
X98192106Y-90402111D01*
X98180900Y-90350600D01*
X98180900Y-88095323D01*
X98200585Y-88028284D01*
X98239800Y-87989786D01*
X98343652Y-87925730D01*
X98469030Y-87800352D01*
X98562115Y-87649438D01*
X98617887Y-87481126D01*
X98628500Y-87377245D01*
X98628499Y-86376156D01*
X98617887Y-86272274D01*
X98562115Y-86103962D01*
X98469030Y-85953048D01*
X98343652Y-85827670D01*
X98192738Y-85734585D01*
X98192735Y-85734584D01*
X98024427Y-85678813D01*
X97920546Y-85668200D01*
X97119462Y-85668200D01*
X97119446Y-85668201D01*
X97015572Y-85678813D01*
X96847264Y-85734584D01*
X96847259Y-85734586D01*
X96696348Y-85827670D01*
X96684834Y-85839184D01*
X96623509Y-85872667D01*
X96553818Y-85867680D01*
X96497886Y-85825807D01*
X96473471Y-85760342D01*
X96488325Y-85692070D01*
X96489743Y-85689544D01*
X96497677Y-85675803D01*
X96552982Y-85505591D01*
X96571690Y-85327600D01*
X96552982Y-85149609D01*
X96525329Y-85064503D01*
X96497679Y-84979402D01*
X96497676Y-84979396D01*
X96478691Y-84946513D01*
X96408191Y-84824403D01*
X96288436Y-84691401D01*
X96240172Y-84656335D01*
X96143643Y-84586202D01*
X95980144Y-84513409D01*
X95852338Y-84486243D01*
X95805086Y-84476200D01*
X95626114Y-84476200D01*
X95521981Y-84498334D01*
X95452314Y-84493018D01*
X95396580Y-84450881D01*
X95372475Y-84385301D01*
X95372200Y-84377044D01*
X95372200Y-83596299D01*
X95391885Y-83529260D01*
X95444689Y-83483505D01*
X95496200Y-83472299D01*
X95920537Y-83472299D01*
X95920544Y-83472299D01*
X96024426Y-83461687D01*
X96192738Y-83405915D01*
X96343652Y-83312830D01*
X96438332Y-83218149D01*
X96499651Y-83184667D01*
X96569343Y-83189651D01*
X96613691Y-83218152D01*
X96701654Y-83306115D01*
X96850875Y-83398156D01*
X96850880Y-83398158D01*
X97017302Y-83453305D01*
X97017309Y-83453306D01*
X97120019Y-83463799D01*
X97269999Y-83463799D01*
X97270000Y-83463798D01*
X97270000Y-82513800D01*
X97770000Y-82513800D01*
X97770000Y-83463799D01*
X97919972Y-83463799D01*
X97919986Y-83463798D01*
X98022697Y-83453305D01*
X98189119Y-83398158D01*
X98189124Y-83398156D01*
X98338345Y-83306115D01*
X98462315Y-83182145D01*
X98554356Y-83032924D01*
X98554358Y-83032919D01*
X98609505Y-82866497D01*
X98609506Y-82866490D01*
X98619999Y-82763786D01*
X98620000Y-82763773D01*
X98620000Y-82513800D01*
X97770000Y-82513800D01*
X97270000Y-82513800D01*
X97270000Y-81063800D01*
X97770000Y-81063800D01*
X97770000Y-82013800D01*
X98619999Y-82013800D01*
X98619999Y-81763828D01*
X98619998Y-81763813D01*
X98609505Y-81661102D01*
X98554358Y-81494680D01*
X98554356Y-81494675D01*
X98462315Y-81345454D01*
X98338345Y-81221484D01*
X98189124Y-81129443D01*
X98189119Y-81129441D01*
X98022697Y-81074294D01*
X98022690Y-81074293D01*
X97919986Y-81063800D01*
X97770000Y-81063800D01*
X97270000Y-81063800D01*
X97120027Y-81063800D01*
X97120012Y-81063801D01*
X97017302Y-81074294D01*
X96850880Y-81129441D01*
X96850875Y-81129443D01*
X96701657Y-81221482D01*
X96613691Y-81309448D01*
X96552367Y-81342932D01*
X96482676Y-81337948D01*
X96438329Y-81309447D01*
X96343653Y-81214771D01*
X96343652Y-81214770D01*
X96205314Y-81129442D01*
X96192740Y-81121686D01*
X96192735Y-81121684D01*
X96024427Y-81065913D01*
X95920546Y-81055300D01*
X95119462Y-81055300D01*
X95119446Y-81055301D01*
X95015572Y-81065913D01*
X94847264Y-81121684D01*
X94847259Y-81121686D01*
X94822651Y-81136865D01*
X94759295Y-81175943D01*
X94691905Y-81194383D01*
X94625241Y-81173461D01*
X94580471Y-81119819D01*
X94570200Y-81070404D01*
X94570200Y-69742714D01*
X94589885Y-69675675D01*
X94606514Y-69655038D01*
X96105246Y-68156305D01*
X96166569Y-68122821D01*
X96236261Y-68127805D01*
X96280608Y-68156306D01*
X96436100Y-68311798D01*
X96623651Y-68443122D01*
X96623651Y-68443123D01*
X96666745Y-68463218D01*
X96719184Y-68509391D01*
X96738336Y-68576584D01*
X96718120Y-68643465D01*
X96666745Y-68687982D01*
X96623651Y-68708076D01*
X96498526Y-68795690D01*
X96436100Y-68839402D01*
X96436098Y-68839403D01*
X96436095Y-68839406D01*
X96274206Y-69001295D01*
X96274203Y-69001298D01*
X96274202Y-69001300D01*
X96223871Y-69073180D01*
X96142876Y-69188852D01*
X96142875Y-69188854D01*
X96046118Y-69396350D01*
X96046114Y-69396361D01*
X95986857Y-69617510D01*
X95986856Y-69617518D01*
X95966902Y-69845598D01*
X95966902Y-69845601D01*
X95986856Y-70073681D01*
X95986857Y-70073689D01*
X96046114Y-70294838D01*
X96046118Y-70294849D01*
X96142875Y-70502345D01*
X96142877Y-70502349D01*
X96274202Y-70689900D01*
X96436100Y-70851798D01*
X96623650Y-70983122D01*
X96623651Y-70983123D01*
X96666745Y-71003218D01*
X96719184Y-71049391D01*
X96738336Y-71116584D01*
X96718120Y-71183465D01*
X96666745Y-71227982D01*
X96623651Y-71248076D01*
X96498526Y-71335690D01*
X96436100Y-71379402D01*
X96436098Y-71379403D01*
X96436095Y-71379406D01*
X96274206Y-71541295D01*
X96142876Y-71728852D01*
X96142875Y-71728854D01*
X96046118Y-71936350D01*
X96046114Y-71936361D01*
X95986857Y-72157510D01*
X95986856Y-72157518D01*
X95966902Y-72385598D01*
X95966902Y-72385601D01*
X95986856Y-72613681D01*
X95986857Y-72613689D01*
X96046114Y-72834838D01*
X96046118Y-72834849D01*
X96142875Y-73042345D01*
X96142877Y-73042349D01*
X96274202Y-73229900D01*
X96436100Y-73391798D01*
X96623650Y-73523122D01*
X96623651Y-73523123D01*
X96666745Y-73543218D01*
X96719184Y-73589391D01*
X96738336Y-73656584D01*
X96718120Y-73723465D01*
X96666745Y-73767982D01*
X96623651Y-73788076D01*
X96517313Y-73862536D01*
X96436100Y-73919402D01*
X96436098Y-73919403D01*
X96436095Y-73919406D01*
X96274206Y-74081295D01*
X96274203Y-74081298D01*
X96274202Y-74081300D01*
X96273394Y-74082454D01*
X96142876Y-74268852D01*
X96142875Y-74268854D01*
X96046118Y-74476350D01*
X96046114Y-74476361D01*
X95986857Y-74697510D01*
X95986856Y-74697518D01*
X95966902Y-74925598D01*
X95966902Y-74925601D01*
X95986856Y-75153681D01*
X95986857Y-75153689D01*
X96046114Y-75374838D01*
X96046118Y-75374849D01*
X96142875Y-75582345D01*
X96142877Y-75582349D01*
X96274202Y-75769900D01*
X96436100Y-75931798D01*
X96623651Y-76063123D01*
X96666745Y-76083218D01*
X96719184Y-76129391D01*
X96738336Y-76196584D01*
X96718120Y-76263465D01*
X96666745Y-76307982D01*
X96623651Y-76328076D01*
X96498526Y-76415690D01*
X96436100Y-76459402D01*
X96436098Y-76459403D01*
X96436095Y-76459406D01*
X96274206Y-76621295D01*
X96142876Y-76808852D01*
X96142875Y-76808854D01*
X96046118Y-77016350D01*
X96046114Y-77016361D01*
X95986857Y-77237510D01*
X95986856Y-77237518D01*
X95966902Y-77465598D01*
X95966902Y-77465601D01*
X95986856Y-77693681D01*
X95986857Y-77693689D01*
X96046114Y-77914838D01*
X96046118Y-77914849D01*
X96140887Y-78118082D01*
X96142877Y-78122349D01*
X96274202Y-78309900D01*
X96436100Y-78471798D01*
X96623651Y-78603123D01*
X96748491Y-78661336D01*
X96831150Y-78699881D01*
X96831152Y-78699881D01*
X96831157Y-78699884D01*
X97052313Y-78759143D01*
X97223273Y-78774100D01*
X98137527Y-78774100D01*
X98308487Y-78759143D01*
X98529643Y-78699884D01*
X98737149Y-78603123D01*
X98924700Y-78471798D01*
X99086598Y-78309900D01*
X99217923Y-78122349D01*
X99314684Y-77914843D01*
X99373943Y-77693687D01*
X99393898Y-77465600D01*
X99373943Y-77237513D01*
X99314684Y-77016357D01*
X99217923Y-76808851D01*
X99086598Y-76621300D01*
X98924700Y-76459402D01*
X98737149Y-76328077D01*
X98694055Y-76307982D01*
X98641615Y-76261810D01*
X98622463Y-76194617D01*
X98642678Y-76127736D01*
X98694055Y-76083218D01*
X98697282Y-76081712D01*
X98737149Y-76063123D01*
X98924700Y-75931798D01*
X99086598Y-75769900D01*
X99217923Y-75582349D01*
X99314684Y-75374843D01*
X99373943Y-75153687D01*
X99393898Y-74925600D01*
X99373943Y-74697513D01*
X99314684Y-74476357D01*
X99291795Y-74427272D01*
X99260763Y-74360723D01*
X99217923Y-74268851D01*
X99086598Y-74081300D01*
X98924700Y-73919402D01*
X98737149Y-73788077D01*
X98696199Y-73768982D01*
X98694055Y-73767982D01*
X98641615Y-73721810D01*
X98622463Y-73654617D01*
X98642678Y-73587736D01*
X98694055Y-73543218D01*
X98697282Y-73541712D01*
X98737149Y-73523123D01*
X98924700Y-73391798D01*
X99086598Y-73229900D01*
X99217923Y-73042349D01*
X99314684Y-72834843D01*
X99373943Y-72613687D01*
X99393898Y-72385600D01*
X99373943Y-72157513D01*
X99314684Y-71936357D01*
X99217923Y-71728851D01*
X99086598Y-71541300D01*
X98924700Y-71379402D01*
X98737149Y-71248077D01*
X98696199Y-71228982D01*
X98694055Y-71227982D01*
X98641615Y-71181810D01*
X98622463Y-71114617D01*
X98642678Y-71047736D01*
X98694055Y-71003218D01*
X98697282Y-71001712D01*
X98737149Y-70983123D01*
X98924700Y-70851798D01*
X99086598Y-70689900D01*
X99217923Y-70502349D01*
X99314684Y-70294843D01*
X99373943Y-70073687D01*
X99393898Y-69845600D01*
X99373943Y-69617513D01*
X99314684Y-69396357D01*
X99217923Y-69188851D01*
X99086598Y-69001300D01*
X98924700Y-68839402D01*
X98737149Y-68708077D01*
X98696199Y-68688982D01*
X98694055Y-68687982D01*
X98641615Y-68641810D01*
X98622463Y-68574617D01*
X98642678Y-68507736D01*
X98694055Y-68463218D01*
X98697282Y-68461712D01*
X98737149Y-68443123D01*
X98924700Y-68311798D01*
X99086598Y-68149900D01*
X99217923Y-67962349D01*
X99314684Y-67754843D01*
X99373943Y-67533687D01*
X99393898Y-67305600D01*
X99373943Y-67077513D01*
X99314684Y-66856357D01*
X99313460Y-66853733D01*
X99239624Y-66695389D01*
X99217923Y-66648851D01*
X99086598Y-66461300D01*
X98924700Y-66299402D01*
X98737149Y-66168077D01*
X98737143Y-66168074D01*
X98694053Y-66147980D01*
X98641614Y-66101807D01*
X98622463Y-66034614D01*
X98642680Y-65967733D01*
X98694054Y-65923218D01*
X98737149Y-65903123D01*
X98924700Y-65771798D01*
X99086598Y-65609900D01*
X99217923Y-65422349D01*
X99314684Y-65214843D01*
X99373943Y-64993687D01*
X99393898Y-64765600D01*
X99373943Y-64537513D01*
X99314684Y-64316357D01*
X99217923Y-64108851D01*
X99086598Y-63921300D01*
X98924700Y-63759402D01*
X98737149Y-63628077D01*
X98696199Y-63608982D01*
X98694055Y-63607982D01*
X98641615Y-63561810D01*
X98622463Y-63494617D01*
X98642678Y-63427736D01*
X98694055Y-63383218D01*
X98697282Y-63381712D01*
X98737149Y-63363123D01*
X98924700Y-63231798D01*
X99086598Y-63069900D01*
X99217923Y-62882349D01*
X99314684Y-62674843D01*
X99373943Y-62453687D01*
X99393898Y-62225600D01*
X99373943Y-61997513D01*
X99314684Y-61776357D01*
X99217923Y-61568851D01*
X99086598Y-61381300D01*
X98924700Y-61219402D01*
X98737149Y-61088077D01*
X98694055Y-61067982D01*
X98641615Y-61021810D01*
X98622463Y-60954617D01*
X98642678Y-60887736D01*
X98694055Y-60843218D01*
X98706718Y-60837313D01*
X98737149Y-60823123D01*
X98924700Y-60691798D01*
X99086598Y-60529900D01*
X99217923Y-60342349D01*
X99314684Y-60134843D01*
X99373943Y-59913687D01*
X99393898Y-59685600D01*
X99373943Y-59457513D01*
X99314684Y-59236357D01*
X99217923Y-59028851D01*
X99086598Y-58841300D01*
X98924700Y-58679402D01*
X98737149Y-58548077D01*
X98694055Y-58527982D01*
X98641615Y-58481810D01*
X98622463Y-58414617D01*
X98642678Y-58347736D01*
X98694055Y-58303218D01*
X98697282Y-58301712D01*
X98737149Y-58283123D01*
X98924700Y-58151798D01*
X99086598Y-57989900D01*
X99217923Y-57802349D01*
X99314684Y-57594843D01*
X99373943Y-57373687D01*
X99393898Y-57145600D01*
X99373943Y-56917513D01*
X99314684Y-56696357D01*
X99217923Y-56488851D01*
X99086598Y-56301300D01*
X98924700Y-56139402D01*
X98737149Y-56008077D01*
X98737145Y-56008075D01*
X98529649Y-55911318D01*
X98529638Y-55911314D01*
X98308489Y-55852057D01*
X98308481Y-55852056D01*
X98137527Y-55837100D01*
X97223273Y-55837100D01*
X97052318Y-55852056D01*
X97052310Y-55852057D01*
X96831161Y-55911314D01*
X96831150Y-55911318D01*
X96623654Y-56008075D01*
X96623652Y-56008076D01*
X96436099Y-56139403D01*
X96280608Y-56294894D01*
X96219285Y-56328378D01*
X96149593Y-56323394D01*
X96105248Y-56294894D01*
X93272137Y-53461784D01*
X93238653Y-53400462D01*
X93243637Y-53330770D01*
X93272141Y-53286419D01*
X93279416Y-53279144D01*
X93371456Y-53129924D01*
X93371458Y-53129919D01*
X93426605Y-52963497D01*
X93426606Y-52963490D01*
X93437099Y-52860786D01*
X93437100Y-52860773D01*
X93437100Y-52410800D01*
X91112101Y-52410800D01*
X91112101Y-52860786D01*
X91122594Y-52963498D01*
X91138963Y-53012897D01*
X91141365Y-53082725D01*
X91105633Y-53142767D01*
X91043112Y-53173959D01*
X91021257Y-53175900D01*
X90411897Y-53175900D01*
X90344858Y-53156215D01*
X90299103Y-53103411D01*
X90289159Y-53034253D01*
X90294191Y-53012896D01*
X90309987Y-52965226D01*
X90320600Y-52861345D01*
X90320599Y-51910800D01*
X91112100Y-51910800D01*
X92024600Y-51910800D01*
X92024600Y-50760800D01*
X92524600Y-50760800D01*
X92524600Y-51910800D01*
X93437099Y-51910800D01*
X93437099Y-51460828D01*
X93437098Y-51460813D01*
X93426605Y-51358102D01*
X93371458Y-51191680D01*
X93371456Y-51191675D01*
X93279415Y-51042454D01*
X93155445Y-50918484D01*
X93006224Y-50826443D01*
X93006219Y-50826441D01*
X92839797Y-50771294D01*
X92839790Y-50771293D01*
X92737086Y-50760800D01*
X92524600Y-50760800D01*
X92024600Y-50760800D01*
X91812129Y-50760800D01*
X91812112Y-50760801D01*
X91709402Y-50771294D01*
X91542980Y-50826441D01*
X91542975Y-50826443D01*
X91393754Y-50918484D01*
X91269784Y-51042454D01*
X91177743Y-51191675D01*
X91177741Y-51191680D01*
X91122594Y-51358102D01*
X91122593Y-51358109D01*
X91112100Y-51460813D01*
X91112100Y-51910800D01*
X90320599Y-51910800D01*
X90320599Y-51460256D01*
X90309987Y-51356374D01*
X90254215Y-51188062D01*
X90161130Y-51037148D01*
X90035752Y-50911770D01*
X89897416Y-50826443D01*
X89884840Y-50818686D01*
X89884835Y-50818684D01*
X89716527Y-50762913D01*
X89612646Y-50752300D01*
X88686562Y-50752300D01*
X88686546Y-50752301D01*
X88582672Y-50762913D01*
X88414364Y-50818684D01*
X88414359Y-50818686D01*
X88263446Y-50911771D01*
X88138071Y-51037146D01*
X88044986Y-51188059D01*
X88044984Y-51188064D01*
X87989213Y-51356372D01*
X87978600Y-51460247D01*
X87978600Y-52861337D01*
X87978601Y-52861353D01*
X87989213Y-52965227D01*
X88044984Y-53133535D01*
X88044986Y-53133540D01*
X88058972Y-53156215D01*
X88138070Y-53284452D01*
X88263448Y-53409830D01*
X88364057Y-53471886D01*
X88410780Y-53523833D01*
X88422003Y-53592796D01*
X88394159Y-53656878D01*
X88386640Y-53665105D01*
X86399133Y-55652612D01*
X86396407Y-55655179D01*
X86352677Y-55693920D01*
X86352673Y-55693925D01*
X86319496Y-55741991D01*
X86317277Y-55745006D01*
X86281260Y-55790980D01*
X86281259Y-55790981D01*
X86277596Y-55799121D01*
X86266580Y-55818654D01*
X86261505Y-55826007D01*
X86248241Y-55860979D01*
X86206061Y-55916680D01*
X86140463Y-55940735D01*
X86079896Y-55929387D01*
X86041143Y-55911316D01*
X86041140Y-55911315D01*
X86041138Y-55911314D01*
X85819989Y-55852057D01*
X85819981Y-55852056D01*
X85649027Y-55837100D01*
X84734773Y-55837100D01*
X84563818Y-55852056D01*
X84563810Y-55852057D01*
X84342661Y-55911314D01*
X84342650Y-55911318D01*
X84135154Y-56008075D01*
X84135152Y-56008076D01*
X84135149Y-56008077D01*
X84135151Y-56008077D01*
X83947600Y-56139402D01*
X83947598Y-56139403D01*
X83947595Y-56139406D01*
X83785703Y-56301298D01*
X83785698Y-56301304D01*
X83694309Y-56431823D01*
X83639732Y-56475448D01*
X83592734Y-56484700D01*
X83554638Y-56484700D01*
X83550893Y-56484587D01*
X83492605Y-56481061D01*
X83492600Y-56481061D01*
X83443968Y-56489973D01*
X83435154Y-56491588D01*
X83431456Y-56492151D01*
X83373477Y-56499191D01*
X83370792Y-56500209D01*
X83365127Y-56502357D01*
X83343520Y-56508380D01*
X83334744Y-56509988D01*
X83334732Y-56509992D01*
X83298804Y-56526161D01*
X83281474Y-56533961D01*
X83278026Y-56535389D01*
X83223407Y-56556104D01*
X83216050Y-56561182D01*
X83196526Y-56572193D01*
X83188386Y-56575857D01*
X83188377Y-56575862D01*
X83142406Y-56611876D01*
X83139392Y-56614094D01*
X83091321Y-56647276D01*
X83091320Y-56647277D01*
X83052587Y-56690998D01*
X83050020Y-56693724D01*
X80020233Y-59723512D01*
X80017507Y-59726079D01*
X79973777Y-59764820D01*
X79973773Y-59764825D01*
X79940596Y-59812891D01*
X79938377Y-59815906D01*
X79902360Y-59861880D01*
X79902359Y-59861881D01*
X79898696Y-59870021D01*
X79887680Y-59889554D01*
X79882604Y-59896908D01*
X79861889Y-59951526D01*
X79860457Y-59954985D01*
X79836492Y-60008232D01*
X79836488Y-60008244D01*
X79834880Y-60017020D01*
X79828857Y-60038627D01*
X79826709Y-60044292D01*
X79825691Y-60046977D01*
X79818652Y-60104947D01*
X79818088Y-60108649D01*
X79807560Y-60166100D01*
X79807560Y-60166103D01*
X79811086Y-60224411D01*
X79811199Y-60228154D01*
X79811199Y-80994186D01*
X79791514Y-81061225D01*
X79738710Y-81106980D01*
X79726205Y-81111891D01*
X79681568Y-81126683D01*
X79681559Y-81126686D01*
X79530646Y-81219771D01*
X79405271Y-81345146D01*
X79312186Y-81496059D01*
X79312184Y-81496064D01*
X79256413Y-81664372D01*
X79245800Y-81768247D01*
X79245800Y-82819337D01*
X79245801Y-82819353D01*
X79256413Y-82923227D01*
X79293959Y-83036535D01*
X79312185Y-83091538D01*
X79405270Y-83242452D01*
X79530648Y-83367830D01*
X79681562Y-83460915D01*
X79849874Y-83516687D01*
X79953755Y-83527300D01*
X80719584Y-83527299D01*
X80786623Y-83546983D01*
X80807265Y-83563618D01*
X82817981Y-85574334D01*
X82851466Y-85635657D01*
X82854300Y-85662015D01*
X82854300Y-86848150D01*
X82863039Y-86883606D01*
X82864389Y-86890974D01*
X82868791Y-86927224D01*
X82874501Y-86942281D01*
X82881740Y-86961368D01*
X82883966Y-86968511D01*
X82892707Y-87003976D01*
X82909679Y-87036313D01*
X82912755Y-87043147D01*
X82925704Y-87077291D01*
X82946446Y-87107340D01*
X82950323Y-87113753D01*
X82967296Y-87146092D01*
X82991508Y-87173423D01*
X82996129Y-87179321D01*
X83016872Y-87209372D01*
X83016877Y-87209378D01*
X83044213Y-87233596D01*
X83049503Y-87238886D01*
X83073723Y-87266224D01*
X83103781Y-87286972D01*
X83109673Y-87291588D01*
X83137007Y-87315804D01*
X83169343Y-87332775D01*
X83175757Y-87336652D01*
X83205809Y-87357396D01*
X83205813Y-87357397D01*
X83205814Y-87357398D01*
X83239947Y-87370342D01*
X83246781Y-87373418D01*
X83254087Y-87377252D01*
X83279120Y-87390391D01*
X83314576Y-87399130D01*
X83321731Y-87401359D01*
X83355874Y-87414308D01*
X83358797Y-87414662D01*
X83392141Y-87418711D01*
X83399476Y-87420055D01*
X83424603Y-87426249D01*
X83434950Y-87428800D01*
X83434952Y-87428800D01*
X83475225Y-87428800D01*
X83575134Y-87428800D01*
X83642173Y-87448485D01*
X83676708Y-87481676D01*
X83768102Y-87612200D01*
X83930000Y-87774098D01*
X84117550Y-87905422D01*
X84117551Y-87905423D01*
X84160645Y-87925518D01*
X84213084Y-87971691D01*
X84232236Y-88038884D01*
X84212020Y-88105765D01*
X84160645Y-88150282D01*
X84117551Y-88170376D01*
X84026245Y-88234310D01*
X83930000Y-88301702D01*
X83929998Y-88301703D01*
X83929995Y-88301706D01*
X83768106Y-88463595D01*
X83768103Y-88463598D01*
X83768102Y-88463600D01*
X83686067Y-88580756D01*
X83636776Y-88651152D01*
X83636775Y-88651154D01*
X83540018Y-88858650D01*
X83540014Y-88858661D01*
X83480757Y-89079810D01*
X83480756Y-89079818D01*
X83460802Y-89307898D01*
X83460802Y-89307901D01*
X83480756Y-89535981D01*
X83480757Y-89535989D01*
X83540014Y-89757138D01*
X83540018Y-89757149D01*
X83636775Y-89964645D01*
X83636777Y-89964649D01*
X83768102Y-90152200D01*
X83930000Y-90314098D01*
X84091952Y-90427498D01*
X84117551Y-90445423D01*
X84160645Y-90465518D01*
X84213084Y-90511691D01*
X84232236Y-90578884D01*
X84212020Y-90645765D01*
X84160645Y-90690282D01*
X84117551Y-90710376D01*
X84021387Y-90777712D01*
X83930000Y-90841702D01*
X83929998Y-90841703D01*
X83929995Y-90841706D01*
X83768106Y-91003595D01*
X83768103Y-91003598D01*
X83768102Y-91003600D01*
X83729476Y-91058764D01*
X83636776Y-91191152D01*
X83636775Y-91191154D01*
X83540018Y-91398650D01*
X83540014Y-91398661D01*
X83480757Y-91619810D01*
X83480756Y-91619818D01*
X83460802Y-91847898D01*
X83460802Y-91847901D01*
X83480756Y-92075981D01*
X83480757Y-92075989D01*
X83540014Y-92297138D01*
X83540018Y-92297149D01*
X83625917Y-92481360D01*
X83636777Y-92504649D01*
X83768102Y-92692200D01*
X83930000Y-92854098D01*
X84117550Y-92985422D01*
X84117551Y-92985423D01*
X84170701Y-93010207D01*
X84223140Y-93056379D01*
X84242292Y-93123573D01*
X84222076Y-93190454D01*
X84170701Y-93234971D01*
X84121817Y-93257765D01*
X83935479Y-93388242D01*
X83774642Y-93549079D01*
X83644165Y-93735417D01*
X83548034Y-93941573D01*
X83548030Y-93941582D01*
X83495427Y-94137899D01*
X83495428Y-94137900D01*
X84858614Y-94137900D01*
X84846659Y-94149855D01*
X84789135Y-94262752D01*
X84769314Y-94387900D01*
X84789135Y-94513048D01*
X84846659Y-94625945D01*
X84858614Y-94637900D01*
X83495428Y-94637900D01*
X83548030Y-94834217D01*
X83548034Y-94834226D01*
X83644165Y-95040382D01*
X83774642Y-95226720D01*
X83935479Y-95387557D01*
X84121817Y-95518033D01*
X84170699Y-95540827D01*
X84223139Y-95586999D01*
X84242292Y-95654192D01*
X84222077Y-95721074D01*
X84170702Y-95765591D01*
X84117556Y-95790374D01*
X84117552Y-95790376D01*
X84117549Y-95790377D01*
X84117551Y-95790377D01*
X83930000Y-95921702D01*
X83929998Y-95921703D01*
X83929995Y-95921706D01*
X83768106Y-96083595D01*
X83636776Y-96271152D01*
X83636775Y-96271154D01*
X83540018Y-96478650D01*
X83540014Y-96478661D01*
X83480757Y-96699810D01*
X83480756Y-96699818D01*
X83460802Y-96927898D01*
X83460802Y-96927901D01*
X83480756Y-97155981D01*
X83480757Y-97155989D01*
X83540014Y-97377138D01*
X83540018Y-97377149D01*
X83625917Y-97561359D01*
X83636777Y-97584649D01*
X83768102Y-97772200D01*
X83930000Y-97934098D01*
X84117550Y-98065422D01*
X84117551Y-98065423D01*
X84160645Y-98085518D01*
X84213084Y-98131691D01*
X84232236Y-98198884D01*
X84212020Y-98265765D01*
X84160645Y-98310282D01*
X84117551Y-98330376D01*
X83992426Y-98417990D01*
X83930000Y-98461702D01*
X83929998Y-98461703D01*
X83929995Y-98461706D01*
X83768106Y-98623595D01*
X83636776Y-98811152D01*
X83636775Y-98811154D01*
X83540018Y-99018650D01*
X83540014Y-99018661D01*
X83480757Y-99239810D01*
X83480756Y-99239818D01*
X83460802Y-99467898D01*
X83460802Y-99467901D01*
X83480756Y-99695981D01*
X83480757Y-99695989D01*
X83540014Y-99917138D01*
X83540018Y-99917149D01*
X83631711Y-100113785D01*
X83636777Y-100124649D01*
X83768102Y-100312200D01*
X83930000Y-100474098D01*
X84117551Y-100605422D01*
X84117551Y-100605423D01*
X84160645Y-100625518D01*
X84213084Y-100671691D01*
X84232236Y-100738884D01*
X84212020Y-100805765D01*
X84160645Y-100850282D01*
X84117551Y-100870376D01*
X83992426Y-100957990D01*
X83930000Y-101001702D01*
X83929998Y-101001703D01*
X83929995Y-101001706D01*
X83768106Y-101163595D01*
X83768103Y-101163598D01*
X83768102Y-101163600D01*
X83715822Y-101238264D01*
X83636776Y-101351152D01*
X83636775Y-101351154D01*
X83540018Y-101558650D01*
X83540014Y-101558661D01*
X83480757Y-101779810D01*
X83480756Y-101779818D01*
X83460802Y-102007898D01*
X83460802Y-102007901D01*
X83480756Y-102235981D01*
X83480757Y-102235989D01*
X83540014Y-102457138D01*
X83540018Y-102457149D01*
X83625526Y-102640522D01*
X83636777Y-102664649D01*
X83768102Y-102852200D01*
X83930000Y-103014098D01*
X84117550Y-103145422D01*
X84117551Y-103145423D01*
X84160645Y-103165518D01*
X84213084Y-103211691D01*
X84232236Y-103278884D01*
X84212020Y-103345765D01*
X84160645Y-103390282D01*
X84117551Y-103410376D01*
X83992426Y-103497990D01*
X83930000Y-103541702D01*
X83929998Y-103541703D01*
X83929995Y-103541706D01*
X83768106Y-103703595D01*
X83768103Y-103703598D01*
X83768102Y-103703600D01*
X83713491Y-103781592D01*
X83636776Y-103891152D01*
X83636775Y-103891154D01*
X83540018Y-104098650D01*
X83540014Y-104098661D01*
X83480757Y-104319810D01*
X83480756Y-104319818D01*
X83460802Y-104547898D01*
X83460802Y-104547901D01*
X83480756Y-104775981D01*
X83480757Y-104775989D01*
X83540014Y-104997138D01*
X83540018Y-104997149D01*
X83625526Y-105180522D01*
X83636777Y-105204649D01*
X83768102Y-105392200D01*
X83930000Y-105554098D01*
X84117551Y-105685422D01*
X84117551Y-105685423D01*
X84160645Y-105705518D01*
X84213084Y-105751691D01*
X84232236Y-105818884D01*
X84212020Y-105885765D01*
X84160645Y-105930282D01*
X84117551Y-105950376D01*
X83992426Y-106037990D01*
X83930000Y-106081702D01*
X83929998Y-106081703D01*
X83929995Y-106081706D01*
X83768106Y-106243595D01*
X83768103Y-106243598D01*
X83768102Y-106243600D01*
X83713491Y-106321592D01*
X83636776Y-106431152D01*
X83636775Y-106431154D01*
X83540018Y-106638650D01*
X83540014Y-106638661D01*
X83480757Y-106859810D01*
X83480756Y-106859818D01*
X83460802Y-107087898D01*
X83460802Y-107087901D01*
X83480756Y-107315981D01*
X83480757Y-107315989D01*
X83540014Y-107537138D01*
X83540018Y-107537149D01*
X83589417Y-107643085D01*
X83636777Y-107744649D01*
X83768102Y-107932200D01*
X83930000Y-108094098D01*
X84117551Y-108225423D01*
X84176099Y-108252724D01*
X84325050Y-108322181D01*
X84325052Y-108322181D01*
X84325057Y-108322184D01*
X84546213Y-108381443D01*
X84717173Y-108396400D01*
X85631427Y-108396400D01*
X85802387Y-108381443D01*
X86016407Y-108324096D01*
X86086255Y-108325759D01*
X86144118Y-108364921D01*
X86171622Y-108429149D01*
X86172499Y-108443871D01*
X86172499Y-108544083D01*
X86152814Y-108611122D01*
X86136180Y-108631764D01*
X84800019Y-109967927D01*
X84800017Y-109967929D01*
X84754102Y-110013841D01*
X84754098Y-110013847D01*
X83451964Y-111315981D01*
X83390641Y-111349466D01*
X83364283Y-111352300D01*
X82478762Y-111352300D01*
X82478746Y-111352301D01*
X82374872Y-111362913D01*
X82206564Y-111418684D01*
X82206559Y-111418686D01*
X82055646Y-111511771D01*
X81930271Y-111637146D01*
X81837186Y-111788059D01*
X81837184Y-111788064D01*
X81781413Y-111956372D01*
X81770800Y-112060247D01*
X81770800Y-113461337D01*
X81770801Y-113461353D01*
X81781236Y-113563490D01*
X81781413Y-113565226D01*
X81837185Y-113733538D01*
X81930270Y-113884452D01*
X82055648Y-114009830D01*
X82206562Y-114102915D01*
X82374874Y-114158687D01*
X82478755Y-114169300D01*
X83404844Y-114169299D01*
X83508726Y-114158687D01*
X83677038Y-114102915D01*
X83827952Y-114009830D01*
X83953330Y-113884452D01*
X84046415Y-113733538D01*
X84102187Y-113565226D01*
X84112800Y-113461345D01*
X84112799Y-112575813D01*
X84132483Y-112508775D01*
X84149113Y-112488138D01*
X85122823Y-111514429D01*
X85184144Y-111480946D01*
X85253836Y-111485930D01*
X85280942Y-111500062D01*
X85322295Y-111528606D01*
X85325312Y-111530825D01*
X85371280Y-111566839D01*
X85379414Y-111570499D01*
X85398960Y-111581523D01*
X85406309Y-111586596D01*
X85460945Y-111607316D01*
X85464342Y-111608723D01*
X85517636Y-111632709D01*
X85525127Y-111634081D01*
X85526412Y-111634317D01*
X85548033Y-111640344D01*
X85556375Y-111643508D01*
X85614346Y-111650546D01*
X85618049Y-111651110D01*
X85637672Y-111654705D01*
X85675503Y-111661639D01*
X85675503Y-111661638D01*
X85675504Y-111661639D01*
X85733800Y-111658113D01*
X85737544Y-111658000D01*
X97028546Y-111658000D01*
X97032291Y-111658113D01*
X97090596Y-111661640D01*
X97090596Y-111661639D01*
X97090597Y-111661640D01*
X97148084Y-111651103D01*
X97151730Y-111650549D01*
X97209725Y-111643508D01*
X97218060Y-111640346D01*
X97239685Y-111634317D01*
X97248464Y-111632709D01*
X97301767Y-111608718D01*
X97305153Y-111607316D01*
X97359791Y-111586596D01*
X97367139Y-111581524D01*
X97386689Y-111570498D01*
X97394820Y-111566839D01*
X97440805Y-111530810D01*
X97443781Y-111528620D01*
X97491877Y-111495424D01*
X97530620Y-111451690D01*
X97533170Y-111448981D01*
X99493781Y-109488370D01*
X99496492Y-109485819D01*
X99540224Y-109447077D01*
X99555079Y-109425555D01*
X99609360Y-109381564D01*
X99678808Y-109373903D01*
X99741374Y-109405004D01*
X99777193Y-109464994D01*
X99781130Y-109496069D01*
X99776784Y-116624932D01*
X99757059Y-116691959D01*
X99704227Y-116737682D01*
X99652885Y-116748856D01*
X75353411Y-116768564D01*
X75286355Y-116748934D01*
X75240557Y-116696167D01*
X75229310Y-116644671D01*
X75227123Y-114102913D01*
X75226183Y-113010800D01*
X78654301Y-113010800D01*
X78654301Y-113460786D01*
X78664794Y-113563497D01*
X78719941Y-113729919D01*
X78719943Y-113729924D01*
X78811984Y-113879145D01*
X78935954Y-114003115D01*
X79085175Y-114095156D01*
X79085180Y-114095158D01*
X79251602Y-114150305D01*
X79251609Y-114150306D01*
X79354319Y-114160799D01*
X79566799Y-114160799D01*
X79566800Y-114160798D01*
X79566800Y-113010800D01*
X80066800Y-113010800D01*
X80066800Y-114160799D01*
X80279272Y-114160799D01*
X80279286Y-114160798D01*
X80381997Y-114150305D01*
X80548419Y-114095158D01*
X80548424Y-114095156D01*
X80697645Y-114003115D01*
X80821615Y-113879145D01*
X80913656Y-113729924D01*
X80913658Y-113729919D01*
X80968805Y-113563497D01*
X80968806Y-113563490D01*
X80979299Y-113460786D01*
X80979300Y-113460773D01*
X80979300Y-113010800D01*
X80066800Y-113010800D01*
X79566800Y-113010800D01*
X78654301Y-113010800D01*
X75226183Y-113010800D01*
X75225753Y-112510800D01*
X78654300Y-112510800D01*
X79566800Y-112510800D01*
X79566800Y-111360800D01*
X80066800Y-111360800D01*
X80066800Y-112510800D01*
X80979299Y-112510800D01*
X80979299Y-112060828D01*
X80979298Y-112060813D01*
X80968805Y-111958102D01*
X80913658Y-111791680D01*
X80913656Y-111791675D01*
X80821615Y-111642454D01*
X80697645Y-111518484D01*
X80548424Y-111426443D01*
X80548419Y-111426441D01*
X80381997Y-111371294D01*
X80381990Y-111371293D01*
X80279286Y-111360800D01*
X80066800Y-111360800D01*
X79566800Y-111360800D01*
X79354329Y-111360800D01*
X79354312Y-111360801D01*
X79251602Y-111371294D01*
X79085180Y-111426441D01*
X79085175Y-111426443D01*
X78935954Y-111518484D01*
X78811984Y-111642454D01*
X78719943Y-111791675D01*
X78719941Y-111791680D01*
X78664794Y-111958102D01*
X78664793Y-111958109D01*
X78654300Y-112060813D01*
X78654300Y-112510800D01*
X75225753Y-112510800D01*
X75212821Y-97481940D01*
X75232448Y-97414886D01*
X75285213Y-97369086D01*
X75354362Y-97359083D01*
X75417943Y-97388053D01*
X75419051Y-97389023D01*
X75424213Y-97393597D01*
X75429503Y-97398886D01*
X75453723Y-97426224D01*
X75483781Y-97446972D01*
X75489673Y-97451588D01*
X75517007Y-97475804D01*
X75549343Y-97492775D01*
X75555757Y-97496652D01*
X75585809Y-97517396D01*
X75585813Y-97517397D01*
X75585814Y-97517398D01*
X75619947Y-97530342D01*
X75626784Y-97533419D01*
X75659120Y-97550391D01*
X75694576Y-97559130D01*
X75701731Y-97561359D01*
X75735874Y-97574308D01*
X75738797Y-97574662D01*
X75772141Y-97578711D01*
X75779476Y-97580055D01*
X75804603Y-97586249D01*
X75814950Y-97588800D01*
X75814952Y-97588800D01*
X75855225Y-97588800D01*
X75955134Y-97588800D01*
X76022173Y-97608485D01*
X76056708Y-97641676D01*
X76148102Y-97772200D01*
X76310000Y-97934098D01*
X76497551Y-98065423D01*
X76540645Y-98085518D01*
X76593084Y-98131691D01*
X76612236Y-98198884D01*
X76592020Y-98265765D01*
X76540645Y-98310282D01*
X76497551Y-98330376D01*
X76372426Y-98417990D01*
X76310000Y-98461702D01*
X76309998Y-98461703D01*
X76309995Y-98461706D01*
X76148106Y-98623595D01*
X76016776Y-98811152D01*
X76016775Y-98811154D01*
X75920018Y-99018650D01*
X75920014Y-99018661D01*
X75860757Y-99239810D01*
X75860756Y-99239818D01*
X75840802Y-99467898D01*
X75840802Y-99467901D01*
X75860756Y-99695981D01*
X75860757Y-99695989D01*
X75920014Y-99917138D01*
X75920018Y-99917149D01*
X76011711Y-100113785D01*
X76016777Y-100124649D01*
X76148102Y-100312200D01*
X76310000Y-100474098D01*
X76497550Y-100605422D01*
X76497551Y-100605423D01*
X76540645Y-100625518D01*
X76593084Y-100671691D01*
X76612236Y-100738884D01*
X76592020Y-100805765D01*
X76540645Y-100850282D01*
X76497551Y-100870376D01*
X76372426Y-100957990D01*
X76310000Y-101001702D01*
X76309998Y-101001703D01*
X76309995Y-101001706D01*
X76148106Y-101163595D01*
X76148103Y-101163598D01*
X76148102Y-101163600D01*
X76095822Y-101238264D01*
X76016776Y-101351152D01*
X76016775Y-101351154D01*
X75920018Y-101558650D01*
X75920014Y-101558661D01*
X75860757Y-101779810D01*
X75860756Y-101779818D01*
X75840802Y-102007898D01*
X75840802Y-102007901D01*
X75860756Y-102235981D01*
X75860757Y-102235989D01*
X75920014Y-102457138D01*
X75920018Y-102457149D01*
X76005526Y-102640522D01*
X76016777Y-102664649D01*
X76148102Y-102852200D01*
X76310000Y-103014098D01*
X76497551Y-103145422D01*
X76497551Y-103145423D01*
X76540645Y-103165518D01*
X76593084Y-103211691D01*
X76612236Y-103278884D01*
X76592020Y-103345765D01*
X76540645Y-103390282D01*
X76497551Y-103410376D01*
X76372426Y-103497990D01*
X76310000Y-103541702D01*
X76309998Y-103541703D01*
X76309995Y-103541706D01*
X76148106Y-103703595D01*
X76148103Y-103703598D01*
X76148102Y-103703600D01*
X76093491Y-103781592D01*
X76016776Y-103891152D01*
X76016775Y-103891154D01*
X75920018Y-104098650D01*
X75920014Y-104098661D01*
X75860757Y-104319810D01*
X75860756Y-104319818D01*
X75840802Y-104547898D01*
X75840802Y-104547901D01*
X75860756Y-104775981D01*
X75860757Y-104775989D01*
X75920014Y-104997138D01*
X75920018Y-104997149D01*
X76005526Y-105180522D01*
X76016777Y-105204649D01*
X76148102Y-105392200D01*
X76310000Y-105554098D01*
X76497550Y-105685423D01*
X76497551Y-105685423D01*
X76550701Y-105710207D01*
X76603140Y-105756379D01*
X76622292Y-105823573D01*
X76602076Y-105890454D01*
X76550701Y-105934971D01*
X76501817Y-105957765D01*
X76315479Y-106088242D01*
X76154642Y-106249079D01*
X76024165Y-106435417D01*
X75928034Y-106641573D01*
X75928030Y-106641582D01*
X75875427Y-106837899D01*
X75875428Y-106837900D01*
X77238614Y-106837900D01*
X77226659Y-106849855D01*
X77169135Y-106962752D01*
X77149314Y-107087900D01*
X77169135Y-107213048D01*
X77226659Y-107325945D01*
X77238614Y-107337900D01*
X75875428Y-107337900D01*
X75928030Y-107534217D01*
X75928034Y-107534226D01*
X76024165Y-107740382D01*
X76154642Y-107926720D01*
X76315479Y-108087557D01*
X76501817Y-108218034D01*
X76707973Y-108314165D01*
X76707982Y-108314169D01*
X76927689Y-108373039D01*
X76927700Y-108373041D01*
X77097537Y-108387900D01*
X77304300Y-108387900D01*
X77304300Y-107403585D01*
X77316255Y-107415541D01*
X77429152Y-107473065D01*
X77522819Y-107487900D01*
X77585781Y-107487900D01*
X77679448Y-107473065D01*
X77792345Y-107415541D01*
X77804300Y-107403585D01*
X77804300Y-108387900D01*
X78011063Y-108387900D01*
X78180899Y-108373041D01*
X78180910Y-108373039D01*
X78400617Y-108314169D01*
X78400626Y-108314165D01*
X78606782Y-108218034D01*
X78793120Y-108087557D01*
X78953957Y-107926720D01*
X79084434Y-107740382D01*
X79180565Y-107534226D01*
X79180569Y-107534217D01*
X79233172Y-107337900D01*
X77869986Y-107337900D01*
X77881941Y-107325945D01*
X77939465Y-107213048D01*
X77959286Y-107087900D01*
X77939465Y-106962752D01*
X77881941Y-106849855D01*
X77869986Y-106837900D01*
X79233172Y-106837900D01*
X79233172Y-106837899D01*
X79180569Y-106641582D01*
X79180565Y-106641573D01*
X79084434Y-106435417D01*
X78953957Y-106249079D01*
X78793120Y-106088242D01*
X78606781Y-105957765D01*
X78606779Y-105957764D01*
X78557899Y-105934971D01*
X78505459Y-105888799D01*
X78486307Y-105821606D01*
X78506523Y-105754724D01*
X78557899Y-105710207D01*
X78611049Y-105685423D01*
X78798600Y-105554098D01*
X78960498Y-105392200D01*
X79091823Y-105204649D01*
X79188584Y-104997143D01*
X79247843Y-104775987D01*
X79267798Y-104547900D01*
X79247843Y-104319813D01*
X79188584Y-104098657D01*
X79091823Y-103891151D01*
X78960498Y-103703600D01*
X78798600Y-103541702D01*
X78611049Y-103410377D01*
X78567955Y-103390282D01*
X78515515Y-103344110D01*
X78496363Y-103276917D01*
X78516578Y-103210036D01*
X78567955Y-103165518D01*
X78571182Y-103164012D01*
X78611049Y-103145423D01*
X78798600Y-103014098D01*
X78960498Y-102852200D01*
X79091823Y-102664649D01*
X79188584Y-102457143D01*
X79247843Y-102235987D01*
X79264947Y-102040483D01*
X79267798Y-102007901D01*
X79267798Y-102007898D01*
X79247843Y-101779818D01*
X79247843Y-101779813D01*
X79188584Y-101558657D01*
X79187506Y-101556346D01*
X79091824Y-101351154D01*
X79091823Y-101351152D01*
X79091823Y-101351151D01*
X78960498Y-101163600D01*
X78798600Y-101001702D01*
X78611049Y-100870377D01*
X78567955Y-100850282D01*
X78515515Y-100804110D01*
X78496363Y-100736917D01*
X78516578Y-100670036D01*
X78567955Y-100625518D01*
X78571182Y-100624012D01*
X78611049Y-100605423D01*
X78798600Y-100474098D01*
X78960498Y-100312200D01*
X79091823Y-100124649D01*
X79188584Y-99917143D01*
X79247843Y-99695987D01*
X79267798Y-99467900D01*
X79247843Y-99239813D01*
X79188584Y-99018657D01*
X79091823Y-98811151D01*
X78960498Y-98623600D01*
X78798600Y-98461702D01*
X78611049Y-98330377D01*
X78567955Y-98310282D01*
X78515515Y-98264110D01*
X78496363Y-98196917D01*
X78516578Y-98130036D01*
X78567955Y-98085518D01*
X78571182Y-98084012D01*
X78611049Y-98065423D01*
X78798600Y-97934098D01*
X78960498Y-97772200D01*
X79091823Y-97584649D01*
X79188584Y-97377143D01*
X79247843Y-97155987D01*
X79267798Y-96927900D01*
X79247843Y-96699813D01*
X79188584Y-96478657D01*
X79091823Y-96271151D01*
X78960498Y-96083600D01*
X78798600Y-95921702D01*
X78611049Y-95790377D01*
X78567955Y-95770282D01*
X78515515Y-95724110D01*
X78496363Y-95656917D01*
X78516578Y-95590036D01*
X78567955Y-95545518D01*
X78571182Y-95544012D01*
X78611049Y-95525423D01*
X78798600Y-95394098D01*
X78960498Y-95232200D01*
X79091823Y-95044649D01*
X79188584Y-94837143D01*
X79247843Y-94615987D01*
X79267798Y-94387900D01*
X79247843Y-94159813D01*
X79188584Y-93938657D01*
X79091823Y-93731151D01*
X78960498Y-93543600D01*
X78798600Y-93381702D01*
X78611049Y-93250377D01*
X78567955Y-93230282D01*
X78515515Y-93184110D01*
X78496363Y-93116917D01*
X78516578Y-93050036D01*
X78567955Y-93005518D01*
X78587401Y-92996450D01*
X78611049Y-92985423D01*
X78798600Y-92854098D01*
X78960498Y-92692200D01*
X79051891Y-92561676D01*
X79106468Y-92518052D01*
X79153466Y-92508800D01*
X79293649Y-92508800D01*
X79298110Y-92507700D01*
X79329129Y-92500054D01*
X79336454Y-92498711D01*
X79372725Y-92494308D01*
X79406881Y-92481353D01*
X79414003Y-92479134D01*
X79449480Y-92470391D01*
X79481831Y-92453410D01*
X79488633Y-92450349D01*
X79522791Y-92437396D01*
X79552851Y-92416645D01*
X79559239Y-92412783D01*
X79591591Y-92395805D01*
X79618933Y-92371581D01*
X79624810Y-92366976D01*
X79654877Y-92346224D01*
X79679103Y-92318877D01*
X79684377Y-92313603D01*
X79711724Y-92289377D01*
X79732476Y-92259310D01*
X79737081Y-92253433D01*
X79761305Y-92226091D01*
X79778283Y-92193739D01*
X79782145Y-92187351D01*
X79802896Y-92157291D01*
X79815849Y-92123133D01*
X79818910Y-92116331D01*
X79835891Y-92083980D01*
X79844634Y-92048503D01*
X79846853Y-92041381D01*
X79859808Y-92007225D01*
X79864211Y-91970954D01*
X79865554Y-91963629D01*
X79874300Y-91928148D01*
X79874300Y-91767652D01*
X79874300Y-90988853D01*
X79874413Y-90985109D01*
X79877940Y-90926803D01*
X79877939Y-90926798D01*
X79872294Y-90895999D01*
X79867408Y-90869340D01*
X79866845Y-90865636D01*
X79859808Y-90807678D01*
X79859808Y-90807676D01*
X79856645Y-90799336D01*
X79850617Y-90777712D01*
X79849009Y-90768937D01*
X79849009Y-90768936D01*
X79825029Y-90715657D01*
X79823616Y-90712245D01*
X79802896Y-90657609D01*
X79797823Y-90650259D01*
X79786797Y-90630710D01*
X79783139Y-90622581D01*
X79747116Y-90576600D01*
X79744904Y-90573592D01*
X79711724Y-90525523D01*
X79668001Y-90486787D01*
X79665289Y-90484235D01*
X79170352Y-89989298D01*
X79136867Y-89927975D01*
X79141851Y-89858283D01*
X79145651Y-89849212D01*
X79145919Y-89848637D01*
X79188584Y-89757143D01*
X79247843Y-89535987D01*
X79267798Y-89307900D01*
X79247843Y-89079813D01*
X79188584Y-88858657D01*
X79091823Y-88651151D01*
X78960498Y-88463600D01*
X78798600Y-88301702D01*
X78780298Y-88288886D01*
X78736675Y-88234310D01*
X78729483Y-88164812D01*
X78761006Y-88102458D01*
X78821237Y-88067045D01*
X78838171Y-88064024D01*
X78861679Y-88061496D01*
X78996386Y-88011254D01*
X78996393Y-88011250D01*
X79111487Y-87925090D01*
X79111490Y-87925087D01*
X79197650Y-87809993D01*
X79197654Y-87809986D01*
X79247896Y-87675279D01*
X79247898Y-87675272D01*
X79254299Y-87615744D01*
X79254300Y-87615727D01*
X79254300Y-87017900D01*
X77869986Y-87017900D01*
X77881941Y-87005945D01*
X77939465Y-86893048D01*
X77959286Y-86767900D01*
X77939465Y-86642752D01*
X77881941Y-86529855D01*
X77869986Y-86517900D01*
X79254300Y-86517900D01*
X79254300Y-85920072D01*
X79254299Y-85920055D01*
X79247898Y-85860527D01*
X79247896Y-85860520D01*
X79197654Y-85725813D01*
X79197650Y-85725806D01*
X79111490Y-85610712D01*
X79111487Y-85610709D01*
X78996393Y-85524549D01*
X78996386Y-85524545D01*
X78861679Y-85474303D01*
X78861672Y-85474301D01*
X78802144Y-85467900D01*
X77804300Y-85467900D01*
X77804300Y-86452214D01*
X77792345Y-86440259D01*
X77679448Y-86382735D01*
X77585781Y-86367900D01*
X77522819Y-86367900D01*
X77429152Y-86382735D01*
X77316255Y-86440259D01*
X77304300Y-86452213D01*
X77304300Y-85467900D01*
X76680100Y-85467900D01*
X76613061Y-85448215D01*
X76567306Y-85395411D01*
X76556100Y-85343900D01*
X76556100Y-78807273D01*
X76575785Y-78740234D01*
X76628589Y-78694479D01*
X76697747Y-78684535D01*
X76722522Y-78690755D01*
X76725583Y-78691869D01*
X76945289Y-78750739D01*
X76945300Y-78750741D01*
X77115137Y-78765600D01*
X77321900Y-78765600D01*
X77321900Y-77781286D01*
X77333855Y-77793241D01*
X77446752Y-77850765D01*
X77540419Y-77865600D01*
X77603381Y-77865600D01*
X77697048Y-77850765D01*
X77809945Y-77793241D01*
X77821900Y-77781286D01*
X77821900Y-78765600D01*
X78028663Y-78765600D01*
X78198499Y-78750741D01*
X78198510Y-78750739D01*
X78418217Y-78691869D01*
X78418226Y-78691865D01*
X78624382Y-78595734D01*
X78810720Y-78465257D01*
X78971557Y-78304420D01*
X79102034Y-78118082D01*
X79198165Y-77911926D01*
X79198169Y-77911917D01*
X79250772Y-77715600D01*
X77887586Y-77715600D01*
X77899541Y-77703645D01*
X77957065Y-77590748D01*
X77976886Y-77465600D01*
X77957065Y-77340452D01*
X77899541Y-77227555D01*
X77887586Y-77215600D01*
X79250772Y-77215600D01*
X79250772Y-77215599D01*
X79198169Y-77019282D01*
X79198165Y-77019273D01*
X79102034Y-76813117D01*
X78971557Y-76626779D01*
X78810720Y-76465942D01*
X78624381Y-76335465D01*
X78624379Y-76335464D01*
X78575499Y-76312671D01*
X78523059Y-76266499D01*
X78503907Y-76199306D01*
X78524123Y-76132424D01*
X78575499Y-76087907D01*
X78628649Y-76063123D01*
X78816200Y-75931798D01*
X78978098Y-75769900D01*
X79109423Y-75582349D01*
X79206184Y-75374843D01*
X79265443Y-75153687D01*
X79285398Y-74925600D01*
X79265443Y-74697513D01*
X79206184Y-74476357D01*
X79183295Y-74427272D01*
X79152263Y-74360723D01*
X79109423Y-74268851D01*
X78978098Y-74081300D01*
X78816200Y-73919402D01*
X78628649Y-73788077D01*
X78587699Y-73768982D01*
X78585555Y-73767982D01*
X78533115Y-73721810D01*
X78513963Y-73654617D01*
X78534178Y-73587736D01*
X78585555Y-73543218D01*
X78588782Y-73541712D01*
X78628649Y-73523123D01*
X78816200Y-73391798D01*
X78978098Y-73229900D01*
X79109423Y-73042349D01*
X79206184Y-72834843D01*
X79265443Y-72613687D01*
X79285398Y-72385600D01*
X79265443Y-72157513D01*
X79206184Y-71936357D01*
X79109423Y-71728851D01*
X78978098Y-71541300D01*
X78816200Y-71379402D01*
X78628649Y-71248077D01*
X78587699Y-71228982D01*
X78585555Y-71227982D01*
X78533115Y-71181810D01*
X78513963Y-71114617D01*
X78534178Y-71047736D01*
X78585555Y-71003218D01*
X78588782Y-71001712D01*
X78628649Y-70983123D01*
X78816200Y-70851798D01*
X78978098Y-70689900D01*
X79109423Y-70502349D01*
X79206184Y-70294843D01*
X79265443Y-70073687D01*
X79285398Y-69845600D01*
X79265443Y-69617513D01*
X79206184Y-69396357D01*
X79109423Y-69188851D01*
X78978098Y-69001300D01*
X78816200Y-68839402D01*
X78628649Y-68708077D01*
X78587699Y-68688982D01*
X78585555Y-68687982D01*
X78533115Y-68641810D01*
X78513963Y-68574617D01*
X78534178Y-68507736D01*
X78585555Y-68463218D01*
X78588782Y-68461712D01*
X78628649Y-68443123D01*
X78816200Y-68311798D01*
X78978098Y-68149900D01*
X79109423Y-67962349D01*
X79206184Y-67754843D01*
X79265443Y-67533687D01*
X79285398Y-67305600D01*
X79265443Y-67077513D01*
X79206184Y-66856357D01*
X79204960Y-66853733D01*
X79131124Y-66695389D01*
X79109423Y-66648851D01*
X78978098Y-66461300D01*
X78816200Y-66299402D01*
X78628649Y-66168077D01*
X78628643Y-66168074D01*
X78585553Y-66147980D01*
X78533114Y-66101807D01*
X78513963Y-66034614D01*
X78534180Y-65967733D01*
X78585554Y-65923218D01*
X78628649Y-65903123D01*
X78816200Y-65771798D01*
X78978098Y-65609900D01*
X79109423Y-65422349D01*
X79206184Y-65214843D01*
X79265443Y-64993687D01*
X79285398Y-64765600D01*
X79265443Y-64537513D01*
X79206184Y-64316357D01*
X79109423Y-64108851D01*
X78978098Y-63921300D01*
X78816200Y-63759402D01*
X78628649Y-63628077D01*
X78587699Y-63608982D01*
X78585555Y-63607982D01*
X78533115Y-63561810D01*
X78513963Y-63494617D01*
X78534178Y-63427736D01*
X78585555Y-63383218D01*
X78588782Y-63381712D01*
X78628649Y-63363123D01*
X78816200Y-63231798D01*
X78978098Y-63069900D01*
X79109423Y-62882349D01*
X79206184Y-62674843D01*
X79265443Y-62453687D01*
X79285398Y-62225600D01*
X79265443Y-61997513D01*
X79206184Y-61776357D01*
X79109423Y-61568851D01*
X78978098Y-61381300D01*
X78816200Y-61219402D01*
X78628649Y-61088077D01*
X78585555Y-61067982D01*
X78533115Y-61021810D01*
X78513963Y-60954617D01*
X78534178Y-60887736D01*
X78585555Y-60843218D01*
X78598218Y-60837313D01*
X78628649Y-60823123D01*
X78816200Y-60691798D01*
X78978098Y-60529900D01*
X79109423Y-60342349D01*
X79206184Y-60134843D01*
X79265443Y-59913687D01*
X79285398Y-59685600D01*
X79265443Y-59457513D01*
X79206184Y-59236357D01*
X79109423Y-59028851D01*
X78978098Y-58841300D01*
X78816200Y-58679402D01*
X78808527Y-58674029D01*
X78764906Y-58619453D01*
X78757714Y-58549955D01*
X78789238Y-58487601D01*
X78849468Y-58452188D01*
X78866389Y-58449170D01*
X78881101Y-58447589D01*
X79018104Y-58396489D01*
X79135161Y-58308861D01*
X79222789Y-58191804D01*
X79273889Y-58054801D01*
X79280178Y-57996306D01*
X79280399Y-57994254D01*
X79280400Y-57994237D01*
X79280400Y-56296962D01*
X79280399Y-56296945D01*
X79277057Y-56265870D01*
X79273889Y-56236399D01*
X79222789Y-56099396D01*
X79135161Y-55982339D01*
X79018104Y-55894711D01*
X78985020Y-55882371D01*
X78881103Y-55843611D01*
X78820554Y-55837100D01*
X78820538Y-55837100D01*
X76323262Y-55837100D01*
X76323245Y-55837100D01*
X76262697Y-55843611D01*
X76262695Y-55843611D01*
X76125695Y-55894711D01*
X76008639Y-55982339D01*
X75921011Y-56099395D01*
X75869911Y-56236395D01*
X75869911Y-56236397D01*
X75863400Y-56296945D01*
X75863400Y-57994254D01*
X75869911Y-58054802D01*
X75869911Y-58054804D01*
X75906089Y-58151798D01*
X75921011Y-58191804D01*
X76008639Y-58308861D01*
X76125696Y-58396489D01*
X76225010Y-58433531D01*
X76262693Y-58447587D01*
X76262699Y-58447589D01*
X76277399Y-58449169D01*
X76341948Y-58475905D01*
X76381797Y-58533296D01*
X76384293Y-58603121D01*
X76348642Y-58663211D01*
X76335277Y-58674025D01*
X76335271Y-58674031D01*
X76327596Y-58679405D01*
X76165706Y-58841295D01*
X76034376Y-59028852D01*
X76034375Y-59028854D01*
X75937618Y-59236350D01*
X75937614Y-59236361D01*
X75878357Y-59457510D01*
X75878356Y-59457518D01*
X75858402Y-59685598D01*
X75858402Y-59685601D01*
X75878356Y-59913681D01*
X75878357Y-59913689D01*
X75937614Y-60134838D01*
X75937618Y-60134849D01*
X75980548Y-60226913D01*
X75991040Y-60295990D01*
X75962520Y-60359774D01*
X75955847Y-60366998D01*
X75443333Y-60879512D01*
X75440607Y-60882079D01*
X75391263Y-60925795D01*
X75390086Y-60924467D01*
X75338903Y-60956564D01*
X75269038Y-60955788D01*
X75210683Y-60917364D01*
X75182365Y-60853490D01*
X75181291Y-60837313D01*
X75181028Y-60531415D01*
X75172186Y-50256125D01*
X75191813Y-50189071D01*
X75244577Y-50143271D01*
X75296238Y-50132021D01*
X77605780Y-50132992D01*
G37*
%TD.AperFunction*%
%TA.AperFunction,Conductor*%
G36*
X89963407Y-103108256D02*
G01*
X89922900Y-103246211D01*
X89922900Y-103389989D01*
X89963407Y-103527944D01*
X89989214Y-103568100D01*
X89092264Y-103568100D01*
X89149467Y-103781586D01*
X89149470Y-103781592D01*
X89249299Y-103995678D01*
X89384794Y-104189182D01*
X89551817Y-104356205D01*
X89737931Y-104486525D01*
X89781556Y-104541103D01*
X89788748Y-104610601D01*
X89757226Y-104672956D01*
X89737931Y-104689675D01*
X89551822Y-104819990D01*
X89551820Y-104819991D01*
X89384791Y-104987020D01*
X89384786Y-104987026D01*
X89249300Y-105180520D01*
X89249299Y-105180522D01*
X89149470Y-105394607D01*
X89149467Y-105394613D01*
X89092264Y-105608099D01*
X89092264Y-105608100D01*
X89989214Y-105608100D01*
X89963407Y-105648256D01*
X89922900Y-105786211D01*
X89922900Y-105929989D01*
X89963407Y-106067944D01*
X89989214Y-106108100D01*
X89092264Y-106108100D01*
X89149467Y-106321586D01*
X89149470Y-106321592D01*
X89249299Y-106535678D01*
X89384794Y-106729182D01*
X89551817Y-106896205D01*
X89732702Y-107022863D01*
X89776327Y-107077440D01*
X89783519Y-107146939D01*
X89751997Y-107209293D01*
X89720597Y-107233492D01*
X89677327Y-107256909D01*
X89677322Y-107256912D01*
X89499661Y-107395192D01*
X89499656Y-107395197D01*
X89347184Y-107560823D01*
X89347176Y-107560834D01*
X89224040Y-107749307D01*
X89133603Y-107955485D01*
X89078336Y-108173728D01*
X89078334Y-108173740D01*
X89059744Y-108398094D01*
X89059744Y-108398105D01*
X89078334Y-108622459D01*
X89078336Y-108622471D01*
X89133603Y-108840714D01*
X89224040Y-109046892D01*
X89347176Y-109235365D01*
X89347184Y-109235376D01*
X89499656Y-109401002D01*
X89499661Y-109401007D01*
X89506143Y-109406052D01*
X89677324Y-109539289D01*
X89677325Y-109539289D01*
X89677327Y-109539291D01*
X89804035Y-109607861D01*
X89875326Y-109646442D01*
X90088265Y-109719544D01*
X90310331Y-109756600D01*
X90535469Y-109756600D01*
X90757535Y-109719544D01*
X90970474Y-109646442D01*
X91168476Y-109539289D01*
X91346140Y-109401006D01*
X91445514Y-109293057D01*
X91498615Y-109235376D01*
X91498616Y-109235374D01*
X91498622Y-109235368D01*
X91544645Y-109164925D01*
X91577147Y-109115178D01*
X91630293Y-109069821D01*
X91680955Y-109059000D01*
X91710146Y-109059000D01*
X91713891Y-109059113D01*
X91772196Y-109062640D01*
X91772196Y-109062639D01*
X91772197Y-109062640D01*
X91829684Y-109052103D01*
X91833330Y-109051549D01*
X91891325Y-109044508D01*
X91899660Y-109041346D01*
X91921285Y-109035317D01*
X91930064Y-109033709D01*
X91983367Y-109009718D01*
X91986753Y-109008316D01*
X92041391Y-108987596D01*
X92048734Y-108982526D01*
X92068285Y-108971499D01*
X92076420Y-108967839D01*
X92122405Y-108931810D01*
X92125381Y-108929620D01*
X92173477Y-108896424D01*
X92212210Y-108852701D01*
X92214762Y-108849989D01*
X92365296Y-108699457D01*
X92411436Y-108653318D01*
X92472760Y-108619834D01*
X92499117Y-108617000D01*
X93538452Y-108617000D01*
X93578725Y-108617000D01*
X93883285Y-108617000D01*
X93950324Y-108636685D01*
X93970966Y-108653319D01*
X94630681Y-109313034D01*
X94664166Y-109374357D01*
X94667000Y-109400715D01*
X94667001Y-110212200D01*
X94647317Y-110279239D01*
X94594513Y-110324994D01*
X94543001Y-110336200D01*
X86600415Y-110336200D01*
X86533376Y-110316515D01*
X86487621Y-110263711D01*
X86477677Y-110194553D01*
X86506702Y-110130997D01*
X86512734Y-110124519D01*
X86880653Y-109756600D01*
X87285290Y-109351962D01*
X87288001Y-109349411D01*
X87293722Y-109344343D01*
X87331724Y-109310677D01*
X87364920Y-109262582D01*
X87367110Y-109259606D01*
X87403139Y-109213620D01*
X87406799Y-109205487D01*
X87417831Y-109185928D01*
X87422896Y-109178591D01*
X87443616Y-109123953D01*
X87445018Y-109120567D01*
X87469009Y-109067264D01*
X87470617Y-109058485D01*
X87476646Y-109036860D01*
X87479808Y-109028525D01*
X87486849Y-108970530D01*
X87487403Y-108966884D01*
X87497940Y-108909397D01*
X87497155Y-108896421D01*
X87494413Y-108851089D01*
X87494300Y-108847344D01*
X87494300Y-104692714D01*
X87513985Y-104625675D01*
X87530614Y-104605038D01*
X89031236Y-103104417D01*
X89092556Y-103070934D01*
X89118914Y-103068100D01*
X89989214Y-103068100D01*
X89963407Y-103108256D01*
G37*
%TD.AperFunction*%
%TA.AperFunction,Conductor*%
G36*
X96251001Y-103197701D02*
G01*
X96257480Y-103203733D01*
X96576981Y-103523234D01*
X96610466Y-103584557D01*
X96613300Y-103610913D01*
X96613300Y-103683037D01*
X96613301Y-103683053D01*
X96619431Y-103743052D01*
X96623913Y-103786926D01*
X96679685Y-103955238D01*
X96772770Y-104106152D01*
X96898148Y-104231530D01*
X97049062Y-104324615D01*
X97217374Y-104380387D01*
X97321255Y-104391000D01*
X98257000Y-104390999D01*
X98324039Y-104410683D01*
X98369794Y-104463487D01*
X98381000Y-104514999D01*
X98381000Y-108680484D01*
X98361315Y-108747523D01*
X98344681Y-108768165D01*
X97693422Y-109419423D01*
X97632099Y-109452908D01*
X97562407Y-109447924D01*
X97506474Y-109406052D01*
X97482383Y-109344345D01*
X97473387Y-109256274D01*
X97417615Y-109087962D01*
X97324530Y-108937048D01*
X97199152Y-108811670D01*
X97048238Y-108718585D01*
X96933255Y-108680484D01*
X96879927Y-108662813D01*
X96776052Y-108652200D01*
X96776045Y-108652200D01*
X95890515Y-108652200D01*
X95823476Y-108632515D01*
X95802834Y-108615881D01*
X95256809Y-108069856D01*
X95223324Y-108008533D01*
X95228308Y-107938841D01*
X95270180Y-107882908D01*
X95335644Y-107858491D01*
X95357095Y-107858817D01*
X95375522Y-107860699D01*
X95825499Y-107860699D01*
X95825500Y-107860698D01*
X95825500Y-106948200D01*
X96325500Y-106948200D01*
X96325500Y-107860699D01*
X96775472Y-107860699D01*
X96775486Y-107860698D01*
X96878197Y-107850205D01*
X97044619Y-107795058D01*
X97044624Y-107795056D01*
X97193845Y-107703015D01*
X97317815Y-107579045D01*
X97409856Y-107429824D01*
X97409858Y-107429819D01*
X97465005Y-107263397D01*
X97465006Y-107263390D01*
X97475499Y-107160686D01*
X97475500Y-107160673D01*
X97475500Y-106948200D01*
X96325500Y-106948200D01*
X95825500Y-106948200D01*
X94675501Y-106948200D01*
X94675501Y-107160689D01*
X94683336Y-107237384D01*
X94670566Y-107306077D01*
X94622685Y-107356961D01*
X94554895Y-107373881D01*
X94516006Y-107365927D01*
X94463179Y-107345892D01*
X94459720Y-107344459D01*
X94406462Y-107320490D01*
X94397678Y-107318880D01*
X94376064Y-107312854D01*
X94367725Y-107309692D01*
X94367724Y-107309691D01*
X94360711Y-107307032D01*
X94361799Y-107304161D01*
X94313539Y-107276059D01*
X94281754Y-107213837D01*
X94279600Y-107190823D01*
X94279600Y-106448200D01*
X94675500Y-106448200D01*
X95825500Y-106448200D01*
X95825500Y-105535700D01*
X96325500Y-105535700D01*
X96325500Y-106448200D01*
X97475499Y-106448200D01*
X97475499Y-106235728D01*
X97475498Y-106235713D01*
X97465005Y-106133002D01*
X97409858Y-105966580D01*
X97409856Y-105966575D01*
X97317815Y-105817354D01*
X97193845Y-105693384D01*
X97044624Y-105601343D01*
X97044619Y-105601341D01*
X96878197Y-105546194D01*
X96878190Y-105546193D01*
X96775486Y-105535700D01*
X96325500Y-105535700D01*
X95825500Y-105535700D01*
X95375528Y-105535700D01*
X95375512Y-105535701D01*
X95272802Y-105546194D01*
X95106380Y-105601341D01*
X95106375Y-105601343D01*
X94957154Y-105693384D01*
X94833184Y-105817354D01*
X94741143Y-105966575D01*
X94741141Y-105966580D01*
X94685994Y-106133002D01*
X94685993Y-106133009D01*
X94675500Y-106235713D01*
X94675500Y-106448200D01*
X94279600Y-106448200D01*
X94279600Y-104514999D01*
X94299285Y-104447960D01*
X94352089Y-104402205D01*
X94403595Y-104390999D01*
X95337844Y-104390999D01*
X95441726Y-104380387D01*
X95610038Y-104324615D01*
X95760952Y-104231530D01*
X95886330Y-104106152D01*
X95979415Y-103955238D01*
X96035187Y-103786926D01*
X96045800Y-103683045D01*
X96045799Y-103291412D01*
X96065483Y-103224375D01*
X96118287Y-103178620D01*
X96187446Y-103168676D01*
X96251001Y-103197701D01*
G37*
%TD.AperFunction*%
%TA.AperFunction,Conductor*%
G36*
X87046474Y-77639989D02*
G01*
X87085342Y-77666295D01*
X88828535Y-79409489D01*
X88831087Y-79412201D01*
X88852666Y-79436557D01*
X88869823Y-79455924D01*
X88917916Y-79489120D01*
X88920905Y-79491320D01*
X88966881Y-79527340D01*
X88966882Y-79527340D01*
X88966883Y-79527341D01*
X88975017Y-79531002D01*
X88994558Y-79542023D01*
X89001907Y-79547095D01*
X89001908Y-79547095D01*
X89001909Y-79547096D01*
X89056518Y-79567806D01*
X89059958Y-79569230D01*
X89113236Y-79593209D01*
X89122015Y-79594817D01*
X89143637Y-79600845D01*
X89151975Y-79604008D01*
X89209946Y-79611046D01*
X89213640Y-79611608D01*
X89271103Y-79622140D01*
X89329409Y-79618613D01*
X89333154Y-79618500D01*
X89597685Y-79618500D01*
X89664724Y-79638185D01*
X89685366Y-79654819D01*
X90916733Y-80886186D01*
X90950218Y-80947509D01*
X90945234Y-81017201D01*
X90903362Y-81073134D01*
X90868057Y-81091573D01*
X90753778Y-81129442D01*
X90753775Y-81129443D01*
X90604557Y-81221482D01*
X90516591Y-81309448D01*
X90455267Y-81342932D01*
X90385576Y-81337948D01*
X90341229Y-81309447D01*
X90246553Y-81214771D01*
X90246552Y-81214770D01*
X90108214Y-81129442D01*
X90095640Y-81121686D01*
X90095635Y-81121684D01*
X89927327Y-81065913D01*
X89823446Y-81055300D01*
X89022362Y-81055300D01*
X89022346Y-81055301D01*
X88918472Y-81065913D01*
X88750164Y-81121684D01*
X88750159Y-81121686D01*
X88599246Y-81214771D01*
X88473871Y-81340146D01*
X88380786Y-81491059D01*
X88380784Y-81491064D01*
X88325013Y-81659372D01*
X88314400Y-81763247D01*
X88314400Y-82764337D01*
X88314401Y-82764353D01*
X88325013Y-82868227D01*
X88380784Y-83036535D01*
X88380786Y-83036540D01*
X88473872Y-83187455D01*
X88504080Y-83217662D01*
X88537566Y-83278984D01*
X88540400Y-83305344D01*
X88540400Y-92126844D01*
X88540287Y-92130589D01*
X88536760Y-92188895D01*
X88536760Y-92188897D01*
X88547289Y-92246354D01*
X88547852Y-92250056D01*
X88554891Y-92308023D01*
X88554892Y-92308025D01*
X88557002Y-92313590D01*
X88558054Y-92316362D01*
X88564080Y-92337978D01*
X88565690Y-92346761D01*
X88589659Y-92400019D01*
X88591091Y-92403479D01*
X88611803Y-92458089D01*
X88616876Y-92465439D01*
X88627897Y-92484981D01*
X88631557Y-92493113D01*
X88631560Y-92493118D01*
X88631561Y-92493120D01*
X88644750Y-92509955D01*
X88667572Y-92539086D01*
X88669792Y-92542102D01*
X88702976Y-92590177D01*
X88746706Y-92628919D01*
X88749417Y-92631470D01*
X88972040Y-92854093D01*
X89147200Y-93029253D01*
X89180685Y-93090576D01*
X89179380Y-93145535D01*
X89179726Y-93145596D01*
X89179325Y-93147869D01*
X89179298Y-93149012D01*
X89178787Y-93150916D01*
X89178784Y-93150935D01*
X89159593Y-93370297D01*
X89159593Y-93370302D01*
X89175233Y-93549079D01*
X89178785Y-93589671D01*
X89235780Y-93802376D01*
X89235781Y-93802379D01*
X89235782Y-93802381D01*
X89328842Y-94001950D01*
X89328844Y-94001954D01*
X89455151Y-94182338D01*
X89610862Y-94338049D01*
X89791246Y-94464356D01*
X89990824Y-94557420D01*
X90203529Y-94614415D01*
X90360222Y-94628123D01*
X90422898Y-94633607D01*
X90422900Y-94633607D01*
X90422902Y-94633607D01*
X90477742Y-94628809D01*
X90642271Y-94614415D01*
X90854976Y-94557420D01*
X91054554Y-94464356D01*
X91234938Y-94338049D01*
X91390649Y-94182338D01*
X91516956Y-94001954D01*
X91610020Y-93802376D01*
X91667015Y-93589671D01*
X91685209Y-93381706D01*
X91686207Y-93370302D01*
X91686207Y-93370297D01*
X91675715Y-93250375D01*
X91667015Y-93150929D01*
X91610020Y-92938224D01*
X91516956Y-92738647D01*
X91516954Y-92738644D01*
X91516953Y-92738642D01*
X91440988Y-92630154D01*
X91390649Y-92558262D01*
X91234938Y-92402551D01*
X91054554Y-92276244D01*
X91041595Y-92270201D01*
X90854981Y-92183182D01*
X90854979Y-92183181D01*
X90854976Y-92183180D01*
X90658707Y-92130589D01*
X90642272Y-92126185D01*
X90642265Y-92126184D01*
X90422902Y-92106993D01*
X90422898Y-92106993D01*
X90203535Y-92126184D01*
X90203516Y-92126187D01*
X90201612Y-92126698D01*
X90200741Y-92126677D01*
X90198196Y-92127126D01*
X90198105Y-92126614D01*
X90131762Y-92125026D01*
X90081853Y-92094600D01*
X89898519Y-91911266D01*
X89865034Y-91849943D01*
X89862200Y-91823585D01*
X89862200Y-89784554D01*
X89881885Y-89717515D01*
X89934689Y-89671760D01*
X90003847Y-89661816D01*
X90018279Y-89664776D01*
X90203529Y-89714415D01*
X90360222Y-89728123D01*
X90422898Y-89733607D01*
X90422900Y-89733607D01*
X90422902Y-89733607D01*
X90477742Y-89728809D01*
X90642271Y-89714415D01*
X90854976Y-89657420D01*
X91054554Y-89564356D01*
X91234938Y-89438049D01*
X91390649Y-89282338D01*
X91516956Y-89101954D01*
X91610020Y-88902376D01*
X91667015Y-88689671D01*
X91686207Y-88470300D01*
X91685620Y-88463595D01*
X91667015Y-88250934D01*
X91667015Y-88250929D01*
X91610020Y-88038224D01*
X91516956Y-87838647D01*
X91516954Y-87838644D01*
X91516953Y-87838642D01*
X91402564Y-87675279D01*
X91390649Y-87658262D01*
X91234938Y-87502551D01*
X91054554Y-87376244D01*
X91041897Y-87370342D01*
X90854981Y-87283182D01*
X90854979Y-87283181D01*
X90854976Y-87283180D01*
X90669929Y-87233596D01*
X90642272Y-87226185D01*
X90642265Y-87226184D01*
X90422902Y-87206993D01*
X90422898Y-87206993D01*
X90203534Y-87226184D01*
X90203527Y-87226185D01*
X90121636Y-87248128D01*
X90018291Y-87275819D01*
X89948444Y-87274157D01*
X89890582Y-87234995D01*
X89863077Y-87170767D01*
X89862200Y-87156045D01*
X89862200Y-83572808D01*
X89881885Y-83505769D01*
X89934689Y-83460014D01*
X89947188Y-83455105D01*
X90095638Y-83405915D01*
X90246552Y-83312830D01*
X90341232Y-83218149D01*
X90402551Y-83184667D01*
X90472243Y-83189651D01*
X90516591Y-83218152D01*
X90604554Y-83306115D01*
X90753775Y-83398156D01*
X90753780Y-83398158D01*
X90920202Y-83453305D01*
X90920209Y-83453306D01*
X91022919Y-83463799D01*
X91172899Y-83463799D01*
X91172900Y-83463798D01*
X91172900Y-82137800D01*
X91192585Y-82070761D01*
X91245389Y-82025006D01*
X91296900Y-82013800D01*
X91548900Y-82013800D01*
X91615939Y-82033485D01*
X91661694Y-82086289D01*
X91672900Y-82137800D01*
X91672900Y-83463799D01*
X91822872Y-83463799D01*
X91822886Y-83463798D01*
X91925597Y-83453305D01*
X92092019Y-83398158D01*
X92092024Y-83398156D01*
X92241242Y-83306117D01*
X92310318Y-83237041D01*
X92371641Y-83203556D01*
X92441333Y-83208540D01*
X92497267Y-83250411D01*
X92521684Y-83315875D01*
X92522000Y-83324722D01*
X92522000Y-89851644D01*
X92521887Y-89855389D01*
X92518360Y-89913695D01*
X92518360Y-89913697D01*
X92528889Y-89971154D01*
X92529452Y-89974856D01*
X92536491Y-90032823D01*
X92536492Y-90032825D01*
X92539654Y-90041162D01*
X92545680Y-90062778D01*
X92547290Y-90071561D01*
X92571259Y-90124819D01*
X92572691Y-90128279D01*
X92593403Y-90182889D01*
X92598476Y-90190239D01*
X92609497Y-90209781D01*
X92613157Y-90217913D01*
X92613160Y-90217918D01*
X92613161Y-90217920D01*
X92626350Y-90234755D01*
X92649172Y-90263886D01*
X92651392Y-90266902D01*
X92684576Y-90314977D01*
X92728306Y-90353719D01*
X92731017Y-90356270D01*
X93325544Y-90950797D01*
X93897681Y-91522934D01*
X93931166Y-91584257D01*
X93934000Y-91610615D01*
X93934000Y-92006979D01*
X93944264Y-92107436D01*
X93998197Y-92270198D01*
X93998202Y-92270209D01*
X94088212Y-92416136D01*
X94088215Y-92416140D01*
X94209459Y-92537384D01*
X94209463Y-92537387D01*
X94355390Y-92627397D01*
X94355393Y-92627398D01*
X94355399Y-92627402D01*
X94518164Y-92681336D01*
X94618628Y-92691600D01*
X94618633Y-92691600D01*
X95166367Y-92691600D01*
X95166372Y-92691600D01*
X95256597Y-92682382D01*
X95325290Y-92695151D01*
X95376175Y-92743031D01*
X95393200Y-92805740D01*
X95393200Y-94929459D01*
X95373515Y-94996498D01*
X95320711Y-95042253D01*
X95256598Y-95052817D01*
X95166381Y-95043600D01*
X95166372Y-95043600D01*
X94618628Y-95043600D01*
X94618620Y-95043600D01*
X94518163Y-95053864D01*
X94355401Y-95107797D01*
X94355390Y-95107802D01*
X94209463Y-95197812D01*
X94209459Y-95197815D01*
X94088215Y-95319059D01*
X94088212Y-95319063D01*
X93998202Y-95464990D01*
X93998197Y-95465001D01*
X93944264Y-95627763D01*
X93934000Y-95728220D01*
X93934000Y-96575979D01*
X93944264Y-96676436D01*
X93998197Y-96839198D01*
X93998202Y-96839209D01*
X94088212Y-96985136D01*
X94088215Y-96985140D01*
X94140081Y-97037006D01*
X94173566Y-97098329D01*
X94176400Y-97124687D01*
X94176400Y-100113785D01*
X94156715Y-100180824D01*
X94103911Y-100226579D01*
X94091411Y-100231488D01*
X94076039Y-100236581D01*
X94064564Y-100240384D01*
X94064559Y-100240386D01*
X93913646Y-100333471D01*
X93788271Y-100458846D01*
X93695186Y-100609759D01*
X93695184Y-100609764D01*
X93639413Y-100778072D01*
X93628800Y-100881947D01*
X93628800Y-101504983D01*
X93609115Y-101572022D01*
X93592481Y-101592664D01*
X93166833Y-102018312D01*
X93164107Y-102020879D01*
X93120377Y-102059620D01*
X93120373Y-102059625D01*
X93087196Y-102107691D01*
X93084977Y-102110706D01*
X93048960Y-102156680D01*
X93048959Y-102156681D01*
X93045296Y-102164821D01*
X93034280Y-102184354D01*
X93029204Y-102191708D01*
X93008489Y-102246326D01*
X93007057Y-102249785D01*
X92983092Y-102303032D01*
X92983088Y-102303044D01*
X92981480Y-102311820D01*
X92975457Y-102333427D01*
X92973309Y-102339092D01*
X92972291Y-102341777D01*
X92965252Y-102399747D01*
X92964688Y-102403449D01*
X92954160Y-102460900D01*
X92954160Y-102460903D01*
X92957687Y-102519209D01*
X92957800Y-102522954D01*
X92957800Y-107171200D01*
X92938115Y-107238239D01*
X92885311Y-107283994D01*
X92833800Y-107295200D01*
X92195838Y-107295200D01*
X92192093Y-107295087D01*
X92133805Y-107291561D01*
X92133800Y-107291561D01*
X92085168Y-107300473D01*
X92076354Y-107302088D01*
X92072656Y-107302651D01*
X92014677Y-107309691D01*
X92011992Y-107310709D01*
X92006327Y-107312857D01*
X91984720Y-107318880D01*
X91975944Y-107320488D01*
X91975932Y-107320492D01*
X91940004Y-107336661D01*
X91922680Y-107344459D01*
X91919226Y-107345889D01*
X91864607Y-107366604D01*
X91857250Y-107371682D01*
X91837726Y-107382693D01*
X91829586Y-107386357D01*
X91829577Y-107386362D01*
X91783606Y-107422376D01*
X91780592Y-107424594D01*
X91732521Y-107457776D01*
X91732521Y-107457777D01*
X91693795Y-107501489D01*
X91691228Y-107504216D01*
X91655187Y-107540257D01*
X91593864Y-107573742D01*
X91524172Y-107568758D01*
X91476277Y-107536559D01*
X91346143Y-107395197D01*
X91346138Y-107395192D01*
X91168477Y-107256912D01*
X91168477Y-107256911D01*
X91125203Y-107233493D01*
X91075613Y-107184273D01*
X91060505Y-107116057D01*
X91084675Y-107050501D01*
X91113098Y-107022863D01*
X91293979Y-106896208D01*
X91461005Y-106729182D01*
X91596500Y-106535678D01*
X91696329Y-106321592D01*
X91696332Y-106321586D01*
X91753536Y-106108100D01*
X90856586Y-106108100D01*
X90882393Y-106067944D01*
X90922900Y-105929989D01*
X90922900Y-105786211D01*
X90882393Y-105648256D01*
X90856586Y-105608100D01*
X91753536Y-105608100D01*
X91753535Y-105608099D01*
X91696332Y-105394613D01*
X91696329Y-105394607D01*
X91596500Y-105180522D01*
X91596499Y-105180520D01*
X91461013Y-104987026D01*
X91461008Y-104987020D01*
X91293978Y-104819990D01*
X91107868Y-104689673D01*
X91064243Y-104635096D01*
X91057051Y-104565598D01*
X91088573Y-104503243D01*
X91107869Y-104486524D01*
X91293979Y-104356208D01*
X91461005Y-104189182D01*
X91596500Y-103995678D01*
X91696329Y-103781592D01*
X91696332Y-103781586D01*
X91753536Y-103568100D01*
X90856586Y-103568100D01*
X90882393Y-103527944D01*
X90922900Y-103389989D01*
X90922900Y-103246211D01*
X90882393Y-103108256D01*
X90856586Y-103068100D01*
X91753536Y-103068100D01*
X91753535Y-103068099D01*
X91696332Y-102854613D01*
X91696329Y-102854607D01*
X91596500Y-102640522D01*
X91596499Y-102640520D01*
X91461013Y-102447026D01*
X91461008Y-102447020D01*
X91345172Y-102331184D01*
X91311687Y-102269861D01*
X91316671Y-102200169D01*
X91358543Y-102144236D01*
X91389512Y-102127324D01*
X91519104Y-102078989D01*
X91636161Y-101991361D01*
X91723789Y-101874304D01*
X91774889Y-101737301D01*
X91778491Y-101703792D01*
X91781399Y-101676754D01*
X91781400Y-101676737D01*
X91781400Y-99879462D01*
X91781399Y-99879445D01*
X91778057Y-99848370D01*
X91774889Y-99818899D01*
X91723789Y-99681896D01*
X91636161Y-99564839D01*
X91519104Y-99477211D01*
X91382103Y-99426111D01*
X91321554Y-99419600D01*
X91321538Y-99419600D01*
X89524262Y-99419600D01*
X89524245Y-99419600D01*
X89463697Y-99426111D01*
X89463695Y-99426111D01*
X89326695Y-99477211D01*
X89209639Y-99564839D01*
X89122011Y-99681895D01*
X89070911Y-99818895D01*
X89070911Y-99818897D01*
X89064400Y-99879445D01*
X89064400Y-101150583D01*
X89044715Y-101217622D01*
X89028081Y-101238264D01*
X86659303Y-103607043D01*
X86597980Y-103640528D01*
X86528288Y-103635544D01*
X86483941Y-103607043D01*
X86418604Y-103541706D01*
X86418600Y-103541702D01*
X86231049Y-103410377D01*
X86187955Y-103390282D01*
X86135515Y-103344110D01*
X86116363Y-103276917D01*
X86136578Y-103210036D01*
X86187955Y-103165518D01*
X86191182Y-103164012D01*
X86231049Y-103145423D01*
X86418600Y-103014098D01*
X86580498Y-102852200D01*
X86711823Y-102664649D01*
X86808584Y-102457143D01*
X86867843Y-102235987D01*
X86884947Y-102040483D01*
X86887798Y-102007901D01*
X86887798Y-102007898D01*
X86867843Y-101779818D01*
X86867843Y-101779813D01*
X86808584Y-101558657D01*
X86807506Y-101556346D01*
X86711824Y-101351154D01*
X86711823Y-101351152D01*
X86711823Y-101351151D01*
X86580498Y-101163600D01*
X86418600Y-101001702D01*
X86231049Y-100870377D01*
X86187955Y-100850282D01*
X86135515Y-100804110D01*
X86116363Y-100736917D01*
X86136578Y-100670036D01*
X86187955Y-100625518D01*
X86191182Y-100624012D01*
X86231049Y-100605423D01*
X86418600Y-100474098D01*
X86580498Y-100312200D01*
X86711823Y-100124649D01*
X86808584Y-99917143D01*
X86867843Y-99695987D01*
X86887798Y-99467900D01*
X86867843Y-99239813D01*
X86808584Y-99018657D01*
X86711823Y-98811151D01*
X86580498Y-98623600D01*
X86418600Y-98461702D01*
X86231049Y-98330377D01*
X86187955Y-98310282D01*
X86135515Y-98264110D01*
X86116363Y-98196917D01*
X86136578Y-98130036D01*
X86187955Y-98085518D01*
X86191182Y-98084012D01*
X86231049Y-98065423D01*
X86418600Y-97934098D01*
X86580498Y-97772200D01*
X86711823Y-97584649D01*
X86808584Y-97377143D01*
X86867843Y-97155987D01*
X86887798Y-96927900D01*
X86867843Y-96699813D01*
X86808584Y-96478657D01*
X86808581Y-96478650D01*
X86765651Y-96386585D01*
X86755159Y-96317508D01*
X86783679Y-96253724D01*
X86790339Y-96246513D01*
X87320190Y-95716662D01*
X87322901Y-95714111D01*
X87366624Y-95675377D01*
X87399820Y-95627282D01*
X87402010Y-95624306D01*
X87438039Y-95578320D01*
X87441699Y-95570187D01*
X87452731Y-95550628D01*
X87457796Y-95543291D01*
X87478516Y-95488653D01*
X87479918Y-95485267D01*
X87503909Y-95431964D01*
X87505517Y-95423185D01*
X87511546Y-95401560D01*
X87514708Y-95393225D01*
X87521749Y-95335230D01*
X87522303Y-95331584D01*
X87532840Y-95274097D01*
X87529313Y-95215789D01*
X87529200Y-95212044D01*
X87529200Y-86303042D01*
X87529313Y-86299298D01*
X87532839Y-86241002D01*
X87522310Y-86183549D01*
X87521746Y-86179844D01*
X87514708Y-86121877D01*
X87514708Y-86121875D01*
X87511544Y-86113533D01*
X87505517Y-86091912D01*
X87503909Y-86083137D01*
X87503909Y-86083136D01*
X87479923Y-86029842D01*
X87478516Y-86026445D01*
X87457796Y-85971809D01*
X87452723Y-85964460D01*
X87441698Y-85944911D01*
X87438039Y-85936780D01*
X87438037Y-85936777D01*
X87402021Y-85890804D01*
X87399802Y-85887789D01*
X87380979Y-85860520D01*
X87366624Y-85839723D01*
X87344439Y-85820069D01*
X87322901Y-85800987D01*
X87320189Y-85798435D01*
X84214119Y-82692365D01*
X84180634Y-82631042D01*
X84177800Y-82604684D01*
X84177800Y-78816971D01*
X84197485Y-78749932D01*
X84250289Y-78704177D01*
X84319447Y-78694233D01*
X84337361Y-78698731D01*
X84337428Y-78698483D01*
X84421763Y-78721080D01*
X84563813Y-78759143D01*
X84734773Y-78774100D01*
X85649027Y-78774100D01*
X85819987Y-78759143D01*
X86041143Y-78699884D01*
X86248649Y-78603123D01*
X86436200Y-78471798D01*
X86598098Y-78309900D01*
X86729423Y-78122349D01*
X86826184Y-77914843D01*
X86877888Y-77721882D01*
X86914252Y-77662223D01*
X86977099Y-77631694D01*
X87046474Y-77639989D01*
G37*
%TD.AperFunction*%
%TA.AperFunction,Conductor*%
G36*
X90672900Y-105422598D02*
G01*
X90565215Y-105373420D01*
X90458663Y-105358100D01*
X90387137Y-105358100D01*
X90280585Y-105373420D01*
X90172900Y-105422598D01*
X90172900Y-103753601D01*
X90280585Y-103802780D01*
X90387137Y-103818100D01*
X90458663Y-103818100D01*
X90565215Y-103802780D01*
X90672900Y-103753601D01*
X90672900Y-105422598D01*
G37*
%TD.AperFunction*%
%TA.AperFunction,Conductor*%
G36*
X83747761Y-57967805D02*
G01*
X83792108Y-57996306D01*
X83947600Y-58151798D01*
X84135151Y-58283123D01*
X84178245Y-58303218D01*
X84230684Y-58349391D01*
X84249836Y-58416584D01*
X84229620Y-58483465D01*
X84178245Y-58527982D01*
X84135151Y-58548076D01*
X84056540Y-58603121D01*
X83947600Y-58679402D01*
X83947598Y-58679403D01*
X83947595Y-58679406D01*
X83785706Y-58841295D01*
X83654376Y-59028852D01*
X83654375Y-59028854D01*
X83557618Y-59236350D01*
X83557614Y-59236361D01*
X83498357Y-59457510D01*
X83498356Y-59457518D01*
X83478402Y-59685598D01*
X83478402Y-59685601D01*
X83498356Y-59913681D01*
X83498357Y-59913689D01*
X83557614Y-60134838D01*
X83557618Y-60134849D01*
X83654375Y-60342345D01*
X83654377Y-60342349D01*
X83785702Y-60529900D01*
X83947600Y-60691798D01*
X84135151Y-60823122D01*
X84135151Y-60823123D01*
X84178245Y-60843218D01*
X84230684Y-60889391D01*
X84249836Y-60956584D01*
X84229620Y-61023465D01*
X84178245Y-61067982D01*
X84135151Y-61088076D01*
X84026385Y-61164236D01*
X83947600Y-61219402D01*
X83947598Y-61219403D01*
X83947595Y-61219406D01*
X83785706Y-61381295D01*
X83654376Y-61568852D01*
X83654375Y-61568854D01*
X83557618Y-61776350D01*
X83557614Y-61776361D01*
X83498357Y-61997510D01*
X83498356Y-61997518D01*
X83478402Y-62225598D01*
X83478402Y-62225601D01*
X83498356Y-62453681D01*
X83498357Y-62453689D01*
X83557614Y-62674838D01*
X83557618Y-62674849D01*
X83654375Y-62882345D01*
X83654377Y-62882349D01*
X83785702Y-63069900D01*
X83947600Y-63231798D01*
X84135150Y-63363123D01*
X84135151Y-63363123D01*
X84178245Y-63383218D01*
X84230684Y-63429391D01*
X84249836Y-63496584D01*
X84229620Y-63563465D01*
X84178245Y-63607982D01*
X84135151Y-63628076D01*
X84010026Y-63715690D01*
X83947600Y-63759402D01*
X83947598Y-63759403D01*
X83947595Y-63759406D01*
X83785706Y-63921295D01*
X83654376Y-64108852D01*
X83654375Y-64108854D01*
X83557618Y-64316350D01*
X83557614Y-64316361D01*
X83498357Y-64537510D01*
X83498356Y-64537518D01*
X83478402Y-64765598D01*
X83478402Y-64765601D01*
X83498356Y-64993681D01*
X83498357Y-64993689D01*
X83557614Y-65214838D01*
X83557618Y-65214849D01*
X83654375Y-65422345D01*
X83654377Y-65422349D01*
X83785702Y-65609900D01*
X83947600Y-65771798D01*
X84135151Y-65903123D01*
X84178245Y-65923218D01*
X84230683Y-65969388D01*
X84249836Y-66036581D01*
X84229621Y-66103463D01*
X84178247Y-66147980D01*
X84135152Y-66168076D01*
X84135149Y-66168077D01*
X84135151Y-66168077D01*
X83947600Y-66299402D01*
X83947598Y-66299403D01*
X83947595Y-66299406D01*
X83785706Y-66461295D01*
X83785703Y-66461298D01*
X83785702Y-66461300D01*
X83703667Y-66578456D01*
X83654376Y-66648852D01*
X83654375Y-66648854D01*
X83557618Y-66856350D01*
X83557614Y-66856361D01*
X83498357Y-67077510D01*
X83498356Y-67077518D01*
X83478402Y-67305598D01*
X83478402Y-67305601D01*
X83498356Y-67533681D01*
X83498357Y-67533689D01*
X83557614Y-67754838D01*
X83557618Y-67754849D01*
X83654375Y-67962345D01*
X83654377Y-67962349D01*
X83785702Y-68149900D01*
X83947600Y-68311798D01*
X84135151Y-68443123D01*
X84178245Y-68463218D01*
X84230684Y-68509391D01*
X84249836Y-68576584D01*
X84229620Y-68643465D01*
X84178245Y-68687982D01*
X84135151Y-68708076D01*
X84010026Y-68795690D01*
X83947600Y-68839402D01*
X83947598Y-68839403D01*
X83947595Y-68839406D01*
X83785706Y-69001295D01*
X83785703Y-69001298D01*
X83785702Y-69001300D01*
X83735371Y-69073180D01*
X83654376Y-69188852D01*
X83654375Y-69188854D01*
X83557618Y-69396350D01*
X83557614Y-69396361D01*
X83498357Y-69617510D01*
X83498356Y-69617518D01*
X83478402Y-69845598D01*
X83478402Y-69845601D01*
X83498356Y-70073681D01*
X83498357Y-70073689D01*
X83557614Y-70294838D01*
X83557618Y-70294849D01*
X83654375Y-70502345D01*
X83654377Y-70502349D01*
X83785702Y-70689900D01*
X83947600Y-70851798D01*
X84135150Y-70983122D01*
X84135151Y-70983123D01*
X84178245Y-71003218D01*
X84230684Y-71049391D01*
X84249836Y-71116584D01*
X84229620Y-71183465D01*
X84178245Y-71227982D01*
X84135151Y-71248076D01*
X84010026Y-71335690D01*
X83947600Y-71379402D01*
X83947598Y-71379403D01*
X83947595Y-71379406D01*
X83785706Y-71541295D01*
X83654376Y-71728852D01*
X83654375Y-71728854D01*
X83557618Y-71936350D01*
X83557614Y-71936361D01*
X83498357Y-72157510D01*
X83498356Y-72157518D01*
X83478402Y-72385598D01*
X83478402Y-72385601D01*
X83498356Y-72613681D01*
X83498357Y-72613689D01*
X83557614Y-72834838D01*
X83557618Y-72834849D01*
X83600548Y-72926913D01*
X83611040Y-72995990D01*
X83582520Y-73059774D01*
X83575847Y-73066998D01*
X83065033Y-73577812D01*
X83062307Y-73580379D01*
X83018577Y-73619120D01*
X83018573Y-73619125D01*
X82985396Y-73667191D01*
X82983177Y-73670206D01*
X82947160Y-73716180D01*
X82947159Y-73716181D01*
X82943496Y-73724321D01*
X82932480Y-73743854D01*
X82927404Y-73751208D01*
X82906689Y-73805826D01*
X82905257Y-73809285D01*
X82881292Y-73862532D01*
X82881288Y-73862544D01*
X82879680Y-73871320D01*
X82873657Y-73892927D01*
X82871509Y-73898592D01*
X82870491Y-73901277D01*
X82863452Y-73959247D01*
X82862888Y-73962949D01*
X82852360Y-74020400D01*
X82852360Y-74020403D01*
X82855887Y-74078709D01*
X82856000Y-74082454D01*
X82856000Y-80944800D01*
X82836315Y-81011839D01*
X82783511Y-81057594D01*
X82732000Y-81068800D01*
X82666800Y-81068800D01*
X82666800Y-82419800D01*
X82647115Y-82486839D01*
X82594311Y-82532594D01*
X82542800Y-82543800D01*
X82290800Y-82543800D01*
X82223761Y-82524115D01*
X82178006Y-82471311D01*
X82166800Y-82419800D01*
X82166800Y-81068800D01*
X82029327Y-81068800D01*
X82029312Y-81068801D01*
X81926602Y-81079294D01*
X81760180Y-81134441D01*
X81760175Y-81134443D01*
X81610954Y-81226484D01*
X81486983Y-81350455D01*
X81482502Y-81356123D01*
X81480321Y-81354398D01*
X81437856Y-81392575D01*
X81368891Y-81403780D01*
X81304816Y-81375921D01*
X81282963Y-81350694D01*
X81282811Y-81350815D01*
X81280116Y-81347406D01*
X81278751Y-81345831D01*
X81278330Y-81345148D01*
X81169318Y-81236136D01*
X81135834Y-81174813D01*
X81133000Y-81148455D01*
X81133000Y-60531415D01*
X81152685Y-60464376D01*
X81169319Y-60443734D01*
X82376703Y-59236350D01*
X83616748Y-57996304D01*
X83678069Y-57962821D01*
X83747761Y-57967805D01*
G37*
%TD.AperFunction*%
%TA.AperFunction,Conductor*%
G36*
X92454424Y-54517385D02*
G01*
X92475065Y-54534018D01*
X95538535Y-57597489D01*
X95541087Y-57600201D01*
X95579823Y-57643924D01*
X95627898Y-57677108D01*
X95630893Y-57679311D01*
X95676880Y-57715339D01*
X95685014Y-57718999D01*
X95704560Y-57730023D01*
X95711909Y-57735096D01*
X95766545Y-57755816D01*
X95769942Y-57757223D01*
X95823236Y-57781209D01*
X95830727Y-57782581D01*
X95832012Y-57782817D01*
X95853633Y-57788844D01*
X95861975Y-57792008D01*
X95919946Y-57799046D01*
X95923640Y-57799608D01*
X95981103Y-57810140D01*
X96039409Y-57806613D01*
X96043154Y-57806500D01*
X96081234Y-57806500D01*
X96148273Y-57826185D01*
X96182808Y-57859376D01*
X96274202Y-57989900D01*
X96436100Y-58151798D01*
X96623651Y-58283123D01*
X96666745Y-58303218D01*
X96719184Y-58349391D01*
X96738336Y-58416584D01*
X96718120Y-58483465D01*
X96666745Y-58527982D01*
X96623651Y-58548076D01*
X96545040Y-58603121D01*
X96436100Y-58679402D01*
X96436098Y-58679403D01*
X96436095Y-58679406D01*
X96274206Y-58841295D01*
X96142876Y-59028852D01*
X96142875Y-59028854D01*
X96046118Y-59236350D01*
X96046114Y-59236361D01*
X95986857Y-59457510D01*
X95986856Y-59457518D01*
X95966902Y-59685598D01*
X95966902Y-59685601D01*
X95986856Y-59913681D01*
X95986857Y-59913689D01*
X96046114Y-60134838D01*
X96046118Y-60134849D01*
X96142875Y-60342345D01*
X96142877Y-60342349D01*
X96274202Y-60529900D01*
X96436100Y-60691798D01*
X96623651Y-60823123D01*
X96666745Y-60843218D01*
X96719184Y-60889391D01*
X96738336Y-60956584D01*
X96718120Y-61023465D01*
X96666745Y-61067982D01*
X96623651Y-61088076D01*
X96514885Y-61164236D01*
X96436100Y-61219402D01*
X96436098Y-61219403D01*
X96436095Y-61219406D01*
X96274206Y-61381295D01*
X96142876Y-61568852D01*
X96142875Y-61568854D01*
X96046118Y-61776350D01*
X96046114Y-61776361D01*
X95986857Y-61997510D01*
X95986856Y-61997518D01*
X95966902Y-62225598D01*
X95966902Y-62225601D01*
X95986856Y-62453681D01*
X95986857Y-62453689D01*
X96046114Y-62674838D01*
X96046118Y-62674849D01*
X96142875Y-62882345D01*
X96142877Y-62882349D01*
X96274202Y-63069900D01*
X96436100Y-63231798D01*
X96623651Y-63363123D01*
X96666745Y-63383218D01*
X96719184Y-63429391D01*
X96738336Y-63496584D01*
X96718120Y-63563465D01*
X96666745Y-63607982D01*
X96623651Y-63628076D01*
X96498526Y-63715690D01*
X96436100Y-63759402D01*
X96436098Y-63759403D01*
X96436095Y-63759406D01*
X96274206Y-63921295D01*
X96142876Y-64108852D01*
X96142875Y-64108854D01*
X96046118Y-64316350D01*
X96046114Y-64316361D01*
X95986857Y-64537510D01*
X95986856Y-64537518D01*
X95966902Y-64765598D01*
X95966902Y-64765601D01*
X95986856Y-64993681D01*
X95986857Y-64993689D01*
X96046114Y-65214838D01*
X96046118Y-65214849D01*
X96142875Y-65422345D01*
X96142877Y-65422349D01*
X96274202Y-65609900D01*
X96436100Y-65771798D01*
X96623651Y-65903123D01*
X96666745Y-65923218D01*
X96719183Y-65969388D01*
X96738336Y-66036581D01*
X96718121Y-66103463D01*
X96666747Y-66147980D01*
X96623652Y-66168076D01*
X96623649Y-66168077D01*
X96623651Y-66168077D01*
X96436100Y-66299402D01*
X96436098Y-66299403D01*
X96436095Y-66299406D01*
X96274203Y-66461298D01*
X96274198Y-66461304D01*
X96182809Y-66591823D01*
X96128232Y-66635448D01*
X96081234Y-66644700D01*
X96043154Y-66644700D01*
X96039409Y-66644587D01*
X95981104Y-66641060D01*
X95981100Y-66641060D01*
X95923649Y-66651588D01*
X95919947Y-66652152D01*
X95861977Y-66659191D01*
X95859292Y-66660209D01*
X95853627Y-66662357D01*
X95832020Y-66668380D01*
X95823244Y-66669988D01*
X95823232Y-66669992D01*
X95787304Y-66686161D01*
X95769974Y-66693961D01*
X95766526Y-66695389D01*
X95711908Y-66716104D01*
X95704554Y-66721180D01*
X95685021Y-66732196D01*
X95676881Y-66735859D01*
X95676880Y-66735860D01*
X95630906Y-66771877D01*
X95627891Y-66774096D01*
X95579825Y-66807273D01*
X95579820Y-66807277D01*
X95541079Y-66851007D01*
X95538512Y-66853733D01*
X93457433Y-68934812D01*
X93454707Y-68937379D01*
X93410977Y-68976120D01*
X93410973Y-68976125D01*
X93377796Y-69024191D01*
X93375577Y-69027206D01*
X93339560Y-69073180D01*
X93339559Y-69073181D01*
X93335896Y-69081321D01*
X93324880Y-69100854D01*
X93319804Y-69108208D01*
X93299089Y-69162826D01*
X93297657Y-69166285D01*
X93273692Y-69219532D01*
X93273688Y-69219544D01*
X93272080Y-69228320D01*
X93266057Y-69249927D01*
X93263909Y-69255592D01*
X93262891Y-69258277D01*
X93255852Y-69316247D01*
X93255288Y-69319949D01*
X93244760Y-69377400D01*
X93244760Y-69377403D01*
X93248287Y-69435709D01*
X93248400Y-69439454D01*
X93248400Y-81049184D01*
X93228715Y-81116223D01*
X93175911Y-81161978D01*
X93106753Y-81171922D01*
X93043197Y-81142897D01*
X93036719Y-81136865D01*
X90810156Y-78910303D01*
X90776671Y-78848980D01*
X90781655Y-78779288D01*
X90823527Y-78723355D01*
X90865746Y-78702846D01*
X90906723Y-78691867D01*
X90906726Y-78691865D01*
X91112882Y-78595734D01*
X91299220Y-78465257D01*
X91460057Y-78304420D01*
X91590534Y-78118082D01*
X91686665Y-77911926D01*
X91686669Y-77911917D01*
X91739272Y-77715600D01*
X90376086Y-77715600D01*
X90388041Y-77703645D01*
X90445565Y-77590748D01*
X90465386Y-77465600D01*
X90445565Y-77340452D01*
X90388041Y-77227555D01*
X90376086Y-77215600D01*
X91739272Y-77215600D01*
X91739272Y-77215599D01*
X91686669Y-77019282D01*
X91686665Y-77019273D01*
X91590534Y-76813117D01*
X91460057Y-76626779D01*
X91299220Y-76465942D01*
X91112881Y-76335465D01*
X91112879Y-76335464D01*
X91063999Y-76312671D01*
X91011559Y-76266499D01*
X90992407Y-76199306D01*
X91012623Y-76132424D01*
X91063999Y-76087907D01*
X91117149Y-76063123D01*
X91304700Y-75931798D01*
X91466598Y-75769900D01*
X91597923Y-75582349D01*
X91694684Y-75374843D01*
X91753943Y-75153687D01*
X91773898Y-74925600D01*
X91753943Y-74697513D01*
X91694684Y-74476357D01*
X91671795Y-74427272D01*
X91640763Y-74360723D01*
X91597923Y-74268851D01*
X91466598Y-74081300D01*
X91304700Y-73919402D01*
X91117149Y-73788077D01*
X91076199Y-73768982D01*
X91074055Y-73767982D01*
X91021615Y-73721810D01*
X91002463Y-73654617D01*
X91022678Y-73587736D01*
X91074055Y-73543218D01*
X91077282Y-73541712D01*
X91117149Y-73523123D01*
X91304700Y-73391798D01*
X91466598Y-73229900D01*
X91597923Y-73042349D01*
X91694684Y-72834843D01*
X91753943Y-72613687D01*
X91773898Y-72385600D01*
X91753943Y-72157513D01*
X91694684Y-71936357D01*
X91597923Y-71728851D01*
X91466598Y-71541300D01*
X91304700Y-71379402D01*
X91117149Y-71248077D01*
X91076199Y-71228982D01*
X91074055Y-71227982D01*
X91021615Y-71181810D01*
X91002463Y-71114617D01*
X91022678Y-71047736D01*
X91074055Y-71003218D01*
X91077282Y-71001712D01*
X91117149Y-70983123D01*
X91304700Y-70851798D01*
X91466598Y-70689900D01*
X91597923Y-70502349D01*
X91694684Y-70294843D01*
X91753943Y-70073687D01*
X91773898Y-69845600D01*
X91753943Y-69617513D01*
X91694684Y-69396357D01*
X91597923Y-69188851D01*
X91466598Y-69001300D01*
X91304700Y-68839402D01*
X91117149Y-68708077D01*
X91076199Y-68688982D01*
X91074055Y-68687982D01*
X91021615Y-68641810D01*
X91002463Y-68574617D01*
X91022678Y-68507736D01*
X91074055Y-68463218D01*
X91077282Y-68461712D01*
X91117149Y-68443123D01*
X91304700Y-68311798D01*
X91466598Y-68149900D01*
X91597923Y-67962349D01*
X91694684Y-67754843D01*
X91753943Y-67533687D01*
X91773898Y-67305600D01*
X91753943Y-67077513D01*
X91694684Y-66856357D01*
X91693460Y-66853733D01*
X91619624Y-66695389D01*
X91597923Y-66648851D01*
X91466598Y-66461300D01*
X91304700Y-66299402D01*
X91117149Y-66168077D01*
X91076199Y-66148982D01*
X91074055Y-66147982D01*
X91021615Y-66101810D01*
X91002463Y-66034617D01*
X91022678Y-65967736D01*
X91074055Y-65923218D01*
X91077282Y-65921712D01*
X91117149Y-65903123D01*
X91304700Y-65771798D01*
X91466598Y-65609900D01*
X91597923Y-65422349D01*
X91694684Y-65214843D01*
X91753943Y-64993687D01*
X91773898Y-64765600D01*
X91753943Y-64537513D01*
X91694684Y-64316357D01*
X91597923Y-64108851D01*
X91466598Y-63921300D01*
X91304700Y-63759402D01*
X91117149Y-63628077D01*
X91076199Y-63608982D01*
X91074055Y-63607982D01*
X91021615Y-63561810D01*
X91002463Y-63494617D01*
X91022678Y-63427736D01*
X91074055Y-63383218D01*
X91077282Y-63381712D01*
X91117149Y-63363123D01*
X91304700Y-63231798D01*
X91466598Y-63069900D01*
X91597923Y-62882349D01*
X91694684Y-62674843D01*
X91753943Y-62453687D01*
X91773898Y-62225600D01*
X91753943Y-61997513D01*
X91694684Y-61776357D01*
X91597923Y-61568851D01*
X91466598Y-61381300D01*
X91304700Y-61219402D01*
X91117149Y-61088077D01*
X91074055Y-61067982D01*
X91021615Y-61021810D01*
X91002463Y-60954617D01*
X91022678Y-60887736D01*
X91074055Y-60843218D01*
X91086718Y-60837313D01*
X91117149Y-60823123D01*
X91304700Y-60691798D01*
X91466598Y-60529900D01*
X91597923Y-60342349D01*
X91694684Y-60134843D01*
X91753943Y-59913687D01*
X91773898Y-59685600D01*
X91753943Y-59457513D01*
X91694684Y-59236357D01*
X91597923Y-59028851D01*
X91466598Y-58841300D01*
X91304700Y-58679402D01*
X91297027Y-58674029D01*
X91253406Y-58619453D01*
X91246214Y-58549955D01*
X91277738Y-58487601D01*
X91337968Y-58452188D01*
X91354889Y-58449170D01*
X91369601Y-58447589D01*
X91506604Y-58396489D01*
X91623661Y-58308861D01*
X91711289Y-58191804D01*
X91762389Y-58054801D01*
X91768678Y-57996306D01*
X91768899Y-57994254D01*
X91768900Y-57994237D01*
X91768900Y-56296962D01*
X91768899Y-56296945D01*
X91765557Y-56265870D01*
X91762389Y-56236399D01*
X91711289Y-56099396D01*
X91623661Y-55982339D01*
X91506604Y-55894711D01*
X91473520Y-55882371D01*
X91369603Y-55843611D01*
X91309054Y-55837100D01*
X91309038Y-55837100D01*
X88811762Y-55837100D01*
X88811745Y-55837100D01*
X88751197Y-55843611D01*
X88751195Y-55843611D01*
X88614195Y-55894711D01*
X88497139Y-55982339D01*
X88409511Y-56099395D01*
X88358411Y-56236395D01*
X88358411Y-56236397D01*
X88351900Y-56296945D01*
X88351900Y-57994254D01*
X88358411Y-58054802D01*
X88358411Y-58054804D01*
X88394589Y-58151798D01*
X88409511Y-58191804D01*
X88497139Y-58308861D01*
X88614196Y-58396489D01*
X88713510Y-58433531D01*
X88751193Y-58447587D01*
X88751199Y-58447589D01*
X88765899Y-58449169D01*
X88830448Y-58475905D01*
X88870297Y-58533296D01*
X88872793Y-58603121D01*
X88837142Y-58663211D01*
X88823777Y-58674025D01*
X88823771Y-58674031D01*
X88816096Y-58679405D01*
X88654206Y-58841295D01*
X88522876Y-59028852D01*
X88522875Y-59028854D01*
X88426118Y-59236350D01*
X88426114Y-59236361D01*
X88366857Y-59457510D01*
X88366856Y-59457518D01*
X88346902Y-59685598D01*
X88346902Y-59685601D01*
X88366856Y-59913681D01*
X88366857Y-59913689D01*
X88426114Y-60134838D01*
X88426118Y-60134849D01*
X88522875Y-60342345D01*
X88522877Y-60342349D01*
X88654202Y-60529900D01*
X88816100Y-60691798D01*
X89003651Y-60823123D01*
X89046745Y-60843218D01*
X89099184Y-60889391D01*
X89118336Y-60956584D01*
X89098120Y-61023465D01*
X89046745Y-61067982D01*
X89003651Y-61088076D01*
X88894885Y-61164236D01*
X88816100Y-61219402D01*
X88816098Y-61219403D01*
X88816095Y-61219406D01*
X88654206Y-61381295D01*
X88522876Y-61568852D01*
X88522875Y-61568854D01*
X88426118Y-61776350D01*
X88426114Y-61776361D01*
X88366857Y-61997510D01*
X88366856Y-61997518D01*
X88346902Y-62225598D01*
X88346902Y-62225601D01*
X88366856Y-62453681D01*
X88366857Y-62453689D01*
X88426114Y-62674838D01*
X88426118Y-62674849D01*
X88522875Y-62882345D01*
X88522877Y-62882349D01*
X88654202Y-63069900D01*
X88816100Y-63231798D01*
X89003651Y-63363122D01*
X89003651Y-63363123D01*
X89046745Y-63383218D01*
X89099184Y-63429391D01*
X89118336Y-63496584D01*
X89098120Y-63563465D01*
X89046745Y-63607982D01*
X89003651Y-63628076D01*
X88878526Y-63715690D01*
X88816100Y-63759402D01*
X88816098Y-63759403D01*
X88816095Y-63759406D01*
X88654206Y-63921295D01*
X88522876Y-64108852D01*
X88522875Y-64108854D01*
X88426118Y-64316350D01*
X88426114Y-64316361D01*
X88366857Y-64537510D01*
X88366856Y-64537518D01*
X88346902Y-64765598D01*
X88346902Y-64765601D01*
X88366856Y-64993681D01*
X88366857Y-64993689D01*
X88426114Y-65214838D01*
X88426118Y-65214849D01*
X88522875Y-65422345D01*
X88522877Y-65422349D01*
X88654202Y-65609900D01*
X88816100Y-65771798D01*
X89003651Y-65903123D01*
X89046745Y-65923218D01*
X89099183Y-65969388D01*
X89118336Y-66036581D01*
X89098121Y-66103463D01*
X89046747Y-66147980D01*
X89003652Y-66168076D01*
X89003649Y-66168077D01*
X89003651Y-66168077D01*
X88816100Y-66299402D01*
X88816098Y-66299403D01*
X88816095Y-66299406D01*
X88654206Y-66461295D01*
X88654203Y-66461298D01*
X88654202Y-66461300D01*
X88572167Y-66578456D01*
X88522876Y-66648852D01*
X88522875Y-66648854D01*
X88426118Y-66856350D01*
X88426114Y-66856361D01*
X88366857Y-67077510D01*
X88366856Y-67077518D01*
X88346902Y-67305598D01*
X88346902Y-67305601D01*
X88366856Y-67533681D01*
X88366857Y-67533689D01*
X88426114Y-67754838D01*
X88426118Y-67754849D01*
X88522875Y-67962345D01*
X88522877Y-67962349D01*
X88654202Y-68149900D01*
X88816100Y-68311798D01*
X89003651Y-68443123D01*
X89046745Y-68463218D01*
X89099184Y-68509391D01*
X89118336Y-68576584D01*
X89098120Y-68643465D01*
X89046745Y-68687982D01*
X89003651Y-68708076D01*
X88878526Y-68795690D01*
X88816100Y-68839402D01*
X88816098Y-68839403D01*
X88816095Y-68839406D01*
X88654206Y-69001295D01*
X88654203Y-69001298D01*
X88654202Y-69001300D01*
X88603871Y-69073180D01*
X88522876Y-69188852D01*
X88522875Y-69188854D01*
X88426118Y-69396350D01*
X88426114Y-69396361D01*
X88366857Y-69617510D01*
X88366856Y-69617518D01*
X88346902Y-69845598D01*
X88346902Y-69845601D01*
X88366856Y-70073681D01*
X88366857Y-70073689D01*
X88426114Y-70294838D01*
X88426118Y-70294849D01*
X88522875Y-70502345D01*
X88522877Y-70502349D01*
X88654202Y-70689900D01*
X88816100Y-70851798D01*
X89003651Y-70983123D01*
X89046745Y-71003218D01*
X89099183Y-71049388D01*
X89118336Y-71116581D01*
X89098121Y-71183463D01*
X89046747Y-71227980D01*
X89003652Y-71248076D01*
X89003649Y-71248077D01*
X89003651Y-71248077D01*
X88816100Y-71379402D01*
X88816098Y-71379403D01*
X88816095Y-71379406D01*
X88654206Y-71541295D01*
X88522876Y-71728852D01*
X88522875Y-71728854D01*
X88426118Y-71936350D01*
X88426114Y-71936361D01*
X88366857Y-72157510D01*
X88366856Y-72157518D01*
X88346902Y-72385598D01*
X88346902Y-72385601D01*
X88366856Y-72613681D01*
X88366857Y-72613689D01*
X88426114Y-72834838D01*
X88426118Y-72834849D01*
X88522875Y-73042345D01*
X88522877Y-73042349D01*
X88654202Y-73229900D01*
X88816100Y-73391798D01*
X89003651Y-73523123D01*
X89046745Y-73543218D01*
X89099183Y-73589388D01*
X89118336Y-73656581D01*
X89098121Y-73723463D01*
X89046747Y-73767980D01*
X89003652Y-73788076D01*
X89003649Y-73788077D01*
X89003651Y-73788077D01*
X88816100Y-73919402D01*
X88816098Y-73919403D01*
X88816095Y-73919406D01*
X88654206Y-74081295D01*
X88654203Y-74081298D01*
X88654202Y-74081300D01*
X88653394Y-74082454D01*
X88522876Y-74268852D01*
X88522875Y-74268854D01*
X88426118Y-74476350D01*
X88426114Y-74476361D01*
X88366857Y-74697510D01*
X88366856Y-74697518D01*
X88346902Y-74925598D01*
X88346902Y-74925601D01*
X88366856Y-75153681D01*
X88366857Y-75153689D01*
X88426114Y-75374838D01*
X88426118Y-75374849D01*
X88522875Y-75582345D01*
X88522877Y-75582349D01*
X88654202Y-75769900D01*
X88816100Y-75931798D01*
X89003651Y-76063123D01*
X89044598Y-76082217D01*
X89056801Y-76087907D01*
X89109240Y-76134079D01*
X89128392Y-76201273D01*
X89108176Y-76268154D01*
X89056801Y-76312671D01*
X89007917Y-76335465D01*
X88821579Y-76465942D01*
X88660742Y-76626779D01*
X88530265Y-76813117D01*
X88468744Y-76945051D01*
X88422572Y-76997490D01*
X88355378Y-77016642D01*
X88288497Y-76996426D01*
X88268681Y-76980327D01*
X87548219Y-76259865D01*
X87514734Y-76198542D01*
X87511900Y-76172184D01*
X87511900Y-74845350D01*
X87509349Y-74835003D01*
X87503155Y-74809876D01*
X87501811Y-74802541D01*
X87497408Y-74766275D01*
X87484459Y-74732131D01*
X87482230Y-74724976D01*
X87473491Y-74689520D01*
X87456519Y-74657184D01*
X87453442Y-74650347D01*
X87440498Y-74616214D01*
X87440495Y-74616208D01*
X87419752Y-74586157D01*
X87415875Y-74579743D01*
X87398904Y-74547407D01*
X87374688Y-74520073D01*
X87370072Y-74514181D01*
X87349324Y-74484123D01*
X87321986Y-74459903D01*
X87316696Y-74454613D01*
X87292478Y-74427277D01*
X87292472Y-74427272D01*
X87262421Y-74406529D01*
X87256523Y-74401908D01*
X87229192Y-74377696D01*
X87229191Y-74377695D01*
X87196852Y-74360722D01*
X87190440Y-74356846D01*
X87160391Y-74336104D01*
X87126247Y-74323155D01*
X87119413Y-74320079D01*
X87087076Y-74303107D01*
X87051611Y-74294366D01*
X87044468Y-74292140D01*
X87025381Y-74284901D01*
X87010324Y-74279191D01*
X86974074Y-74274789D01*
X86966706Y-74273439D01*
X86931250Y-74264700D01*
X86931248Y-74264700D01*
X86890975Y-74264700D01*
X86791066Y-74264700D01*
X86724027Y-74245015D01*
X86689491Y-74211823D01*
X86598101Y-74081304D01*
X86598096Y-74081298D01*
X86436204Y-73919406D01*
X86436200Y-73919402D01*
X86248649Y-73788077D01*
X86207699Y-73768982D01*
X86205555Y-73767982D01*
X86153115Y-73721810D01*
X86133963Y-73654617D01*
X86154178Y-73587736D01*
X86205555Y-73543218D01*
X86208782Y-73541712D01*
X86248649Y-73523123D01*
X86436200Y-73391798D01*
X86598098Y-73229900D01*
X86729423Y-73042349D01*
X86826184Y-72834843D01*
X86885443Y-72613687D01*
X86905398Y-72385600D01*
X86885443Y-72157513D01*
X86826184Y-71936357D01*
X86729423Y-71728851D01*
X86598098Y-71541300D01*
X86436200Y-71379402D01*
X86248649Y-71248077D01*
X86207699Y-71228982D01*
X86205555Y-71227982D01*
X86153115Y-71181810D01*
X86133963Y-71114617D01*
X86154178Y-71047736D01*
X86205555Y-71003218D01*
X86208782Y-71001712D01*
X86248649Y-70983123D01*
X86436200Y-70851798D01*
X86598098Y-70689900D01*
X86729423Y-70502349D01*
X86826184Y-70294843D01*
X86885443Y-70073687D01*
X86905398Y-69845600D01*
X86885443Y-69617513D01*
X86826184Y-69396357D01*
X86729423Y-69188851D01*
X86598098Y-69001300D01*
X86436200Y-68839402D01*
X86248649Y-68708077D01*
X86207699Y-68688982D01*
X86205555Y-68687982D01*
X86153115Y-68641810D01*
X86133963Y-68574617D01*
X86154178Y-68507736D01*
X86205555Y-68463218D01*
X86208782Y-68461712D01*
X86248649Y-68443123D01*
X86436200Y-68311798D01*
X86598098Y-68149900D01*
X86729423Y-67962349D01*
X86826184Y-67754843D01*
X86885443Y-67533687D01*
X86905398Y-67305600D01*
X86885443Y-67077513D01*
X86826184Y-66856357D01*
X86824960Y-66853733D01*
X86751124Y-66695389D01*
X86729423Y-66648851D01*
X86598098Y-66461300D01*
X86436200Y-66299402D01*
X86248649Y-66168077D01*
X86248643Y-66168074D01*
X86205553Y-66147980D01*
X86153114Y-66101807D01*
X86133963Y-66034614D01*
X86154180Y-65967733D01*
X86205554Y-65923218D01*
X86248649Y-65903123D01*
X86436200Y-65771798D01*
X86598098Y-65609900D01*
X86729423Y-65422349D01*
X86826184Y-65214843D01*
X86885443Y-64993687D01*
X86905398Y-64765600D01*
X86885443Y-64537513D01*
X86826184Y-64316357D01*
X86729423Y-64108851D01*
X86598098Y-63921300D01*
X86436200Y-63759402D01*
X86248649Y-63628077D01*
X86207699Y-63608982D01*
X86205555Y-63607982D01*
X86153115Y-63561810D01*
X86133963Y-63494617D01*
X86154178Y-63427736D01*
X86205555Y-63383218D01*
X86208782Y-63381712D01*
X86248649Y-63363123D01*
X86436200Y-63231798D01*
X86598098Y-63069900D01*
X86729423Y-62882349D01*
X86826184Y-62674843D01*
X86885443Y-62453687D01*
X86905398Y-62225600D01*
X86885443Y-61997513D01*
X86826184Y-61776357D01*
X86729423Y-61568851D01*
X86598098Y-61381300D01*
X86436200Y-61219402D01*
X86248649Y-61088077D01*
X86205555Y-61067982D01*
X86153115Y-61021810D01*
X86133963Y-60954617D01*
X86154178Y-60887736D01*
X86205555Y-60843218D01*
X86218218Y-60837313D01*
X86248649Y-60823123D01*
X86436200Y-60691798D01*
X86598098Y-60529900D01*
X86729423Y-60342349D01*
X86826184Y-60134843D01*
X86885443Y-59913687D01*
X86905398Y-59685600D01*
X86885443Y-59457513D01*
X86826184Y-59236357D01*
X86729423Y-59028851D01*
X86598098Y-58841300D01*
X86436200Y-58679402D01*
X86248649Y-58548077D01*
X86205555Y-58527982D01*
X86153115Y-58481810D01*
X86133963Y-58414617D01*
X86154178Y-58347736D01*
X86205555Y-58303218D01*
X86208782Y-58301712D01*
X86248649Y-58283123D01*
X86436200Y-58151798D01*
X86598098Y-57989900D01*
X86689491Y-57859376D01*
X86744068Y-57815752D01*
X86791066Y-57806500D01*
X86931249Y-57806500D01*
X86935710Y-57805400D01*
X86966729Y-57797754D01*
X86974054Y-57796411D01*
X87010325Y-57792008D01*
X87044481Y-57779053D01*
X87051603Y-57776834D01*
X87087080Y-57768091D01*
X87119431Y-57751110D01*
X87126233Y-57748049D01*
X87160391Y-57735096D01*
X87190451Y-57714345D01*
X87196839Y-57710483D01*
X87229191Y-57693505D01*
X87256533Y-57669281D01*
X87262410Y-57664676D01*
X87292477Y-57643924D01*
X87316703Y-57616577D01*
X87321977Y-57611303D01*
X87349324Y-57587077D01*
X87370076Y-57557010D01*
X87374681Y-57551133D01*
X87398905Y-57523791D01*
X87415883Y-57491439D01*
X87419745Y-57485051D01*
X87440496Y-57454991D01*
X87453449Y-57420833D01*
X87456510Y-57414031D01*
X87473491Y-57381680D01*
X87482234Y-57346203D01*
X87484453Y-57339081D01*
X87497408Y-57304925D01*
X87501811Y-57268654D01*
X87503154Y-57261329D01*
X87511900Y-57225848D01*
X87511900Y-57065352D01*
X87511900Y-57065351D01*
X87511900Y-56460514D01*
X87531585Y-56393476D01*
X87548219Y-56372834D01*
X89387034Y-54534019D01*
X89448357Y-54500534D01*
X89474715Y-54497700D01*
X92387385Y-54497700D01*
X92454424Y-54517385D01*
G37*
%TD.AperFunction*%
%TD*%
M02*
