%TF.GenerationSoftware,KiCad,Pcbnew,7.0.6-0*%
%TF.CreationDate,2023-08-27T17:26:56+10:00*%
%TF.ProjectId,PC-SPRINT_SMD,50432d53-5052-4494-9e54-5f534d442e6b,rev?*%
%TF.SameCoordinates,Original*%
%TF.FileFunction,Legend,Bot*%
%TF.FilePolarity,Positive*%
%FSLAX46Y46*%
G04 Gerber Fmt 4.6, Leading zero omitted, Abs format (unit mm)*
G04 Created by KiCad (PCBNEW 7.0.6-0) date 2023-08-27 17:26:56*
%MOMM*%
%LPD*%
G01*
G04 APERTURE LIST*
%ADD10C,0.150000*%
G04 APERTURE END LIST*
D10*
X81838272Y-106958493D02*
X81790652Y-106815636D01*
X81790652Y-106815636D02*
X81790652Y-106577541D01*
X81790652Y-106577541D02*
X81838272Y-106482303D01*
X81838272Y-106482303D02*
X81885891Y-106434684D01*
X81885891Y-106434684D02*
X81981129Y-106387065D01*
X81981129Y-106387065D02*
X82076367Y-106387065D01*
X82076367Y-106387065D02*
X82171605Y-106434684D01*
X82171605Y-106434684D02*
X82219224Y-106482303D01*
X82219224Y-106482303D02*
X82266843Y-106577541D01*
X82266843Y-106577541D02*
X82314462Y-106768017D01*
X82314462Y-106768017D02*
X82362081Y-106863255D01*
X82362081Y-106863255D02*
X82409700Y-106910874D01*
X82409700Y-106910874D02*
X82504938Y-106958493D01*
X82504938Y-106958493D02*
X82600176Y-106958493D01*
X82600176Y-106958493D02*
X82695414Y-106910874D01*
X82695414Y-106910874D02*
X82743033Y-106863255D01*
X82743033Y-106863255D02*
X82790652Y-106768017D01*
X82790652Y-106768017D02*
X82790652Y-106529922D01*
X82790652Y-106529922D02*
X82743033Y-106387065D01*
X81790652Y-105958493D02*
X82790652Y-105958493D01*
X82790652Y-105958493D02*
X82076367Y-105625160D01*
X82076367Y-105625160D02*
X82790652Y-105291827D01*
X82790652Y-105291827D02*
X81790652Y-105291827D01*
X81790652Y-104815636D02*
X82790652Y-104815636D01*
X82790652Y-104815636D02*
X82790652Y-104577541D01*
X82790652Y-104577541D02*
X82743033Y-104434684D01*
X82743033Y-104434684D02*
X82647795Y-104339446D01*
X82647795Y-104339446D02*
X82552557Y-104291827D01*
X82552557Y-104291827D02*
X82362081Y-104244208D01*
X82362081Y-104244208D02*
X82219224Y-104244208D01*
X82219224Y-104244208D02*
X82028748Y-104291827D01*
X82028748Y-104291827D02*
X81933510Y-104339446D01*
X81933510Y-104339446D02*
X81838272Y-104434684D01*
X81838272Y-104434684D02*
X81790652Y-104577541D01*
X81790652Y-104577541D02*
X81790652Y-104815636D01*
X81885891Y-103815636D02*
X81838272Y-103768017D01*
X81838272Y-103768017D02*
X81790652Y-103815636D01*
X81790652Y-103815636D02*
X81838272Y-103863255D01*
X81838272Y-103863255D02*
X81885891Y-103815636D01*
X81885891Y-103815636D02*
X81790652Y-103815636D01*
X82409700Y-103815636D02*
X82362081Y-103768017D01*
X82362081Y-103768017D02*
X82314462Y-103815636D01*
X82314462Y-103815636D02*
X82362081Y-103863255D01*
X82362081Y-103863255D02*
X82409700Y-103815636D01*
X82409700Y-103815636D02*
X82314462Y-103815636D01*
X82314462Y-102244208D02*
X82266843Y-102101351D01*
X82266843Y-102101351D02*
X82219224Y-102053732D01*
X82219224Y-102053732D02*
X82123986Y-102006113D01*
X82123986Y-102006113D02*
X81981129Y-102006113D01*
X81981129Y-102006113D02*
X81885891Y-102053732D01*
X81885891Y-102053732D02*
X81838272Y-102101351D01*
X81838272Y-102101351D02*
X81790652Y-102196589D01*
X81790652Y-102196589D02*
X81790652Y-102577541D01*
X81790652Y-102577541D02*
X82790652Y-102577541D01*
X82790652Y-102577541D02*
X82790652Y-102244208D01*
X82790652Y-102244208D02*
X82743033Y-102148970D01*
X82743033Y-102148970D02*
X82695414Y-102101351D01*
X82695414Y-102101351D02*
X82600176Y-102053732D01*
X82600176Y-102053732D02*
X82504938Y-102053732D01*
X82504938Y-102053732D02*
X82409700Y-102101351D01*
X82409700Y-102101351D02*
X82362081Y-102148970D01*
X82362081Y-102148970D02*
X82314462Y-102244208D01*
X82314462Y-102244208D02*
X82314462Y-102577541D01*
X81790652Y-101577541D02*
X82457319Y-101577541D01*
X82266843Y-101577541D02*
X82362081Y-101529922D01*
X82362081Y-101529922D02*
X82409700Y-101482303D01*
X82409700Y-101482303D02*
X82457319Y-101387065D01*
X82457319Y-101387065D02*
X82457319Y-101291827D01*
X81838272Y-100577541D02*
X81790652Y-100672779D01*
X81790652Y-100672779D02*
X81790652Y-100863255D01*
X81790652Y-100863255D02*
X81838272Y-100958493D01*
X81838272Y-100958493D02*
X81933510Y-101006112D01*
X81933510Y-101006112D02*
X82314462Y-101006112D01*
X82314462Y-101006112D02*
X82409700Y-100958493D01*
X82409700Y-100958493D02*
X82457319Y-100863255D01*
X82457319Y-100863255D02*
X82457319Y-100672779D01*
X82457319Y-100672779D02*
X82409700Y-100577541D01*
X82409700Y-100577541D02*
X82314462Y-100529922D01*
X82314462Y-100529922D02*
X82219224Y-100529922D01*
X82219224Y-100529922D02*
X82123986Y-101006112D01*
X82457319Y-100244207D02*
X82457319Y-99863255D01*
X82790652Y-100101350D02*
X81933510Y-100101350D01*
X81933510Y-100101350D02*
X81838272Y-100053731D01*
X81838272Y-100053731D02*
X81790652Y-99958493D01*
X81790652Y-99958493D02*
X81790652Y-99863255D01*
X82457319Y-99672778D02*
X82457319Y-99291826D01*
X82790652Y-99529921D02*
X81933510Y-99529921D01*
X81933510Y-99529921D02*
X81838272Y-99482302D01*
X81838272Y-99482302D02*
X81790652Y-99387064D01*
X81790652Y-99387064D02*
X81790652Y-99291826D01*
X81790652Y-98196587D02*
X82790652Y-98196587D01*
X82314462Y-98196587D02*
X82314462Y-97625159D01*
X81790652Y-97625159D02*
X82790652Y-97625159D01*
X81790652Y-96720397D02*
X82314462Y-96720397D01*
X82314462Y-96720397D02*
X82409700Y-96768016D01*
X82409700Y-96768016D02*
X82457319Y-96863254D01*
X82457319Y-96863254D02*
X82457319Y-97053730D01*
X82457319Y-97053730D02*
X82409700Y-97148968D01*
X81838272Y-96720397D02*
X81790652Y-96815635D01*
X81790652Y-96815635D02*
X81790652Y-97053730D01*
X81790652Y-97053730D02*
X81838272Y-97148968D01*
X81838272Y-97148968D02*
X81933510Y-97196587D01*
X81933510Y-97196587D02*
X82028748Y-97196587D01*
X82028748Y-97196587D02*
X82123986Y-97148968D01*
X82123986Y-97148968D02*
X82171605Y-97053730D01*
X82171605Y-97053730D02*
X82171605Y-96815635D01*
X82171605Y-96815635D02*
X82219224Y-96720397D01*
X81790652Y-96101349D02*
X81838272Y-96196587D01*
X81838272Y-96196587D02*
X81933510Y-96244206D01*
X81933510Y-96244206D02*
X82790652Y-96244206D01*
X81790652Y-95577539D02*
X81838272Y-95672777D01*
X81838272Y-95672777D02*
X81933510Y-95720396D01*
X81933510Y-95720396D02*
X82790652Y-95720396D01*
X81838272Y-94815634D02*
X81790652Y-94910872D01*
X81790652Y-94910872D02*
X81790652Y-95101348D01*
X81790652Y-95101348D02*
X81838272Y-95196586D01*
X81838272Y-95196586D02*
X81933510Y-95244205D01*
X81933510Y-95244205D02*
X82314462Y-95244205D01*
X82314462Y-95244205D02*
X82409700Y-95196586D01*
X82409700Y-95196586D02*
X82457319Y-95101348D01*
X82457319Y-95101348D02*
X82457319Y-94910872D01*
X82457319Y-94910872D02*
X82409700Y-94815634D01*
X82409700Y-94815634D02*
X82314462Y-94768015D01*
X82314462Y-94768015D02*
X82219224Y-94768015D01*
X82219224Y-94768015D02*
X82123986Y-95244205D01*
X82457319Y-94339443D02*
X81790652Y-94339443D01*
X82362081Y-94339443D02*
X82409700Y-94291824D01*
X82409700Y-94291824D02*
X82457319Y-94196586D01*
X82457319Y-94196586D02*
X82457319Y-94053729D01*
X82457319Y-94053729D02*
X82409700Y-93958491D01*
X82409700Y-93958491D02*
X82314462Y-93910872D01*
X82314462Y-93910872D02*
X81790652Y-93910872D01*
X80847319Y-107006112D02*
X80180652Y-106768017D01*
X80847319Y-106529922D02*
X80180652Y-106768017D01*
X80180652Y-106768017D02*
X79942557Y-106863255D01*
X79942557Y-106863255D02*
X79894938Y-106910874D01*
X79894938Y-106910874D02*
X79847319Y-107006112D01*
X80180652Y-106006112D02*
X80228272Y-106101350D01*
X80228272Y-106101350D02*
X80275891Y-106148969D01*
X80275891Y-106148969D02*
X80371129Y-106196588D01*
X80371129Y-106196588D02*
X80656843Y-106196588D01*
X80656843Y-106196588D02*
X80752081Y-106148969D01*
X80752081Y-106148969D02*
X80799700Y-106101350D01*
X80799700Y-106101350D02*
X80847319Y-106006112D01*
X80847319Y-106006112D02*
X80847319Y-105863255D01*
X80847319Y-105863255D02*
X80799700Y-105768017D01*
X80799700Y-105768017D02*
X80752081Y-105720398D01*
X80752081Y-105720398D02*
X80656843Y-105672779D01*
X80656843Y-105672779D02*
X80371129Y-105672779D01*
X80371129Y-105672779D02*
X80275891Y-105720398D01*
X80275891Y-105720398D02*
X80228272Y-105768017D01*
X80228272Y-105768017D02*
X80180652Y-105863255D01*
X80180652Y-105863255D02*
X80180652Y-106006112D01*
X80847319Y-104815636D02*
X80180652Y-104815636D01*
X80847319Y-105244207D02*
X80323510Y-105244207D01*
X80323510Y-105244207D02*
X80228272Y-105196588D01*
X80228272Y-105196588D02*
X80180652Y-105101350D01*
X80180652Y-105101350D02*
X80180652Y-104958493D01*
X80180652Y-104958493D02*
X80228272Y-104863255D01*
X80228272Y-104863255D02*
X80275891Y-104815636D01*
X80847319Y-104482302D02*
X80847319Y-104101350D01*
X81180652Y-104339445D02*
X80323510Y-104339445D01*
X80323510Y-104339445D02*
X80228272Y-104291826D01*
X80228272Y-104291826D02*
X80180652Y-104196588D01*
X80180652Y-104196588D02*
X80180652Y-104101350D01*
X80847319Y-103339445D02*
X80180652Y-103339445D01*
X80847319Y-103768016D02*
X80323510Y-103768016D01*
X80323510Y-103768016D02*
X80228272Y-103720397D01*
X80228272Y-103720397D02*
X80180652Y-103625159D01*
X80180652Y-103625159D02*
X80180652Y-103482302D01*
X80180652Y-103482302D02*
X80228272Y-103387064D01*
X80228272Y-103387064D02*
X80275891Y-103339445D01*
X80180652Y-102863254D02*
X81180652Y-102863254D01*
X80799700Y-102863254D02*
X80847319Y-102768016D01*
X80847319Y-102768016D02*
X80847319Y-102577540D01*
X80847319Y-102577540D02*
X80799700Y-102482302D01*
X80799700Y-102482302D02*
X80752081Y-102434683D01*
X80752081Y-102434683D02*
X80656843Y-102387064D01*
X80656843Y-102387064D02*
X80371129Y-102387064D01*
X80371129Y-102387064D02*
X80275891Y-102434683D01*
X80275891Y-102434683D02*
X80228272Y-102482302D01*
X80228272Y-102482302D02*
X80180652Y-102577540D01*
X80180652Y-102577540D02*
X80180652Y-102768016D01*
X80180652Y-102768016D02*
X80228272Y-102863254D01*
X80228272Y-101577540D02*
X80180652Y-101672778D01*
X80180652Y-101672778D02*
X80180652Y-101863254D01*
X80180652Y-101863254D02*
X80228272Y-101958492D01*
X80228272Y-101958492D02*
X80323510Y-102006111D01*
X80323510Y-102006111D02*
X80704462Y-102006111D01*
X80704462Y-102006111D02*
X80799700Y-101958492D01*
X80799700Y-101958492D02*
X80847319Y-101863254D01*
X80847319Y-101863254D02*
X80847319Y-101672778D01*
X80847319Y-101672778D02*
X80799700Y-101577540D01*
X80799700Y-101577540D02*
X80704462Y-101529921D01*
X80704462Y-101529921D02*
X80609224Y-101529921D01*
X80609224Y-101529921D02*
X80513986Y-102006111D01*
X80275891Y-101101349D02*
X80228272Y-101053730D01*
X80228272Y-101053730D02*
X80180652Y-101101349D01*
X80180652Y-101101349D02*
X80228272Y-101148968D01*
X80228272Y-101148968D02*
X80275891Y-101101349D01*
X80275891Y-101101349D02*
X80180652Y-101101349D01*
X80228272Y-100196588D02*
X80180652Y-100291826D01*
X80180652Y-100291826D02*
X80180652Y-100482302D01*
X80180652Y-100482302D02*
X80228272Y-100577540D01*
X80228272Y-100577540D02*
X80275891Y-100625159D01*
X80275891Y-100625159D02*
X80371129Y-100672778D01*
X80371129Y-100672778D02*
X80656843Y-100672778D01*
X80656843Y-100672778D02*
X80752081Y-100625159D01*
X80752081Y-100625159D02*
X80799700Y-100577540D01*
X80799700Y-100577540D02*
X80847319Y-100482302D01*
X80847319Y-100482302D02*
X80847319Y-100291826D01*
X80847319Y-100291826D02*
X80799700Y-100196588D01*
X80180652Y-99625159D02*
X80228272Y-99720397D01*
X80228272Y-99720397D02*
X80275891Y-99768016D01*
X80275891Y-99768016D02*
X80371129Y-99815635D01*
X80371129Y-99815635D02*
X80656843Y-99815635D01*
X80656843Y-99815635D02*
X80752081Y-99768016D01*
X80752081Y-99768016D02*
X80799700Y-99720397D01*
X80799700Y-99720397D02*
X80847319Y-99625159D01*
X80847319Y-99625159D02*
X80847319Y-99482302D01*
X80847319Y-99482302D02*
X80799700Y-99387064D01*
X80799700Y-99387064D02*
X80752081Y-99339445D01*
X80752081Y-99339445D02*
X80656843Y-99291826D01*
X80656843Y-99291826D02*
X80371129Y-99291826D01*
X80371129Y-99291826D02*
X80275891Y-99339445D01*
X80275891Y-99339445D02*
X80228272Y-99387064D01*
X80228272Y-99387064D02*
X80180652Y-99482302D01*
X80180652Y-99482302D02*
X80180652Y-99625159D01*
X80180652Y-98863254D02*
X80847319Y-98863254D01*
X80752081Y-98863254D02*
X80799700Y-98815635D01*
X80799700Y-98815635D02*
X80847319Y-98720397D01*
X80847319Y-98720397D02*
X80847319Y-98577540D01*
X80847319Y-98577540D02*
X80799700Y-98482302D01*
X80799700Y-98482302D02*
X80704462Y-98434683D01*
X80704462Y-98434683D02*
X80180652Y-98434683D01*
X80704462Y-98434683D02*
X80799700Y-98387064D01*
X80799700Y-98387064D02*
X80847319Y-98291826D01*
X80847319Y-98291826D02*
X80847319Y-98148969D01*
X80847319Y-98148969D02*
X80799700Y-98053730D01*
X80799700Y-98053730D02*
X80704462Y-98006111D01*
X80704462Y-98006111D02*
X80180652Y-98006111D01*
X81228272Y-96815636D02*
X79942557Y-97672778D01*
X80656843Y-95863255D02*
X80704462Y-95910874D01*
X80704462Y-95910874D02*
X80752081Y-96006112D01*
X80752081Y-96006112D02*
X80752081Y-96101350D01*
X80752081Y-96101350D02*
X80704462Y-96196588D01*
X80704462Y-96196588D02*
X80656843Y-96244207D01*
X80656843Y-96244207D02*
X80561605Y-96291826D01*
X80561605Y-96291826D02*
X80466367Y-96291826D01*
X80466367Y-96291826D02*
X80371129Y-96244207D01*
X80371129Y-96244207D02*
X80323510Y-96196588D01*
X80323510Y-96196588D02*
X80275891Y-96101350D01*
X80275891Y-96101350D02*
X80275891Y-96006112D01*
X80275891Y-96006112D02*
X80323510Y-95910874D01*
X80323510Y-95910874D02*
X80371129Y-95863255D01*
X80752081Y-95863255D02*
X80371129Y-95863255D01*
X80371129Y-95863255D02*
X80323510Y-95815636D01*
X80323510Y-95815636D02*
X80323510Y-95768017D01*
X80323510Y-95768017D02*
X80371129Y-95672778D01*
X80371129Y-95672778D02*
X80466367Y-95625159D01*
X80466367Y-95625159D02*
X80704462Y-95625159D01*
X80704462Y-95625159D02*
X80847319Y-95720398D01*
X80847319Y-95720398D02*
X80942557Y-95863255D01*
X80942557Y-95863255D02*
X80990176Y-96053731D01*
X80990176Y-96053731D02*
X80942557Y-96244207D01*
X80942557Y-96244207D02*
X80847319Y-96387064D01*
X80847319Y-96387064D02*
X80704462Y-96482302D01*
X80704462Y-96482302D02*
X80513986Y-96529921D01*
X80513986Y-96529921D02*
X80323510Y-96482302D01*
X80323510Y-96482302D02*
X80180652Y-96387064D01*
X80180652Y-96387064D02*
X80085414Y-96244207D01*
X80085414Y-96244207D02*
X80037795Y-96053731D01*
X80037795Y-96053731D02*
X80085414Y-95863255D01*
X80085414Y-95863255D02*
X80180652Y-95720398D01*
X80180652Y-95196588D02*
X81180652Y-95196588D01*
X80799700Y-95196588D02*
X80847319Y-95101350D01*
X80847319Y-95101350D02*
X80847319Y-94910874D01*
X80847319Y-94910874D02*
X80799700Y-94815636D01*
X80799700Y-94815636D02*
X80752081Y-94768017D01*
X80752081Y-94768017D02*
X80656843Y-94720398D01*
X80656843Y-94720398D02*
X80371129Y-94720398D01*
X80371129Y-94720398D02*
X80275891Y-94768017D01*
X80275891Y-94768017D02*
X80228272Y-94815636D01*
X80228272Y-94815636D02*
X80180652Y-94910874D01*
X80180652Y-94910874D02*
X80180652Y-95101350D01*
X80180652Y-95101350D02*
X80228272Y-95196588D01*
X80180652Y-94291826D02*
X80847319Y-94291826D01*
X80656843Y-94291826D02*
X80752081Y-94244207D01*
X80752081Y-94244207D02*
X80799700Y-94196588D01*
X80799700Y-94196588D02*
X80847319Y-94101350D01*
X80847319Y-94101350D02*
X80847319Y-94006112D01*
X80847319Y-93815635D02*
X80847319Y-93434683D01*
X80180652Y-93672778D02*
X81037795Y-93672778D01*
X81037795Y-93672778D02*
X81133033Y-93625159D01*
X81133033Y-93625159D02*
X81180652Y-93529921D01*
X81180652Y-93529921D02*
X81180652Y-93434683D01*
X80847319Y-93244206D02*
X80847319Y-92863254D01*
X80180652Y-93101349D02*
X81037795Y-93101349D01*
X81037795Y-93101349D02*
X81133033Y-93053730D01*
X81133033Y-93053730D02*
X81180652Y-92958492D01*
X81180652Y-92958492D02*
X81180652Y-92863254D01*
X80847319Y-92672777D02*
X80847319Y-92291825D01*
X80180652Y-92529920D02*
X81037795Y-92529920D01*
X81037795Y-92529920D02*
X81133033Y-92482301D01*
X81133033Y-92482301D02*
X81180652Y-92387063D01*
X81180652Y-92387063D02*
X81180652Y-92291825D01*
X94585519Y-77018009D02*
X93775996Y-77018009D01*
X93775996Y-77018009D02*
X93680758Y-76970390D01*
X93680758Y-76970390D02*
X93633139Y-76922771D01*
X93633139Y-76922771D02*
X93585519Y-76827533D01*
X93585519Y-76827533D02*
X93585519Y-76637057D01*
X93585519Y-76637057D02*
X93633139Y-76541819D01*
X93633139Y-76541819D02*
X93680758Y-76494200D01*
X93680758Y-76494200D02*
X93775996Y-76446581D01*
X93775996Y-76446581D02*
X94585519Y-76446581D01*
X94252186Y-75970390D02*
X93252186Y-75970390D01*
X94204567Y-75970390D02*
X94252186Y-75875152D01*
X94252186Y-75875152D02*
X94252186Y-75684676D01*
X94252186Y-75684676D02*
X94204567Y-75589438D01*
X94204567Y-75589438D02*
X94156948Y-75541819D01*
X94156948Y-75541819D02*
X94061710Y-75494200D01*
X94061710Y-75494200D02*
X93775996Y-75494200D01*
X93775996Y-75494200D02*
X93680758Y-75541819D01*
X93680758Y-75541819D02*
X93633139Y-75589438D01*
X93633139Y-75589438D02*
X93585519Y-75684676D01*
X93585519Y-75684676D02*
X93585519Y-75875152D01*
X93585519Y-75875152D02*
X93633139Y-75970390D01*
X93585519Y-74637057D02*
X94585519Y-74637057D01*
X93633139Y-74637057D02*
X93585519Y-74732295D01*
X93585519Y-74732295D02*
X93585519Y-74922771D01*
X93585519Y-74922771D02*
X93633139Y-75018009D01*
X93633139Y-75018009D02*
X93680758Y-75065628D01*
X93680758Y-75065628D02*
X93775996Y-75113247D01*
X93775996Y-75113247D02*
X94061710Y-75113247D01*
X94061710Y-75113247D02*
X94156948Y-75065628D01*
X94156948Y-75065628D02*
X94204567Y-75018009D01*
X94204567Y-75018009D02*
X94252186Y-74922771D01*
X94252186Y-74922771D02*
X94252186Y-74732295D01*
X94252186Y-74732295D02*
X94204567Y-74637057D01*
X93585519Y-73732295D02*
X94109329Y-73732295D01*
X94109329Y-73732295D02*
X94204567Y-73779914D01*
X94204567Y-73779914D02*
X94252186Y-73875152D01*
X94252186Y-73875152D02*
X94252186Y-74065628D01*
X94252186Y-74065628D02*
X94204567Y-74160866D01*
X93633139Y-73732295D02*
X93585519Y-73827533D01*
X93585519Y-73827533D02*
X93585519Y-74065628D01*
X93585519Y-74065628D02*
X93633139Y-74160866D01*
X93633139Y-74160866D02*
X93728377Y-74208485D01*
X93728377Y-74208485D02*
X93823615Y-74208485D01*
X93823615Y-74208485D02*
X93918853Y-74160866D01*
X93918853Y-74160866D02*
X93966472Y-74065628D01*
X93966472Y-74065628D02*
X93966472Y-73827533D01*
X93966472Y-73827533D02*
X94014091Y-73732295D01*
X94252186Y-73398961D02*
X94252186Y-73018009D01*
X94585519Y-73256104D02*
X93728377Y-73256104D01*
X93728377Y-73256104D02*
X93633139Y-73208485D01*
X93633139Y-73208485D02*
X93585519Y-73113247D01*
X93585519Y-73113247D02*
X93585519Y-73018009D01*
X93633139Y-72303723D02*
X93585519Y-72398961D01*
X93585519Y-72398961D02*
X93585519Y-72589437D01*
X93585519Y-72589437D02*
X93633139Y-72684675D01*
X93633139Y-72684675D02*
X93728377Y-72732294D01*
X93728377Y-72732294D02*
X94109329Y-72732294D01*
X94109329Y-72732294D02*
X94204567Y-72684675D01*
X94204567Y-72684675D02*
X94252186Y-72589437D01*
X94252186Y-72589437D02*
X94252186Y-72398961D01*
X94252186Y-72398961D02*
X94204567Y-72303723D01*
X94204567Y-72303723D02*
X94109329Y-72256104D01*
X94109329Y-72256104D02*
X94014091Y-72256104D01*
X94014091Y-72256104D02*
X93918853Y-72732294D01*
X93680758Y-71827532D02*
X93633139Y-71779913D01*
X93633139Y-71779913D02*
X93585519Y-71827532D01*
X93585519Y-71827532D02*
X93633139Y-71875151D01*
X93633139Y-71875151D02*
X93680758Y-71827532D01*
X93680758Y-71827532D02*
X93585519Y-71827532D01*
X94204567Y-71827532D02*
X94156948Y-71779913D01*
X94156948Y-71779913D02*
X94109329Y-71827532D01*
X94109329Y-71827532D02*
X94156948Y-71875151D01*
X94156948Y-71875151D02*
X94204567Y-71827532D01*
X94204567Y-71827532D02*
X94109329Y-71827532D01*
X93585519Y-70018009D02*
X94061710Y-70351342D01*
X93585519Y-70589437D02*
X94585519Y-70589437D01*
X94585519Y-70589437D02*
X94585519Y-70208485D01*
X94585519Y-70208485D02*
X94537900Y-70113247D01*
X94537900Y-70113247D02*
X94490281Y-70065628D01*
X94490281Y-70065628D02*
X94395043Y-70018009D01*
X94395043Y-70018009D02*
X94252186Y-70018009D01*
X94252186Y-70018009D02*
X94156948Y-70065628D01*
X94156948Y-70065628D02*
X94109329Y-70113247D01*
X94109329Y-70113247D02*
X94061710Y-70208485D01*
X94061710Y-70208485D02*
X94061710Y-70589437D01*
X93633139Y-69208485D02*
X93585519Y-69303723D01*
X93585519Y-69303723D02*
X93585519Y-69494199D01*
X93585519Y-69494199D02*
X93633139Y-69589437D01*
X93633139Y-69589437D02*
X93728377Y-69637056D01*
X93728377Y-69637056D02*
X94109329Y-69637056D01*
X94109329Y-69637056D02*
X94204567Y-69589437D01*
X94204567Y-69589437D02*
X94252186Y-69494199D01*
X94252186Y-69494199D02*
X94252186Y-69303723D01*
X94252186Y-69303723D02*
X94204567Y-69208485D01*
X94204567Y-69208485D02*
X94109329Y-69160866D01*
X94109329Y-69160866D02*
X94014091Y-69160866D01*
X94014091Y-69160866D02*
X93918853Y-69637056D01*
X94252186Y-68875151D02*
X94252186Y-68494199D01*
X94585519Y-68732294D02*
X93728377Y-68732294D01*
X93728377Y-68732294D02*
X93633139Y-68684675D01*
X93633139Y-68684675D02*
X93585519Y-68589437D01*
X93585519Y-68589437D02*
X93585519Y-68494199D01*
X93585519Y-68160865D02*
X94252186Y-68160865D01*
X94061710Y-68160865D02*
X94156948Y-68113246D01*
X94156948Y-68113246D02*
X94204567Y-68065627D01*
X94204567Y-68065627D02*
X94252186Y-67970389D01*
X94252186Y-67970389D02*
X94252186Y-67875151D01*
X93585519Y-67398960D02*
X93633139Y-67494198D01*
X93633139Y-67494198D02*
X93680758Y-67541817D01*
X93680758Y-67541817D02*
X93775996Y-67589436D01*
X93775996Y-67589436D02*
X94061710Y-67589436D01*
X94061710Y-67589436D02*
X94156948Y-67541817D01*
X94156948Y-67541817D02*
X94204567Y-67494198D01*
X94204567Y-67494198D02*
X94252186Y-67398960D01*
X94252186Y-67398960D02*
X94252186Y-67256103D01*
X94252186Y-67256103D02*
X94204567Y-67160865D01*
X94204567Y-67160865D02*
X94156948Y-67113246D01*
X94156948Y-67113246D02*
X94061710Y-67065627D01*
X94061710Y-67065627D02*
X93775996Y-67065627D01*
X93775996Y-67065627D02*
X93680758Y-67113246D01*
X93680758Y-67113246D02*
X93633139Y-67160865D01*
X93633139Y-67160865D02*
X93585519Y-67256103D01*
X93585519Y-67256103D02*
X93585519Y-67398960D01*
X93680758Y-65303722D02*
X93633139Y-65351341D01*
X93633139Y-65351341D02*
X93585519Y-65494198D01*
X93585519Y-65494198D02*
X93585519Y-65589436D01*
X93585519Y-65589436D02*
X93633139Y-65732293D01*
X93633139Y-65732293D02*
X93728377Y-65827531D01*
X93728377Y-65827531D02*
X93823615Y-65875150D01*
X93823615Y-65875150D02*
X94014091Y-65922769D01*
X94014091Y-65922769D02*
X94156948Y-65922769D01*
X94156948Y-65922769D02*
X94347424Y-65875150D01*
X94347424Y-65875150D02*
X94442662Y-65827531D01*
X94442662Y-65827531D02*
X94537900Y-65732293D01*
X94537900Y-65732293D02*
X94585519Y-65589436D01*
X94585519Y-65589436D02*
X94585519Y-65494198D01*
X94585519Y-65494198D02*
X94537900Y-65351341D01*
X94537900Y-65351341D02*
X94490281Y-65303722D01*
X93585519Y-64446579D02*
X94109329Y-64446579D01*
X94109329Y-64446579D02*
X94204567Y-64494198D01*
X94204567Y-64494198D02*
X94252186Y-64589436D01*
X94252186Y-64589436D02*
X94252186Y-64779912D01*
X94252186Y-64779912D02*
X94204567Y-64875150D01*
X93633139Y-64446579D02*
X93585519Y-64541817D01*
X93585519Y-64541817D02*
X93585519Y-64779912D01*
X93585519Y-64779912D02*
X93633139Y-64875150D01*
X93633139Y-64875150D02*
X93728377Y-64922769D01*
X93728377Y-64922769D02*
X93823615Y-64922769D01*
X93823615Y-64922769D02*
X93918853Y-64875150D01*
X93918853Y-64875150D02*
X93966472Y-64779912D01*
X93966472Y-64779912D02*
X93966472Y-64541817D01*
X93966472Y-64541817D02*
X94014091Y-64446579D01*
X94252186Y-63970388D02*
X93585519Y-63970388D01*
X94156948Y-63970388D02*
X94204567Y-63922769D01*
X94204567Y-63922769D02*
X94252186Y-63827531D01*
X94252186Y-63827531D02*
X94252186Y-63684674D01*
X94252186Y-63684674D02*
X94204567Y-63589436D01*
X94204567Y-63589436D02*
X94109329Y-63541817D01*
X94109329Y-63541817D02*
X93585519Y-63541817D01*
X93585519Y-62637055D02*
X94109329Y-62637055D01*
X94109329Y-62637055D02*
X94204567Y-62684674D01*
X94204567Y-62684674D02*
X94252186Y-62779912D01*
X94252186Y-62779912D02*
X94252186Y-62970388D01*
X94252186Y-62970388D02*
X94204567Y-63065626D01*
X93633139Y-62637055D02*
X93585519Y-62732293D01*
X93585519Y-62732293D02*
X93585519Y-62970388D01*
X93585519Y-62970388D02*
X93633139Y-63065626D01*
X93633139Y-63065626D02*
X93728377Y-63113245D01*
X93728377Y-63113245D02*
X93823615Y-63113245D01*
X93823615Y-63113245D02*
X93918853Y-63065626D01*
X93918853Y-63065626D02*
X93966472Y-62970388D01*
X93966472Y-62970388D02*
X93966472Y-62732293D01*
X93966472Y-62732293D02*
X94014091Y-62637055D01*
X93585519Y-61732293D02*
X94585519Y-61732293D01*
X93633139Y-61732293D02*
X93585519Y-61827531D01*
X93585519Y-61827531D02*
X93585519Y-62018007D01*
X93585519Y-62018007D02*
X93633139Y-62113245D01*
X93633139Y-62113245D02*
X93680758Y-62160864D01*
X93680758Y-62160864D02*
X93775996Y-62208483D01*
X93775996Y-62208483D02*
X94061710Y-62208483D01*
X94061710Y-62208483D02*
X94156948Y-62160864D01*
X94156948Y-62160864D02*
X94204567Y-62113245D01*
X94204567Y-62113245D02*
X94252186Y-62018007D01*
X94252186Y-62018007D02*
X94252186Y-61827531D01*
X94252186Y-61827531D02*
X94204567Y-61732293D01*
X93585519Y-60827531D02*
X94109329Y-60827531D01*
X94109329Y-60827531D02*
X94204567Y-60875150D01*
X94204567Y-60875150D02*
X94252186Y-60970388D01*
X94252186Y-60970388D02*
X94252186Y-61160864D01*
X94252186Y-61160864D02*
X94204567Y-61256102D01*
X93633139Y-60827531D02*
X93585519Y-60922769D01*
X93585519Y-60922769D02*
X93585519Y-61160864D01*
X93585519Y-61160864D02*
X93633139Y-61256102D01*
X93633139Y-61256102D02*
X93728377Y-61303721D01*
X93728377Y-61303721D02*
X93823615Y-61303721D01*
X93823615Y-61303721D02*
X93918853Y-61256102D01*
X93918853Y-61256102D02*
X93966472Y-61160864D01*
X93966472Y-61160864D02*
X93966472Y-60922769D01*
X93966472Y-60922769D02*
X94014091Y-60827531D01*
X81754522Y-76625999D02*
X81754522Y-76435523D01*
X81754522Y-76435523D02*
X81706903Y-76340285D01*
X81706903Y-76340285D02*
X81611665Y-76245047D01*
X81611665Y-76245047D02*
X81421189Y-76197428D01*
X81421189Y-76197428D02*
X81087856Y-76197428D01*
X81087856Y-76197428D02*
X80897380Y-76245047D01*
X80897380Y-76245047D02*
X80802142Y-76340285D01*
X80802142Y-76340285D02*
X80754522Y-76435523D01*
X80754522Y-76435523D02*
X80754522Y-76625999D01*
X80754522Y-76625999D02*
X80802142Y-76721237D01*
X80802142Y-76721237D02*
X80897380Y-76816475D01*
X80897380Y-76816475D02*
X81087856Y-76864094D01*
X81087856Y-76864094D02*
X81421189Y-76864094D01*
X81421189Y-76864094D02*
X81611665Y-76816475D01*
X81611665Y-76816475D02*
X81706903Y-76721237D01*
X81706903Y-76721237D02*
X81754522Y-76625999D01*
X80754522Y-75768856D02*
X81421189Y-75768856D01*
X81230713Y-75768856D02*
X81325951Y-75721237D01*
X81325951Y-75721237D02*
X81373570Y-75673618D01*
X81373570Y-75673618D02*
X81421189Y-75578380D01*
X81421189Y-75578380D02*
X81421189Y-75483142D01*
X80754522Y-75149808D02*
X81421189Y-75149808D01*
X81754522Y-75149808D02*
X81706903Y-75197427D01*
X81706903Y-75197427D02*
X81659284Y-75149808D01*
X81659284Y-75149808D02*
X81706903Y-75102189D01*
X81706903Y-75102189D02*
X81754522Y-75149808D01*
X81754522Y-75149808D02*
X81659284Y-75149808D01*
X81421189Y-74245047D02*
X80611665Y-74245047D01*
X80611665Y-74245047D02*
X80516427Y-74292666D01*
X80516427Y-74292666D02*
X80468808Y-74340285D01*
X80468808Y-74340285D02*
X80421189Y-74435523D01*
X80421189Y-74435523D02*
X80421189Y-74578380D01*
X80421189Y-74578380D02*
X80468808Y-74673618D01*
X80802142Y-74245047D02*
X80754522Y-74340285D01*
X80754522Y-74340285D02*
X80754522Y-74530761D01*
X80754522Y-74530761D02*
X80802142Y-74625999D01*
X80802142Y-74625999D02*
X80849761Y-74673618D01*
X80849761Y-74673618D02*
X80944999Y-74721237D01*
X80944999Y-74721237D02*
X81230713Y-74721237D01*
X81230713Y-74721237D02*
X81325951Y-74673618D01*
X81325951Y-74673618D02*
X81373570Y-74625999D01*
X81373570Y-74625999D02*
X81421189Y-74530761D01*
X81421189Y-74530761D02*
X81421189Y-74340285D01*
X81421189Y-74340285D02*
X81373570Y-74245047D01*
X80754522Y-73768856D02*
X81421189Y-73768856D01*
X81754522Y-73768856D02*
X81706903Y-73816475D01*
X81706903Y-73816475D02*
X81659284Y-73768856D01*
X81659284Y-73768856D02*
X81706903Y-73721237D01*
X81706903Y-73721237D02*
X81754522Y-73768856D01*
X81754522Y-73768856D02*
X81659284Y-73768856D01*
X81421189Y-73292666D02*
X80754522Y-73292666D01*
X81325951Y-73292666D02*
X81373570Y-73245047D01*
X81373570Y-73245047D02*
X81421189Y-73149809D01*
X81421189Y-73149809D02*
X81421189Y-73006952D01*
X81421189Y-73006952D02*
X81373570Y-72911714D01*
X81373570Y-72911714D02*
X81278332Y-72864095D01*
X81278332Y-72864095D02*
X80754522Y-72864095D01*
X80754522Y-71959333D02*
X81278332Y-71959333D01*
X81278332Y-71959333D02*
X81373570Y-72006952D01*
X81373570Y-72006952D02*
X81421189Y-72102190D01*
X81421189Y-72102190D02*
X81421189Y-72292666D01*
X81421189Y-72292666D02*
X81373570Y-72387904D01*
X80802142Y-71959333D02*
X80754522Y-72054571D01*
X80754522Y-72054571D02*
X80754522Y-72292666D01*
X80754522Y-72292666D02*
X80802142Y-72387904D01*
X80802142Y-72387904D02*
X80897380Y-72435523D01*
X80897380Y-72435523D02*
X80992618Y-72435523D01*
X80992618Y-72435523D02*
X81087856Y-72387904D01*
X81087856Y-72387904D02*
X81135475Y-72292666D01*
X81135475Y-72292666D02*
X81135475Y-72054571D01*
X81135475Y-72054571D02*
X81183094Y-71959333D01*
X80754522Y-71340285D02*
X80802142Y-71435523D01*
X80802142Y-71435523D02*
X80897380Y-71483142D01*
X80897380Y-71483142D02*
X81754522Y-71483142D01*
X80849761Y-70959332D02*
X80802142Y-70911713D01*
X80802142Y-70911713D02*
X80754522Y-70959332D01*
X80754522Y-70959332D02*
X80802142Y-71006951D01*
X80802142Y-71006951D02*
X80849761Y-70959332D01*
X80849761Y-70959332D02*
X80754522Y-70959332D01*
X81373570Y-70959332D02*
X81325951Y-70911713D01*
X81325951Y-70911713D02*
X81278332Y-70959332D01*
X81278332Y-70959332D02*
X81325951Y-71006951D01*
X81325951Y-71006951D02*
X81373570Y-70959332D01*
X81373570Y-70959332D02*
X81278332Y-70959332D01*
X80754522Y-69721237D02*
X81754522Y-69721237D01*
X81754522Y-69721237D02*
X81754522Y-69483142D01*
X81754522Y-69483142D02*
X81706903Y-69340285D01*
X81706903Y-69340285D02*
X81611665Y-69245047D01*
X81611665Y-69245047D02*
X81516427Y-69197428D01*
X81516427Y-69197428D02*
X81325951Y-69149809D01*
X81325951Y-69149809D02*
X81183094Y-69149809D01*
X81183094Y-69149809D02*
X80992618Y-69197428D01*
X80992618Y-69197428D02*
X80897380Y-69245047D01*
X80897380Y-69245047D02*
X80802142Y-69340285D01*
X80802142Y-69340285D02*
X80754522Y-69483142D01*
X80754522Y-69483142D02*
X80754522Y-69721237D01*
X80754522Y-68578380D02*
X80802142Y-68673618D01*
X80802142Y-68673618D02*
X80849761Y-68721237D01*
X80849761Y-68721237D02*
X80944999Y-68768856D01*
X80944999Y-68768856D02*
X81230713Y-68768856D01*
X81230713Y-68768856D02*
X81325951Y-68721237D01*
X81325951Y-68721237D02*
X81373570Y-68673618D01*
X81373570Y-68673618D02*
X81421189Y-68578380D01*
X81421189Y-68578380D02*
X81421189Y-68435523D01*
X81421189Y-68435523D02*
X81373570Y-68340285D01*
X81373570Y-68340285D02*
X81325951Y-68292666D01*
X81325951Y-68292666D02*
X81230713Y-68245047D01*
X81230713Y-68245047D02*
X80944999Y-68245047D01*
X80944999Y-68245047D02*
X80849761Y-68292666D01*
X80849761Y-68292666D02*
X80802142Y-68340285D01*
X80802142Y-68340285D02*
X80754522Y-68435523D01*
X80754522Y-68435523D02*
X80754522Y-68578380D01*
X81421189Y-67387904D02*
X80754522Y-67387904D01*
X81421189Y-67816475D02*
X80897380Y-67816475D01*
X80897380Y-67816475D02*
X80802142Y-67768856D01*
X80802142Y-67768856D02*
X80754522Y-67673618D01*
X80754522Y-67673618D02*
X80754522Y-67530761D01*
X80754522Y-67530761D02*
X80802142Y-67435523D01*
X80802142Y-67435523D02*
X80849761Y-67387904D01*
X81421189Y-66483142D02*
X80611665Y-66483142D01*
X80611665Y-66483142D02*
X80516427Y-66530761D01*
X80516427Y-66530761D02*
X80468808Y-66578380D01*
X80468808Y-66578380D02*
X80421189Y-66673618D01*
X80421189Y-66673618D02*
X80421189Y-66816475D01*
X80421189Y-66816475D02*
X80468808Y-66911713D01*
X80802142Y-66483142D02*
X80754522Y-66578380D01*
X80754522Y-66578380D02*
X80754522Y-66768856D01*
X80754522Y-66768856D02*
X80802142Y-66864094D01*
X80802142Y-66864094D02*
X80849761Y-66911713D01*
X80849761Y-66911713D02*
X80944999Y-66959332D01*
X80944999Y-66959332D02*
X81230713Y-66959332D01*
X81230713Y-66959332D02*
X81325951Y-66911713D01*
X81325951Y-66911713D02*
X81373570Y-66864094D01*
X81373570Y-66864094D02*
X81421189Y-66768856D01*
X81421189Y-66768856D02*
X81421189Y-66578380D01*
X81421189Y-66578380D02*
X81373570Y-66483142D01*
X80802142Y-65292665D02*
X80754522Y-65149808D01*
X80754522Y-65149808D02*
X80754522Y-64911713D01*
X80754522Y-64911713D02*
X80802142Y-64816475D01*
X80802142Y-64816475D02*
X80849761Y-64768856D01*
X80849761Y-64768856D02*
X80944999Y-64721237D01*
X80944999Y-64721237D02*
X81040237Y-64721237D01*
X81040237Y-64721237D02*
X81135475Y-64768856D01*
X81135475Y-64768856D02*
X81183094Y-64816475D01*
X81183094Y-64816475D02*
X81230713Y-64911713D01*
X81230713Y-64911713D02*
X81278332Y-65102189D01*
X81278332Y-65102189D02*
X81325951Y-65197427D01*
X81325951Y-65197427D02*
X81373570Y-65245046D01*
X81373570Y-65245046D02*
X81468808Y-65292665D01*
X81468808Y-65292665D02*
X81564046Y-65292665D01*
X81564046Y-65292665D02*
X81659284Y-65245046D01*
X81659284Y-65245046D02*
X81706903Y-65197427D01*
X81706903Y-65197427D02*
X81754522Y-65102189D01*
X81754522Y-65102189D02*
X81754522Y-64864094D01*
X81754522Y-64864094D02*
X81706903Y-64721237D01*
X80802142Y-63911713D02*
X80754522Y-64006951D01*
X80754522Y-64006951D02*
X80754522Y-64197427D01*
X80754522Y-64197427D02*
X80802142Y-64292665D01*
X80802142Y-64292665D02*
X80897380Y-64340284D01*
X80897380Y-64340284D02*
X81278332Y-64340284D01*
X81278332Y-64340284D02*
X81373570Y-64292665D01*
X81373570Y-64292665D02*
X81421189Y-64197427D01*
X81421189Y-64197427D02*
X81421189Y-64006951D01*
X81421189Y-64006951D02*
X81373570Y-63911713D01*
X81373570Y-63911713D02*
X81278332Y-63864094D01*
X81278332Y-63864094D02*
X81183094Y-63864094D01*
X81183094Y-63864094D02*
X81087856Y-64340284D01*
X81421189Y-63530760D02*
X80754522Y-63292665D01*
X80754522Y-63292665D02*
X81421189Y-63054570D01*
X80802142Y-62292665D02*
X80754522Y-62387903D01*
X80754522Y-62387903D02*
X80754522Y-62578379D01*
X80754522Y-62578379D02*
X80802142Y-62673617D01*
X80802142Y-62673617D02*
X80897380Y-62721236D01*
X80897380Y-62721236D02*
X81278332Y-62721236D01*
X81278332Y-62721236D02*
X81373570Y-62673617D01*
X81373570Y-62673617D02*
X81421189Y-62578379D01*
X81421189Y-62578379D02*
X81421189Y-62387903D01*
X81421189Y-62387903D02*
X81373570Y-62292665D01*
X81373570Y-62292665D02*
X81278332Y-62245046D01*
X81278332Y-62245046D02*
X81183094Y-62245046D01*
X81183094Y-62245046D02*
X81087856Y-62721236D01*
X80754522Y-61816474D02*
X81421189Y-61816474D01*
X81230713Y-61816474D02*
X81325951Y-61768855D01*
X81325951Y-61768855D02*
X81373570Y-61721236D01*
X81373570Y-61721236D02*
X81421189Y-61625998D01*
X81421189Y-61625998D02*
X81421189Y-61530760D01*
X80802142Y-61245045D02*
X80754522Y-61149807D01*
X80754522Y-61149807D02*
X80754522Y-60959331D01*
X80754522Y-60959331D02*
X80802142Y-60864093D01*
X80802142Y-60864093D02*
X80897380Y-60816474D01*
X80897380Y-60816474D02*
X80944999Y-60816474D01*
X80944999Y-60816474D02*
X81040237Y-60864093D01*
X81040237Y-60864093D02*
X81087856Y-60959331D01*
X81087856Y-60959331D02*
X81087856Y-61102188D01*
X81087856Y-61102188D02*
X81135475Y-61197426D01*
X81135475Y-61197426D02*
X81230713Y-61245045D01*
X81230713Y-61245045D02*
X81278332Y-61245045D01*
X81278332Y-61245045D02*
X81373570Y-61197426D01*
X81373570Y-61197426D02*
X81421189Y-61102188D01*
X81421189Y-61102188D02*
X81421189Y-60959331D01*
X81421189Y-60959331D02*
X81373570Y-60864093D01*
X80754522Y-60245045D02*
X80802142Y-60340283D01*
X80802142Y-60340283D02*
X80849761Y-60387902D01*
X80849761Y-60387902D02*
X80944999Y-60435521D01*
X80944999Y-60435521D02*
X81230713Y-60435521D01*
X81230713Y-60435521D02*
X81325951Y-60387902D01*
X81325951Y-60387902D02*
X81373570Y-60340283D01*
X81373570Y-60340283D02*
X81421189Y-60245045D01*
X81421189Y-60245045D02*
X81421189Y-60102188D01*
X81421189Y-60102188D02*
X81373570Y-60006950D01*
X81373570Y-60006950D02*
X81325951Y-59959331D01*
X81325951Y-59959331D02*
X81230713Y-59911712D01*
X81230713Y-59911712D02*
X80944999Y-59911712D01*
X80944999Y-59911712D02*
X80849761Y-59959331D01*
X80849761Y-59959331D02*
X80802142Y-60006950D01*
X80802142Y-60006950D02*
X80754522Y-60102188D01*
X80754522Y-60102188D02*
X80754522Y-60245045D01*
X81421189Y-59483140D02*
X80754522Y-59483140D01*
X81325951Y-59483140D02*
X81373570Y-59435521D01*
X81373570Y-59435521D02*
X81421189Y-59340283D01*
X81421189Y-59340283D02*
X81421189Y-59197426D01*
X81421189Y-59197426D02*
X81373570Y-59102188D01*
X81373570Y-59102188D02*
X81278332Y-59054569D01*
X81278332Y-59054569D02*
X80754522Y-59054569D01*
M02*
