%TF.GenerationSoftware,KiCad,Pcbnew,7.0.6-0*%
%TF.CreationDate,2023-08-27T17:26:56+10:00*%
%TF.ProjectId,PC-SPRINT_SMD,50432d53-5052-4494-9e54-5f534d442e6b,rev?*%
%TF.SameCoordinates,Original*%
%TF.FileFunction,Soldermask,Top*%
%TF.FilePolarity,Negative*%
%FSLAX46Y46*%
G04 Gerber Fmt 4.6, Leading zero omitted, Abs format (unit mm)*
G04 Created by KiCad (PCBNEW 7.0.6-0) date 2023-08-27 17:26:56*
%MOMM*%
%LPD*%
G01*
G04 APERTURE LIST*
G04 Aperture macros list*
%AMRoundRect*
0 Rectangle with rounded corners*
0 $1 Rounding radius*
0 $2 $3 $4 $5 $6 $7 $8 $9 X,Y pos of 4 corners*
0 Add a 4 corners polygon primitive as box body*
4,1,4,$2,$3,$4,$5,$6,$7,$8,$9,$2,$3,0*
0 Add four circle primitives for the rounded corners*
1,1,$1+$1,$2,$3*
1,1,$1+$1,$4,$5*
1,1,$1+$1,$6,$7*
1,1,$1+$1,$8,$9*
0 Add four rect primitives between the rounded corners*
20,1,$1+$1,$2,$3,$4,$5,0*
20,1,$1+$1,$4,$5,$6,$7,0*
20,1,$1+$1,$6,$7,$8,$9,0*
20,1,$1+$1,$8,$9,$2,$3,0*%
G04 Aperture macros list end*
%ADD10RoundRect,0.250000X0.450000X-0.350000X0.450000X0.350000X-0.450000X0.350000X-0.450000X-0.350000X0*%
%ADD11R,2.400000X1.600000*%
%ADD12O,2.400000X1.600000*%
%ADD13RoundRect,0.250000X0.412500X0.650000X-0.412500X0.650000X-0.412500X-0.650000X0.412500X-0.650000X0*%
%ADD14RoundRect,0.250000X-0.350000X-0.450000X0.350000X-0.450000X0.350000X0.450000X-0.350000X0.450000X0*%
%ADD15RoundRect,0.225000X-0.225000X-0.375000X0.225000X-0.375000X0.225000X0.375000X-0.225000X0.375000X0*%
%ADD16C,1.500000*%
%ADD17RoundRect,0.250000X0.650000X-0.412500X0.650000X0.412500X-0.650000X0.412500X-0.650000X-0.412500X0*%
%ADD18R,1.700000X1.700000*%
%ADD19O,1.700000X1.700000*%
%ADD20RoundRect,0.250000X-0.412500X-0.650000X0.412500X-0.650000X0.412500X0.650000X-0.412500X0.650000X0*%
%ADD21RoundRect,0.250000X-0.337500X-0.475000X0.337500X-0.475000X0.337500X0.475000X-0.337500X0.475000X0*%
G04 APERTURE END LIST*
D10*
%TO.C,R4*%
X94837300Y-103282500D03*
X94837300Y-101282500D03*
%TD*%
D11*
%TO.C,U3*%
X77554300Y-86767900D03*
D12*
X77554300Y-89307900D03*
X77554300Y-91847900D03*
X77554300Y-94387900D03*
X77554300Y-96927900D03*
X77554300Y-99467900D03*
X77554300Y-102007900D03*
X77554300Y-104547900D03*
X77554300Y-107087900D03*
X85174300Y-107087900D03*
X85174300Y-104547900D03*
X85174300Y-102007900D03*
X85174300Y-99467900D03*
X85174300Y-96927900D03*
X85174300Y-94387900D03*
X85174300Y-91847900D03*
X85174300Y-89307900D03*
X85174300Y-86767900D03*
%TD*%
D13*
%TO.C,C3*%
X82941800Y-112760800D03*
X79816800Y-112760800D03*
%TD*%
D14*
%TO.C,R1*%
X89422900Y-82263800D03*
X91422900Y-82263800D03*
%TD*%
%TO.C,R2*%
X95520000Y-82263800D03*
X97520000Y-82263800D03*
%TD*%
D15*
%TO.C,D2*%
X94892500Y-96152100D03*
X98192500Y-96152100D03*
%TD*%
%TO.C,D1*%
X94892500Y-91583100D03*
X98192500Y-91583100D03*
%TD*%
D11*
%TO.C,U1*%
X77571900Y-57145600D03*
D12*
X77571900Y-59685600D03*
X77571900Y-62225600D03*
X77571900Y-64765600D03*
X77571900Y-67305600D03*
X77571900Y-69845600D03*
X77571900Y-72385600D03*
X77571900Y-74925600D03*
X77571900Y-77465600D03*
X85191900Y-77465600D03*
X85191900Y-74925600D03*
X85191900Y-72385600D03*
X85191900Y-69845600D03*
X85191900Y-67305600D03*
X85191900Y-64765600D03*
X85191900Y-62225600D03*
X85191900Y-59685600D03*
X85191900Y-57145600D03*
%TD*%
D16*
%TO.C,X1*%
X90422900Y-93370300D03*
X90422900Y-88470300D03*
%TD*%
D11*
%TO.C,U2*%
X90060400Y-57145600D03*
D12*
X90060400Y-59685600D03*
X90060400Y-62225600D03*
X90060400Y-64765600D03*
X90060400Y-67305600D03*
X90060400Y-69845600D03*
X90060400Y-72385600D03*
X90060400Y-74925600D03*
X90060400Y-77465600D03*
X97680400Y-77465600D03*
X97680400Y-74925600D03*
X97680400Y-72385600D03*
X97680400Y-69845600D03*
X97680400Y-67305600D03*
X97680400Y-64765600D03*
X97680400Y-62225600D03*
X97680400Y-59685600D03*
X97680400Y-57145600D03*
%TD*%
D10*
%TO.C,R5*%
X97821800Y-103282500D03*
X97821800Y-101282500D03*
%TD*%
D17*
%TO.C,C4*%
X96075500Y-109823200D03*
X96075500Y-106698200D03*
%TD*%
D18*
%TO.C,J1*%
X90422900Y-100778100D03*
D19*
X90422900Y-103318100D03*
X90422900Y-105858100D03*
X90422900Y-108398100D03*
%TD*%
D14*
%TO.C,R3*%
X95520000Y-86876700D03*
X97520000Y-86876700D03*
%TD*%
D20*
%TO.C,C1*%
X89149600Y-52160800D03*
X92274600Y-52160800D03*
%TD*%
D21*
%TO.C,C2*%
X80341800Y-82293800D03*
X82416800Y-82293800D03*
%TD*%
M02*
