M48
METRIC,LZ,000.000
;FILE_FORMAT=3:3
;TYPE=PLATED
;Layer: PTH_Through
;EasyEDA v6.5.34, 2023-08-27 08:43:48
;e4fe155263a340deae7a3384ae965621,d57712b53ce844a48ecc409583de2b89,10
;Gerber Generator version 0.2
;Holesize 1 = 0.306 mm
T01C0.306
;Holesize 2 = 0.800 mm
T02C0.800
;Holesize 3 = 1.000 mm
T03C1.000
%
G05
G90
T01
X016923Y045687
X016611Y023821
X017704Y022020
X015521Y013423
X013149Y030138
X015367Y032435
X017337Y032642
X014819Y041522
X014627Y020855
X017184Y047765
X016147Y050061
X017326Y033879
X014442Y001477
X016701Y010309
T02
X019053Y-015875G85X019047Y-015875
X011433Y004445G85X011427Y004445
X019053Y-013335G85X019047Y-013335
X011433Y001905G85X011427Y001905
X019053Y-010795G85X019047Y-010795
X011433Y-000635G85X011427Y-000635
X019053Y-008255G85X019047Y-008255
X011433Y-003175G85X011427Y-003175
X019053Y-005715G85X019047Y-005715
X011433Y-005715G85X011427Y-005715
X019053Y-003175G85X019047Y-003175
X011433Y-008255G85X011427Y-008255
X019053Y-000635G85X019047Y-000635
X011433Y-010795G85X011427Y-010795
X019053Y001905G85X019047Y001905
X011433Y-013335G85X011427Y-013335
X019053Y004445G85X019047Y004445
X011433Y-015875G85X011427Y-015875
X011935Y033655G85X011941Y033655
X019555Y013335G85X019561Y013335
X011935Y031115G85X011941Y031115
X019555Y015875G85X019561Y015875
X011935Y028575G85X011941Y028575
X019555Y018415G85X019561Y018415
X011935Y026035G85X011941Y026035
X019555Y020955G85X019561Y020955
X011935Y023495G85X011941Y023495
X019555Y023495G85X019561Y023495
X011935Y020955G85X011941Y020955
X019555Y026035G85X019561Y026035
X011935Y018415G85X011941Y018415
X019555Y028575G85X019561Y028575
X011935Y015875G85X011941Y015875
X019555Y031115G85X019561Y031115
X011935Y013335G85X011941Y013335
X019555Y033655G85X019561Y033655
X011935Y057912G85X011941Y057912
X019555Y037592G85X019561Y037592
X011935Y055372G85X011941Y055372
X019555Y040132G85X019561Y040132
X011935Y052832G85X011941Y052832
X019555Y042672G85X019561Y042672
X011935Y050292G85X011941Y050292
X019555Y045212G85X019561Y045212
X011935Y047752G85X011941Y047752
X019555Y047752G85X019561Y047752
X011935Y045212G85X011941Y045212
X019555Y050292G85X019561Y050292
X011935Y042672G85X011941Y042672
X019555Y052832G85X019561Y052832
X011935Y040132G85X011941Y040132
X019555Y055372G85X019561Y055372
X011935Y037592G85X011941Y037592
X019555Y057912G85X019561Y057912
X012788Y008890G85X012793Y008890
X017687Y008890G85X017692Y008890
T03
X011938Y063243G85X011938Y063249
X014478Y063243G85X014478Y063249
X017018Y063243G85X017018Y063249
X019558Y063243G85X019558Y063249
M30
