G04 Layer: TopSilkscreenLayer*
G04 EasyEDA v6.5.34, 2023-08-27 08:43:48*
G04 e4fe155263a340deae7a3384ae965621,d57712b53ce844a48ecc409583de2b89,10*
G04 Gerber Generator version 0.2*
G04 Scale: 100 percent, Rotated: No, Reflected: No *
G04 Dimensions in millimeters *
G04 leading zeros omitted , absolute positions ,4 integer and 5 decimal *
%FSLAX45Y45*%
%MOMM*%

%ADD10C,0.1524*%
%ADD11C,0.1200*%

%LPD*%
D10*
X875284Y6376670D02*
G01*
X958342Y6376670D01*
X974089Y6371336D01*
X979170Y6366255D01*
X984250Y6355842D01*
X984250Y6345428D01*
X979170Y6335013D01*
X974089Y6329679D01*
X958342Y6324600D01*
X947928Y6324600D01*
X896112Y6410960D02*
G01*
X890778Y6421120D01*
X875284Y6436868D01*
X984250Y6436868D01*
X1549400Y-1931415D02*
G01*
X1549400Y-1853437D01*
X1544320Y-1837944D01*
X1533905Y-1827529D01*
X1518157Y-1822450D01*
X1507744Y-1822450D01*
X1492250Y-1827529D01*
X1481836Y-1837944D01*
X1476755Y-1853437D01*
X1476755Y-1931415D01*
X1442465Y-1910587D02*
G01*
X1432052Y-1915921D01*
X1416304Y-1931415D01*
X1416304Y-1822450D01*
X1549400Y3709415D02*
G01*
X1549400Y3631437D01*
X1554479Y3615944D01*
X1564894Y3605529D01*
X1580642Y3600450D01*
X1591055Y3600450D01*
X1606550Y3605529D01*
X1616963Y3615944D01*
X1622044Y3631437D01*
X1622044Y3709415D01*
X1661668Y3683507D02*
G01*
X1661668Y3688587D01*
X1666747Y3699002D01*
X1672081Y3704336D01*
X1682495Y3709415D01*
X1703070Y3709415D01*
X1713484Y3704336D01*
X1718818Y3699002D01*
X1723897Y3688587D01*
X1723897Y3678173D01*
X1718818Y3667760D01*
X1708404Y3652265D01*
X1656334Y3600450D01*
X1729231Y3600450D01*
X1549400Y6135115D02*
G01*
X1549400Y6057137D01*
X1554479Y6041644D01*
X1564894Y6031229D01*
X1580642Y6026150D01*
X1591055Y6026150D01*
X1606550Y6031229D01*
X1616963Y6041644D01*
X1622044Y6057137D01*
X1622044Y6135115D01*
X1666747Y6135115D02*
G01*
X1723897Y6135115D01*
X1692910Y6093460D01*
X1708404Y6093460D01*
X1718818Y6088379D01*
X1723897Y6083300D01*
X1729231Y6067552D01*
X1729231Y6057137D01*
X1723897Y6041644D01*
X1713484Y6031229D01*
X1697989Y6026150D01*
X1682495Y6026150D01*
X1666747Y6031229D01*
X1661668Y6036310D01*
X1656334Y6046723D01*
X1507604Y1334515D02*
G01*
X1580248Y1225550D01*
X1580248Y1334515D02*
G01*
X1507604Y1225550D01*
X1614538Y1313687D02*
G01*
X1624952Y1319021D01*
X1640700Y1334515D01*
X1640700Y1225550D01*
D11*
X1320800Y6185662D02*
G01*
X2094738Y6185662D01*
X2094738Y6463537D01*
X1320800Y6463537D01*
X1320800Y6185662D01*
X1193800Y6185662D02*
G01*
X1054862Y6185662D01*
X1054862Y6324600D01*
X1624076Y-1726437D02*
G01*
X1760981Y-1726437D01*
X1760981Y583437D01*
X1287018Y583437D01*
X1287018Y-1726437D01*
X1423923Y-1726437D01*
X1474723Y3504437D02*
G01*
X1337818Y3504437D01*
X1337818Y1194562D01*
X1811781Y1194562D01*
X1811781Y3504437D01*
X1674876Y3504437D01*
X1474723Y5930137D02*
G01*
X1337818Y5930137D01*
X1337818Y3620262D01*
X1811781Y3620262D01*
X1811781Y5930137D01*
X1674876Y5930137D01*
X1211440Y1141476D02*
G01*
X1836534Y1141476D01*
X1211440Y636523D02*
G01*
X1836534Y636523D01*
G75*
G01*
X1624000Y-1726499D02*
G03*
X1424000Y-1726499I-100000J0D01*
G75*
G01*
X1474800Y3504499D02*
G03*
X1674800Y3504499I100000J0D01*
G75*
G01*
X1474800Y5930199D02*
G03*
X1674800Y5930199I100000J0D01*
G75*
G01*
X1211504Y1141499D02*
G03*
X1211504Y636501I0J-252499D01*
G75*
G01*
X1836504Y1141499D02*
G02*
X1836504Y636501I0J-252499D01*
M02*
