G04 Layer: BottomPasteMaskLayer*
G04 EasyEDA v6.5.34, 2023-08-27 08:43:48*
G04 e4fe155263a340deae7a3384ae965621,d57712b53ce844a48ecc409583de2b89,10*
G04 Gerber Generator version 0.2*
G04 Scale: 100 percent, Rotated: No, Reflected: No *
G04 Dimensions in millimeters *
G04 leading zeros omitted , absolute positions ,4 integer and 5 decimal *
%FSLAX45Y45*%
%MOMM*%

%AMMACRO1*21,1,$1,$2,0,0,$3*%
%ADD10MACRO1,1.9X2.376X90.0000*%
%ADD11MACRO1,1.1X1.7X-90.0000*%

%LPD*%
G36*
X1559610Y5628487D02*
G01*
X1554581Y5623509D01*
X1554581Y5508498D01*
X1559610Y5503519D01*
X1600606Y5503011D01*
X1600606Y5548020D01*
X1645615Y5548020D01*
X1645615Y5503976D01*
X1687575Y5503519D01*
X1692605Y5508498D01*
X1692605Y5623509D01*
X1687575Y5628487D01*
G37*
G36*
X1559610Y5413502D02*
G01*
X1554581Y5408523D01*
X1554581Y5293512D01*
X1559610Y5288483D01*
X1687575Y5288483D01*
X1692605Y5293512D01*
X1692605Y5408523D01*
X1687575Y5413502D01*
X1645615Y5413502D01*
X1645615Y5369001D01*
X1600606Y5369001D01*
X1600606Y5412994D01*
G37*
G36*
X1561592Y4945227D02*
G01*
X1556613Y4940198D01*
X1556613Y4825187D01*
X1561592Y4820208D01*
X1602587Y4819700D01*
X1602587Y4864709D01*
X1647596Y4864709D01*
X1647596Y4820716D01*
X1689607Y4820208D01*
X1694586Y4825187D01*
X1694586Y4940198D01*
X1689607Y4945227D01*
G37*
G36*
X1561592Y4730191D02*
G01*
X1556613Y4725212D01*
X1556613Y4610201D01*
X1561592Y4605223D01*
X1689607Y4605223D01*
X1694586Y4610201D01*
X1694586Y4725212D01*
X1689607Y4730191D01*
X1647596Y4730191D01*
X1647596Y4685690D01*
X1602587Y4685690D01*
X1602587Y4729683D01*
G37*
G36*
X1624787Y3193186D02*
G01*
X1619808Y3188208D01*
X1619300Y3147212D01*
X1664309Y3147212D01*
X1664309Y3102203D01*
X1620316Y3102203D01*
X1619808Y3060192D01*
X1624787Y3055213D01*
X1739798Y3055213D01*
X1744827Y3060192D01*
X1744827Y3188208D01*
X1739798Y3193186D01*
G37*
G36*
X1409801Y3193186D02*
G01*
X1404823Y3188208D01*
X1404823Y3060192D01*
X1409801Y3055213D01*
X1524812Y3055213D01*
X1529791Y3060192D01*
X1529791Y3102203D01*
X1485290Y3102203D01*
X1485290Y3147212D01*
X1529283Y3147212D01*
X1529791Y3188208D01*
X1524812Y3193186D01*
G37*
G36*
X1624787Y2939186D02*
G01*
X1619808Y2934208D01*
X1619300Y2893212D01*
X1664309Y2893212D01*
X1664309Y2848203D01*
X1620316Y2848203D01*
X1619808Y2806192D01*
X1624787Y2801213D01*
X1739798Y2801213D01*
X1744827Y2806192D01*
X1744827Y2934208D01*
X1739798Y2939186D01*
G37*
G36*
X1409801Y2939186D02*
G01*
X1404823Y2934208D01*
X1404823Y2806192D01*
X1409801Y2801213D01*
X1524812Y2801213D01*
X1529791Y2806192D01*
X1529791Y2848203D01*
X1485290Y2848203D01*
X1485290Y2893212D01*
X1529283Y2893212D01*
X1529791Y2934208D01*
X1524812Y2939186D01*
G37*
G36*
X1470812Y1835099D02*
G01*
X1470812Y1790090D01*
X1425803Y1790090D01*
X1425803Y1834083D01*
X1383792Y1834591D01*
X1378813Y1829612D01*
X1378813Y1714601D01*
X1383792Y1709572D01*
X1511808Y1709572D01*
X1516786Y1714601D01*
X1516786Y1829612D01*
X1511808Y1834591D01*
G37*
G36*
X1383792Y2049576D02*
G01*
X1378813Y2044598D01*
X1378813Y1929587D01*
X1383792Y1924608D01*
X1425803Y1924608D01*
X1425803Y1969109D01*
X1470812Y1969109D01*
X1470812Y1925116D01*
X1511808Y1924608D01*
X1516786Y1929587D01*
X1516786Y2044598D01*
X1511808Y2049576D01*
G37*
G36*
X1674012Y1835099D02*
G01*
X1674012Y1790090D01*
X1629003Y1790090D01*
X1629003Y1834083D01*
X1586992Y1834591D01*
X1582013Y1829612D01*
X1582013Y1714601D01*
X1586992Y1709572D01*
X1715007Y1709572D01*
X1719986Y1714601D01*
X1719986Y1829612D01*
X1715007Y1834591D01*
G37*
G36*
X1586992Y2049576D02*
G01*
X1582013Y2044598D01*
X1582013Y1929587D01*
X1586992Y1924608D01*
X1629003Y1924608D01*
X1629003Y1969109D01*
X1674012Y1969109D01*
X1674012Y1925116D01*
X1715007Y1924608D01*
X1719986Y1929587D01*
X1719986Y2044598D01*
X1715007Y2049576D01*
G37*
D10*
G01*
X1562098Y3748565D03*
G01*
X1562098Y3388837D03*
G01*
X1562098Y2592865D03*
G01*
X1562098Y2233137D03*
G01*
X1562098Y4370865D03*
G01*
X1562098Y4011137D03*
D11*
G01*
X1650998Y1566999D03*
G01*
X1650998Y1227000D03*
G01*
X1447798Y1566999D03*
G01*
X1447798Y1227000D03*
M02*
