G04 Layer: BottomSilkscreenLayer*
G04 EasyEDA v6.5.34, 2023-08-27 08:43:48*
G04 e4fe155263a340deae7a3384ae965621,d57712b53ce844a48ecc409583de2b89,10*
G04 Gerber Generator version 0.2*
G04 Scale: 100 percent, Rotated: No, Reflected: No *
G04 Dimensions in millimeters *
G04 leading zeros omitted , absolute positions ,4 integer and 5 decimal *
%FSLAX45Y45*%
%MOMM*%

%ADD10C,0.1524*%
%ADD11C,0.1520*%
%ADD12C,0.2540*%
%ADD13C,0.2000*%

%LPD*%
D10*
X1409192Y5383021D02*
G01*
X1398778Y5388355D01*
X1388363Y5398770D01*
X1383284Y5408929D01*
X1383284Y5429757D01*
X1388363Y5440171D01*
X1398778Y5450586D01*
X1409192Y5455920D01*
X1424939Y5461000D01*
X1450847Y5461000D01*
X1466342Y5455920D01*
X1476755Y5450586D01*
X1487170Y5440171D01*
X1492250Y5429757D01*
X1492250Y5408929D01*
X1487170Y5398770D01*
X1476755Y5388355D01*
X1466342Y5383021D01*
X1404112Y5348731D02*
G01*
X1398778Y5338318D01*
X1383284Y5322823D01*
X1492250Y5322823D01*
X1854707Y3646678D02*
G01*
X1865121Y3641344D01*
X1875536Y3630929D01*
X1880615Y3620770D01*
X1880615Y3599942D01*
X1875536Y3589528D01*
X1865121Y3579113D01*
X1854707Y3573779D01*
X1838960Y3568700D01*
X1813052Y3568700D01*
X1797557Y3573779D01*
X1787144Y3579113D01*
X1776729Y3589528D01*
X1771650Y3599942D01*
X1771650Y3620770D01*
X1776729Y3630929D01*
X1787144Y3641344D01*
X1797557Y3646678D01*
X1854707Y3686047D02*
G01*
X1859787Y3686047D01*
X1870202Y3691381D01*
X1875536Y3696462D01*
X1880615Y3706876D01*
X1880615Y3727704D01*
X1875536Y3738118D01*
X1870202Y3743197D01*
X1859787Y3748531D01*
X1849373Y3748531D01*
X1838960Y3743197D01*
X1823465Y3732784D01*
X1771650Y3680968D01*
X1771650Y3753612D01*
X1854707Y2490978D02*
G01*
X1865121Y2485644D01*
X1875536Y2475229D01*
X1880615Y2465070D01*
X1880615Y2444242D01*
X1875536Y2433828D01*
X1865121Y2423413D01*
X1854707Y2418079D01*
X1838960Y2413000D01*
X1813052Y2413000D01*
X1797557Y2418079D01*
X1787144Y2423413D01*
X1776729Y2433828D01*
X1771650Y2444242D01*
X1771650Y2465070D01*
X1776729Y2475229D01*
X1787144Y2485644D01*
X1797557Y2490978D01*
X1880615Y2535681D02*
G01*
X1880615Y2592831D01*
X1838960Y2561589D01*
X1838960Y2577084D01*
X1833879Y2587497D01*
X1828800Y2592831D01*
X1813052Y2597912D01*
X1802637Y2597912D01*
X1787144Y2592831D01*
X1776729Y2582418D01*
X1771650Y2566670D01*
X1771650Y2551176D01*
X1776729Y2535681D01*
X1781810Y2530347D01*
X1792223Y2525268D01*
X1854707Y4268978D02*
G01*
X1865121Y4263644D01*
X1875536Y4253229D01*
X1880615Y4243070D01*
X1880615Y4222242D01*
X1875536Y4211828D01*
X1865121Y4201413D01*
X1854707Y4196079D01*
X1838960Y4191000D01*
X1813052Y4191000D01*
X1797557Y4196079D01*
X1787144Y4201413D01*
X1776729Y4211828D01*
X1771650Y4222242D01*
X1771650Y4243070D01*
X1776729Y4253229D01*
X1787144Y4263644D01*
X1797557Y4268978D01*
X1880615Y4365497D02*
G01*
X1880615Y4313681D01*
X1833879Y4308347D01*
X1838960Y4313681D01*
X1844294Y4329176D01*
X1844294Y4344670D01*
X1838960Y4360418D01*
X1828800Y4370831D01*
X1813052Y4375912D01*
X1802637Y4375912D01*
X1787144Y4370831D01*
X1776729Y4360418D01*
X1771650Y4344670D01*
X1771650Y4329176D01*
X1776729Y4313681D01*
X1781810Y4308347D01*
X1792223Y4303268D01*
X1383284Y4775200D02*
G01*
X1492250Y4775200D01*
X1383284Y4775200D02*
G01*
X1383284Y4728463D01*
X1388363Y4712970D01*
X1393697Y4707636D01*
X1404112Y4702555D01*
X1414526Y4702555D01*
X1424939Y4707636D01*
X1430020Y4712970D01*
X1435100Y4728463D01*
X1435100Y4775200D01*
X1435100Y4738878D02*
G01*
X1492250Y4702555D01*
X1404112Y4668265D02*
G01*
X1398778Y4657852D01*
X1383284Y4642104D01*
X1492250Y4642104D01*
X1574800Y3366515D02*
G01*
X1574800Y3257550D01*
X1574800Y3366515D02*
G01*
X1528063Y3366515D01*
X1512570Y3361436D01*
X1507236Y3356102D01*
X1502155Y3345687D01*
X1502155Y3335273D01*
X1507236Y3324860D01*
X1512570Y3319779D01*
X1528063Y3314700D01*
X1574800Y3314700D01*
X1538478Y3314700D02*
G01*
X1502155Y3257550D01*
X1462531Y3340607D02*
G01*
X1462531Y3345687D01*
X1457452Y3356102D01*
X1452118Y3361436D01*
X1441704Y3366515D01*
X1421129Y3366515D01*
X1410715Y3361436D01*
X1405381Y3356102D01*
X1400302Y3345687D01*
X1400302Y3335273D01*
X1405381Y3324860D01*
X1415795Y3309365D01*
X1467865Y3257550D01*
X1394968Y3257550D01*
X1574800Y3112515D02*
G01*
X1574800Y3003550D01*
X1574800Y3112515D02*
G01*
X1528063Y3112515D01*
X1512570Y3107436D01*
X1507236Y3102102D01*
X1502155Y3091687D01*
X1502155Y3081273D01*
X1507236Y3070860D01*
X1512570Y3065779D01*
X1528063Y3060700D01*
X1574800Y3060700D01*
X1538478Y3060700D02*
G01*
X1502155Y3003550D01*
X1405381Y3097021D02*
G01*
X1410715Y3107436D01*
X1426210Y3112515D01*
X1436623Y3112515D01*
X1452118Y3107436D01*
X1462531Y3091687D01*
X1467865Y3065779D01*
X1467865Y3039871D01*
X1462531Y3019044D01*
X1452118Y3008629D01*
X1436623Y3003550D01*
X1431289Y3003550D01*
X1415795Y3008629D01*
X1405381Y3019044D01*
X1400302Y3034537D01*
X1400302Y3039871D01*
X1405381Y3055365D01*
X1415795Y3065779D01*
X1431289Y3070860D01*
X1436623Y3070860D01*
X1452118Y3065779D01*
X1462531Y3055365D01*
X1467865Y3039871D01*
X1690115Y1879600D02*
G01*
X1581150Y1879600D01*
X1690115Y1879600D02*
G01*
X1690115Y1926336D01*
X1685036Y1941829D01*
X1679702Y1947163D01*
X1669287Y1952244D01*
X1658873Y1952244D01*
X1648460Y1947163D01*
X1643379Y1941829D01*
X1638300Y1926336D01*
X1638300Y1879600D01*
X1638300Y1915921D02*
G01*
X1581150Y1952244D01*
X1690115Y2059431D02*
G01*
X1581150Y2007362D01*
X1690115Y1986534D02*
G01*
X1690115Y2059431D01*
X1893315Y1397000D02*
G01*
X1815337Y1397000D01*
X1799844Y1402079D01*
X1789429Y1412494D01*
X1784350Y1428242D01*
X1784350Y1438655D01*
X1789429Y1454150D01*
X1799844Y1464563D01*
X1815337Y1469644D01*
X1893315Y1469644D01*
X1893315Y1556004D02*
G01*
X1820671Y1503934D01*
X1820671Y1581912D01*
X1893315Y1556004D02*
G01*
X1784350Y1556004D01*
X1690115Y1397000D02*
G01*
X1612137Y1397000D01*
X1596644Y1402079D01*
X1586229Y1412494D01*
X1581150Y1428242D01*
X1581150Y1438655D01*
X1586229Y1454150D01*
X1596644Y1464563D01*
X1612137Y1469644D01*
X1690115Y1469644D01*
X1690115Y1566418D02*
G01*
X1690115Y1514347D01*
X1643379Y1509268D01*
X1648460Y1514347D01*
X1653794Y1530095D01*
X1653794Y1545589D01*
X1648460Y1561084D01*
X1638300Y1571497D01*
X1622552Y1576831D01*
X1612137Y1576831D01*
X1596644Y1571497D01*
X1586229Y1561084D01*
X1581150Y1545589D01*
X1581150Y1530095D01*
X1586229Y1514347D01*
X1591310Y1509268D01*
X1601723Y1503934D01*
X1893315Y1879600D02*
G01*
X1784350Y1879600D01*
X1893315Y1879600D02*
G01*
X1893315Y1926336D01*
X1888236Y1941829D01*
X1882902Y1947163D01*
X1872487Y1952244D01*
X1862073Y1952244D01*
X1851660Y1947163D01*
X1846579Y1941829D01*
X1841500Y1926336D01*
X1841500Y1879600D01*
X1841500Y1915921D02*
G01*
X1784350Y1952244D01*
X1893315Y1996947D02*
G01*
X1893315Y2054097D01*
X1851660Y2023110D01*
X1851660Y2038604D01*
X1846579Y2049018D01*
X1841500Y2054097D01*
X1825752Y2059431D01*
X1815337Y2059431D01*
X1799844Y2054097D01*
X1789429Y2043684D01*
X1784350Y2028189D01*
X1784350Y2012695D01*
X1789429Y1996947D01*
X1794510Y1991868D01*
X1804923Y1986534D01*
G36*
X1406855Y3393694D02*
G01*
X1406855Y3347974D01*
X1428038Y3347974D01*
X1428038Y3393694D01*
G37*
G36*
X1696161Y3393694D02*
G01*
X1696161Y3347974D01*
X1717344Y3347974D01*
X1717344Y3393694D01*
G37*
G36*
X1406855Y2237994D02*
G01*
X1406855Y2192274D01*
X1428038Y2192274D01*
X1428038Y2237994D01*
G37*
G36*
X1696161Y2237994D02*
G01*
X1696161Y2192274D01*
X1717344Y2192274D01*
X1717344Y2237994D01*
G37*
G36*
X1406855Y4015994D02*
G01*
X1406855Y3970274D01*
X1428038Y3970274D01*
X1428038Y4015994D01*
G37*
G36*
X1696161Y4015994D02*
G01*
X1696161Y3970274D01*
X1717344Y3970274D01*
X1717344Y4015994D01*
G37*
X1535239Y5279880D02*
G01*
X1535239Y5420880D01*
X1715960Y5420880D02*
G01*
X1715960Y5279880D01*
X1700720Y5264640D02*
G01*
X1550479Y5264640D01*
X1535239Y5642119D02*
G01*
X1535239Y5501119D01*
X1715960Y5501119D02*
G01*
X1715960Y5642119D01*
X1700720Y5657359D02*
G01*
X1550479Y5657359D01*
X1709719Y3510714D02*
G01*
X1414480Y3510714D01*
D11*
X1425285Y3751318D02*
G01*
X1414480Y3751318D01*
X1709719Y3751318D02*
G01*
X1698912Y3751318D01*
D10*
X1709719Y3386081D02*
G01*
X1709719Y3751318D01*
X1414480Y3386081D02*
G01*
X1414480Y3751318D01*
X1709719Y2355014D02*
G01*
X1414480Y2355014D01*
D11*
X1425285Y2595618D02*
G01*
X1414480Y2595618D01*
X1709719Y2595618D02*
G01*
X1698912Y2595618D01*
D10*
X1709719Y2230381D02*
G01*
X1709719Y2595618D01*
X1414480Y2230381D02*
G01*
X1414480Y2595618D01*
X1709719Y4133014D02*
G01*
X1414480Y4133014D01*
D11*
X1425285Y4373618D02*
G01*
X1414480Y4373618D01*
X1709719Y4373618D02*
G01*
X1698912Y4373618D01*
D10*
X1709719Y4008381D02*
G01*
X1709719Y4373618D01*
X1414480Y4008381D02*
G01*
X1414480Y4373618D01*
X1717309Y4727580D02*
G01*
X1717309Y4599086D01*
X1533890Y4599086D01*
X1533890Y4727580D01*
X1717309Y4822819D02*
G01*
X1717309Y4951313D01*
X1533890Y4951313D01*
X1533890Y4822819D01*
X1527180Y3032490D02*
G01*
X1398686Y3032490D01*
X1398686Y3215909D01*
X1527180Y3215909D01*
X1622419Y3032490D02*
G01*
X1750913Y3032490D01*
X1750913Y3215909D01*
X1622419Y3215909D01*
X1527180Y2778490D02*
G01*
X1398686Y2778490D01*
X1398686Y2961909D01*
X1527180Y2961909D01*
X1622419Y2778490D02*
G01*
X1750913Y2778490D01*
X1750913Y2961909D01*
X1622419Y2961909D01*
X1356090Y1927219D02*
G01*
X1356090Y2055713D01*
X1539509Y2055713D01*
X1539509Y1927219D01*
X1356090Y1831980D02*
G01*
X1356090Y1703486D01*
X1539509Y1703486D01*
X1539509Y1831980D01*
D12*
X1730999Y1307000D02*
G01*
X1730999Y1486999D01*
X1571000Y1309189D02*
G01*
X1571000Y1484810D01*
D13*
X1651000Y1384300D02*
G01*
X1699260Y1432560D01*
X1602739Y1432560D01*
X1648460Y1386839D01*
X1709420Y1374139D02*
G01*
X1597660Y1374139D01*
X1651000Y1336039D02*
G01*
X1651000Y1465579D01*
D12*
X1527799Y1307000D02*
G01*
X1527799Y1486999D01*
X1367800Y1309189D02*
G01*
X1367800Y1484810D01*
D13*
X1447800Y1384300D02*
G01*
X1496060Y1432560D01*
X1399539Y1432560D01*
X1445260Y1386839D01*
X1506220Y1374139D02*
G01*
X1394460Y1374139D01*
X1447800Y1336039D02*
G01*
X1447800Y1465579D01*
D10*
X1559290Y1927219D02*
G01*
X1559290Y2055713D01*
X1742709Y2055713D01*
X1742709Y1927219D01*
X1559290Y1831980D02*
G01*
X1559290Y1703486D01*
X1742709Y1703486D01*
X1742709Y1831980D01*
G75*
G01*
X1715960Y5279880D02*
G02*
X1700720Y5264640I-15240J0D01*
G75*
G01*
X1550480Y5264640D02*
G02*
X1535240Y5279880I0J15240D01*
G75*
G01*
X1715960Y5642120D02*
G03*
X1700720Y5657360I-15240J0D01*
G75*
G01*
X1550480Y5657360D02*
G03*
X1535240Y5642120I0J-15240D01*
M02*
