G04 Layer: TopLayer*
G04 EasyEDA v6.5.34, 2023-08-27 08:43:48*
G04 e4fe155263a340deae7a3384ae965621,d57712b53ce844a48ecc409583de2b89,10*
G04 Gerber Generator version 0.2*
G04 Scale: 100 percent, Rotated: No, Reflected: No *
G04 Dimensions in millimeters *
G04 leading zeros omitted , absolute positions ,4 integer and 5 decimal *
%FSLAX45Y45*%
%MOMM*%

%ADD10C,0.2540*%
%ADD11R,1.7000X1.7000*%
%ADD12C,1.7000*%
%ADD13R,2.4000X1.6000*%
%ADD14O,2.3999952X1.5999968*%
%ADD15C,1.5000*%
%ADD16C,0.6100*%

%LPD*%
D10*
X1279017Y889000D02*
G01*
X1420952Y1030935D01*
X1670100Y1030935D01*
D11*
G01*
X1193800Y6324600D03*
D12*
G01*
X1447800Y6324600D03*
G01*
X1701800Y6324600D03*
G01*
X1955800Y6324600D03*
D13*
G01*
X1905000Y-1587500D03*
D14*
G01*
X1143000Y444500D03*
G01*
X1905000Y-1333500D03*
G01*
X1143000Y190500D03*
G01*
X1905000Y-1079500D03*
G01*
X1143000Y-63500D03*
G01*
X1905000Y-825500D03*
G01*
X1143000Y-317500D03*
G01*
X1905000Y-571500D03*
G01*
X1143000Y-571500D03*
G01*
X1905000Y-317500D03*
G01*
X1143000Y-825500D03*
G01*
X1905000Y-63500D03*
G01*
X1143000Y-1079500D03*
G01*
X1905000Y190500D03*
G01*
X1143000Y-1333500D03*
G01*
X1905000Y444500D03*
G01*
X1143000Y-1587500D03*
D13*
G01*
X1193800Y3365500D03*
D14*
G01*
X1955800Y1333500D03*
G01*
X1193800Y3111500D03*
G01*
X1955800Y1587500D03*
G01*
X1193800Y2857500D03*
G01*
X1955800Y1841500D03*
G01*
X1193800Y2603500D03*
G01*
X1955800Y2095500D03*
G01*
X1193800Y2349500D03*
G01*
X1955800Y2349500D03*
G01*
X1193800Y2095500D03*
G01*
X1955800Y2603500D03*
G01*
X1193800Y1841500D03*
G01*
X1955800Y2857500D03*
G01*
X1193800Y1587500D03*
G01*
X1955800Y3111500D03*
G01*
X1193800Y1333500D03*
G01*
X1955800Y3365500D03*
D13*
G01*
X1193800Y5791200D03*
D14*
G01*
X1955800Y3759200D03*
G01*
X1193800Y5537200D03*
G01*
X1955800Y4013200D03*
G01*
X1193800Y5283200D03*
G01*
X1955800Y4267200D03*
G01*
X1193800Y5029200D03*
G01*
X1955800Y4521200D03*
G01*
X1193800Y4775200D03*
G01*
X1955800Y4775200D03*
G01*
X1193800Y4521200D03*
G01*
X1955800Y5029200D03*
G01*
X1193800Y4267200D03*
G01*
X1955800Y5283200D03*
G01*
X1193800Y4013200D03*
G01*
X1955800Y5537200D03*
G01*
X1193800Y3759200D03*
G01*
X1955800Y5791200D03*
D15*
G01*
X1279017Y889000D03*
G01*
X1769008Y889000D03*
D16*
G01*
X1692325Y4568672D03*
G01*
X1661058Y2382062D03*
G01*
X1770354Y2201976D03*
G01*
X1552092Y1342313D03*
G01*
X1314856Y3013760D03*
G01*
X1536725Y3243453D03*
G01*
X1733727Y3264204D03*
G01*
X1481861Y4152163D03*
G01*
X1462684Y2085517D03*
G01*
X1718386Y4776520D03*
G01*
X1614703Y5006086D03*
G01*
X1732559Y3387877D03*
G01*
X1444218Y147726D03*
G01*
X1670100Y1030935D03*
M02*
