M48
METRIC,LZ,000.000
;FILE_FORMAT=3:3
;TYPE=PLATED
;Layer: PTH_Through
;EasyEDA v6.5.34, 2023-08-27 08:43:48
;90a6fbf4bffc4057ae6bdd16324da943,d57712b53ce844a48ecc409583de2b89,10
;Gerber Generator version 0.2
;Holesize 1 = 0.305 mm
T01C0.305
;Holesize 2 = 0.800 mm
T02C0.800
;Holesize 3 = 1.000 mm
T03C1.000
%
G05
G90
T01
X029277Y047176
X024864Y044434
X029591Y051363
X029575Y049789
X021571Y042999
X027416Y052203
T02
X009141Y083947G85X009147Y083947
X016761Y063627G85X016767Y063627
X009141Y081407G85X009147Y081407
X016761Y066167G85X016767Y066167
X009141Y078867G85X009147Y078867
X016761Y068707G85X016767Y068707
X009141Y076327G85X009147Y076327
X016761Y071247G85X016767Y071247
X009141Y073787G85X009147Y073787
X016761Y073787G85X016767Y073787
X009141Y071247G85X009147Y071247
X016761Y076327G85X016767Y076327
X009141Y068707G85X009147Y068707
X016761Y078867G85X016767Y078867
X009141Y066167G85X009147Y066167
X016761Y081407G85X016767Y081407
X009141Y063627G85X009147Y063627
X016761Y083947G85X016767Y083947
X020571Y083947G85X020577Y083947
X028191Y063627G85X028197Y063627
X020571Y081407G85X020577Y081407
X028191Y066167G85X028197Y066167
X020571Y078867G85X020577Y078867
X028191Y068707G85X028197Y068707
X020571Y076327G85X020577Y076327
X028191Y071247G85X028197Y071247
X020571Y073787G85X020577Y073787
X028191Y073787G85X028197Y073787
X020571Y071247G85X020577Y071247
X028191Y076327G85X028197Y076327
X020571Y068707G85X020577Y068707
X028191Y078867G85X028197Y078867
X020571Y066167G85X020577Y066167
X028191Y081407G85X028197Y081407
X020571Y063627G85X020577Y063627
X028191Y083947G85X028197Y083947
X009268Y060325G85X009274Y060325
X016888Y040005G85X016894Y040005
X009268Y057785G85X009274Y057785
X016888Y042545G85X016894Y042545
X009268Y055245G85X009274Y055245
X016888Y045085G85X016894Y045085
X009268Y052705G85X009274Y052705
X016888Y047625G85X016894Y047625
X009268Y050165G85X009274Y050165
X016888Y050165G85X016894Y050165
X009268Y047625G85X009274Y047625
X016888Y052705G85X016894Y052705
X009268Y045085G85X009274Y045085
X016888Y055245G85X016894Y055245
X009268Y042545G85X009274Y042545
X016888Y057785G85X016894Y057785
X009268Y040005G85X009274Y040005
X016888Y060325G85X016894Y060325
X021844Y053301G85X021844Y053306
X021844Y058200G85X021844Y058205
T03
X020063Y047498G85X020069Y047498
X020063Y044958G85X020069Y044958
X020063Y042418G85X020069Y042418
X020063Y039878G85X020069Y039878
M30
