G04 Layer: BottomSolderMaskLayer*
G04 EasyEDA v6.5.34, 2023-08-27 08:43:48*
G04 90a6fbf4bffc4057ae6bdd16324da943,d57712b53ce844a48ecc409583de2b89,10*
G04 Gerber Generator version 0.2*
G04 Scale: 100 percent, Rotated: No, Reflected: No *
G04 Dimensions in millimeters *
G04 leading zeros omitted , absolute positions ,4 integer and 5 decimal *
%FSLAX45Y45*%
%MOMM*%

%AMMACRO1*1,1,$1,$2,$3*1,1,$1,$4,$5*1,1,$1,0-$2,0-$3*1,1,$1,0-$4,0-$5*20,1,$1,$2,$3,$4,$5,0*20,1,$1,$4,$5,0-$2,0-$3,0*20,1,$1,0-$2,0-$3,0-$4,0-$5,0*20,1,$1,0-$4,0-$5,$2,$3,0*4,1,4,$2,$3,$4,$5,0-$2,0-$3,0-$4,0-$5,$2,$3,0*%
%ADD10MACRO1,0.2032X-0.85X0.85X0.85X0.85*%
%ADD11C,1.9032*%
%ADD12MACRO1,0.2032X-1.2X0.8X1.2X0.8*%
%ADD13O,2.6031952X1.8031968*%
%ADD14C,1.7032*%

%LPD*%
D10*
G01*
X2006601Y4749798D03*
D11*
G01*
X2006600Y4495800D03*
G01*
X2006600Y4241800D03*
G01*
X2006600Y3987800D03*
D12*
G01*
X914400Y8394700D03*
D13*
G01*
X1676400Y6362700D03*
G01*
X914400Y8140700D03*
G01*
X1676400Y6616700D03*
G01*
X914400Y7886700D03*
G01*
X1676400Y6870700D03*
G01*
X914400Y7632700D03*
G01*
X1676400Y7124700D03*
G01*
X914400Y7378700D03*
G01*
X1676400Y7378700D03*
G01*
X914400Y7124700D03*
G01*
X1676400Y7632700D03*
G01*
X914400Y6870700D03*
G01*
X1676400Y7886700D03*
G01*
X914400Y6616700D03*
G01*
X1676400Y8140700D03*
G01*
X914400Y6362700D03*
G01*
X1676400Y8394700D03*
D12*
G01*
X2057400Y8394700D03*
D13*
G01*
X2819400Y6362700D03*
G01*
X2057400Y8140700D03*
G01*
X2819400Y6616700D03*
G01*
X2057400Y7886700D03*
G01*
X2819400Y6870700D03*
G01*
X2057400Y7632700D03*
G01*
X2819400Y7124700D03*
G01*
X2057400Y7378700D03*
G01*
X2819400Y7378700D03*
G01*
X2057400Y7124700D03*
G01*
X2819400Y7632700D03*
G01*
X2057400Y6870700D03*
G01*
X2819400Y7886700D03*
G01*
X2057400Y6616700D03*
G01*
X2819400Y8140700D03*
G01*
X2057400Y6362700D03*
G01*
X2819400Y8394700D03*
D12*
G01*
X927100Y6032500D03*
D13*
G01*
X1689100Y4000500D03*
G01*
X927100Y5778500D03*
G01*
X1689100Y4254500D03*
G01*
X927100Y5524500D03*
G01*
X1689100Y4508500D03*
G01*
X927100Y5270500D03*
G01*
X1689100Y4762500D03*
G01*
X927100Y5016500D03*
G01*
X1689100Y5016500D03*
G01*
X927100Y4762500D03*
G01*
X1689100Y5270500D03*
G01*
X927100Y4508500D03*
G01*
X1689100Y5524500D03*
G01*
X927100Y4254500D03*
G01*
X1689100Y5778500D03*
G01*
X927100Y4000500D03*
G01*
X1689100Y6032500D03*
D14*
G01*
X2184400Y5330291D03*
G01*
X2184400Y5820282D03*
M02*
