G04 Layer: TopLayer*
G04 EasyEDA v6.5.34, 2023-08-27 08:43:48*
G04 90a6fbf4bffc4057ae6bdd16324da943,d57712b53ce844a48ecc409583de2b89,10*
G04 Gerber Generator version 0.2*
G04 Scale: 100 percent, Rotated: No, Reflected: No *
G04 Dimensions in millimeters *
G04 leading zeros omitted , absolute positions ,4 integer and 5 decimal *
%FSLAX45Y45*%
%MOMM*%

%AMMACRO1*21,1,$1,$2,0,0,$3*%
%ADD10C,0.2540*%
%ADD11MACRO1,1.35X1.41X0.0000*%
%ADD12R,1.3500X1.4100*%
%ADD13R,2.3760X1.9000*%
%ADD14R,1.9000X2.3760*%
%ADD15MACRO1,1.377X1.1325X0.0000*%
%ADD16R,1.3770X1.1325*%
%ADD17MACRO1,1.377X1.1325X90.0000*%
%ADD18R,1.1000X1.7000*%
%ADD19R,1.7000X1.7000*%
%ADD20C,1.7000*%
%ADD21R,2.4000X1.6000*%
%ADD22O,2.3999952X1.5999968*%
%ADD23C,1.5000*%
%ADD24C,0.6096*%

%LPD*%
D10*
X2410945Y4463338D02*
G01*
X2466393Y4463338D01*
X2486357Y4443374D01*
X2410945Y4610100D02*
G01*
X2410945Y4463338D01*
X2927708Y4717643D02*
G01*
X2842084Y4803267D01*
X2842084Y4864100D01*
X2946402Y4417999D02*
G01*
X2946402Y4698949D01*
X2927708Y4717643D01*
X2799793Y4864100D02*
G01*
X2840027Y4904333D01*
X2840027Y5322900D01*
X2799793Y4864100D02*
G01*
X2842084Y4864100D01*
X2757502Y4864100D02*
G01*
X2799793Y4864100D01*
X2819402Y8394700D02*
G01*
X2983511Y8230590D01*
X2983511Y7339584D01*
X2914525Y7270597D01*
X2772463Y7270597D01*
X2658290Y7156424D01*
X2658290Y6283274D01*
X2840154Y6101410D01*
X2840154Y5533694D01*
X2863649Y5510199D01*
X2959102Y5510199D02*
G01*
X2863649Y5510199D01*
X2743202Y5322900D02*
G01*
X2840027Y5322900D01*
X2863649Y5510199D02*
G01*
X2863649Y5414746D01*
X2840027Y5391124D01*
X2840027Y5322900D01*
X2959102Y5136286D02*
G01*
X2959102Y5310200D01*
X2541602Y5105400D02*
G01*
X2541602Y5202224D01*
X2057402Y5638800D02*
G01*
X1689102Y5270500D01*
X2057402Y6362700D02*
G01*
X2057402Y5638800D01*
X2057402Y5638800D02*
G01*
X2493977Y5202224D01*
X2541602Y5202224D01*
X2324102Y3960342D02*
G01*
X2177341Y3960342D01*
X2177341Y3960342D02*
G01*
X2076554Y3859555D01*
X1956869Y3859555D01*
X1874852Y3941571D01*
X1874852Y4110050D01*
X2006602Y4241800D01*
X2397483Y3960342D02*
G01*
X2324102Y3960342D01*
X2397483Y3960342D02*
G01*
X2470863Y3960342D01*
X2770659Y4610100D02*
G01*
X2770659Y4463338D01*
X2654302Y4021836D02*
G01*
X2532357Y4021836D01*
X2470863Y3960342D01*
X2654302Y4021836D02*
G01*
X2654302Y4083304D01*
X2654302Y3960342D02*
G01*
X2654302Y4021836D01*
X2770659Y4463338D02*
G01*
X2820748Y4413250D01*
X2820748Y4219016D01*
X2685036Y4083304D01*
X2654302Y4083304D01*
X2338402Y4876800D02*
G01*
X2338402Y4872151D01*
X2338402Y4828387D02*
G01*
X2338402Y4779975D01*
X2338402Y4828387D02*
G01*
X2338402Y4872151D01*
X2006602Y4241800D02*
G01*
X2006602Y4495800D01*
X2338402Y4779975D02*
G01*
X2290777Y4779975D01*
X2006602Y4495800D01*
X927102Y6032500D02*
G01*
X927102Y6140475D01*
X927102Y6140475D02*
G01*
X914402Y6153175D01*
X914402Y6362700D01*
X2957502Y4960924D02*
G01*
X2957502Y4978907D01*
X2957502Y4864100D02*
G01*
X2957502Y4960924D01*
X2177341Y4320057D02*
G01*
X2157148Y4299864D01*
X2324102Y4320057D02*
G01*
X2177341Y4320057D01*
X2626311Y5607507D02*
G01*
X2626311Y5630824D01*
X2585900Y5671235D01*
X2626311Y4197095D02*
G01*
X2626311Y5607507D01*
X2626311Y5607507D02*
G01*
X2743202Y5607507D01*
X2006602Y3987800D02*
G01*
X2214806Y4196003D01*
X2625219Y4196003D01*
X2626311Y4197095D01*
X2626311Y4197095D02*
G01*
X2654302Y4197095D01*
X2654302Y4320057D02*
G01*
X2654302Y4197095D01*
X2585900Y5727700D02*
G01*
X2585900Y5671235D01*
X2743202Y5522899D02*
G01*
X2743202Y5607507D01*
X2946402Y4218000D02*
G01*
X2946402Y4302582D01*
X2925904Y5727700D02*
G01*
X2925904Y5830646D01*
X2925904Y5943600D02*
G01*
X2925904Y5830646D01*
X2925904Y5830646D02*
G01*
X3054708Y5701842D01*
X3054708Y4347463D01*
X3009826Y4302582D01*
X2946402Y4302582D01*
X2925904Y5943600D02*
G01*
X2925904Y6056553D01*
X2925904Y6056553D02*
G01*
X2967992Y6098641D01*
X2967992Y6468110D01*
X2819402Y6616700D01*
X2741602Y5105400D02*
G01*
X2741602Y5220258D01*
X2538402Y4876800D02*
G01*
X2453820Y4876800D01*
X2184402Y5330317D02*
G01*
X2453820Y5060899D01*
X2453820Y4876800D01*
X927102Y5016500D02*
G01*
X755144Y5188457D01*
X755144Y7981442D01*
X914402Y8140700D01*
X2585900Y5943600D02*
G01*
X2585900Y6056553D01*
X2585900Y6056553D02*
G01*
X2148486Y6493967D01*
X1799135Y6493967D01*
X1676402Y6616700D01*
X1689102Y5016500D02*
G01*
X1515798Y5189804D01*
X1515798Y6710095D01*
X1676402Y6870700D01*
X1689102Y4000500D02*
G01*
X1857987Y4169384D01*
X1857987Y4593615D01*
X1689102Y4762500D01*
X1689102Y4508500D02*
G01*
X1464312Y4733289D01*
X1464312Y6858685D01*
X1603326Y6997700D01*
X2438402Y6997700D01*
X2819402Y7378700D01*
X927102Y5524500D02*
G01*
X927102Y5778500D01*
X2057402Y8140700D02*
G01*
X1848030Y7931327D01*
X1848030Y7845501D01*
X1762229Y7759700D01*
X1603275Y7759700D01*
X1308102Y7464526D01*
X1308102Y5143500D01*
X927102Y4762500D01*
D11*
G01*
X2959100Y5510202D03*
D12*
G01*
X2959100Y5310200D03*
D13*
G01*
X2324100Y3960342D03*
G01*
X2324100Y4320057D03*
G01*
X2654300Y3960342D03*
G01*
X2654300Y4320057D03*
D14*
G01*
X2770657Y4610100D03*
G01*
X2410942Y4610100D03*
D15*
G01*
X2946400Y4418004D03*
D16*
G01*
X2946400Y4218000D03*
D15*
G01*
X2743200Y5522904D03*
D16*
G01*
X2743200Y5322900D03*
D17*
G01*
X2957504Y4864100D03*
G01*
X2757495Y4864100D03*
G01*
X2741604Y5105400D03*
G01*
X2541595Y5105400D03*
G01*
X2538404Y4876800D03*
G01*
X2338395Y4876800D03*
D18*
G01*
X2925902Y5943600D03*
G01*
X2585897Y5943600D03*
G01*
X2925902Y5727700D03*
G01*
X2585897Y5727700D03*
D19*
G01*
X2006600Y4749800D03*
D20*
G01*
X2006600Y4495800D03*
G01*
X2006600Y4241800D03*
G01*
X2006600Y3987800D03*
D21*
G01*
X914400Y8394700D03*
D22*
G01*
X1676400Y6362700D03*
G01*
X914400Y8140700D03*
G01*
X1676400Y6616700D03*
G01*
X914400Y7886700D03*
G01*
X1676400Y6870700D03*
G01*
X914400Y7632700D03*
G01*
X1676400Y7124700D03*
G01*
X914400Y7378700D03*
G01*
X1676400Y7378700D03*
G01*
X914400Y7124700D03*
G01*
X1676400Y7632700D03*
G01*
X914400Y6870700D03*
G01*
X1676400Y7886700D03*
G01*
X914400Y6616700D03*
G01*
X1676400Y8140700D03*
G01*
X914400Y6362700D03*
G01*
X1676400Y8394700D03*
D21*
G01*
X2057400Y8394700D03*
D22*
G01*
X2819400Y6362700D03*
G01*
X2057400Y8140700D03*
G01*
X2819400Y6616700D03*
G01*
X2057400Y7886700D03*
G01*
X2819400Y6870700D03*
G01*
X2057400Y7632700D03*
G01*
X2819400Y7124700D03*
G01*
X2057400Y7378700D03*
G01*
X2819400Y7378700D03*
G01*
X2057400Y7124700D03*
G01*
X2819400Y7632700D03*
G01*
X2057400Y6870700D03*
G01*
X2819400Y7886700D03*
G01*
X2057400Y6616700D03*
G01*
X2819400Y8140700D03*
G01*
X2057400Y6362700D03*
G01*
X2819400Y8394700D03*
D21*
G01*
X927100Y6032500D03*
D22*
G01*
X1689100Y4000500D03*
G01*
X927100Y5778500D03*
G01*
X1689100Y4254500D03*
G01*
X927100Y5524500D03*
G01*
X1689100Y4508500D03*
G01*
X927100Y5270500D03*
G01*
X1689100Y4762500D03*
G01*
X927100Y5016500D03*
G01*
X1689100Y5016500D03*
G01*
X927100Y4762500D03*
G01*
X1689100Y5270500D03*
G01*
X927100Y4508500D03*
G01*
X1689100Y5524500D03*
G01*
X927100Y4254500D03*
G01*
X1689100Y5778500D03*
G01*
X927100Y4000500D03*
G01*
X1689100Y6032500D03*
D23*
G01*
X2184400Y5330291D03*
G01*
X2184400Y5820282D03*
D24*
G01*
X2927705Y4717643D03*
G01*
X2486355Y4443374D03*
G01*
X2959100Y5136286D03*
G01*
X2957499Y4978907D03*
G01*
X2157145Y4299864D03*
G01*
X2741599Y5220258D03*
M02*
